/* XPM */
static char *_2174e03b87b41cdac54e29c12e26ea49slsI7ClS8bytmxT[] = {
/* columns rows colors chars-per-pixel */
"55 55 60 1 ",
"  c #48A830",
". c #409838",
"X c #488040",
"o c #306830",
"O c #58B848",
"+ c #80C058",
"@ c #48A038",
"# c #A0D070",
"$ c #307838",
"% c #50B040",
"& c #408838",
"* c #689048",
"= c #68B850",
"- c #58B040",
"; c #407840",
": c #387840",
"> c #407838",
", c #387838",
"< c #60A848",
"1 c #40A040",
"2 c #407038",
"3 c #50A840",
"4 c #70B850",
"5 c #387038",
"6 c #408030",
"7 c #307030",
"8 c #386830",
"9 c #70B058",
"0 c #50A038",
"q c #78B858",
"w c #588850",
"e c #589050",
"r c #68A850",
"t c #905858",
"y c #C88860",
"u c #B86850",
"i c #D08870",
"p c #A86860",
"a c #C88068",
"s c #D89878",
"d c #50A040",
"f c #A8D068",
"g c #E0B890",
"h c #E8C890",
"j c #508058",
"k c #78B830",
"l c #388038",
"z c #A0C838",
"x c #D8F080",
"c c #C8E848",
"v c #B8D810",
"b c #388838",
"n c #70B048",
"m c #A0D058",
"M c #78C050",
"N c #80C050",
"B c #589850",
"V c #78B848",
"C c #A07060",
"Z c white",
/* pixels */
"      ..  ....XoX..OOO+O @@ .+++#+O O...$$Xo.oX..O  .  ",
". . ..X...X....oXX. O#+#+@%. +O#O++O+ .&.*Xoooo....... ",
" ...X.. XoX..Xo.... @=+O+#+  + +++++O.&&XXooooXX.X.X...",
"..XoXXX.X.oX.X. O ..-@%# +@@O  +OO+O..&&Xoo..ooooXXXXXX",
".;X.oXX.X.XXXX..O++O@    @@ .  +O  O.&::$$$$$ooXoXXXXXo",
">>oXooX.XXXXXX,.<O+O@OO@O#O+ 1   ..  .::...$XXXXXo.X..X",
">2ooXooXXoXXXX,...3=4=44##+O @@@1.......$.$$X565XoXXXX.",
"5XoXXoXX5oX,7X....3%OO4=%OO @@@@..... .$$$$Xoo5o5X5o5XX",
"855ooX555oo7.. +O ..33%3. +@@@.@.... + ..XXXooooo5oo555",
"o55XXo55oo.. 9#O +......0. ..  3O ...  .X .$*Xoooo55oo5",
"oo$oXooooX. +O+O++O+.000. . O+O++  .... .   .$Xqoooo55o",
"ooo$oooooo..  @@  ##O+OOO    O+#+OO . $... .$wereoo5ooo",
"ooooooooooo..@@@ +O+O+++ O OOO+#+++O .$X.$..Xwww$oooooo",
"tooooooooooo.@.+O O#++.O+ O+##++##O+O.$X.XX$...X$ooooor",
"ytooootutooo.. ++O@O ++O+O#++O O+O O+ X..X.X.$X$w$oorrr",
"iptotuuuuto..++OO@@@+OO..OO+O...O .   .. .XXX* .w$$$ore",
"yayyyyuuut.....@@@@O++ O.  O.... ... O  ....XX. ...X$er",
"ysyysyuu.. 9.......OO+OOO.......... OO O .X .O ..$X$rrr",
"ysyyy...d<#++# .....+.O..... .. . .O OO .  XX. .XX$$eee",
"ssyys.  O +OO . .. .. .......X...X +O+OO ..X.X.X$$$qqfr",
"sgyssy. OO.O ...XX.. ..X.X..XX.XX.. +OOOOO .XXX.X$rrrre",
"shsgsy.. .  .X..X.X.X .XXXX..XX. . OOOOOOO  ..XX.X$$rjj",
"shsgsyu.XXXO  X.XXXXX .X.X.  . .. .   OO  O.X...  .X$jt",
"shsgssu.XXO ..O X.+ ...... +O .  O. .    ..X. .  .X$$jj",
"shsgss..XX..X + +O+O...  +O++O .O OOO.    X.. O XXX$ejt",
"sgsg... XXXX. +.++O O O.. O O  . .O.  .. ..XX.XXXX$w$$$",
"g....  ...XXX ..O+OO +  XO..O .... X. OOO ..XXXXXX..XX$",
"gX.  ..XX.XXX.. .+  . ..X.XX.XX. .XXX. OO  . XXXX..XX$$",
"syXXX.X...XXXX.X . +OX.XXXXXXX.  ..XXX..X .XXXX ..XX$$o",
"uysXXXXXXXXXX.XX.X... XX.XX.X.OOO...X.XXX.XXXX...X$$$$o",
"uyssXXXXX.XXXXX.XXX .X.XX..   OOO  . XX.XXX .. O..XX$oo",
"uuXXXXX..XXXXXX..XX..XXXX.O OOOO .O  XX..X. .O   ..XX$o",
"tuoXX. .XXXX.X. .XX.XXXX.X. OO . .X .XXX..XX    ..XX$$$",
"XXo. .. .X. X.  . .XXXXXXXX ..X  .X.XX X       ..XXXX$o",
"X.XX. O.O. X O O ..XXXXXXX.X. X.. ...X.. . . .X.XXXXXXX",
"XXX.X.O+. ..X..O .X..XXXXXX.XXXXXXX...X .     ...XX$X$k",
"2XX5l...X. XXX OO ..XXXXXXXXXXXXXXX.X       ....XXXo$Xk",
"55o55X.X X..XX. O O .XX.XX.X.X.XXoX.. ... . .XXXXXXoo$o",
"ooo5o555XXXXX.  O  . ... ...X.. XoXX...  ...XoXXXoX$ooo",
"Xooooo8XoXX.O.X. ...X.  .  .  . .X.o.XXX.XX.XXooXX$o$ok",
"ooo55XX5oXXo.XX.XX.... .      ..  ....XoXXoX.XXXXX$$kkz",
"oo5X2>oooooX.XX.XXX..   . . ..X...X....oXXX..XXXX$kkzxx",
"ooo2o5ool.XX.XXXX.X.X.   ...X.. XoX..XoXX..XXXoXo$kzcvc",
"ooooooo5l.X5X..XXX..X.. ..XoXXX.X.oX.XX.XXXXXX$o$okkzzk",
"roooooo5XXX5oX.X5o.XX.5..;X.oXX.X.XXXXb,XoXX$o$o$$okkkk",
"qqrrqooooXo58XX55ooXl55.>>oXooX.XXXXXX,,,Xo$$o$$o$$okkk",
"reqrrooooo588Xo55oX585oX>2ooXooXXoXXXX,,,oo$o$$oo$ookkz",
"qrereoooooo8>X55o$X58ooo5XoXXoXX5oX,7X,,,$o$o$$ooookkcc",
"rererqfqqoo855ooo$Xo8ooo855ooX555oo7,77Xo$oooo$oo$kkkkk",
"eerjqrqfqroooooooo$oooooo55XXo55oo,,,,$oo$ooooookkzxkkk",
"jerjeqrfqrooooooooooo$$ooo$oXooooXo$$$o$oooookkkccxccxz",
"neeejqrerqrooooeooooooooooo$oooooo$oo$ooooooqkzzvzcvvzk",
"mnjrerqeqfqooqreqooooooooooooooooooooooooooorqkzvvkvzkk",
"MNBrqqqrqfrqrqeeqfroootutooooooooooooooooeooeekkzkzzk0k",
"VmqqrqrrrqrrqrerrfqooooCytooootutooooooorererjqk000vzz0"
};
