/* XPM */
static char *d262ddba430549598d29a81d2d44eeceaxbgtymK8kzDdaHL[] = {
/* columns rows colors chars-per-pixel */
"64 64 5 1 ",
"  c #A36F41",
". c #A56F42",
"X c #A37042",
"o c #A57143",
"O c #A77043",
/* pixels */
"ooo......................oooo...........ooooooooX.oooooooooooooo",
"ooo..................................oooooooooooooooX oooooooo..",
"ooo..................................oooooooooooooooooooooooXo..",
"ooo..................................oooooooooo.ooooooooooooXo..",
"ooo..................................oooooo.ooXXoo  o  ooooooo..",
"ooo..................................ooooooXooXooooooooooooooo..",
"ooo........   .......................oooooooooooooooooooo.......",
"ooo........    ooooooo...............oooooooooooooooooooo.......",
"ooo........    ooooooo...............oooooooooooooooooooo.......",
"ooo........    ooooooo...............ooooooooooooo oooooo.......",
"ooo........    ooooooo...............oooooooooooooooooooo.......",
"o o........    ooooooo...............oooooooooooooooooooo.......",
"oo ....................ooooooooooo...ooooooooooooooooooooooooo..",
"oo ....................ooooooooooo...ooooooooooooooooooooooooo..",
"ooo....................ooooooooooo...ooooooooooooooooooooooooo..",
"ooo....................ooooooooooo...ooooooooooooooooooooooooooo",
"ooo....................ooooooooooo...ooooooooooooooooooooooooooo",
"ooo..................................ooooooooooooooooooooooooooo",
"ooo.........oooooooooo...............ooooooooooooooooooooooooooo",
"ooo.........oooooooooo...............oooooooooooooooooooooo   oo",
"ooo.........oooooooooo...............ooooooooooooooooooooooooooo",
"oooooooooooooooooooooo...............ooooooooooooooooooooooooo o",
"oooooooooooooooooooooo...............ooooooooooooooooooooooooooo",
"oooooooooooooooooooooXooooooooo......ooooooooooooooooooooooooooo",
"ooooooooooooooooooooooooooooooooooooooX ooooo....ooooooooooooooo",
"oooooooooooooooooooooooooooooooooo .ooooooooo....ooooooooooooooo",
"ooooooooooooooooooooooooooooooooooooooooooooo....ooooooooooooooo",
"ooooooooooooooooooooooooooooooooooooooooooooo....ooooooooooooooo",
"ooooooooooooooooooooooooooooooooo  o  ooooooo....ooooooooooooooo",
"ooooooooooXoooooooooooooooooooooooooooooooXoo....oo..ooooooooo..",
"ooooooooooXXooooooooooooooooooooooooooooooXoooooooo..ooooooooo..",
"ooooooooooXXXXoooooooooooooooooooooooooooooooooooooooooooooooo..",
"ooooooooooXXXXoooooooooooooooooooooooooooooooooooooooooooooooo..",
"ooooooooooXXXXoooooooooooooooooooooooooooooooooooooooooooooooo..",
"oooooooooooXXXoooooooooooooooooooooooooooooooooooooooooooooooo..",
"oooooooooooXXXXoo.........ooooooooooo...........................",
"ooooooooooXXXXXoo.........oooooooo.oo...........................",
"ooooooooooXXXXXoo.........ooooooooooo...........................",
"ooooooooooXoooooo.........ooooooooooo...........................",
"ooooooOoooXoooooo.........ooooooooooo...........................",
"ooooooooooXoooooo...............................................",
"oooooooooooooooooooooo..........................................",
"ooooooooooooooooooooXoooo.......................................",
"ooooooooooooooooooooXoooo.......................................",
"ooooooooooooooooooooooooo.......................................",
"ooooooooooooooooooooooooo.......................................",
"ooooooooooo...oooooooooooo...............................   ....",
"ooooooooooo...oooooooooooo........ooooooooooo............   oooo",
"oooooooXooo...oooooooooooo........ooooooooooo............   oooo",
"ooooooXXooo...oooooooooooo........ooooooooooo............   oooo",
"ooo.ooooooo...oooooooooooo........ooooooooooo..........     oooo",
"ooooooooooo...oooooooooooo.......oooooooooooo..........     oooo",
"...............ooooooooooooooooooooooooooooooooo.....o      oo..",
"...............ooooooooooooooooooXoooooooooooooo.....o      oo..",
"...............ooooooooooooooooooXoooooooooooooo.....o  X   oo..",
"...............ooooooooooooooooooXoooooooooooooo.....o  X   oo..",
"...............ooooXoooooooooooooXoooooooooooooo....    X   oo..",
"..........................oooooooXoooooooooooooo.....o  X   oo..",
"ooo.......................ooooo.oooooooooooooooooooooooooooooooo",
"ooo.......................oooooooooooooooooooooooooooooooooooooo",
"ooo.......................oooooooooooooooooooooooooooooooooooooo",
"ooo............ooooooooooooooooooooooooooooooooooooooooooooooooo",
"ooo............ooooooooooooooooooooooooooooooooooooooooooooooooo",
"ooo................oooooooooooooooooooooooooooooooooooXooooooooo"
};
