/* XPM */
static char *_680339a87e548b7e642b13df05f9221UTMRcnKZzJjIcWff[] = {
/* columns rows colors chars-per-pixel */
"90 90 11 1 ",
"  c #A57143",
". c #A77043",
"X c #A56F42",
"o c #A76E42",
"O c #A47042",
"+ c #A46E41",
"@ c #A36F41",
"# c #A87043",
"$ c #A37243",
"% c #A17041",
"& c white",
/* pixels */
"    ..XXooXXXXOOXXXXXXXXooXXXXOOOOOO    ............XXXXOOOOOOOOOOOOOOOOOOOOOOOOOOOO      ",
"  OOXXXXXXXXXXXXXXXXXXXXXXXXXXXXXXXXXXXXXXXXXXXXXXXXOOOOOOOOOOOOOOOOOOOOOOOOOOOOOOOOOOOOXX",
"  OOXXXXXXXXXXXXXXXXXXXXXXXXXXXXXXXXXXXXXXXXXXXXXXXXOOOOOOOOOOOOOOOOOOOOOOOOOOOOOOOOOOOOXX",
"  OOXX++++++++++++++XXXXXXXXXXXXXXXXXXXXXXXXXXXXXXXXOOOOOOOOOOOOOOOOOOOOOOOOOOOOOOOOOOOOXX",
"  OOXX++++++++++++++XXXXXXXXXXXXXXXXXXXXXXXXXXXXXXXXOOOOOOOOOOOOOOOOOOOOOOOOOOOOOOOOOOOOXX",
"  OOXX++++++++++++++XXXXXXXXXXXXXXXXXXXXXXXXXXXXXXXXOOOOOOOOOOOOOOOOOOOOOOOOOOOOOOOOOOOOXX",
"  OOXX++++++++++++++XXXXXXXXXXXXXXXXXXXXXXXXXXXXXXXXOOOOOOOOOOOOOOOOOOOOOOOOOOOOOOOOOOOOXX",
"  OOXX++++++++++++++XXXXXXXXXXXXXXXXXXXXXXXXXXXXXXXXOOOOOOOOOOOOOOOOOOOOOOOOOOOOOOOOOOOOXX",
"  OOXX++++++++++++++XXXXXXXXXXXXXXXXXXXXXXXXXXXXXXXXOOOOOOOOOOOOOOOOOOOOOOOOOOOOOOOOOOOXXX",
"OOOO++++++++++++@@@@OOOOOOOOOOOOXXXXXXXXXXXXXXXXXXXXOOOOOOOOOOOOOOOOOOOOOOOOOOOOXXXXXXXXoo",
"OOOO++++++++++++@@@@OOOOOOOOOOOOXXXXXXXXXXXXXXXXXXXXOOOOOOOOOOOOOOOOOOOOOOOOOOOOXXXXXXXXoo",
"OOOO++++++++++++@@@@OOOOOOOOOOOOXXXXXXXXXXXXXXXXXXXXOOOOOOOOOOOOOOOOOOOOOOOOOOOOXXXXXXXXoo",
"OOOO++++++++++++@@@@OOOOOOOOOOOOXXXXXXXXXXXXXXXXXXXXOOOOOOOOOOOOOOOOOOOOOOOOOOOOXXXXXXXXoo",
"OOOO++++++++++++@@@@OOOOOOOOOOOOXXXXXXXXXXXXXXXXXXXXOOOOOOOOOOOOOOOOOOOOOOOOOOOOXXXXXXXXXX",
"OOOO++++++++++++@@@@OOOOOOOOOOOOXXXXXXXXXXXXXXXXXXXXOOOOOOOOOOOOOOOOOOOOOOOOOOOOXXXXXXXXXX",
"OOOO++++++++++++@@@@OOOOOOOOOOOOXXXXXXXXXXXXXXXXXXXXOOOOOOOOOOOOOOOOOOOOOOOOOOOOXXXXXXXXXX",
"OOOO++++++++++++@@@@OOOOOOOOOOOOXXXXXXXXXXXXXXXXXXXXOOOOOOOOOOOOOOOOOOOOOOOOOOOOXXXXXXXXXX",
"OOOO++++++++++++++++XXXXXXXXXXXXOOOOOOOOOOOOOOOOXXXX                                OOOOXX",
"OOOO++++++++++++++++XXXXXXXXXXXXOOOOOOOOOOOOOOOOXXXX                                OOOOXX",
"OOOO++++++++++++++++XXXXXXXXXXXXOOOOOOOOOOOOOOOOXXXX                                OOOOXX",
"OOOO++++++++++++++++XXXXXXXXXXXXOOOOOOOOOOOOOOOOXXXX                                OOOOXX",
"OOOOXXXXXXXXXXXXXXXXXXXXXXXXXXXXOOOOOOOOOOOOOOOOXXXX                                OOOOOO",
"OOOOXXXXXXXXXXXXXXXXXXXXXXXXXXXXOOOOOOOOOOOOOOOOXXXX                                OOOOOO",
"OOOOXXXXXXXXXXXXXXXXXXXXXXXXXXXXOOOOOOOOOOOOOOOOXXXX                                OOOOOO",
"OOOOXXXXXXXXXXXXXXXXXXXXXXXXXXXXOOOOOOOOOOOOOOOOXXXX                                OOOOOO",
"OOOOXXXXXXXXXXXXOOOOOOOOOOOOOOOOXXXXXXXXXXXXXXXXXXXX                                OOOOOO",
"OOOOXXXXXXXXXXXXOOOOOOOOOOOOOOOOXXXXXXXXXXXXXXXXXXXX                                OOOOOO",
"OOOOXXXXXXXXXXXXOOOOOOOOOOOOOOOOXXXXXXXXXXXXXXXXXXXX                                OOOOOO",
"OOOOXXXXXXXXXXXXOOOOOOOOOOOOOOOOXXXXXXXXXXXXXXXXXXXX                                OOOOOO",
"OOOO............    OOOOOOOOOOOOXXXXXXXXXXXXXXXXXXXX                    ..          OOOOOO",
"OOOO............    OOOOOOOOOOOOXXXXXXXXXXXXXXXXXXXX                    ..          OOOOOO",
"OOOO............    OOOOOOOOOOOOXXXXXXXXXXXXXXXXXXXX                    ..          OOOOOO",
"OOOO............    OOOOOOOOOOOOXXXXXXXXXXXXXXXXXXXX                    ..          OOOOOO",
"OOOO            ....    OOOOOOOO            OOOOOOOOOOOOOOOOOOOOXXXX..........      OOOOOO",
"OOOO            ....    OOOOOOOO            OOOOOOOOOOOOOOOOOOOOXXXX..........      OOOOOO",
"OOOO            ....    OOOOOOOO            OOOOOOOOOOOOOOOOOOOOXXXX..........      OOOOOO",
"OOOO            ....    OOOOOOOO            OOOOOOOOOOOOOOOOOOOOXXXX..........      OOOOOO",
"OOOO            ....    OOOOOOOO            OOOOOOOOOOOOOOOOOOOOXXXX....##....      OOOOOO",
"OOOO            ....    OOOOOOOO            OOOOOOOOOOOOOOOOOOOOXXXX....##....      OOOOOO",
"OOOO                    OOOOOOOO            OOOOOOOOOOOOOOOOOOOOXXXX..........      OOOOOO",
"OOOO                    OOOOOOOO            OOOOOOOOOOOOOOOOOOOOXXXX..........      OOOOOO",
"..........    $$        OOOOOOOO            OOOOOOOOOOOOOOOOOOOOOOOOOOOOXXOOOOOOOOOOOOOOXX",
"..........    $$        OOOOOOOO            OOOOOOOOOOOOOOOOOOOOOOOOOOOOXXOOOOOOOOOOOOOOXX",
"..........    $$$$$$    OOOOOOOO            OOOOOOOOOOOOOOOOOOOOOOOOOOOOOOOOOOOOOOOOOOOOXX",
"..........    $$$$$$    OOOOOOOO            OOOOOOOOOOOOOOOOOOOOOOOOOOOOOOOOOOOOOOOOOOOOXX",
"..........    $$$$$$    OOOOOOOO....        OOOOOOOOOOOOOOOOOOOOOOOOOOOOOOOOOOOOOOOOOOOOXX",
"..........    $$$$$$    OOOOOOOO....        OOOOOOOOOOOOOOOOOOOOOOOOOOOOOOOOOOOOOOOOOOOOXX",
"..........    $$$$$$    OOOOOOOO....        OOOOOOOOOOOOOOOOOOOOOOOOOOOOOOOOOOOOOOOOOOOOXX",
"..........    $$$$$$    OOOOOOOO....        OOOOOOOOOOOOOOOOOOOOOOOOOOOOOOOOOOOOOOOOOOOOXX",
"..........    $$$$$$OOOOXXXXXXXXXXXX................XXXXXXXXXXXXXXXXXXXXXXXXXXXXXXXXXXXXXX",
"..........    $$$$$$OOOOXXXXXXXXXXXX................XXXXXXXXXXXXXXXXXXXXXXXXXXXXXXXXXXXXXX",
"..........    $$$$$$OOOOXXXXXXXXXXXX................XXXXXXXXXXXXXXXXXXXXXXXXXXXXXXXXXXXXXX",
"..........    $$$$$$OOOOXXXXXXXXXXXX................XXXXXXXXXXXXXXXXXXXXXXXXXXXXXXXXXXXXXX",
"..........    $$    OOOOXXXXXXXXoooo................XXXXXXXXXXXXXXXXXXXXXXXXXXXXXXXXXXXXXX",
"..........    $$    OOOOXXXXXXXXoooo................XXXXXXXXXXXXXXXXXXXXXXXXXXXXXXXXXXXXXX",
"..........    $$    OOOOXXXXXXXXXXXX................XXXXXXXXXXXXXXXXXXXXXXXXXXXXXXXXXXXXXX",
"..........    $$    OOOOXXXXXXXXXXXX................XXXXXXXXXXXXXXXXXXXXXXXXXXXXXXXXXXXXXX",
"OOOO                OOOOOOOOOOOOXXXXXXXXXXXXXXXXXXXXXXXXXXXXXXXXXXXXXXXXXXXXXXXXXXXXXXXXXX",
"OOOO                OOOOOOOOOOOOXXXXXXXXXXXXXXXXXXXXXXXXXXXXXXXXXXXXXXXXXXXXXXXXXXXXXXXXXX",
"OOOO                OOOOOOOOOOOOOOOOXXXXXXXXXXXXXXXXXXXXXXXXXXXXXXXXXXXXXXXXXXXXXXXXXXXXXX",
"OOOO                OOOOOOOOOOOOOOOOXXXXXXXXXXXXXXXXXXXXXXXXXXXXXXXXXXXXXXXXXXXXXXXXXXXXXX",
"OOOO            ....OOOOOOOOOOOOOOOOXXXXXXXXXXXXXXXXXXXXXXXXXXXXXXXXXXXXXXXXXXXXXXXXXXXXXX",
"OOOO            ....OOOOOOOOOOOOOOOOXXXXXXXXXXXXXXXXXXXXXXXXXXXXXXXXXXXXXXXXXXXXXXXXXXXXXX",
"OOOO            ....OOOOOOOOOOOOOOOOXXXXXXXXXXXXXXXXXXXXXXXXXXXXXXXXXXXXXXXXXXXXXXXXXXXXXX",
"OOOO            ....OOOOOOOOOOOOOOOOXXXXXXXXXXXXXXXXXXXXXXXXXXXXXXXXXXXXXXXXXXXXXXXXXXXXXX",
"OOOOOOOOOOOOOOOOXXXX                XXXXXXXXXXXXOOOOOOOOOOOOOOOOXXXXXXXXXXXX++++@@@@OOOOOO",
"OOOOOOOOOOOOOOOOXXXX                XXXXXXXXXXXXOOOOOOOOOOOOOOOOXXXXXXXXXXXX++++@@@@OOOOOO",
"OOOOOOOOOOOOOOOOXXXX                XXXXXXXXXXXXOOOOOOOOOOOOOOOOXXXXXXXXXXXX++++@@@@OOOOOO",
"OOOOOOOOOOOOOOOOXXXX                XXXXXXXXXXXXOOOOOOOOOOOOOOOOXXXXXXXXXXXX++++@@@@OOOOOO",
"OOOOOOOOOOOOOOOOXXXX                XXXXXXXXXXXXOOOOOOOOOOOOOOOOXXXXXXXXXXXX++++@@@@OOOOOO",
"OOOOOOOOOOOOOOOOXXXX                XXXXXXXXXXXXOOOOOOOOOOOOOOOOXXXXXXXXXXXX++++@@@@OOOOOO",
"OOOOOOOOOOOOOOOOXXXX                XXXXXXXXXXOOOOOOOOOOOOOOOOOOXXXXXXXXXXXX++@@@@@@OOOOOO",
"OOOOOOOOOOOOOOOOXXXX                XXXXXXXXXXOOOOOOOOOOOOOOOOOOXXXXXXXXXXXX++@@@@@@OOOOOO",
"XXXXXXXXXXXXXXXXXXXXOOOOOOOOOOOOOOOO......              ............XXXXXXOO@@@@@@@@OOOOXX",
"XXXXXXXXXXXXXXXXXXXXOOOOOOOOOOOOOOOO......              ............XXXXXXOO@@@@@@@@OOOOXX",
"XXXXXXXXXXXXXXXXXXXXOOOOOOOOOOOOOOOO......    $$        ............XXXXXXOO@@%%@@@@OOOOXX",
"XXXXXXXXXXXXXXXXXXXXOOOOOOOOOOOOOOOO......    $$        ............XXXXXXOO@@%%@@@@OOOOXX",
"XXXXXXXXXXXXXXXXXXXXOOOOOOOOOOOOOOOO......    $$        ............XXXXXXOO@@%%@@@@OOOOXX",
"XXXXXXXXXXXXXXXXXXXXOOOOOOOOOOOOOOOO......    $$        ............XXXXXXOO@@%%@@@@OOOOXX",
"XXXXXXXXXXXXXXXXXXXXOOOOOOOOOOOOOOOO......    $$        ............XXXXXXOO@@%%@@@@OOOOXX",
"XXXXXXXXXXXXXXXXXXXXOOOOOOOOOOOOOOOO......    $$        ............XXXXXXOO@@%%@@@@OOOOXX",
"OOOOXXXXXXXXXXXXXXXXXXXXXXXXXXXXXXXXOOOOOOOOOOOOOOOO                OOOOOOOOOOOOOOOOOOOOOO",
"OOOOXXXXXXXXXXXXXXXXXXXXXXXXXXXXXXXXOOOOOOOOOOOOOOOO                OOOOOOOOOOOOOOOOOOOOOO",
"OOOOXXXXXXXXXXXXXXXXXXXXXXXXXXXXXXXXOOOOOOOOOOOOOOOO                OOOOOOOOOOOOOOOOOOOOOO",
"OOOOXXXXXXXXXXXXXXXXXXXXXXXXXXXXXXXXOOOOOOOOOOOOOOOO                OOOOOOOOOOOOOOOOOOOOOO",
"OOOOXXXXXXXXXXXXXXXX................OOOOOOOOOOOOOOOO                OOOOOOOOOOOOOOOO      ",
"OOOOXXXXXXXXXXXXXXXX................OOOOOOOOOOOOOOOO                OOOOOOOOOOOOOOOO      ",
"OOOOXXXXXXXXXXXXXXXX..........      OOOOOOOOOOOOOOOO                OOOOOOOOOOOOOOOO      ",
"OOOOXXXXXXXXXXXXXXXX..........      OOOOOOOOOOOOOOOO                OOOOOOOOOOOOOOOO      ",
"OOOOXXXXXXXXXXXXXXXXXXXXXXOOOOOOOOOOOOOOOOOOOOOOOOOOOOOOOOOOOOOOOOOOOOOOOOOOOOOOOOOO      "
};
