/* XPM */
static char *_22ff438764b4d96c44199f53297c810otEUWRji1gczCbpS[] = {
/* columns rows colors chars-per-pixel */
"64 64 254 2 ",
"   c #383838",
".  c #5E351F",
"X  c #3D501C",
"o  c #3C4A2F",
"O  c #4B4C18",
"+  c #6A510C",
"@  c #654817",
"#  c #6D5919",
"$  c #74581B",
"%  c #7A6319",
"&  c #4E512E",
"*  c #4B593C",
"=  c #6D4D2D",
"-  c #785828",
";  c #785A38",
":  c #546829",
">  c #596E2B",
",  c #566638",
"<  c #5C7432",
"1  c #637630",
"2  c #667A38",
"3  c #323A46",
"4  c #38445A",
"5  c #364C6C",
"6  c #4C4F42",
"7  c #545E44",
"8  c #575755",
"9  c #6A5C4E",
"0  c #546243",
"q  c #586747",
"w  c #5A6649",
"e  c #5D6B4C",
"r  c #5E754B",
"t  c #5F685B",
"y  c #626D4D",
"u  c #6B684B",
"i  c #776B49",
"p  c #65754B",
"a  c #62794E",
"s  c #686B56",
"d  c #756C58",
"f  c #657353",
"g  c #687657",
"h  c #657B53",
"j  c #6A7C55",
"k  c #6D7D5B",
"l  c #77785B",
"z  c #4B5870",
"x  c #5D6675",
"c  c #686864",
"v  c #716E66",
"b  c #727D62",
"n  c #787769",
"m  c #777773",
"M  c #7C7D7A",
"N  c #8B382A",
"B  c #923C32",
"V  c #A83530",
"C  c #876E1A",
"Z  c #845A29",
"A  c #90502D",
"S  c #974635",
"D  c #9A4636",
"F  c #9A4938",
"G  c #875937",
"H  c #A34D3B",
"J  c #A5513E",
"K  c #876528",
"L  c #8C7323",
"P  c #8A732B",
"I  c #917624",
"U  c #957B25",
"Y  c #997D29",
"T  c #886637",
"R  c #966A32",
"E  c #9D7232",
"W  c #977C37",
"Q  c #A57837",
"!  c #B17335",
"~  c #C1403E",
"^  c #865B44",
"/  c #955643",
"(  c #A04647",
")  c #AB5846",
"_  c #AC5946",
"`  c #B15B4A",
"'  c #876749",
"]  c #85765A",
"[  c #947050",
"{  c #A87A48",
"}  c #B57E42",
"|  c #AF6A53",
" . c #847B64",
".. c #897C68",
"X. c #8D7A6C",
"o. c #B17466",
"O. c #CA6E61",
"+. c #67832C",
"@. c #6C833A",
"#. c #738C39",
"$. c #78933A",
"%. c #6F8340",
"&. c #788A48",
"*. c #7C9445",
"=. c #6D825A",
"-. c #6A8659",
";. c #7C8857",
":. c #72825D",
">. c #758562",
",. c #7A8664",
"<. c #738A63",
"1. c #758F66",
"2. c #7A8A65",
"3. c #758B69",
"4. c #7A8E6D",
"5. c #7D8975",
"6. c #7E9171",
"7. c #7E9971",
"8. c #9E8128",
"9. c #9D8334",
"0. c #A8892D",
"q. c #A38233",
"w. c #A88937",
"e. c #B18D3B",
"r. c #B6973A",
"t. c #C2913F",
"y. c #839846",
"u. c #808057",
"i. c #879A55",
"p. c #AE8F4E",
"a. c #BA8642",
"s. c #AD9445",
"d. c #B49946",
"f. c #8AA54B",
"g. c #8CA556",
"h. c #92A956",
"j. c #98B359",
"k. c #BEA34B",
"l. c #87866A",
"z. c #8B846C",
"x. c #93876D",
"c. c #878673",
"v. c #8C8A75",
"b. c #83827C",
"n. c #8B8B7A",
"m. c #938C74",
"M. c #978E78",
"N. c #839275",
"B. c #879977",
"V. c #869478",
"C. c #8A957B",
"Z. c #8B9D7D",
"A. c #999477",
"S. c #93937D",
"D. c #9B937C",
"F. c #AB8972",
"G. c #A2957A",
"H. c #95A665",
"J. c #92AA6E",
"K. c #ABB370",
"L. c #A8B777",
"P. c #C79055",
"I. c #C7A852",
"U. c #D4B457",
"Y. c #C38876",
"T. c #B0C776",
"R. c #5B6F8C",
"E. c #848581",
"W. c #888883",
"Q. c #8A8B86",
"!. c #8C8D8A",
"~. c #948E86",
"^. c #8E9688",
"/. c #949482",
"(. c #9C9A84",
"). c #959588",
"_. c #9C9D8B",
"`. c #979895",
"'. c #9A9B95",
"]. c #A39C84",
"[. c #A49B88",
"{. c #AC9C8E",
"}. c #97A588",
"|. c #9AA394",
" X c #A8A28A",
".X c #ABA58B",
"XX c #B4A78D",
"oX c #B5B987",
"OX c #A9A796",
"+X c #B2AC94",
"@X c #B4AB9B",
"#X c #AFB396",
"$X c #B9B39A",
"%X c #A8AAA5",
"&X c #B1AFA8",
"*X c #B9B6A5",
"=X c #B3B3AD",
"-X c #B4B6B1",
";X c #B7B8B2",
":X c #BABBB4",
">X c #BBBEB9",
",X c #C59C83",
"<X c #C4B28B",
"1X c #C3B79A",
"2X c #CCBD9C",
"3X c #C4BBA3",
"4X c #C4BBA6",
"5X c #CABDA4",
"6X c #C9BDB3",
"7X c #BCC588",
"8X c #BDC1BC",
"9X c #C7CD91",
"0X c #C7C598",
"qX c #CDC2A7",
"wX c #D2C4A5",
"eX c #DECBA3",
"rX c #D3C6AA",
"tX c #D6C9AC",
"yX c #D9CAAC",
"uX c #D2D7A6",
"iX c #C3C2BD",
"pX c #D6CBB2",
"aX c #DACEB3",
"sX c #D6CCB8",
"dX c #DCD1B6",
"fX c #DBD7B6",
"gX c #DDD3BB",
"hX c #E2CEAF",
"jX c #E3D5B4",
"kX c #E1D6BD",
"lX c #E4D9BD",
"zX c #E9DBBE",
"xX c #DAE5A6",
"cX c #C6C8C5",
"vX c #DAD4C4",
"bX c #D5D6D4",
"nX c #E1D6C1",
"mX c #E4DAC3",
"MX c #EADDC3",
"NX c #E5DDCA",
"BX c #E9DECA",
"VX c #E2DED2",
"CX c #EDE1C5",
"ZX c #EEE3CC",
"AX c #F1E5CC",
"SX c #F3E8CF",
"DX c #ECE4D2",
"FX c #ECE6D8",
"GX c #F1E7D2",
"HX c #F4EAD4",
"JX c #F7EEDA",
"KX c #F9F1DC",
"LX c #FCF6E4",
"PX c #FDFCF1",
/* pixels */
"U.U.I.U.d.U.I.I.I.p.d.[ d.W d.P d.T d.' r.9.I L I U Y Y Y Y U Y Y U q.U q.I Y Y w.Y w.I 0.I 0.q.0.q.Y U K I C Y % Y @ Y @ I # K ",
"s.U.k.U.k.U.k.I.I.d.d.[ d.W s.P s.P d.' r.9.w.L 9.Y q.8.Y Y Y U q.Y q.I q.I Y U w.Y w.I w.Y 0.Y 0.q.8.U K U C I $ U + Y # U L % ",
"9.U.I.U.d.U.k.I.d.d.d.w.d.Y s.T s.W d.9.s.w.s.w.Y Y q.q.Y Y Y Y Y Y I U Y I q.Y q.U q.I 0.I 0.Y 0.Y 8.U I I C I $ I # Y $ Y L L ",
"9.w.d.U.d.I.d.p.d.s.s.w.d.i s.9 s.P s.Y s.[ e.W w.U I U U Y I L Y I L L U U I L Q I Y L 0.L Y I W U I L C L = L @ L + L + I K U ",
"9.W 9.d.d.p.p.F.{ p.{ { { E { *XS..X+X+X+X.X+XOX+X.Xv.v.z.z.M.m.z.z.m.M.M.z.z.v.M.m.v.m.M.M.v d = Z T Z Z Z Z G P P L P L L P L ",
"9.r.9.r.d.gXmXmXmXsX{ P.P.D.pXlXgXgXgXlXmXlXlXdXgXgXpX$X1X$X1X3X3X$X1X3X3X1X$X$X1XqX$XqXqX3XqX3X.X].' Z } { $X1X1X$X+X# $ L % L ",
"q.r.9.r.3XCXlXmXMXsX4X{ [.3XdXlXfXdXgX_._.#X#Xn c.c.c.z.d d d d n n l d l s s s  .x.x. . .$X1X$X+X].v.l ; $X$X1X1X+X+X[.O L % I ",
"q.r.9. X$Xn.OX*XOXgX4X(..X*X4X+X$XS.v./.D.D.(.D.D.D. X X(. .n.v.z.c.z.z.v.z... . .] ] ] d d l m.c.(.S.n D.+X .z.S.c.+X(.s # % I ",
"e.r.W [./.n n _./.OXOX+XOX$Xn.(.G.D..X.X#X#XOX XOXA.+X+X+X}.] F.D.D.H z.' S.v.m.m.M.m.x.z.x.z.z. .d m.s D.m.d n M v ).c.z.# % I ",
"e.r.W n 9 n /.z.#XOX/. X X(.]. X.X].o.| O.*X*X#XOXD..X+X+XM.]...o.o.A.F.(././.n.v.v.x.| / [ m.D.A.z.n d m n n./.z./.v.v.z.# # U ",
"q.e.W  . .z.M._.(..X[.+X XD.+X X.XG.O.XX$X$X$X#X X]. X.X[.F.XX| A.m.V A.D.v.v.S./.S.v.` [ M.x.A.l.A. .d d v.D.(./.m.x.] v.# # U ",
"9.e.W ....z.l.(.].A.D.D.].m..X.X+XF.].Y.+XXX+X.X+X.X X.X| G.~  X].] G.x.m.A.v.v.S.v.M.x...X.M.l.x.m.l.n ] ..A.D.A.D.A.x...# # U ",
"G [ [ v.(.A.] G.A.m.M.(.]. .+X$X*X3X$XO.O.XX+X.X.X+X X X.X$X*X*X$X Xz.x.A.A.x.m.(.m.S.G.` ) u m.A.z.n n ......m.A.D.(.(.x.= @ Z ",
"} P.p.c.S.(.G.A.A.]._.c.].D.].OXOX X_.n.c.v.M.v.z.n.n.c.n.v.n.v.c.v.n v d d d s s l v n s n l.l.z. .v n C.(.A.x.A.D._._.m.Z A ! ",
"P.P.{ c././.D.G...m._.c.l.D.S.(.S.D. XuXHXKXKXKXLXJXKXAXZXGXGXCXMXgX3X3XXX1XXX1XaXdXqXgXgXz.l.l.n n n v n.D.x...i D._.C.m.Z A ! ",
"a.P.{ n )./.A.A.x.m.k Z.}.j Z.&.xXxXH.uXzXKXPXLXLXPXSXjXPXGXjXHX1XHXaXMXZXaXgX$XkX0XtXgXnXpXaXrX-.4.o b :.u x.A.A.A._.v.S.Z R ! ",
"! P.{ m /.(.D.A.N.Z.B.>.4.2.:.L.7XlXKXlXuXKXAXjXeXlXJX4XHXKXMXMXdXMXCXGXGXMX1XrXvXgXkXgXDXNXgXgXN.3.V.V.o h >.7 D.] S.(./.Z A ! ",
"a.P.{ n C.D.6.B.}.h N.h w e =.T.g.9XuXJXzXSXKXSXjXdXqXLXlXpXHXHXlXzXCXJXJXHXDXNXsXgXgXgXgXnXtX1XN.y 7 6.<.6.0 k h y (._./.Z R ! ",
"} } p.n >.B.B.k 2.:.w 0 >.2.a i.f.T.uXuX9X9XAXCXCXHXzXzXHXCXAXzXzXZXJXMXZXMXDXFXaXaXaXaXpXgXmXaXN.e f & y N.4.N.e h g S.M.Z A ! ",
"a.P.] 7.B.k 2.>.e w j 2.=.=.j @.h.g.T.7XL.L.fXCXHXSXjXzXzXZXLXCXMXMXZXZXMXkXZXGXkXpXaXnXaXgXDXgXN.f g e N.o j N.6.6.w k y - R ! ",
"l B.^.f :.k e 0 e 4.:.2.=.2.j f.+.$.h.H.oX9XSXzXzXzXMXzXlXCXCXjXjXMXlXlXlXlXZXkXmXkXpXtXaXtXaXtX-.e f k N.b 4.f q 3.6.N.e k g W ",
"7.y <.,.y 0 f :.:.:.:.:.=.>.j *.f.@.f.@.0XCXGXKXCXzXHXMXlXZXAXGXJXZXCXlXZXMXMXmXGXCXMXaX2XwXwX7X<.w y q N.* h k 4.j 0 6.4.V.e k ",
">.h w w f h :.2.>.j :.:.:.:.j %.g.f.f.#.f.L.xXHXCXzXHXzXzXGXKXGXZXZXMXlXMXZXkXlX7X9X0X9XwXg.L.+.<.7 e e N.w 3.h N.V.N.r 0 6.<.b ",
":.* w k 2.:.2.2.,.>.k k <.2.k 0X1 @.K.L.g.g.JXHXzXMXAXjXZXJXKXZXHXJXHXMXMXHXmXlX0XL.j.#.*.oXL.K.4.0 f f 4.s l.0 4.4.V.6.V.j * V.",
"e , >.>.2.a :.:.>.j :.:.:.=.k #.2 j.@.*.#.l.qXlXzXHXKXLXAXAXGXlXlXAXZXZXMXMXkXlX7XL.g.A.y.oX$.$.<.f f f >.b N.=.N.V.V.-.4.6.<.r ",
">.0 k >.2.a k 2.,.p >.>.>.k :.2 i.oX9XoXoXuXoXgXGXAXAXMXmXBXnXgX3XpXpXdXZXZXDXmXH.T.@.*.y.$.i.j.3.f y 0 <.k N.a V.V.C.-.4.C.N.<.",
">.0 ,.g b b k 2.F ; =.k f 0 a K.4XaXgXFXoXgX2XrXvXHXHXHXAXkXMXMXZXzXMXzXMXjXmXkXmXH.f.$.g.f.H.#.3.f g & -.k N.r V.4.5.5.2.V.N.<.",
">.0 F S ] a k ' F h , j & :.a NXgXaXgXtXwXgXgXaXgXaXaXlXjXMXZXAXGXGXMXjXzXmXCXGXlX9XT.f.i.&.T.#.4.* -.N.0 >.N.h V.3.C.-.) l.V.<.",
",.e F D 2.k ' S 7 k & 2.>.* a gXgXaXgXmXNXnXNXaXgXgXNXGXMXpXJXMXMXMXpXqX5XkXDXMXmXsXi.$.2 j.K.f.4.0 =.V.-.6.g k N.N.C.) ) 3.V.4.",
"2.f D D 2.^ S y e k :.0 w j a gXNXaXgXtXpXgXaXaXgXaXDXgXMXGXZXlXMXHXgXjXmXyXyXmX9XL.7X$.f.@.&.j.6.g f 0 =.V.=.6.g N.C.) ) <.V.4.",
"2.k F ^ / u 0 >.:.7 0 k =.k j rX3XpXwX5X$XXXrXgXgXaXkXgXwXmXHXDXaXgXzXZXMXMXCXjXaXh.K.oX2 2 u.h.4.w y g =.0 g N.>.<.i ` N.4.N.6.",
">.l S N f k >.y 0 :.=.,.j >.j tXaX3X$X$XwXaXtXaXaXwXNXnXtXaXlXjXyXwXyXyXyXdXaXyXdXj.f.H.*.+.J.h.<.e f g N.k >.y 3.N.H l.b 6.4.V.",
">.u B F k y w S i =.=.=.j :.h aXmXgXmXkXgXmXgXaXaXkXFXNXtXgXaXdXjXlXyXyXrXtXgXyXoX0Xh.@.$.j.;.L.<.g g e N.k N.k f s ) 4.b V.k 4.",
"r f ' B 0 e 2.N D / G j k 2.h tXkXmXgXdXrXmXmXgXaXBXmXNXmXNXNXrXpXMXaXaXpXaXtXqXNXqXy.f.*.y.f.0X<.e j g N.b N.>.f _ H y 3.N.g 4.",
"j w = y :.,.^ D S F S S j 2.h nXNXnXwXwXaXmXgXaXmXtXkXwXdXNXkXgXDXmXx 5 z wXaXkXZXaXg.p h.@.2 #.-.y f e N.b N.g y ` l.V.j y -.N.",
"w = S >.k S . . i l G S i ,.a rXpX2XtXwXrXwXqXqX.X1XXX3XwXtXrXaXdX2Xz 4 z 4 aXaXaXwXkXkXXX1 #.x.-.f j g N.>.6.q F ` 4.4.N.V.f e ",
">.i S l D i , D j >.h F ' b =.dX5XgXgXkXDXwXpXdXmXdXqXwXNXnXtXtXtXOX4 6   R.mXBXDXDXgXaXtXrXtXqX-.7 f g 6.b 6.n N X.=.4.V.5.4.N.",
"2.G S D 2.k ^ ^ * :.h G l b =.aXwX0X1XyXrXaXaXtXaXtXwXaXtXkXgXwX3XmX8 2XhXvXkXaXmXnXtXyXrXaXrX2X-.f y q 6.b C.J H k j 4.X.4.C.N.",
"2.S D j 2.k F ,.o g k G ,.,.k DXkXDXgXaXrX3XgXnXtXtX+X@X.X1XgXgXwX@Xx ,X5 gXnXnXtXwXtXgXrXtX0XnXV.y j g 6.,.C.) ' h / H H 2.C.N.",
"2.B F k 2.l F h * :.k A f 0 k 3X1X$XrX2XqXqXXXXXgXgX4X5XaXgXsXnXdXdXR.R.R.R.mXvXwXrX5XNX*XgXNXgXN.e 6.f 6.r ` J 6.) ) ) ` l V.N.",
"F B F k 2.F :.f >.e k = l 2.a tX1X2XpX2XrX3X1X$X3X5XgXaXwXtXwXwXgXNXX.n 3 gXaXwXZXqXqXgXgXnXpXtXN.f V.>.6.g _ ) _ H v.N._ [ N.4.",
"/ S D >.2.F >.:.j 7 =.>.= 0 j tXaXrX2X1X3X5X5X2X5XqXrXpXrXgXmXpXkXDX*X    gXvXgXgXsXkX3XXXmXvXwX-.w y =.6.J ) H _ V.k V._ _ N.6.",
">.^ D >.D l.0 e f :.* 0 u >.j mXmXpXgXwXwXgXgXqXaX2XrX1XaXgXmXtXgXaXv v 9 {.NXdXNXqX+X$XsX.X2XtX-.7 y * e J _ e 6.e 4.V.l._ 4.V.",
">.u D l N f k >.* 0 i :.:.:.j gXaX2XrXwXaXrXnXgX5X5X1XrXgXaXmXnXgXnXgX].].(.A.rXaXaXyXtXrXaXwXdX<.w y f c.H F >.V.w 3.h 6._ 6.3.",
"2.y N B >.>.g w >.k =.h >.>.j <XnXnXaX2XaXgXaXaXNXNXaXtXaXgXnXNXmXNXvXgXgXrXqXgXaXaXtXaXwXgXwXtXN.0 f f [ J C.e * 4.N.e 6.J v.6.",
"0 j ' F g 0 w :.>.' :.:.j :.k 5.:X'.sXgXtX2X<X2X1X1X2XgXvXwXwX2XwXtXtXpX2X2XwXtXgXnXrXgXpX%X%X:X<.f f q | u N.k N.4.k ^.G.H Z.N.",
"e r f N y a :.2.,.p e y :.k k >X>XiX-X>XOX&X'.sXqXwXtXwXaXtXaXaXaXK.2XNXNXvXVXrXOX'.'.=X;X>X8XiX<.0 e 0 N.k N.h }.}.}.j y | }.=.",
"2.& u S b b k k ,.h o b k k a -X%X'.-XcX&X;X:X>X@XcX:X:X@X:X;X%XOX%X:X-XcX-X-X8X'.=X=X;X>X:X:X8X3.* e w <.k N.a }.^.^.^.}.` ) 6.",
"w N ,.^ b b k 2.,.h w h k >.a @X-X=X:X'.>X>X>X6X:X_.>X>X:X>X>X%X;X=X:X;X@X:X>X>X;X;XcX>X'.:X>X8X3.* e g <.k N.-.V.Z.^.|.}.o.` * ",
"D = ,.:.2.a =.<.2.f * & >.p h -X:X:X>X>X=X%XOXOXcXW.:X>X&X=X{.W.cX;X:X:X%X%X'.).iX&X:X=XOX=XOXOX4.6.* 4.p k V.h V.N.OXZ.B.Z._ ; ",
"' e >.:.2.k :.j 2.s ~ O.2.<.= - R ; &X=X>X:X-X>X:X%X>X=X>X>X&X%X:X:X>XcX>X^.{.>X:X%X>X-X+X; K E - f V.V.f 3.b k N.N.}.B.Z.7.}.r ",
":.g >.:.2.2.:.w :.w B o.; - - - K E e.Q Q K T ] [.iXbXiXiX>X:X%XiX8XcXiXbX%XD.] - Z - Q R E Q E Q - - f 3.4.g N.N.^.}.}.Z.7.Z.B.",
"2.k :.>.2.y :.y >.k V ( ; @ G - G K Q E Q E w.E e.Q t.Q e.Q E Q T Q - Q - Q - { Z Q ; Q T Q E E Q K . @ s g 4.4.b <.}.}.Z.Z.Z.N.",
">.f :.e :.e 2.2.w m X.N X.u @ O @ - E Q a.Q a.E a.E a.E Q Q R Q G Q = { . } . { - Q Z E R R $ @ -  .!.m !.v s b B.Z.>.2.B.Z.B.^.",
">.w =.e >.k 7 m W.!.W.W.b.!.W.!.m & @ @ $ Z Q { a.} P.} e.Q E Q T Q - Q = Q = Q = Z @ $ - i !.`.%X;X>X-XW.E.!.v m 3.^.^.>.N.6.B.",
":.e 2.>.7 m !.m M E.W.W.W.!.W.b.!.v W.W.W.Q.] - K T K $ @ @ @ @ @ @ @ @ @ K - - i E.!.!.%X>X>X>X'.%X=X-X;X`.M W.~.M t Z.B.}.1.k ",
",.a 7 8 !.!.!.E.'.b.m E.!.b.!.X.W.m E.m !.!.>X6X-X=X:X'.%X|.'.'.!.).'.m '.=X:X>X;X;X%XOX'.>X>X>X-X:X;XiXX.>XE.!.~.'.E.c M B.6.4.",
"e : 2 8 m v W.OXW.!.!.!.5.m `.W.!.!.!.!.W.b.%XOX8X>X:XcX{.%XiX@X8X-X>X^.~.=X>X;X8X=X-X>XOX%XcXiXcX!.:X:X-X%X>XE.'.'.m E.&.@., /.",
"%.%.p : O M c M M !.!.n.!.W.E.!.8 v `.~.!.!.!.'.&X>X:XbX-X>X:X>X;XcX-X:X:X:X@X*X:X>XcXbXbXQ.:X@X:X%X>X>X:X>X;X&Xm W.c > &.2 < > ",
"p : : O > @.w v 8 m !.b.!.W.!.!.W.b.`.b.W.E.M m `.bXbXbXcXiX>X>X:X8XcXcXbXbX=X|.'.=X>X-X>X>X-X:X:X:X;X>X&X:XE.%Xb.y.H.2 y.2 y.< ",
"&.> > @.X < 2 : 8 M 8 8 !.b. .!.W.W.!.W.Q.!.m W.W.`.8X:X=XiX'.&X&X:X&X>X:X8X~.%XOX:X%X>X:XcX).=X{.>X=X%Xm '.m H.j.f.< %.&.&.2 2 ",
"2 1 : O 2 < : 2 p p * c m c m c W.W.!.!.!.W.!.`.!.W.!.>X>X:X>X>X:X:X>X>X>X>X;XcX-X:X>X8X>X%X>X>X'.5.E.|.M h.*.y.i.@.i.< N.e 2 2 ",
"< > O < p X ;.: : & : > , c m d c 8 m E.m !.!.m W.!.n 5.m !.!.W.W.W.E.X.E.W.!.!.W.W.!.5.5.m 8 c v t y ;.i.< @.< 2 %.^.5.5.7 6 2 ",
"2 < 2 : O 2 > &.: & ;.: : l v.[.n c 8 m 8 c c c M m E.W.!.W.!.W.Q.W.W.W.W.E.M M v c c c m v c n j A.;.;.&.1 > &.> < 7 n.b b 6 q "
};
