/* XPM */
static char *_d29302878734649b752af03c57dac25tuoVBX90nnWkoeWR[] = {
/* columns rows colors chars-per-pixel */
"70 70 200 2 ",
"   c None",
".  c #270706",
"X  c #350D0D",
"o  c #300405",
"O  c #311210",
"+  c #373737",
"@  c #4C0C0C",
"#  c #43090D",
"$  c #560C0C",
"%  c #55120D",
"&  c #6D0E0E",
"*  c #770E0E",
"=  c #600F12",
"-  c #6D1314",
";  c #691216",
":  c #721313",
">  c #7C1515",
",  c #7A1B1A",
"<  c #6D1C22",
"1  c #5A393A",
"2  c #792728",
"3  c #693C3E",
"4  c #7D3435",
"5  c gray37",
"6  c #7A4244",
"7  c #66585A",
"8  c #7C5F5F",
"9  c #696969",
"0  c #7B6462",
"q  c #726968",
"w  c #747474",
"e  c #7C7C7C",
"r  c #890E0F",
"t  c #950E0F",
"y  c #8F0F11",
"u  c #8E1D1C",
"i  c #861716",
"p  c #9C1515",
"a  c #941B1C",
"s  c #9B1A1B",
"d  c #951616",
"f  c #A41516",
"g  c #AC1616",
"h  c #AD1719",
"j  c #A31C1C",
"k  c #AD1C1C",
"l  c #A61919",
"z  c #B21616",
"x  c #B11D1D",
"c  c #B4181C",
"v  c #89241F",
"b  c #AC211F",
"n  c #B2201F",
"m  c #881F23",
"M  c #941E21",
"N  c #AE1F21",
"B  c #A71E20",
"V  c #862021",
"C  c #962323",
"Z  c #9C2424",
"A  c #9E2D34",
"S  c #863534",
"D  c #903035",
"F  c #A52625",
"G  c #AD2323",
"H  c #AB2925",
"J  c #A92A2A",
"K  c #B6292B",
"L  c #B22121",
"P  c #A92F31",
"I  c #A43535",
"U  c #AD3535",
"Y  c #AB3839",
"T  c #B23435",
"R  c #B3393D",
"E  c #BA3939",
"W  c #9D3F41",
"Q  c #974B4C",
"!  c #804E50",
"~  c #895D5C",
"^  c #AC4244",
"/  c #A54B4B",
"(  c #AE4845",
")  c #BB4141",
"_  c #BA4B4C",
"`  c #B84848",
"'  c #AD504C",
"]  c #A84F52",
"[  c #B24D50",
"{  c #A35D5B",
"}  c #A35450",
"|  c #BE5253",
" . c #BD5D5B",
".. c #8E6061",
"X. c #8E726F",
"o. c #8C7E7E",
"O. c #897A75",
"+. c #997D7D",
"@. c #A76566",
"#. c #BA6969",
"$. c #A47D7C",
"%. c #BF7C7E",
"&. c #C14A46",
"*. c #C25D5B",
"=. c #C15356",
"-. c #C4666B",
";. c #C86869",
":. c #C06C70",
">. c #C8787A",
",. c #D47C7A",
"<. c #B8807F",
"1. c #A67F86",
"2. c #848485",
"3. c #8B8B8B",
"4. c #888888",
"5. c #9A8481",
"6. c #949494",
"7. c #9C9494",
"8. c #9B9A9A",
"9. c #959898",
"0. c #A88788",
"q. c #B28181",
"w. c #A29492",
"e. c #B69897",
"r. c #AB9CA1",
"t. c #A4A4A4",
"y. c #AAAAAA",
"u. c #AFB5B4",
"i. c #B3B2B3",
"p. c #BCBCBC",
"a. c #B6B7B6",
"s. c #CC8989",
"d. c #CB8283",
"f. c #D38485",
"g. c #D38A8A",
"h. c #D48886",
"j. c #C89698",
"k. c #DA9291",
"l. c #D29899",
"z. c #D69898",
"x. c #D9A19C",
"c. c #CAA2A3",
"v. c #DFA5A4",
"b. c #D3AFB2",
"n. c #DCB4B3",
"m. c #E2AEAE",
"M. c #E3BABA",
"N. c #E4B8B7",
"B. c #F3BABB",
"V. c #E4C0B9",
"C. c #C0BFC0",
"Z. c #D6BFC0",
"A. c #F6BFC1",
"S. c #BEC2C1",
"D. c #C4C4C4",
"F. c #C9C7C8",
"G. c #CBCBCB",
"H. c #C8C7C7",
"J. c #D0CFCF",
"K. c #D0D0CF",
"L. c #D4D4D4",
"P. c #DCD2D3",
"I. c #DBDBDB",
"U. c #D4D6D8",
"Y. c #E6C4C5",
"T. c #E8C7C8",
"R. c #F2CDCE",
"E. c #EBD4D5",
"W. c #EDD6D8",
"Q. c #EFDAD9",
"!. c #F7D3D3",
"~. c #F3D9D6",
"^. c #F0D7D9",
"/. c #F2DDDD",
"(. c #FADCDC",
"). c #F9E2DF",
"_. c #F2E0DE",
"`. c #DFDFE0",
"'. c #E0DFE0",
"]. c #DCE0E0",
"[. c #E3E3E3",
"{. c #E5EBEA",
"}. c #ECECEC",
"|. c #EFE8E5",
" X c #F2E4E3",
".X c #F3EDEE",
"XX c #FCEDEE",
"oX c #F6E6E5",
"OX c #FCF2EF",
"+X c #FDEFF0",
"@X c #EBF1F2",
"#X c #F4F4F4",
"$X c #FAF4F5",
"%X c #F6F9F7",
"&X c #F8F7F8",
"*X c #F7F9FA",
"=X c #FFFFFF",
"-X c #FDFFFE",
";X c #FAFAFA",
":X c #F7F7F8",
/* pixels */
"                                                                                                                                            ",
"                                                                  - p X                                                                     ",
"                                                              m a l k s j j                                                                 ",
"                                                          C k j k x x x x k j Z                                                             ",
"                                                      ; a k x x x x x x x x x k N j @                                                       ",
"                                                    s s l x x x x x x x x x x x x l i d u                                                   ",
"                                                l k x x x x x x x x x x x x x x x x x x j > m                                               ",
"                                            ; > k x x x x x x x x x x x x x x x x x x x x x k b                                             ",
"                                          a j x x x x x x x x x x x x x x x x x x x x x x x x x C 1 1 <                                     ",
"                                      n b x x x x x x x x x x x x x x x x x x x x x x x k k x P { q.[ c                                     ",
"                                  @ s c x x x x x x x x x x x x x x x x x x x x x x x k k k U @.+.A l x k & $                               ",
"                              - > k x x x x x x x x x x x x x x x x x x x x x x x x x x G Y 5.0 : l x k x k H / 0.o.                        ",
"                            B k x x x x x x x x x x x x x x x x x x x x x x x x x x x h ^ w.7 2 k x k x x H { 5.D $ o                       ",
"                          k k k x x x x x x x x x x x x x x x x x x x x x x x x x x x j Q e.( g x x x k H $.0 % s x j C                     ",
"                    . i x x x x x x x x x x x x x x x x x x x x x k h k x x x x x x x h k J G x x k h I O.O.Q k x x x x k H                 ",
"                # = s k x x x x x x x x x x x x x x x x x x x k x i $ M N x x x x x x x x x x x x x * 3 r.' k x x x x x x x s X             ",
"              V a j k x x x x x x x x x x x x x x x x x x x x k & ..P.W.:.j k x x x x x x x x x x k @.1.R L x x x x x x x x k s : @         ",
"            k j k x x x x x x x x x x x x x x x x x x x k k p i e.[.=X=X|.l.F g x x x x x x x x x k T R x x x x x x x x x x x x l a a       ",
"          k k x x x x x x x x x x x x x x x x x x x x x x f ^ b.#X=X$X!.XX#Xn.` g x x x x x x x x x x x x x x x x x x x x x x x t W b.|.    ",
"      O y z c x x x x x x x x x x x x x x x x x x x x k h -.Y.=X=X=X+XB.(.=X$XY.;.l k x x x x x x x x x x x x x x x x c x z G @.j.Z.}.:X    ",
"    2.7.j.@., f x x x x x x x x x x x x x x x x x x h K f./.=XoXOX;X$XA.oX^.h././.d.H g x x x x x x x x x x x x x x x h r / v.P.[.{.        ",
"    y.=X*XG.w.s.} v g z x x x x x x x x x x x x x x ) k.$X=X_.x.~.=XXXB.(.M.P N.=X$Xl.) h x x x x x x x x x x x x g T >.q.w.u.{.            ",
"          }.=X{.u.0.>. .Y l h x x x x x x x x c x a <.;X=X=XY.[ Y.=X!.,.M.~.s.W.=X=X=XN.=.x x x x x x x x x x h u / l.}.-Xp.                ",
"              t.].@XD.G.c.-.*.U f h x x x x x l a ~ p.=X=X=XE.>.E.~.,.F z.=X=X=X=X=X=X=X^.;.K h x x x x h y I #.X.p.#X}.[.[.                ",
"                    + G.:X}.#Xj.] | Z d k x x Z ! P.=X=X=X=X=X=X=Xz.G _ z.Q.=X=X=X=X=X=X=X&Xf.T x x p F | 6 o.I.;X{.[.#X{.[.                ",
"                      #XK.a.}.=X;XI.0 4 ) P I %.&X=X=X=X=X=X;XXXR.g.#.oXg.*.R.$X=X=X=X=X=X=X=Xl.Z E S 8 L.*XS.4.[.=X;X&X{.[.                ",
"                      ;X;X:X}.:XU.6.I.;XI.7.D.=X=X#X#X=X=X-X Xk.&.h.-X=X/.k.` m.$X=X=X=X;X}.=Xy.7 G.;XH.5 D.=X:X;X;X;X;X{.'.                ",
"                      &X;X:X}.#X;X:X;XD.9.[.=X;X{.6.y.=X;X=XV.` M.-X-X=X=X;X).>.j.:X=X=XU.2.G.;XI.q i.;X#X:X#X{.:X;X;X&X[.I.                ",
"                      &X;X:X}.#X;X;X;X:X#X*X=XH.9 D.;X:XI.U.[..X&X;X=X=X=X;X;X$Xa.4.[.=X;X{.w 3.:X}.#X;X;X;X}.[.:X;X;X:XL.D.                ",
"                      ;X;X:X}.#X;X;X;X;X;X;X=XL.4.H.U.H.I.#X=X;XG.C.I.:XG.i.`.*X:X}.;X6.w U.H.U.;X;X;X;X;X;X}.[.:X;X;X:Xa.                  ",
"                      ;X;X:X}.#X;X;X{.}.;X;X=XU.6.H.[.[.{.;XG.9 H.:X:X=X:X}.:X#XU.H.[.U.H.I.L.[.;X;X;X;X;X;X{.I.#X;X;X;X                    ",
"                      ;X;X;X:X:X;X;X{.}.;X;X=XI.t.G.[.{.}.#X{.G.}.=X{.6.w 8.#X;X}.[.{.[.[.I.L.[.;X;X;X;X;X;X[.U.#X;X;X;X                    ",
"                      ;X;X;X;X;X;X;X}.#X;X;X=X[.i.G.[.{.}.#X:X=X;X;X#XG.D.L.:X;X:X#X}.[.[.I.L.[.;X;X;X;X;X;X[.U.#X;X;X;X                    ",
"                      =XI.H.}.;X;X;X}.#X;X;X=X[.p.L.[.{.}.#X:X;X;X;X;X=X=X=X;X;X:X#X}.[.Q.I.L.[.;X;X;X;X;X;X[.L.#X;X;X;X                    ",
"                      =X[.L.#X;X;X;X}.#X;X;X;X{.G.U.[.{.}.#X:X;X;X;X;X;X;X;X;X;X:X#X{.[.I.I.U.[.:X;X;X;X;X;X{.I.#X;X;X;X                    ",
"                      a.L.;X;X;X;X;X}.#X;X;X;X}.L.I.[.{.}.#X:X;X;X;X;X;X;X;X;X;X:X#X{.[.I.I.I.{.:X#X:X;X;X;X}.[.:X;X;X;X                    ",
"                      t.H.;X;X;X;X&X}.#X;X;X;X}.U.I.[.{.}.#X:X;X;X;X;X;X;X;X;X;X:X#X{.[.I.I.I.{.:X{.#X;X;X;X#X}.:X;X&X;X                    ",
"                      :X;X;X;X;X;X;X#X:X;X;X;X}.I.I.[.{.}.#X:X;X;X;X;X;X;X;X;X;X:X#X{.[.[.I.G.Q.:X}.#X;X;X;X:X#X;X:X:X;X                    ",
"                      {.;X;X;X;X;X;X;X;X;X;X;X.XI.I.[.{.}.#X:X;X;X;X;X;X;X;X;X;X:X#X}.[.[.I.a.G.:X:X:X;X;X;X;X;X;X:X:X:X                    ",
"                    e [.=X;X;X;X;X;X;X;X;X;X;X#XI.I.[.{.}.#X:X;X;X;X;X;X;X;X;X;X:X#X{.[.[.U.y.p.;X;X;X;X;X;X;X;X;X;X;X:Xi.                  ",
"                    4.I.=X;X;X;X:X}.:X;X;X;X;X}.I.I.[.{.}.#X:X;X;X;X;X;X;X;X;X;X:X#X{.[.[.U.8.i.;X;X;X;X;X;X;X:X;X;X;X;X:X:X                ",
"                    4.I.=X;X;X=XU.6.U.=X;X;X;X}.I.I.[.{.}.#X:X;X;X;X;X;X;X;X;X;X:X#X{.[.[.U.6.y.;X;X;X;X;X;X;X:X;X;X;X;X;X#X                ",
"                    8.I.=X;X;X;X}.U.}.;X;X;X;X}.I.I.[.{.}.#X:X;X;X;X;X;X;X;X;X;X:X#X{.[.[.U.4.t.;X;X:X;X;X;X;X;X;X;X;X;X;XL.6.              ",
"                    p.[.;X;X;X;X:X#X:X;X;X;X;X}.U.I.[.{.}.#X:X;X;X;X;X;X;X;X;X;X:X#X{.[.[.U.7.i.;X;X;X;X;X;X;X;X;X;X;X;X;X#X}.              ",
"                    U.}.;X;X;X;X;X;X;X;X;X;X;X#XI.I.[.{.}.#X:X;X;X;X;X;X;X;X;X;X:X#X{.[.[.U.y.p.;X;X;X:X;X;X;X;X;X;X;X:X;X;X;X              ",
"                    [.#X;X;X;XU.G.:X;X;X;X;X;X}.U.I.[.{.}.#X:X;X;X;X;X;X;X;X;X;X:X#X{.[.'.U.i.G.;X;X;X;X;X;X;X;X;X;X}.L.}.;X;X;X            ",
"                    #X:X;X;X;X{.[.;X;X;X;X;X;X}.I.I.[.{.}.#X:X;X;X;X;X;X;X;X;X;X:X#X{.[.[.I.p.L.;X;X;X;X:X[.[.;X;X=XI.t.I.=X;X;X            ",
"                    ;X;X;X;X;X;X;X;X;X;X;X;X;X}.I.I.[.{.}.#X:X;X;X;X;X;X;X;X;X;X:X#X{.[.[.I.H.I.;X:X:X;X:Xi.p.;X;X;X}.L.{.;X;X;XH.          ",
"                  [.;X:X:X;X;X;X;X;X;X;X;X;X;X}.I.I.[.{.}.#X:X;X;X;X;X;X;X;X;X;X:X#X{.[.'.I.G.I.;X:X:X;X:Xa.D.;X;X;X;X;X;X;X;X;X'.F.        ",
"                [.{.;X:X:X;X;X;X;X:X;X;X;X;X;X}.I.I.[.{.}.#X:X;X;X;X;X;X;X;X;X;X:X#X{.[.[.I.L.[.;X;X;X;X:X[.{.;X;X;X;X;X[.{.;X;X;X=X        ",
"                [.;X;X;X;X;X;X;X;X;X;X;X;X;X;X}.U.I.[.{.}.#X:X;X;X;X;X;X;X;X;X;X:X#X{.[.[.I.L.'.;X;X;X;X;X;X;X;X;X;X;X:X[.{.;X;X;X{.        ",
"              i.I.;X;X;X:X:X;X;X;X;X;X;X;X;X;X}.I.I.[.{.}.#X:X;X;X;X;X;X;X;X;X;X:X#X{.[.'.I.G.I.;X;X;X;X;X;X;X;X;X;X;X;X;X[.U.#X=X[.a.      ",
"              :X;X;X;X;X:X#X;X;X;X;X;X;X;X;X;X}.U.I.[.{.}.#X:X;X;X;X;X;X;X;X;X;X:X#X{.[.[.I.D.U.;X;X;X;X;X;X;X;X;X;X;X;X=XG.y.{.=X;X;X      ",
"            a.}.;X;X;X;X:X}.:X;X;X:X;X;X;X;X;X}.U.I.[.{.}.#X:X;X;X;X;X;X;X;X;X;X:X#X{.[.[.I.i.H.;X;X;X:X{.:X;X;X;X;X;X;X;X;X;X;X;X;X:XU.D.  ",
"            ;X;X;X;X;X;X#X}.:X;X:X}.:X;X;X;X;X[.p.L.[.{.}.#X:X;X;X;X;X;X;X;X;X;X:X#X{.[.[.U.8.a.;X;X=XI.t.I.=X;X;X;X;X;X;X;X;X;X;X;X;X#X}.  ",
"        :X:X;X;X;X;X;X;X:X:X;X;X[.p.[.;X;X;X=XI.8.H.[.{.}.#X:X;X;X;X;X;X;X;X;X;X:X#X{.[.[.U.4.t.;X;X=XI.y.[.=X;X;X;X;X;X;X;X;X;X;X:X}.      ",
"      :X;X;X;X;X;X;X;X;X;X;X;X=XI.y.I.=X;X;X=XI.6.H.[.{.}.#X:X;X;X;X;X;X;X;X;X;X:X#X}.[.[.U.8.i.;X;X;X:X#X:X;X;X;X;X;X;X;X;X;X;X;XI.e       ",
"    t.#X;X;X;X;X;X;X:XG.L.;X;X;X:X}.:X;X;X;X=XI.8.H.[.{.}.#X:X;X;X;X;X;X;X;X;X;X:X#X{.[.[.U.8.i.;X;X;X;X;X;X;X;X;X;X;X;X;X;X;X:XH.8.        ",
"    a.:X;X;X;X;X;X;X#Xt.a.;X;X;X;X;X;X;X;X;X=X[.a.L.[.{.{.}.#X:X;X;X;X;X;X;X;X;X:X#X{.[.[.U.8.i.;X;X;X;X:X;X;X;X;X;X;X;X;X;X;X#XI.          ",
"      L.}.;X;X;X;X;X#X8.i.;X;X;X;X;X;X;X;X;X;X}.J.                G.F..X;X;X;X;X:X#X{.[.[.U.3.y.;X;X;X;X;X;X;X;X;X;X;X;X=XL.6.              ",
"          :X:X;X;X;X:XI.[.;X;X;X;X:XL.I.;X;X;X}.G.                      #X#X;X;X:X#X{.[.[.I.a.G.;X;X;X;X;X;X;X;X;X=X[.y.                    ",
"                  ;X;X=X;X;X;X;X;X:X[.[.;X;X=X[.i.                                          [.}.;X;X;X;X;X;X;X&X:X                          ",
"                      #X:X;X;X;X;X;X;X;X;X;X=XI.6.                                          ;X;X;X;X;X;X;XG.G.                              ",
"                        :X;X;X;X;X;X;X{.I.#X=XI.2.                                          &X;X;X;XU.p.G.                                  ",
"                          I.:X;X;X;X;X[.L.#X=X[.                                            :X&X;X;XG.y.8.                                  ",
"                          y.}.=X;X;X;X;X;X;X;X#X                                            :X:X;X;X{.I.                                    ",
"                            ;X[.[.;X;X;X;X;X;X;X                                            :X:X;X;Xi.                                      ",
"                                8.#X;X;X;X;X}.[.                                                                                            ",
"                                                                                                                                            ",
"                                                                                                                                            "
};
