/* XPM */
static char *_5bd51c09b5142b4f28ff5e167791414TPqoZpVnTswEkgBq[] = {
/* columns rows colors chars-per-pixel */
"64 64 214 2 ",
"   c #743726",
".  c #643735",
"X  c #7B3936",
"o  c #6E422A",
"O  c #7D462C",
"+  c #7E5655",
"@  c #8C1B18",
"#  c #9A1B1A",
"$  c #A21C1C",
"%  c #AD1D1C",
"&  c #B11D1D",
"*  c #82201B",
"=  c #92221E",
"-  c #9C221E",
";  c #AE211F",
":  c #A31F20",
">  c #AC1F20",
",  c #832B20",
"<  c #9B2A2A",
"1  c #9C3425",
"2  c #993B2C",
"3  c #9A2F30",
"4  c #873030",
"5  c #9C3934",
"6  c #AE2424",
"7  c #A52F26",
"8  c #AD2C2C",
"9  c #A72827",
"0  c #B22223",
"q  c #B42D2E",
"w  c #B12827",
"e  c #A53A2A",
"r  c #AA3D2C",
"t  c #AB3127",
"y  c #A03B3A",
"u  c #B23233",
"i  c #B53B3B",
"p  c #BA3639",
"a  c #8E492F",
"s  c #84412B",
"d  c #92472F",
"f  c #8B4A32",
"g  c #8F5333",
"h  c #895835",
"j  c #9E5236",
"k  c #955737",
"l  c #964538",
"z  c #A2472F",
"x  c #A54C33",
"c  c #A34731",
"v  c #A45B3A",
"b  c #A55638",
"n  c #94623B",
"m  c #9A663D",
"M  c #A3653E",
"N  c #A06A3F",
"B  c #8A5D43",
"V  c #895351",
"C  c #9D5D5C",
"Z  c #93494A",
"A  c #A44D4E",
"S  c #A94546",
"D  c #B44546",
"F  c #B94A4A",
"G  c #BE4345",
"H  c #A94C50",
"J  c #AA5554",
"K  c #A95E5C",
"L  c #B95656",
"P  c #8C6542",
"I  c #9D6C42",
"U  c #986B47",
"Y  c #9C724C",
"T  c #9A605F",
"R  c #9B7757",
"E  c #A56F42",
"W  c #A57042",
"Q  c #A5744A",
"!  c #A9764B",
"~  c #AA784D",
"^  c #A87347",
"/  c #A86656",
"(  c #A27652",
")  c #A67953",
"_  c #AB7B52",
"`  c #A57E5C",
"'  c #A87F5D",
"]  c #976765",
"[  c #907862",
"{  c #917B71",
"}  c #B46D6D",
"|  c #A07F61",
" . c #A66C70",
".. c #B57474",
"X. c #BE7C7D",
"o. c #AB7071",
"O. c #C46666",
"+. c #D0797B",
"@. c #AD815C",
"#. c #A58164",
"$. c #AF896A",
"%. c #A3856B",
"&. c #B48D6B",
"*. c #B68D68",
"=. c #B8916C",
"-. c #AD8E71",
";. c #B08F73",
":. c #AD927A",
">. c #B39175",
",. c #BC997A",
"<. c #B7967A",
"1. c #C09D7F",
"2. c #9A9A9A",
"3. c #AF8889",
"4. c #AD8380",
"5. c #B38886",
"6. c #AC9B8D",
"7. c #BB9E84",
"8. c #B59E8B",
"9. c #B89A9B",
"0. c #BEA38A",
"q. c #BEA085",
"w. c #B4A195",
"e. c #A4A4A4",
"r. c #ACABAB",
"t. c #ABA7A5",
"y. c #BFAFA2",
"u. c #BFB2A7",
"i. c #B5B5B5",
"p. c #BBBBBB",
"a. c #BDB6B2",
"s. c #CD8484",
"d. c #C28686",
"f. c #D28F8F",
"g. c #D58789",
"h. c #C09D80",
"j. c #CC9496",
"k. c #C89F9E",
"l. c #D69999",
"z. c #DB9E9D",
"x. c #D69695",
"c. c #C4A286",
"v. c #C3A58B",
"b. c #C8A98E",
"n. c #C4AB96",
"m. c #CAAD94",
"M. c #C5AE9D",
"N. c #C8B19D",
"B. c #C4A7A3",
"V. c #D6A2A4",
"C. c #DBA4A4",
"Z. c #D7A4A8",
"A. c #CAB3A1",
"S. c #CBB3AE",
"D. c #CDBCAE",
"F. c #C3B1A1",
"G. c #D1BAA8",
"H. c #C2BDBB",
"J. c #C9B6B3",
"K. c #D7BBBA",
"L. c #E4BBBC",
"P. c #EBBDBC",
"I. c #E3A7A5",
"U. c #CEC1B6",
"Y. c #C6C2BE",
"T. c #CBC2BA",
"R. c #DAC7B7",
"E. c #D3C5BB",
"W. c #D6C9BD",
"Q. c #D9C7B8",
"!. c #C2BFC0",
"~. c #BFC1C1",
"^. c #C4C5C4",
"/. c #CBCACB",
"(. c #CFC8C1",
"). c #DBCEC3",
"_. c #D1CBC6",
"`. c #DAD2CB",
"'. c #D5D5D5",
"]. c #D9D4D2",
"[. c #DBD8D6",
"{. c #DCDCDC",
"}. c #EAC9C7",
"|. c #EACBCB",
" X c #E9C4C2",
".X c #E0D2C5",
"XX c #E4D4CC",
"oX c #EDD4D4",
"OX c #E4DBD4",
"+X c #E3DEDC",
"@X c #EDDADB",
"#X c #E7D8D4",
"$X c #F1DBDA",
"%X c #F4D7D8",
"&X c #F6C8C9",
"*X c #E9E2DC",
"=X c #E7E2DD",
"-X c #E4E4E4",
";X c #E9E5E3",
":X c #ECEBEB",
">X c #E9E8E7",
",X c #F4E6E4",
"<X c #F0EAE6",
"1X c #F2EEED",
"2X c #F9EDED",
"3X c #F8E7E8",
"4X c #F2F0EE",
"5X c #EFF0F0",
"6X c #F4F4F4",
"7X c #FAF4F4",
"8X c #FAF8F7",
"9X c #FAF7F8",
"0X c #F9F9F9",
"qX c #F7F8F8",
/* pixels */
"W W W W E E E E E E E E E E E E E E E E E E W W W W W W W W W W W W W W W E E E W W W W W W W W W W W W W W W W W W W W W W W W ",
"W W W E E E E E E E E E E E E E E E E E E E E E E E E E E E E E E E E E E W W W W W W W W W W W W W W W W W W W W W W W W W E E ",
"W W W E E E E E E E E E E E E E E E E E E E E E E E E E E E E E E E E E E W W W W W W W W W W W W W W W W W W W W W W W W W E E ",
"W W W E E E E E E E E E E E E E E E E E E E E E E E E E E E E E E E E E E W W W W W W W W W W W W W W W W W W W W W W W W W E E ",
"W W W E E E E E E E E E E E E E E E E E E E E E E E E E E E E E E E E E E W W W W W W W W W W W W W W W W W W W W W W W W W E E ",
"W W W E E E E E E E E E E E E E E E E E E E E E E E E E E E E E E E E E E W W W W W W W W W W W W W W W W W W W W W W W W W E E ",
"W W W E E E E E E E E E E E E W W W W W W W E E E E E E E E E E E E E E E W W W W W W W W W W W W W W W W W W W W E E E E E E E ",
"W W E E E E E E E E E E E E W W W W W W W W E E E E E E E m O 1 o n E E E W W W W W W W W W W W W W W W W W W W W E E E E E E E ",
"W W E E E E E E E E E E E E W W W W W W W W E E E E E I c < % & & ; 2 j E W W W W W W W W W W W W W W W W W W W W E E E E E E E ",
"W W E E E E E E E E E E E E W W W W W W W W E E E N g d % % & & & & % : c g m E W W W W W W W W W W W W W W W W W E E E E E E E ",
"W W E E E E E E E E E E E E W W W W W W W W E E v e $ % & & & & & & & & % # 1 s m E W W W W W W W W W W W W W W W E E E E E E E ",
"W W E E E E E E E E E E E E W W W W W W W E h   t ; & & & & & & & & & & & & % - 2 v I E E W W W W W W W W W W W W E E E E E E E ",
"W W E E E E E E E E E E E E E E E E E E M z - % & & & & & & & & & & & & & & & & & 9 . . k E W W W W W W W W W W W W W W W W E E ",
"W W E E E E E E E E E E E E E E E E n g r ; % % & & & & & & & & & & & & & & % % 9 S  .S r a n W W W W W W W W W W W W W W W E E ",
"W W E E E E E E E E E E E E E E E k , = & & & & & & & & & & & & & & & & & & % 6 T V < % % # 2 / ( I W W W W W W W W W W W W W E ",
"W W W E E E E E E E E E E E E E x 7 $ % & & & & & & & & & & & & & & & & & & 6 J + 4 % % & 6 K C   O E W W W W W W W W W W W W W ",
"W W W E E E E E E E E W N k a e % % & & & & & & & & & & & & % % % & & & & % 9 J 8 % % % S ] X @ % % e b E E W W W W W W W W W W ",
"W W W E E E E E E E E E g   @ % & & & & & & & & & & & & & % $ = 9 6 & & & & % % % & % # ] ] 7 % & & % t f h E W W W W W W W W W ",
"W W W E E E E E E E E j = # % & & & & & & & & & & & & & % : Z 9.Z.L 6 & & & & & & & % A H q & & & & & & # * a N W W W W W W W W ",
"W W W E E E E E E E x 7 % & & & & & & & & & & & & & & % 9 A J.1X3XL.L w & & & & & & % u w & & & & & & & % $ 5 / _ W W W W W W W ",
"W W W W E E E E B l 6 % & & & & & & & & & & & & & & 0 p Z.,X0X0X&X3X$XC.i 6 & & & & & & & & & & & & % 6 L ..S.).=.W W W W W W W ",
"W W W W W W W Y { 4.K y 6 % & & & & & & & & & & & 0 G g.2X,X7X9X&X%XC.$Xf.F 0 & & & & & & & & & & 0 7 H B.U.N.,.W W W W W W W W ",
"W W W W W W W Q &.m.D.S.5.C D u % & & & & & & & % D L.7X@Xl.$X2XI. Xs.|.7X}.O.q & & & & & & & % D s.K.w.%.@.W W W W W W W W W W ",
"W W W W W W W W W _ *.7.u.F.k.d.F i > % & & & % 3 o.<X0XoXj.oXP.O. X@X7X0X9X|.+.w & & & % $ i A B.#X>XF.I W W W W W W W W W W W ",
"W W W W W W W W W W W W E n 8.[.-X@Xj...3 u 8 S J.6X0X0X0X7XL.O.f.C.$X8X0X0X0X0Xx.F q < } 3.t.'.:X:X:XA.W W W W W W W W W W W W ",
"W W W W W W W W W W W W W W m.OX+X7X>XH.3.X...k.qX6X0X0X2XP.z.V.$Xz.z.oX0X0X0X6X+X5.} 5.r.'.^.'.qXqX:XA.W W W W W W W W W W W W ",
"W W W W W W W W W W W W W W m.<X6X:X:X>X{.~.-X:X^.^.6X6X#Xx.}.7X0X2X}.C.].6X6X/.^./.e./.-X>X:X6XqXqX>XM.W W W W W W W W W W W W ",
"W W W W W W W W W W W W W W m.<X6X:XqXqX:X>X6X-X2./.>X-X;X@X>X5XqX:X1X@X!.{.'.'.e./.{.>XqXqX>X:XqXqX'.8.W W W W W W W W W W W W ",
"W W W W W W W W W W W W W W m.<X6X6XqX6X6XqXqX>Xe.'.{.>X>Xp.'.>X{./.>X6X-X-Xi.^.{.>XqXqXqXqX-X>XqX6XA.@.W W W W W W W W W W W W ",
"W W W W W W W W W W W W W W m.<X6X6XqX6X:XqXqX>Xr.'.>X:X>X/.:XqXi.i.>X6X-X>X-X{.'.>XqXqXqXqX{.-XqX6Xm.~ W W W W W W W W W W W E ",
"W W W W W W W W W W W W W W m.=X>XqXqX6X6XqXqX:Xp.{.>X:X6XqXqXqX{.{.6XqX6X>X-X{.'.>XqXqXqXqX{.-XqX6Xm.~ W W W W W W W W W W E E ",
"W W W W W W W W W W W W W W m.OX{.qXqX6X6XqXqX:X/.{.>X:X6XqXqXqXqXqXqXqX6X>X-X{.{.>XqXqXqX6X{.-XqX6Xm.~ W W W W W W W W W W E E ",
"W W W W W W W W W W W W W W :.Y.qXqXqX6X6XqXqX6X'.{.>X:X6XqXqXqXqXqXqXqX6X>X-X{.-X:X6X6XqXqX>X:XqX6Xm.~ W W W W W W W W W W E E ",
"W W W W W W W W W W W W W W 8.`.qXqXqX6X6XqXqX6X{.{.>X:X6XqXqXqXqXqXqXqX6X>X-X{.{.>X:X6XqXqX6X6X6X6Xm.~ W W W W W W W W W W E E ",
"W W W W W W W W W W W W W Y M.:XqXqXqX6X6XqXqX6X{.{.>X:X6XqXqXqXqXqXqXqX6X>X-X{.^.{.6X6XqXqXqXqX6X6Xn.( W W W W W W W W W W E E ",
"W W W W W W W W W W W W W Y u.:XqXqXqXqXqXqXqX6X{.{.>X:X6XqXqXqXqXqXqXqX6X>X-X{.i.'.6XqXqXqXqXqXqX6XE.>.E E E E E E E E E E E E ",
"W W W W W W W W W W W W W R a.:XqXqX{./.qXqXqX6X{.{.>X:X6XqXqXqXqXqXqXqX6X:X-X{.e./.qXqXqXqXqXqXqXqXqXU.W E E E E E E E E E E E ",
"W W W W W W W W W W W W W | Y.:XqXqX>X'.qXqXqX6X{.{.>X:X6XqXqXqXqXqXqXqX6X:X-X{.2./.qXqXqXqXqXqXqXqXqX).' E E E E E E E E E E E ",
"W W W W W W W W W W W W Q >.[.6XqXqX6X6XqXqXqX6X[.{.>X:X6XqXqXqXqXqXqXqX6X:X-X{.r.'.qXqXqXqXqXqXqXqXqX6Xc.E E E E E E E E E E E ",
"W W W W W W W W W W W W Q ,.-X6XqX6X>X6XqXqXqX6X[.{.>X:X6XqXqXqXqXqXqXqX6X:X-X{.p.'.qXqXqXqXqXqX6X:X:X6XR.=.W E E E E E E E E E ",
"W W W W W W W W W W W W ! c.4XqXqX6X:X6XqXqXqX6X{.{.>X:X6XqXqXqXqXqXqXqX6X>X-X{./.-X6X6X6X{.>X6X6X'.{.6X4XG.Q E E E E E E E E E ",
"W W W W W W W W W W W W @.N.6XqXqXqXqXqXqXqXqX6X{.{.>X:X6XqXqXqXqXqXqXqX6X>X-X{.'.>X6X6X:X/.{.6X6X:X>X6X6XW.' W E E E E E E E E ",
"W W W W W W W W W W W W n.;X6X6XqXqXqX6XqXqXqX6X{.{.>X:X6XqXqXqXqXqXqXqX6X>X-X{.'.>X6X6X6X>X:XqXqXqX:X:XqX6Xm._ E E E E E E E E ",
"W W W W W W W W W W W Q D.6XqX6XqXqXqXqXqXqXqX6X{.{.>X:X6XqXqXqXqXqXqXqX6X>X-X{.'.>XqXqX6X6X6XqXqXqX:X:XqXqXD.#.E E E E E E E E ",
"W W W W W W W W W W Q q.:XqXqX6X6XqXqXqXqXqXqX6X{.{.>X:X6XqXqXqXqXqXqXqX6X>X-X{./.-XqXqXqXqXqXqXqXqXqX{.{.qX:XE.Q E E E E E E E ",
"W W W W W W W W W W -.T.qXqXqX6X6XqXqX6XqXqXqX6X'.{.>X:X6XqXqXqXqXqXqXqX6X>X-X{.p.{.qXqX>X:XqXqXqXqXqX6X6XqXqX;X>.E E E E E E E ",
"W W W W W W W W ! *..X4XqXqXqX6X6XqX:X>XqXqXqX:Xp.{.>X:X6XqXqXqXqXqXqXqX6X>X-X{.e./.qXqX^.'.qXqXqXqXqXqXqXqXqXOX$.E E E W W W W ",
"W W W W W W W W 1.W.6X8XqXqXqXqXqXqX{./.qXqXqX>Xt.'.>X:X6XqXqXqXqXqXqXqX6X:X-X{.e./.qXqX{.>XqXqXqXqXqXqXqXqX].w.Q E E E W W W W ",
"W W W W W W W R _.qXqXqXqXqX'./.qXqX6X6XqXqXqX>Xr.'.>X:X6X6XqXqXqXqXqXqX6X>X-X{.e./.qXqXqXqXqXqXqXqXqXqX1X_.#.Q E E E E W W W W ",
"W W W W W W W ` (.6XqXqXqXqX^.i.qXqXqXqXqXqXqX1XH.U.E.W.)..XXX+XqXqXqXqX6X>X-X{.e./.qXqX6XqXqXqXqXqXqX>XW.v.Q E E E E E W W W W ",
"W W W W W W W W &.0..X4XqXqX-X{.qXqXqX:X-X6XqX6Xy.@.! ! ! ! _ $.G.*X8XqX6X>X-X{.p.[.qXqXqXqXqXqX6X].M.<.( ! E E E E E E W W W W ",
"W W W W W W W W W Q =.c.m.R.6X6XqXqXqX6X>X6XqX:X6.) E E E E E W @.,.b.b.v.c.q.7.`.1XqXqXqXqXqXXXv.>.) Q E E E E E E E E W W W W ",
"E E E E E E E E E E E E E ^ h.).qXqXqXqX6X>X6X-X[ Q W W W W W W W W W W W W W W #XqXqX-X_.w.) ! E E E E E W E E E E E E W W E E ",
"E E E E E E E E E E E E E E Q <.:XqXqXqX>X{.6X=XU W W W W W W W W W W W W W W W #XqXqX'.6.#.W W E E E E E W E E E E E E W W E E ",
"E E E E E E E E E E E E E E W Q D.qXqXqXqX6XqX*XW W W W W W W W W W W W W W W W #XqXqX(.' ^ W W E E E E E W E W W E E E W W E E ",
"E E E E E E E E E E E E E E W W *.0.T.:XqXqXqX*XW W W W W W W W W W W W W W W W ,.c.c.&.W W W W E E E E E W E W W E E E W W E E ",
"E E E E E E E E E E E E E E W W W W W ! ! ! U P W W W W W W W W W W W W W W W W W W W W W W W W E E E E E W E W W E E E W W E E ",
"E E E E E E E E E E E E E E E W W W W W W W E E W W W W W W W W W W W W W W W W W W W W W W W W E E E E W W W W W E E E W W W E ",
"W W W E E E E E E E E E E E E E E E E E E E E E E E W W W W W W W W W W W W W W W W W W W W W W W W W W W W W W W W W W W W W W ",
"W W W E E E E E E E E E E E E E E E E E E E E E E E W W W W W W W W W W W W W W W W W W W W W W W W W W W W W W W W W W W W W W ",
"W W W E E E E E E E E E E E E E E E E E E E E E E W W W W W W W W W W W W W W W W W W W W W W W W W W W W W W W W W W W W W W W ",
"W W W E E E E E E E E E E E W W W W W W W W W W W W W W W W W W W W W W W W W W W W W W W W W W W W W W W W W W W W W W W W W W ",
"W W W E E E E E E E E E E E W W W W W W W W W W W W W W W W W W W W W W W W W W W W W W W W W W W W W W W W W W W W W W W W W W ",
"W W W E E E E E E E E E E E E E E E W W W W W W W W W W W W W W W W W W W W W W W W W W W W W W W W W W W W W W W W W W W W W W "
};
