/* XPM */
static char *_edbf35747a14a1deadb54c9738ad9b4BA4Rm0NHn8l30a6T[] = {
/* columns rows colors chars-per-pixel */
"64 64 182 2 ",
"   c None",
".  c #190B0B",
"X  c #340C0B",
"o  c #360809",
"O  c #2D191C",
"+  c #3B1111",
"@  c #2D2D2D",
"#  c #450706",
"$  c #4C0C0B",
"%  c #580F0F",
"&  c #5E0F13",
"*  c #531410",
"=  c #641011",
"-  c #691213",
";  c #6D1019",
":  c #751312",
">  c #692728",
",  c #7D292A",
"<  c #643535",
"1  c #635A5A",
"2  c #715554",
"3  c #7C5455",
"4  c #7F625F",
"5  c gray39",
"6  c #7C6061",
"7  c #767575",
"8  c #8B1615",
"9  c #8B1915",
"0  c #851519",
"q  c #811C1B",
"w  c #931616",
"e  c #901817",
"r  c #941D1E",
"t  c #9D1C1B",
"y  c #9B1815",
"u  c #A81717",
"i  c #A41B1B",
"p  c #AD1D1C",
"a  c #B11D1D",
"s  c #AB211D",
"d  c #861F24",
"f  c #9C1C20",
"g  c #A61E20",
"h  c #AC1E20",
"j  c #B51F23",
"k  c #892627",
"l  c #9B2224",
"z  c #9C2028",
"x  c #992823",
"c  c #9A2C32",
"v  c #983031",
"b  c #AC2423",
"n  c #A32D2D",
"m  c #AA2A2A",
"M  c #A82827",
"N  c #B22325",
"B  c #B22A2A",
"V  c #B42629",
"C  c #AD2D30",
"Z  c #A83737",
"A  c #B33535",
"S  c #B7383A",
"D  c #984648",
"F  c #9B4F51",
"G  c #8A5855",
"H  c #915050",
"J  c #995B5A",
"K  c #AD4445",
"L  c #A84547",
"P  c #B44443",
"I  c #B74847",
"U  c #BC514F",
"Y  c #AA4F50",
"T  c #A75D5E",
"R  c #A25653",
"E  c #B35258",
"W  c #8D6668",
"Q  c #9A6D6B",
"!  c #877D7B",
"~  c #997778",
"^  c #907F79",
"/  c #9C7B7A",
"(  c #BB6466",
")  c #B3696A",
"_  c #A57D7F",
"`  c #BD7778",
"'  c #B77C7F",
"]  c #C25D5D",
"[  c #C35555",
"{  c #C26265",
"}  c #CB6160",
"|  c #CC706E",
" . c #CE7577",
".. c #CF7876",
"X. c #C27A7A",
"o. c #C87777",
"O. c #D3817F",
"+. c #CA7F80",
"@. c #848484",
"#. c #8F8887",
"$. c #8D8B8B",
"%. c #8B8689",
"&. c #908885",
"*. c #9D8D8E",
"=. c #9E918B",
"-. c #8F9391",
";. c #959494",
":. c #9C9C9C",
">. c #B38789",
",. c #A8918F",
"<. c #A09F9F",
"1. c #B49F9F",
"2. c #B09DA1",
"3. c #A5A5A5",
"4. c #ABABAC",
"5. c #AEA3A3",
"6. c #B8AFAE",
"7. c #B4B4B4",
"8. c #B8B5B7",
"9. c #BCBCBC",
"0. c #CA8586",
"q. c #C9888C",
"w. c #DE8987",
"e. c #D58E8C",
"r. c #D1908F",
"t. c #CC8D91",
"y. c #C89B9B",
"u. c #D79292",
"i. c #D69C9B",
"p. c #DA9C9B",
"a. c #DA9292",
"s. c #C8A5A7",
"d. c #D4A4A3",
"f. c #DDA5A5",
"g. c #C4B3B5",
"h. c #DDB4B4",
"j. c #E2B4B5",
"k. c #E6BDBB",
"l. c #F0B6B7",
"z. c #F6BCBE",
"x. c #C1C2BF",
"c. c #E7C3BE",
"v. c #C1BEC0",
"b. c #C4C4C4",
"n. c #C8C8C7",
"m. c #CCCCCC",
"M. c #C9C5C3",
"N. c #D8CECF",
"B. c #CFCFD0",
"V. c #D4D4D4",
"C. c #D8D7D7",
"Z. c #D7D8D8",
"A. c #DCDCDC",
"S. c #EBC4C3",
"D. c #E9CDCB",
"F. c #EFD1CD",
"G. c #EDD5D6",
"H. c #E7DFDF",
"J. c #F4DBDB",
"K. c #F8DDDE",
"L. c #F9E0DF",
"P. c #F4E1DF",
"I. c #DFDFE0",
"U. c #F4DFE1",
"Y. c #DFE1E1",
"T. c #E4E4E4",
"R. c #E8E7E7",
"E. c #E9E7E8",
"W. c #ECECEC",
"Q. c #FBE1E2",
"!. c #F5E7E9",
"~. c #F6EAEA",
"^. c #F8EBED",
"/. c #F5F2EE",
"(. c #F0EFF0",
"). c #F4F4F4",
"_. c #FCF5F5",
"`. c #F7F8F7",
"'. c #F7F6F8",
"]. c #F8F7F8",
"[. c #F9F9F9",
"{. c #F5FAF8",
/* pixels */
"                                                                                                                                ",
"                                                            % u X                                                               ",
"                                                        d f a a a a r                                                           ",
"                                                      p p p a a a a p i l                                                       ",
"                                                ; 0 p a a a a a a a a a a a : #                                                 ",
"                                              s p a a a a a a a a a a a a a a p i +                                             ",
"                                          $ a a a a a a a a a a a a a a a a a a p p l l                                         ",
"                                      q r p a a a a a a a a a a a a a a a a a a a a a a 9 . O                                   ",
"                                    s p p p a a a a a a a a a a a a a a a a a a a a a M F 2.A j                                 ",
"                                - a a a a a a a a a a a a a a a a a a a a a a p p p M T _ z p a 8 #                             ",
"                            - e a a p a a a a a a a a a a a a a a a a a a a a a p m / 4 : a p p p s Z _ *.                      ",
"                          g p a a a a a a a a a a a a a a a a a a a a a a a a p m ,.2 , p a p a N Z =.D & o                     ",
"                      b p p a a a a a a a a a a a a a a a a a a a a a a a a a p c >.P p p a a b R #.* e p p l                   ",
"                  o 9 p a a a a a a a a a a a a a a a a a a p y p p a a a a a a p i p a a p t J ^ G b a a a a p m               ",
"                = i a a a a a a a a a a a a a a a a a a p i k < L C p a a a a a a a a a a a > W ) a a a a a a a a 0 X           ",
"            r r p a a a a a a a a a a a a a a a a a a p i k ~ [.[.t.Z p a a a a a a a a a p >.E a a a a a a a a p p i -         ",
"          p p a a a a a a a a a a a a a a a a a a a p i D s.[.[.^.].h.I p a a a a a a a a p a a a a a a a a a a a a p i L `     ",
"        p p a a a a a a a a a a a a a a a a a a a a V E G.[.[._.z.Q.[.G.] B p p a a a a a a a a a a a a a a a a a B K F N.`.[.  ",
"    1 2 [ n i a p a a a a a a a a a a a a a a a a A  ._./._.[._.z.Q.J.k.[.+.A p a a a a a a a a a a a a a a a t S X.m.).W.      ",
"    9.[.).&.J I x p a a a a a a a a a a a a a p S a.[.[.c.F._._.l.K.p.I [.[.i.P p a a a a a a a a a a a p B U H 1.A.).          ",
"        Z.).W.M.^ ( U A h a a a a a a a a a a l d.].[.[.o.d._.Q.0.S.k.0.[.[.[.D.] N a a a a a a a p a l L 0.(.).;.              ",
"              b.).b.M.y.{ ] M p a a a a a p r W N.[.[.[.t.h.J.w.m f.[.[.[.[.[.[.!. .A a a a a a i r ] Q 6.W.W.T.                ",
"                  @ m.W.T.).' ( K 8 p a p n W H.[.[.[.[.[.[.j.M ] p.G.[.[.[.[.[.[.[.u.I a a w K T 6 x.W.W.T.).E.                ",
"                    (.A.n.).[.T.5.3 { K Y q.[.[.[.[.[.[.!.S.u.X.^.e...S.[.[.[.[.[.[.[.y.v } G *.V.W.-.Z.[.[.].R.                ",
"                    [.[.).W.).m.n.).m.7.V.[.[.V.W.[.[.[.u.| p.[.[.U.f...j.^.[.[.).m.W.b.%.8.W.7.4.).).).[.[.[.T.                ",
"                    [.[.).W.).[.`.W.4.Y.[.W.8.3.A.[.W.W.r.j.[.[.[.[.[.P.q.g.T.[.).4.4.V.A.@.T.[.[.).T.).[.[.).A.                ",
"                    ].].).W.).[.[.[.).).[.V.5 Z.W.T.A.T.`.W.T.W.[.T.T.).[.7.V.T.9.W.;.4.).[.).[.[.).T.).[.[.).b.                ",
"                    [.[.).W.).[.).W.`.[.[.A.%.m.V.Z.W.[.n.b.V.T.[.Z.B.W.).T.W.m.@.m.V.T.[.[.).[.[.).A.W.[.[.).8.                ",
"                    [.[.).).).[.).T.).[.[.A.;.m.T.W.).).4.n.[.[.b.8.V.[.).Z.A.T.T.A.V.T.[.[.[.[.[.).V.W.[.[.[.                  ",
"                    [.[.[.).[.[.).W.[.[.[.T.3.V.T.W.).).[.[.[.).4.:.n.[.[.).W.T.T.A.V.T.[.[.[.[.[.).V.W.[.[.[.                  ",
"                    [.T.A.[.[.[.).W.[.[.[.T.8.Z.T.W.).).[.[.[.[.[.[.[.[.[.).W.T.T.A.V.T.).[.[.[.[.).m.W.[.[.[.                  ",
"                    ).T.m.[.[.[.).W.[.[.[.W.n.Z.T.W.).).[.[.[.[.[.[.[.[.[.).W.T.T.A.Z.T.[.[.[.[.[.).Z.W.[.[.[.                  ",
"                    8.V.[.[.[.[.).W.[.[.[.W.m.A.T.W.).).[.[.[.[.[.[.[.[.[.).W.W.T.A.A.W.).).).[.[.).T.).[.[.[.                  ",
"                    8.V.[.[.[.[.).W.[.[.[.W.Z.A.T.W.).).[.[.[.[.[.[.[.[.[.).W.W.T.A.A.W.).W.).[.[.).W.).).).[.                  ",
"                    W.[.[.[.[.[.).).[.[.[.).Z.A.T.W.).).[.[.[.[.[.[.[.[.[.).W.T.T.A.m.A.).W.).[.[.[.).).).).[.                  ",
"                    T.[.[.[.[.[.).).[.[.[.).Z.A.T.W.).).[.[.[.[.[.[.[.[.[.).W.T.T.A.9.m.).).[.[.[.[.[.[.[.).).                  ",
"                  7 A.[.[.[.[.[.[.[.[.[.[.W.Z.A.T.W.(.).`.[.[.[.[.[.[.[.[.).W.T.T.A.3.9.[.[.[.[.[.[.[.[.).).).V.                ",
"                  ! Z.[.[.[.[.V.m.[.[.[.[.W.Z.A.T.W.(.).`.[.[.[.[.[.[.[.[.).W.T.T.A.:.8.[.[.[.[.[.[.).[.).).).[.                ",
"                  $.C.[.[.[.[.m.m.[.[.[.[.W.Z.A.T.W.W.).`.[.[.[.[.[.[.[.[.).W.T.T.A.;.4.[.[.).[.[.[.[.).[.[.[.[.m.              ",
"                  4.T.[.[.[.[.W.W.[.[.[.[.W.Z.A.T.W.^.).`.[.[.[.[.[.[.[.[.).W.T.T.A.:.7.[.[.).[.[.[.[.[.[.[.[.[.A.m.            ",
"                  m.W.[.[.[.[.[.).[.[.[.[.).Z.A.T.W.).).[.[.[.[.[.[.[.[.[.).W.T.T.A.4.9.).).`.[.[.[.[.[.[.[.).[.[.).            ",
"                  T.).[.[.[.V.T.[.[.[.[.[.).Z.A.T.W.).).[.[.[.[.[.[.[.[.[.).W.T.T.A.8.m.`.).[.[.[.[.[.[.[.W.Z.).[.[.).          ",
"                  ).).[.[.[.T.W.[.[.[.[.[.).Z.A.T.W.).).[.[.[.[.[.[.[.[.[.).W.T.T.A.9.V.[.[.[.`.W.A.).[.[.T.3.W.[.[.[.          ",
"                  [.[.[.[.[.[.[.[.[.[.[.[.).Z.A.T.W.).).[.[.[.[.[.[.[.[.[.).W.T.T.A.m.A.[.).).[.Z.3.).[.[.W.V.).[.[.W.          ",
"                A.).).).[.[.[.[.[.[.[.[.[.).Z.A.T.W.W.).[.[.[.[.[.[.[.[.[.).W.T.T.A.V.A.[.).).[.A.9.).[.[.[.[.).[.[.).A.        ",
"                W.[.).).[.[.[.).).[.[.[.).W.Z.A.T.W.W.).[.[.[.[.[.[.[.[.[.).W.T.T.A.V.T.[.[.[.[.).W.).[.[.[.).A.W.[.[.[.        ",
"              9.[.[.[.).).[.[.[.[.[.[.[.[.W.Z.A.T.W.W.).[.[.[.[.[.[.[.[.[.).W.T.T.A.V.A.[.[.[.[.[.[.).[.[.[.[.W.).[.[.[.8.      ",
"            A.T.[.[.[.).).[.[.[.[.[.[.[.[.W.Z.A.T.W.).).[.[.[.[.[.[.[.[.[.).W.T.T.A.m.A.[.[.[.[.[.[.).[.[.[.[.[.n.n.[.[.T.      ",
"          :.A.[.[.[.[.).).[.[.[.[.[.[.[.[.W.Z.A.T.W.W.).).[.[.[.[.[.[.[.[.).W.T.T.A.9.m.[.[.[.[.[.[.[.[.[.[.[.[.T.T.[.[.[.A.    ",
"          T.).[.[.[.[.).).[.[.).).[.[.[.[.W.n.A.T.W.W.).).[.[.[.[.[.[.[.[.).W.T.T.A.4.b.[.[.[.m.m.[.[.[.[.[.[.[.[.[.[.[.[.).W.  ",
"        ).[.[.[.[.[.).).).[.[.A.A.[.[.[.[.T.3.V.T.W.).).[.[.[.[.[.[.[.[.[.).W.T.T.A.;.7.[.[.[.n.9.[.[.[.[.[.[.[.[.[.[.[.).T.    ",
"      ).[.[.[.[.[.[.[.[.[.[.[.n.b.[.[.[.[.A.$.m.T.W.).).[.[.[.[.[.[.[.[.[.).W.T.T.A.:.8.[.[.[.W.W.[.[.[.[.[.[.[.[.[.[.[.7.      ",
"    b.).[.[.[.[.[.[.V.A.[.[.[.W.W.[.[.[.[.A.;.m.T.W.).).[.[.[.[.[.[.[.[.[.).W.W.T.A.:.8.[.[.[.[.[.[.[.[.[.[.[.[.[.).T.4.        ",
"  3.m.[.[.[.[.[.[.[.4.9.[.[.[.[.[.[.[.[.[.T.8.Z.T.W.W.).).).[.[.[.[.[.[.[.).W.W.T.A.:.8.[.[.[.).).[.[.[.[.[.[.[.[.).W.          ",
"    n.Z.[.[.[.[.[.[.4.8.[.[.[.[.[.[.[.[.[.W.m.                v.(.].[.[.[.).W.T.T.A.;.4.[.[.[.[.[.[.[.[.[.[.[.[.9.;.            ",
"          ).).[.[.[.W.W.[.[.[.[.T.n.).[.[.W.n.                    W.).[.[.).W.T.T.A.b.V.[.[.[.[.[.[.[.[.[.T.;.                  ",
"                  [.[.[.[.[.[.[.).).).[.[.T.3.                                      ).).[.[.[.[.[.[.].                          ",
"                    W.).[.[.[.[.[.[.[.[.[.A.@.                                      ].[.[.[.).).Z.@.                            ",
"                      ).[.[.[.[.[.).9.T.[.T.                                        ].].[.[.3.<.3.                              ",
"                        b.[.[.[.[.).).).[.W.                                        ).).[.[.W.T.                                ",
"                          [.[.[.[.[.[.[.[.[.                                        ).[.[.[.:.                                  ",
"                            7 m.[.[.[.[.[.].                                                                                    ",
"                                                                                                                                ",
"                                                                                                                                "
};
