/* XPM */
static char *result[] = {
/* columns rows colors chars-per-pixel */
"64 64 228 2 ",
"   c #1C0C0D",
".  c #150F09",
"X  c #110E15",
"o  c #140D1A",
"O  c #1B0D1B",
"+  c #1B0A16",
"@  c #1A1518",
"#  c #120B16",
"$  c #200B0C",
"%  c #230C11",
"&  c #231113",
"*  c #241B1C",
"=  c #2B1B1C",
"-  c #281A17",
";  c #28170F",
":  c #29241C",
">  c #34251B",
",  c #1E1C23",
"<  c #1A1527",
"1  c #1C1831",
"2  c #231E24",
"3  c #2B1D24",
"4  c #2A1E2A",
"5  c #251627",
"6  c #2A1E39",
"7  c #1F223B",
"8  c #252125",
"9  c #2D2323",
"0  c #25212C",
"q  c #2B232B",
"w  c #2D2B2A",
"e  c #332525",
"r  c #332D25",
"t  c #352A2A",
"y  c #3C2B2B",
"u  c #372428",
"i  c #3D332D",
"p  c #34322C",
"a  c #2D2B3B",
"s  c #2B2533",
"d  c #342C34",
"f  c #322D3D",
"g  c #3C2E3B",
"h  c #392934",
"j  c #3D343D",
"k  c #383437",
"l  c #54351F",
"z  c #452C27",
"x  c #46372B",
"c  c #573627",
"v  c #4C3D35",
"b  c #4B3D3C",
"n  c #453737",
"m  c #553C36",
"M  c #3B403B",
"N  c #4C423B",
"B  c #4C4233",
"V  c #504530",
"C  c #64432F",
"Z  c #684736",
"A  c #734D35",
"S  c #7A543A",
"D  c #7B5438",
"F  c #2E2A40",
"G  c #352D44",
"H  c #3D3441",
"J  c #36344B",
"K  c #3C344C",
"L  c #393746",
"P  c #2F3B57",
"I  c #353651",
"U  c #3A3554",
"Y  c #3B3955",
"T  c #353A5B",
"R  c #343A59",
"E  c #393D62",
"W  c #413D44",
"Q  c #4C3D42",
"!  c #433D4A",
"~  c #483A4F",
"^  c #443E54",
"/  c #38405C",
"(  c #3B466B",
")  c #3C4A6C",
"_  c #394567",
"`  c #364574",
"'  c #3B4674",
"]  c #3B4A74",
"[  c #3B477A",
"{  c #3C4B7B",
"}  c #374872",
"|  c #434143",
" . c #4B434B",
".. c #5C4C42",
"X. c #564848",
"o. c #58524C",
"O. c #464758",
"+. c #574B54",
"@. c #565255",
"#. c #6C524B",
"$. c #65584C",
"%. c #785746",
"&. c #635552",
"*. c #675858",
"=. c #6A555A",
"-. c #6C625B",
";. c #74665A",
":. c #42456A",
">. c #434A6B",
",. c #454866",
"<. c #595567",
"1. c #404673",
"2. c #434A74",
"3. c #485877",
"4. c #5C5672",
"5. c #544D69",
"6. c #645A69",
"7. c #696664",
"8. c #676A68",
"9. c #756766",
"0. c #7D7168",
"q. c #6A6878",
"w. c #786B76",
"e. c #7F7572",
"r. c #845A3B",
"t. c #8D5E3C",
"y. c #94633F",
"u. c #845C41",
"i. c #865F48",
"p. c #8C6245",
"a. c #89624A",
"s. c #9D6B42",
"d. c #986946",
"f. c #9F714B",
"g. c #8B6753",
"h. c #916D56",
"j. c #A56F42",
"k. c #A16F49",
"l. c #A57042",
"z. c #A6744A",
"x. c #A8754C",
"c. c #A87145",
"v. c #A37553",
"b. c #A97954",
"n. c #A77A59",
"m. c #836A65",
"M. c #82746C",
"N. c #89796C",
"B. c #877B78",
"V. c #90736A",
"C. c #A87E64",
"Z. c #AD805F",
"A. c #8B847A",
"S. c #928575",
"D. c #95897D",
"F. c #988779",
"G. c #9C927D",
"H. c #94917D",
"J. c #97886E",
"K. c #AD8368",
"L. c #AC8673",
"P. c #A78576",
"I. c #A9947E",
"U. c #B28C7A",
"Y. c #AFA17D",
"T. c #545F87",
"R. c #586986",
"E. c #7B7E88",
"W. c #6C718E",
"Q. c #887D86",
"!. c #927F81",
"~. c #78819E",
"^. c #7887A4",
"/. c #8F8886",
"(. c #998784",
"). c #968B84",
"_. c #9B8C83",
"`. c #9C8B8B",
"'. c #968484",
"]. c #9D9284",
"[. c #9B9288",
"{. c #95949B",
"}. c #A68B86",
"|. c #A2948B",
" X c #AA9B8B",
".X c #B89589",
"XX c #A79B97",
"oX c #B49997",
"OX c #B3A58C",
"+X c #B5A59B",
"@X c #B4A896",
"#X c #B7AD9E",
"$X c #8A9CB2",
"%X c #9296A6",
"&X c #9BACBD",
"*X c #A8A9A7",
"=X c #B7AAA6",
"-X c #BDB4A9",
";X c #B4AFB6",
":X c #C4BA9C",
">X c #CBBCAC",
",X c #C6B7AB",
"<X c #C9BAB4",
"1X c #D2BEB8",
"2X c #C2A6AD",
"3X c #D4C9A8",
"4X c #CDC5B4",
"5X c #CCC3BA",
"6X c #C7C4BA",
"7X c #D3C5B5",
"8X c #D5CAB4",
"9X c #D5C6BB",
"0X c #D8C7B9",
"qX c #D5C9BB",
"wX c #D9C9BA",
"eX c #D8C9B7",
"rX c #CFC0AE",
"tX c #97AAC3",
"yX c #B3BDCD",
"uX c #AFC2D2",
"iX c #C9CAC6",
"pX c #D9C8C1",
"aX c #D7C9C3",
"sX c #DBD1C8",
"dX c #D8DAD4",
"fX c #C5D8E2",
"gX c #E7F8FC",
"hX c #ECE3E1",
/* pixels */
"l.l.l.j.j.j.j.j.j.j.j.j.j.j.j.j.j.j.j.j.j.j.j.j.j.j.j.j.j.j.j.j.j.j.j.c.j.j.j.j.l.l.l.l.l.l.l.l.l.l.l.l.l.l.l.l.l.l.l.l.l.l.l.l.",
"l.l.l.j.j.j.j.j.j.j.j.j.j.j.j.j.j.j.j.c.j.j.j.j.j.j.j.j.j.j.j.j.j.j.j.j.j.j.l.j.l.l.l.l.l.l.l.l.l.l.l.l.l.l.l.l.l.l.l.l.l.y.l.l.",
"l.l.l.j.j.j.j.j.j.j.j.j.j.j.j.j.j.j.j.j.j.j.j.j.c.j.j.j.j.j.j.j.j.j.j.j.j.l.l.l.l.l.l.l.l.l.y.l.l.l.l.l.l.l.l.l.l.l.l.l.l.l.l.l.",
"l.l.l.j.j.j.j.j.j.j.s.j.j.j.j.j.j.j.j.j.j.j.j.c.j.j.j.j.j.j.j.j.j.c.j.j.j.l.j.l.l.l.l.l.j.j.l.l.l.l.l.l.l.y.l.l.l.l.l.l.l.l.l.l.",
"l.l.l.j.j.j.j.j.s.j.j.j.j.j.j.j.j.l.j.c.l.j.j.j.j.j.j.j.j.j.l.l.j.j.j.j.j.l.l.j.y.l.l.l.l.l.l.l.l.l.l.l.l.l.l.l.l.l.l.l.l.l.l.l.",
"l.l.j.j.j.j.j.j.j.j.s.j.j.j.j.j.j.l.j.j.j.j.j.j.j.j.l.l.j.j.D C Z r.j.j.j.l.l.l.l.l.l.l.l.l.l.l.l.l.l.l.l.l.l.l.l.j.l.j.l.l.j.j.",
"l.l.l.j.j.j.j.j.j.j.j.j.j.j.j.j.l.l.j.j.j.j.j.j.j.j.j.j.D u.h 0 w V S r.l.l.l.l.l.l.l.l.l.l.l.l.l.l.l.l.l.l.l.l.l.j.j.j.j.j.j.j.",
"l.l.l.j.y.j.j.j.j.j.j.j.s.j.s.j.y.l.l.l.l.l.j.j.j.j.y.r.0 I O.,.O.O.f w y.y.l.l.l.l.l.l.l.l.l.l.l.y.l.l.l.l.l.l.l.j.j.j.j.j.j.j.",
"j.j.j.j.j.j.j.j.j.j.j.j.j.j.j.j.l.j.l.j.l.l.j.j.j.y.Z I >./ ) } ( 1.:.:.U i.j.j.c.l.l.j.l.l.y.l.l.l.l.l.l.l.l.l.j.j.j.j.j.j.j.j.",
"j.j.j.j.j.j.j.j.j.j.j.j.j.j.j.j.l.l.l.l.l.l.j.j.t...R >.) ) } } [ ' 1.2.:.U p.j.j.l.l.l.l.l.l.l.l.l.l.l.l.l.l.l.l.j.j.j.l.j.j.j.",
"j.j.j.j.j.j.j.j.j.j.j.j.j.j.j.j.c.j.j.j.j.l.j.j.C G / ) ) ) } { [ [ [ 1.' E b r.l.s.l.j.l.l.l.l.l.l.l.l.l.l.l.l.j.j.l.j.j.j.j.j.",
"j.j.j.j.j.y.j.j.j.j.j.y.j.j.s.j.j.j.j.j.l.l.j.D X.4.W.) ) ) } } [ ` ' T.yX>.^ a.l.l.l.l.l.l.l.l.l.l.l.l.l.l.l.l.j.l.j.j.j.j.j.j.",
"j.j.j.j.j.j.j.y.j.j.j.j.j.j.j.j.j.j.j.j.j.j.j.m <.%XW.T.W.tXT.^.tX$XR.R.gX~.5.X.r.l.l.l.l.l.l.l.l.l.l.l.l.l.l.l.l.l.l.l.j.j.j.l.",
"j.j.j.j.j.j.j.j.j.j.j.j.j.j.j.j.j.j.j.j.j.j.r.b <.W.R.3.tXgXR.uXgXfX^.3.&X^.>.J %.l.l.l.l.c.z.l.l.l.l.l.l.l.l.l.l.l.l.l.j.l.j.j.",
"j.j.j.j.j.j.j.j.j.j.j.j.j.j.y.j.j.j.j.j.j.j.x ~ O._ ) 3.^.uXR.$XuX&XW._ ) ) ) ,.$.d.j.c.l.l.l.l.l.l.l.l.l.l.l.l.l.l.l.l.l.l.j.j.",
"j.j.j.j.j.j.j.j.j.j.j.j.j.j.j.j.j.j.j.j.j.j.e G ,.:.] ] ` [ ` ' ] ) } } } } 2.>.~ A j.l.l.l.l.z.l.l.l.l.l.l.l.l.l.l.l.l.j.l.l.l.",
"j.j.j.j.j.j.j.j.j.j.j.j.j.j.j.j.j.j.j.j.j.j.l > / >.2.} ] { { [ ' ` ] { } ` ( P Y $.l.l.l.l.l.l.l.l.l.l.l.l.l.l.l.l.l.l.l.l.l.l.",
"j.j.j.j.j.j.j.j.l.l.l.j.j.j.j.j.j.j.l.l.l.l.y.r 7 P _ ] ' ` [ 1.1.] ] } ` } _ / %.s.c.l.l.l.l.l.l.l.l.l.l.l.c.l.l.c.l.l.l.l.l.l.",
"j.j.j.j.j.j.j.j.l.l.l.l.l.l.l.j.j.l.l.l.l.l.Z.> 7 P R / ( 1.1.1.1.1.} ( P / I 1 C l.l.c.l.l.l.l.l.l.l.l.l.c.c.l.l.l.l.l.l.l.l.l.",
"j.j.j.j.j.j.j.j.l.l.l.l.l.l.j.j.j.j.j.l.l.l.x.z s a a Y T T E T E E T P J s G < C l.c.c.l.c.l.l.l.l.l.l.l.l.l.l.l.l.l.l.l.l.l.l.",
"l.l.l.l.j.j.j.j.l.l.l.c.l.l.l.l.l.l.l.l.l.l.l.0.W n O.f L I I I Y Y I J w @.w +.m.l.l.l.l.l.l.z.l.l.l.l.l.l.l.l.l.l.l.l.l.l.l.l.",
"l.l.l.l.j.j.j.j.l.l.l.l.l.l.l.l.l.l.l.l.l.l.l.K.0.+.+. .a f a a F F F H X.o.@.(.K.l.l.c.l.l.l.l.l.l.c.l.l.c.l.l.l.l.l.l.l.l.l.l.",
"l.l.l.l.l.l.j.j.c.c.l.l.l.l.l.l.y.l.l.l.l.j.l.Z.F.+.8 8.| @.@.o.@. .!  .-.@ w.F.Z.l.l.c.l.l.l.l.l.l.l.l.l.l.l.l.l.l.l.l.l.l.l.l.",
"l.l.l.l.l.l.j.j.l.c.l.l.l.l.l.l.l.l.l.l.l.l.x.}.*.e t o.[.;XuX6X6X*X/.Q.N i 3 w.K.l.l.l.l.l.l.l.l.l.l.l.l.c.c.l.l.l.l.l.l.l.l.l.",
"l.j.l.l.l.c.l.l.l.l.c.l.l.l.l.l.l.l.l.l.j.l..Xn +.oXiX<X[.)./.H.H.).).XX6X[./.g Z f.l.s.l.l.l.j.l.c.c.l.l.l.l.l.l.l.l.l.l.l.l.l.",
"l.l.l.l.l.l.c.c.l.l.l.c.l.c.l.c.l.l.l.l.j.j.=Xm % #.(.`.8XqX6X8X4X4X6X<X/.).b 3   l l.l.l.l.j.j.l.l.l.l.l.l.l.l.l.l.l.l.l.l.l.l.",
"j.j.l.l.c.l.l.l.l.l.l.l.l.c.l.l.l.l.l.l.c..Xm #.M.*.x x B x B x B V B B x x -.M.0.Z l c.l.l.j.j.l.c.l.l.l.l.l.l.l.l.l.l.l.l.l.l.",
"j.l.l.l.l.l.l.l.l.l.l.c.c.l.l.c.l.l.l.l.c.2Xu J.,X+X`._.].G.G.G.H.].[.[.).;.S.OX X$.x .Xl.l.j.j.l.l.l.l.l.l.l.l.l.l.l.l.l.l.l.l.",
"j.j.l.l.l.l.l.l.l.l.l.l.l.l.l.l.l.l.l.l.b.*.> J.3X0X<X+X+X8XeXwXqXqXaX5X@XD.F.:X:XG.;.-.x.l.l.l.j.j.j.c.l.l.l.l.l.l.l.l.l.l.l.l.",
"l.l.j.l.l.l.c.l.c.l.l.l.l.l.l.l.l.l.l.c.n.  > J.>X>X+X(.(.@X7XwXpXpX4X+XD.S.;.OX3X3XS.: Y.l.j.l.l.l.j.j.l.l.l.l.l.l.l.l.l.l.l.l.",
"l.l.l.l.c.c.j.l.l.l.l.l.l.l.l.l.l.l.l.z.K.  V Y.3XOXm.'.(. X>XwXaXpX,X XS.S.x G.3X3XK.> .Xc.l.l.l.l.j.j.l.l.l.l.l.l.l.l.l.l.l.l.",
"l.l.l.l.j.c.c.j.l.l.l.l.l.l.l.l.l.l.l.c.C.  I.3X3XC.v `.(.0XeX0XpXpXqX>XD.J.> G.8X3XF.> :Xc.l.l.l.l.l.l.l.l.l.l.l.l.l.l.l.l.l.l.",
"l.c.c.c.c.c.c.l.l.l.l.l.l.l.l.l.l.l.l.v.P.; OX3X3XJ.v ).`.wX9XwXwXpX0X,XS.> - [.4X8X[.e =Xx.l.l.l.l.l.l.j.j.j.j.l.l.l.j.l.j.j.j.",
"l.l.c.l.l.c.l.l.l.l.l.l.l.l.l.l.c.c.c.d.- M.>X8X@X$.v `.'.7X0XeX0X0X0X7XS.> 9 9.-XsX,X7.= P.x.j.l.l.l.j.l.j.l.j.l.l.l.l.l.l.j.j.",
"l.l.c.l.c.c.c.l.l.l.l.l.Z.y.c.l.l.l.x.h.  -X9X9XM...N.`.<X9XwXeX0X0XeX>XS.0.d 9.=X5XXXy   }.b.j.l.l.l.l.l.j.j.c.l.l.l.l.l.l.y.l.",
"c.l.l.l.c.l.l.l.l.l.l.l.l.l.y.l.j.z.i.n &.$.-X=X$...).[.aX0X9XeX0X0XeXeX#XD.k H @.$.o.&.  }.b.j.j.j.j.j.j.j.j.j.l.l.l.l.j.l.l.l.",
"l.c.l.c.c.l.l.c.l.l.z.l.l.f.l.l.l.x.%.& o.N.9.*.i ..[.-XqX0X0X7XeXeXeX8X3X].k  .w.B.9.b % oXb.j.j.j.j.j.j.j.j.j.j.j.j.j.j.j.j.j.",
"l.c.l.c.l.l.l.l.l.l.l.l.l.l.l.l.l.p.#.*.u M.9.&.k i 9.`.=X=X-X4XeXwXeX8X8X@Xn X.M.B.e.b % oXb.j.j.j.j.l.j.j.j.j.j.j.j.c.j.j.j.j.",
"c.l.l.l.l.l.l.l.l.l.l.l.l.l.l.l.x.Z Q 1X#.z A.e.b e b ..).D.).@X,X,X,X8X8X8XN * h Q 9.!.+ .Xb.c.j.j.j.j.j.j.j.j.j.j.j.j.j.j.l.j.",
"c.c.c.l.l.l.z.l.l.l.l.l.l.l.l.l.x.Z Q 1XpX9.t * * W B.B.M.D.[.].|. X@X4X4X-Xi - +.`.oX`.6 C.x.j.j.j.j.j.c.j.j.j.c.j.j.j.j.j.c.j.",
"l.l.l.l.l.l.l.l.l.l.l.l.l.l.l.l.c.A z }.<X`.9 M.o.@ 9 t i A.-X4X1X<X6X;X~.r : : : . . p 2Xx.c.j.l.j.j.j.j.j.j.j.j.j.j.j.j.j.j.j.",
"l.l.l.l.l.l.l.c.l.z.l.l.l.l.l.l.j.k.S % % % V.n -.{.=XhXsXi r r r r k p p dX@Xo.@ o.@XI.x.j.c.j.j.j.j.j.j.j.j.j.j.j.j.j.c.j.j.j.",
"l.l.j.l.l.c.l.l.l.l.c.l.l.l.l.l.j.j.k.a.g.h.U.i 8 M M X.o.<XiXsXiXiXiXiXiX;X@.r w d X.K.j.j.j.j.j.j.j.j.j.j.j.j.j.j.j.j.j.j.j.j.",
"l.l.j.l.l.l.l.l.l.l.l.l.l.c.l.l.j.j.j.c.x.n...q p o.-.7.7.8.8.7.8.8.8.8.8.O.8.L a 0 h U.j.j.j.c.j.j.j.j.j.j.j.j.j.j.j.j.j.j.j.j.",
"l.l.l.l.l.l.c.l.l.l.l.l.l.l.l.l.j.j.j.j.c.C.= 9 k | o.o.@.q , @ @ M -.8.{.{.%X<.a 1 W C.k.c.j.j.j.j.j.j.j.j.j.j.l.j.j.j.j.c.j.j.",
"l.l.l.l.l.l.l.l.l.l.c.l.l.j.l.j.l.j.j.c.j.L.3 q n W L | L a , i w M 8.~.*X%X~.O.G 1 z C.c.k.j.j.c.j.j.j.j.j.j.j.j.j.j.j.j.j.j.j.",
"l.l.l.l.l.l.l.l.j.l.l.j.j.j.l.l.l.l.j.k.k.m.4 f <.q.q.q.<./ o 9.$.r , k M 8 L L U 6 h b.j.j.j.j.j.j.j.j.j.j.j.j.j.j.j.j.j.j.j.j.",
"l.l.l.l.l.l.l.l.l.l.l.j.j.j.l.c.l.l.c.k.v.+ 5 ~ 6.R.q.<.L k 5 i.K.%.: @ 0 / / L K 6 z v.j.j.j.j.j.j.c.j.j.j.j.j.j.j.j.j.l.l.j.j.",
"l.l.l.l.l.j.j.j.j.l.l.j.j.j.l.l.l.l.l.c.n.O G 4.5.U G U I # V.v.j.n.g.+ j 6.w. .d & u x.j.c.j.j.j.j.c.j.j.j.j.j.j.j.y.l.l.l.l.l.",
"l.l.l.l.l.l.l.j.j.j.l.j.j.j.l.l.l.z.l.z.n.+ G 4.w.W.4.G G # g.v.j.k.%.# 4 t 9 8 e.9.z b.j.j.j.j.j.j.j.j.j.j.j.j.j.j.j.j.l.l.l.l.",
"j.l.l.l.l.j.l.l.j.l.l.j.j.j.l.l.l.l.l.z.n.+ < f 5.q.W.5.< m.f.c.j.j.f.%.&  .XX@XXX0.m z b.c.j.j.j.j.j.j.j.j.j.j.y.j.j.j.l.l.l.l.",
"j.l.l.l.l.l.j.l.l.l.j.j.j.l.l.l.l.l.l.z.v.+ w.B.+.W Q 6 o n.z.j.j.j.z.f.%.u e.|.B...e ; C.j.j.j.j.j.j.j.j.j.j.j.j.j.j.j.l.l.l.l.",
"l.j.j.j.j.j.l.j.j.l.j.l.l.j.j.l.l.l.j.l.v.+ XX<XV.~ d * #.z.c.l.j.j.j.z.v.Z i N N N n - C.c.c.j.c.j.j.j.j.j.j.j.y.j.l.l.l.l.l.j.",
"j.l.j.j.j.j.j.j.j.j.j.l.j.j.j.l.l.l.f.l.v.+ 9.+XoXm.t e K.c.c.c.j.z.c.f.A %.@ p | X.Q - %.v.c.c.j.j.j.j.c.j.j.j.l.j.j.l.l.l.j.l.",
"j.j.j.l.j.j.j.j.l.j.j.j.j.j.j.l.l.j.j.j.k.  t *.9.N . r a.u.u.r.r.r.u.%.2 2 X H 6. .h u Q i.k.c.j.j.j.j.j.j.j.l.l.l.l.l.j.l.j.l.",
"j.j.j.j.l.j.j.j.l.j.j.j.j.j.j.l.l.l.j.j.i.& *.N >   . : , 8 3 4 2 2 @ 8 2 2 2 o 6 H g +.;X& p.x.j.j.j.j.j.j.j.j.l.l.l.y.j.j.j.j.",
"j.j.j.j.j.j.j.j.j.j.j.j.l.j.j.l.j.j.c.u.+ H 6.9.| @ X 8 8 , 2 8 2 2 2 2 , 8 8 X M 8.7. .Q.O i.c.j.j.l.l.l.l.l.l.l.l.l.l.l.l.j.j.",
"j.j.j.j.j.j.c.j.l.j.j.j.j.j.j.j.j.j.D h ;XL L a @ X , 8 , 8 , 8 2 2 0 2 , 0 , X r / L 4 3 i.j.j.j.s.l.l.s.l.l.s.j.l.s.j.l.l.j.j.",
"l.l.l.j.j.j.j.j.j.j.l.j.j.l.j.j.j.j.D 6 {.~ *.~ , o , , 8 0 : 8 2 4 q 4 4 0 4 o . . . : t.j.j.l.j.j.l.l.l.l.l.l.l.l.l.l.j.j.l.l.",
"l.l.l.j.j.j.j.j.j.l.j.j.j.j.j.j.j.c.y.A G s H d @ o 8 y D S D D S S S S S S S S A A A D j.j.c.l.j.l.l.l.l.l.l.l.j.l.j.l.j.j.j.j.",
"l.l.l.j.j.j.j.j.j.j.l.j.j.j.j.j.j.j.j.y.c = O O < z Z %.l.l.l.l.l.l.l.s.l.l.c.l.l.l.l.l.l.l.l.l.l.l.l.l.s.l.l.l.l.l.l.l.j.l.l.l.",
"j.l.l.j.j.j.j.j.j.j.j.j.j.j.j.l.j.c.c.c.j.c z x c S j.c.l.l.l.l.l.l.l.l.l.l.l.l.l.l.l.l.l.l.l.l.l.l.l.l.l.l.l.l.l.l.l.l.l.l.l.l.",
"l.l.l.j.j.j.j.j.j.j.j.j.j.l.j.l.c.j.j.c.c.j.l.l.l.j.l.j.l.l.l.l.l.l.l.l.l.l.l.l.l.l.l.l.l.l.l.l.s.l.l.l.s.l.l.l.l.l.l.l.l.l.l.l.",
"l.j.l.j.j.c.j.l.j.j.j.j.j.j.j.j.j.j.j.j.j.j.l.l.l.j.l.j.l.c.y.l.l.l.l.l.l.l.l.l.l.l.l.l.l.l.l.l.l.l.l.l.l.l.l.l.l.l.l.l.l.l.l.l."
};
