/* XPM */
static char *result[] = {
/* columns rows colors chars-per-pixel */
"50 50 228 2 ",
"   c #060105",
".  c #0D0203",
"X  c #05030D",
"o  c #0C030C",
"O  c #0D090D",
"+  c #090A08",
"@  c #140203",
"#  c #1A0001",
"$  c #13030C",
"%  c #1A050B",
"&  c #120A0B",
"*  c #180905",
"=  c #040215",
"-  c #0B0314",
";  c #050319",
":  c #0B031C",
">  c #0A0A17",
",  c #130412",
"<  c #1E0514",
"1  c #140B13",
"2  c #13061B",
"3  c #150A1B",
"4  c #190A18",
"5  c #190D14",
"6  c #1D161C",
"7  c #1D1B1C",
"8  c #1D1813",
"9  c #2D1C0D",
"0  c #261909",
"q  c #251412",
"w  c #231B14",
"e  c #2A1B14",
"r  c #21171E",
"t  c #241C1B",
"y  c #2A1D1A",
"u  c #2D1316",
"i  c #321C16",
"p  c #2B1206",
"a  c #26200A",
"s  c #362406",
"d  c #242114",
"f  c #2B2016",
"g  c #24211C",
"h  c #2A221B",
"j  c #392318",
"k  c #0A0422",
"l  c #0B0C23",
"z  c #050524",
"x  c #120A25",
"c  c #1D1D24",
"v  c #1B1D29",
"b  c #1A1722",
"n  c #181C33",
"m  c #231C23",
"M  c #291C23",
"N  c #231C2B",
"B  c #281623",
"V  c #231F30",
"C  c #1F2222",
"Z  c #1D223B",
"A  c #242224",
"S  c #2B2325",
"D  c #24222A",
"F  c #29222B",
"G  c #2C292B",
"H  c #352621",
"J  c #222433",
"K  c #2B2B34",
"L  c #34323B",
"P  c #3C353B",
"I  c #353336",
"U  c #3B2F3D",
"Y  c #452816",
"T  c #42363C",
"R  c #2B3949",
"E  c #353443",
"W  c #393443",
"Q  c #3C3B44",
"!  c #34334C",
"~  c #3A354C",
"^  c #35394B",
"/  c #393A4B",
"(  c #323844",
")  c #333552",
"_  c #343B51",
"`  c #3B3B55",
"'  c #333C5A",
"]  c #3A3858",
"[  c #2C2E50",
"{  c #413A44",
"}  c #413748",
"|  c #3D404F",
" . c #3C455D",
".. c #3C4463",
"X. c #3C456C",
"o. c #344A6A",
"O. c #3D4B6C",
"+. c #364767",
"@. c #3A4C73",
"#. c #374976",
"$. c #43465C",
"%. c #454A5E",
"&. c #4B4B5A",
"*. c #484855",
"=. c #565356",
"-. c #655346",
";. c #675858",
":. c #725355",
">. c #414464",
",. c #434C6B",
"<. c #484A69",
"1. c #444C74",
"2. c #4D5266",
"3. c #6D6B6C",
"4. c #6E666D",
"5. c #6C6B73",
"6. c #6B6B7C",
"7. c #6B6779",
"8. c #726B73",
"9. c #726B7B",
"0. c #766976",
"q. c #767377",
"w. c #716B6B",
"e. c #9C8758",
"r. c #948A6C",
"t. c #9D8862",
"y. c #8C847D",
"u. c #8D897D",
"i. c #928675",
"p. c #92857B",
"a. c #958B7C",
"s. c #9B8A7D",
"d. c #988776",
"f. c #98907E",
"g. c #9D906D",
"h. c #A2857A",
"j. c #6C6C84",
"k. c #6D6E8A",
"l. c #676682",
"z. c #746E83",
"x. c #716E89",
"c. c #757382",
"v. c #70718D",
"b. c #6E728C",
"n. c #8E8684",
"m. c #8E8A84",
"M. c #8E858C",
"N. c #8C898C",
"B. c #948583",
"V. c #948B84",
"C. c #9A8B83",
"Z. c #92868D",
"A. c #948B8B",
"S. c #9C8A8A",
"D. c #998586",
"F. c #96918A",
"G. c #8C8A94",
"H. c #969090",
"J. c #A18884",
"K. c #A6958C",
"L. c #A79C9C",
"P. c #A5A29E",
"I. c #9B9AA1",
"U. c #989CAB",
"Y. c #9B9DB2",
"T. c #A29EA5",
"R. c #9BA1B7",
"E. c #A3A2AB",
"W. c #A7A2A6",
"Q. c #BDAEB8",
"!. c #BCB4BA",
"~. c #A5A7B3",
"^. c #D3BA88",
"/. c #CABF96",
"(. c #D7BE9A",
"). c #C4AB97",
"_. c #CCBBA6",
"`. c #D1B9A7",
"'. c #C5B3B6",
"]. c #CCBBB3",
"[. c #C9B5BD",
"{. c #D1BFBA",
"}. c #D8BBB8",
"|. c #C8ADB4",
" X c #E2BEB2",
".X c #D5C899",
"XX c #CFC095",
"oX c #DAC9AD",
"OX c #D7C8A5",
"+X c #CDC3B6",
"@X c #CEC6BB",
"#X c #CFCBB9",
"$X c #D2C1B5",
"%X c #D5C5BB",
"&X c #D4CCBB",
"*X c #DACABC",
"=X c #DAC5B8",
"-X c #D7D0B8",
";X c #D9D1A2",
":X c #BDB7C2",
">X c #C1AFC1",
",X c #C4B4C4",
"<X c #C6B9C4",
"1X c #CBBBC2",
"2X c #C7B8CA",
"3X c #CDC2C1",
"4X c #CCC6C5",
"5X c #D2C5C3",
"6X c #D4CAC4",
"7X c #D7C9C7",
"8X c #DBD0C6",
"9X c #DED9D5",
"0X c #EBD9CD",
"qX c #E7D5CB",
"wX c #EBD5D1",
"eX c #E9DAD8",
"rX c #F1DBD2",
"tX c #F0D7D0",
"yX c #EAD1CA",
"uX c #E2D8E0",
"iX c #FFF2EC",
"pX c #FFF0E4",
"aX c #EDF4FF",
"sX c #F4F4F5",
"dX c #F2F4FF",
"fX c #FBFCFE",
"gX c #FCF7F9",
"hX c None",
/* pixels */
"hXhXhXhXhXhXhXhXhXhXhXhXhXhXhXhXhXhXhXhXhXhXhXhXhXhXhXhXhXhXhXhXhXhXhXhXhXhXhXhXhXhXhXhXhXhXhXhXhXhX",
"hXhXhXhXhXhXhXhXhXhXhXhXhXhXhXhXhXhXhXhXhXhXhXhXhXhXhXhXhXhXhXhXhXhXhXhXhXhXhXhXhXhXhXhXhXhXhXhXhXhX",
"hXhXhXhXhXhXhXhXhXhXhXhXhXhXhXhXhXhXhXhXhXhXhXhXhXhXhXhXhXhXhXhXhXhXhXhXhXhXhXhXhXhXhXhXhXhXhXhXhXhX",
"hXhXhXhXhXhXhXhXhXhXhXhXhXhXhXhXhXhXhXhXhXhXk ; ; ; : hXhXhXhXhXhXhXhXhXhXhXhXhXhXhXhXhXhXhXhXhXhXhX",
"hXhXhXhXhXhXhXhXhXhXhXhXhXhXhXhXhXhXhXhX> z [ @.X.>.] k : hXhXhXhXhXhXhXhXhXhXhXhXhXhXhXhXhXhXhXhXhX",
"hXhXhXhXhXhXhXhXhXhXhXhXhXhXhXhXhXhXhX; ) @.#.#.#.#.X.>.~ X hXhXhXhXhXhXhXhXhXhXhXhXhXhXhXhXhXhXhXhX",
": hXhXhXhXhXhXhXhXhXhXhXhXhXhXhXhXhXhX_ 1.+.@.o.#.#.@.X.,.] ; hXhXhXhXhXhXhXhXhXhXhXhXhXhXhXhXhXhXhX",
"%.k hXhXhXhXhXhXhXhXhXhXhXhXhXhXhXhX: >.O.@.o.o.@.o.,.O.>.>.z hXhXhXhXhXhXhXhXhXhXhXhXhXhXhXhXhXhXhX",
"$.l hXhXhXhXhXhXhXhXhXhXhXhXhXhXhX: &.Y.>.R.aX,.dXaXR.%.dX .<.k hXhXhXhXhXhXhXhXhXhXhXhXhXhXhXhXhXhX",
"$.%.hXhXhXhXhXhXhXhXhXhXhXhXhXhXhXl Y.Y.%.U.fX>.dXfXR. .fXR.X.z hXhXhXhXhXhXhXhXhXhXhXhXhXhXhXhXhXhX",
"2.} = hXhXhXhXhXhXhXhXhXhXhXhXhXl ....O.+.,.n ) _ ` Z ..O.o.o.,.hXhXhXhXhXhXhXhXhXhXhXhXhXhXhXhXhX: ",
">./ x hXhXhXhXhXhXhXhXhXhXhXhXhX;  .,.' >...J W W ( b %...' O...: hXhXhXhXhXhXhXhXhXhXhXhXhXhXhX: $.",
"^ > hXhXhXhXhXhXhXhXhXhXhXhXhXhXhX! *.E N M 5Xy e j 6Xy N E <.) : hXhXhXhXhXhXhXhXhXhXhXhXhXhXhXk <.",
"^ ; hXhXhXhXhXhXhXhXhXhXhXhXhXhXhX6 } 6 S.e e `.`.`.9 9 A.F ! x hXhXhXhXhXhXhXhXhXhXhXhXhXhXhXhXk ] ",
"^ = hXhXhXhXhXhXhXhXhXhXhXhXhXhXhXO L N M gXL.%XrX=XK.fXt N ~ = hXhXhXhXhXhXhXhXhXhXhXhXhXhXhXhXhX= ",
"= hXhXhXhXhXhXhXhXhXhXhXhXhXhXhXhXO P m Z.gXL.wXeX0XK.iXA.A L - hXhXhXhXhXhXhXhXhXhXhXhXhXhXhXhXhX  ",
", hXhXhXhXhXhXhXhXhXhXhXhXhXhXhXhX:X1 t B.rXiXwXiXrXpXqXC.w X 2XhXhXhXhXhXhXhXhXhXhXhXhXhXhXhXhXhX$ ",
"& 1XhXhXhXhXhXhXhXhXhXhXhXhXhXhXhX!.. y i s.rXwXtXwX0Xs.d h 5 !.hXhXhXhXhXhXhXhXhXhXhXhXhXhXhXhXhXhX",
"i.* [.hXhXhXhXhXhXhXhXhXhXhXhXhX<X& q 6Xp.9 -.$X=X$X-.e p.4Xt - hXhXhXhXhXhXhXhXhXhXhXhXhXhXhXhXhX1X",
"s i.@ hXhXhXhXhXhXhXhXhXhXhXhX}.@ i.p.*X8X0 f w q e H t 6X6XV.* hXhXhXhXhXhXhXhXhXhXhXhXhXhXhXhX'.* ",
".X.Xj # hXhXhXhXhXhXhXhXhXhXhX# (.e.s g.#Xd =.*.&.*.Q F @Xp.9 @ hXhXhXhXhXhXhXhXhXhXhXhXhXhXhX].@ i.",
".X.XY # hXhXhXhXhXhXhXhXhXhX# Y ^.^.t.0 F.4Xv aXaXU.Z 7XC.s t.OX@ hXhXhXhXhXhXhXhXhXhXhXhXhX|.% OXoX",
".XXX).% hXhXhXhXhXhXhXhXhXhX# Y (.OXd.C.M G.G.J J C G.u.0 g..X^.* hXhXhXhXhXhXhXhXhXhXhXhXhX# Y /.OX",
";X;Xh.# hXhXhXhXhXhXhXhXhXhX# `.oXoXh.B.Z.N A N.N.H.8 g a.r.;X/.@ hXhXhXhXhXhXhXhXhXhXhXhX[.@ _.#XoX",
"r.OXC.# 1XhXhXhXhXhXhXhXhX* 5X=X*Xi.S.w A.d C.d d 8 m.g F.d i.&X+ hXhXhXhXhXhXhXhXhXhXhXhX% p.8X*Xi.",
"f.f.D.J.@ hXhXhXhXhXhXhXhX. yX=X%Xp.h h d d #X#Xd -X5Xt t 8 C.6Xn.O hXhXhXhXhXhXhXhXhXhX<X@ J.$X].K.",
"d m.5XS.@ hXhXhXhXhXhXhXhX& %X%Xs.m.t y V.@Xd &Xa #Xg F.6XS h 4Xn.5 hXhXhXhXhXhXhXhXhXhX$ D.%X=X*Xe ",
"A N.7X{.y . hXhXhXhXhXhX& n.%X6XV.h d n.y h w &Xd #Xg w y w w A.6Xt $ hXhXhXhXhXhXhXhXhX, D.i 9 e C.",
"7 A y e K.@ hXhXhXhXhXhX. g t 7Xm.8 d u.V.a.].C.e p.B.S.A.n.F m w V.@ hXhXhXhXhXhXhXhXhX$ y D.s.s.y ",
"c m V.*Xs.q $ hXhXhXhXhX& V.7X8 g 7 d F.p.+XqX{.e C.s.C.y.A c A.C.C.q < hXhXhXhXhXhXhXhX, D.9 9 f p.",
"c + f 0 e %X< hXhXhXhXhX. d h 7XN.7 g g d 6X3X8XM 7X&X+X*Xa.f w e q 7X@ hXhXhXhXhXhXhXhX$ y %X0Xp.y ",
"O !.. s.{.D.$ hXhXhXhXhX. +XrXe m D g P.P.t S t t %X&X&Xf.i.d e D.{.D.< hXhXhXhXhXhXhXhX[.# {.+XA.t ",
"T.o '.@ $ $ hXhXhXhXhXhX# }. Xh.y N A A 7 gXsXP.g m.F.m.y.g t S @ % $ hXhXhXhXhXhXhXhXhXhX$ B.S.c v ",
"E.o hX<X,XhXhXhXhXhXhXhX# J.h.i T 6 L 5.3.A D sXsX7 g A g W.H.1 <XhXhXhXhXhXhXhXhXhXhXhXhX1X. N N | ",
"c = hXhXhXhXhXhXhXhXhXhXhX4 r B L K U.E.E.5.K A D fXsXI.E.7 D O hXhXhXhXhXhXhXhXhXhXhXhXhXhXQ., U 7 ",
"j.E > hXhXhXhXhXhXhXhXhXhXhX> E c R.R.aXdX~.6.| c C C Z b c.7.- 2XhXhXhXhXhXhXhXhXhXhXhXhXhX4 U G I.",
"R | > hXhXhXhXhXhXhXhXhXhXhXX ( Z ) k.k.fXdXI.W X D W 6.j.6.l.~ - hXhXhXhXhXhXhXhXhXhXhXhXhX, N n ! ",
"R R = hXhXhXhXhXhXhXhXhXhXhXO D ] [ v.l.6.6.E.O :XX E / j.v.] ~ 2 hXhXhXhXhXhXhXhXhXhXhXhXhX, N ) ] ",
"3.g S   hXhXhXhXhXhXhXhXhXhXhX- ! v.l.x.c.7.{ o hX1 Z E / [ [ ` m , hXhXhXhXhXhXhXhXhXhXhXhX,X, ~ k.",
"d f ].* '.hXhXhXhXhXhXhXhXhXhX- ` l.x.l.7./ - hXhX:XO N ~ c.j.~ m @ hXhXhXhXhXhXhXhXhXhXhXhXhX, z.l.",
"tX}.h.:.# hXhXhXhXhXhXhXhXhXhX$ N 7.c.9.W } - hXhXhX2X= N Q c A A.;.. hXhXhXhXhXhXhXhXhXhXhXhXo N 9.",
":.J.:.u % hXhXhXhXhXhXhXhXhXhX$ 4X7 r N , - hXhXhXhXhX,X, o =.F.=.t $ hXhXhXhXhXhXhXhXhXhXhXhX$ Z.r ",
"% B M 0.$ hXhXhXhXhXhXhXhXhXhXX t A.n.$ <X2XhXhXhXhXhXhX!.g & 7 S 4.{ o hXhXhXhXhXhXhXhXhXhX- B S C.",
"2 0.0.W m $ hXhXhXhXhXhXhXhX- 9.P t S $ 6 hXhXhXhXhXhXm S t . 4.8.{ M , hXhXhXhXhXhXhXhXhXhX2 0.T w ",
"b + C b Q m 1 hXhXhXhXhXhXhX: 9.9.T . r S A t m F 7 7 6 S 7 A O m F L B 4 hXhXhXhXhXhXhXhXhX2 9.5.W ",
"A + I 3.q.M.o hXhXhXhXhXhX2 ~ W b F O 7 A 7 A g t g G A 7 7 A O P 4.0.M., hXhXhXhXhXhXhXhXX W F D v ",
"t t 1 N.uX1 hXhXhXhXhXhXhXo U 8.q.  7 D A g 7 C g c 7 7 c D m c . F.uX4 hXhXhXhXhXhXhXhXhX4 T 4.5.  ",
"m S m O , hXhXhXhXhXhXhXhXo A.eX{.+ A A c m m v C A c A F 7 F m &   & hXhXhXhXhXhXhXhXhXhX% Z.uX4X. ",
"hX,XhXhXhXhXhXhXhXhXhXhXhXhX* 1XV.& m m m B 2X,X,X,X,X,X,XhXhXhXhXhXhXhXhXhXhXhXhXhXhXhXhXhX$ 3XA.. ",
"hXhXhXhXhXhXhXhXhXhXhXhXhXhXhX% . t {.Q.<X>XhXhXhXhXhXhXhXhXhXhXhXhXhXhXhXhXhXhXhXhXhXhXhXhX'.% * w "
};
