/* XPM */
static char *result[] = {
/* columns rows colors chars-per-pixel */
"64 64 225 2 ",
"   c #1B1515",
".  c #1D1C1C",
"X  c #161719",
"o  c #161A0F",
"O  c #211616",
"+  c #221D1B",
"@  c #241818",
"#  c #27170E",
"$  c #1C241B",
"%  c #1C2316",
"&  c #22221B",
"*  c #29241E",
"=  c #252818",
"-  c #372B1B",
";  c #313119",
":  c #1C1D24",
">  c #1A1A27",
",  c #1C1D37",
"<  c #261B25",
"1  c #291D31",
"2  c #192225",
"3  c #232323",
"4  c #2C2324",
"5  c #2D2923",
"6  c #2A242C",
"7  c #28282B",
"8  c #322322",
"9  c #332C24",
"0  c #342E2C",
"q  c #3B2D2C",
"w  c #392826",
"e  c #3A332D",
"r  c #393525",
"t  c #2B2A35",
"y  c #272938",
"u  c #322C34",
"i  c #362C38",
"p  c #2B333C",
"a  c #3E3334",
"s  c #34333B",
"d  c #3C343B",
"f  c #393737",
"g  c #442B1C",
"h  c #422E2D",
"j  c #4D3220",
"k  c #463A2A",
"l  c #553C29",
"z  c #5B3B2B",
"x  c #553725",
"c  c #4B3D35",
"v  c #433C3C",
"b  c #463838",
"n  c #563D35",
"m  c #574429",
"M  c #4B4135",
"N  c #45413B",
"B  c #4C443B",
"V  c #454237",
"C  c #53443D",
"Z  c #554739",
"A  c #49412D",
"S  c #64432A",
"D  c #6B492C",
"F  c #724C2F",
"G  c #684A37",
"H  c #744E31",
"J  c #66543A",
"K  c #755234",
"L  c #795539",
"P  c #2A2A45",
"I  c #342E44",
"U  c #333341",
"Y  c #3B3344",
"T  c #343A4A",
"R  c #383947",
"E  c #343C53",
"W  c #3A3C57",
"Q  c #2C3544",
"!  c #383C63",
"~  c #433C4A",
"^  c #453C48",
"/  c #413D56",
"(  c #543F46",
")  c #3E414A",
"_  c #3B435D",
"`  c #3B4051",
"'  c #3C4668",
"]  c #394974",
"[  c #43424C",
"{  c #4D4C4C",
"}  c #4C4448",
"|  c #554D43",
" . c #524B4A",
".. c #584946",
"X. c #555046",
"o. c #5C534B",
"O. c #575449",
"+. c #4D4A52",
"@. c #474558",
"#. c #534B53",
"$. c #554957",
"%. c #565253",
"&. c #5C5255",
"*. c #5C5959",
"=. c #4F5258",
"-. c #604A46",
";. c #62524D",
":. c #675647",
">. c #775C47",
",. c #645C55",
"<. c #685957",
"1. c #725D57",
"2. c #6B6459",
"3. c #75695A",
"4. c #736D57",
"5. c #424867",
"6. c #495169",
"7. c #595867",
"8. c #495A79",
"9. c #565D76",
"0. c #4B4F68",
"q. c #645C64",
"w. c #6B5D69",
"e. c #58637A",
"r. c #5D6065",
"t. c #6A6668",
"y. c #756C6B",
"u. c #776B65",
"i. c #7B746B",
"p. c #78746C",
"a. c #686879",
"s. c #766E74",
"d. c #797577",
"f. c #845937",
"g. c #855A3A",
"h. c #875B39",
"j. c #8C623C",
"k. c #876139",
"l. c #93643D",
"z. c #9B693F",
"x. c #9A673E",
"c. c #845A40",
"v. c #8A6448",
"b. c #956A43",
"n. c #9D6C42",
"m. c #956845",
"M. c #9D7554",
"N. c #8A7057",
"B. c #A56F42",
"V. c #A57042",
"C. c #A67449",
"Z. c #A9754B",
"A. c #A87B57",
"S. c #82746E",
"D. c #877969",
"F. c #877874",
"G. c #957B6E",
"H. c #AC805F",
"J. c #8B827E",
"K. c #8A8377",
"L. c #948779",
"P. c #9D9277",
"I. c #93876B",
"U. c #AC8D7B",
"Y. c #AA9071",
"T. c #C0AC7B",
"R. c #4A5F82",
"E. c #566785",
"W. c #4D6082",
"Q. c #6C6B82",
"!. c #696B84",
"~. c #697589",
"^. c #7B7B87",
"/. c #727B91",
"(. c #657890",
"). c #877B82",
"_. c #7A8291",
"`. c #89878A",
"'. c #958A83",
"]. c #978988",
"[. c #9B938A",
"{. c #9B9586",
"}. c #838B98",
"|. c #918E99",
" X c #9B9796",
".X c #A4938A",
"XX c #A69885",
"oX c #A29994",
"OX c #B39C96",
"+X c #A08883",
"@X c #AEA28D",
"#X c #B6A68A",
"$X c #A9A49D",
"%X c #BAAA99",
"&X c #828CA2",
"*X c #8A95A7",
"=X c #989AA6",
"-X c #96A7BA",
";X c #B5ACA4",
":X c #BDB4A8",
">X c #B7B4B9",
",X c #ABA6AB",
"<X c #C9B98F",
"1X c #C7B8AA",
"2X c #C9BCB2",
"3X c #CEB4A7",
"4X c #CFC2AA",
"5X c #D4C3A5",
"6X c #D6C8BA",
"7X c #CAC0B9",
"8X c #E4C9BA",
"9X c #D5C398",
"0X c #A6B3C5",
"qX c #BDBBC6",
"wX c #C3BBC2",
"eX c #BBC9D7",
"rX c #D1D2D8",
"tX c #EED7C7",
"yX c #F2DDCA",
"uX c #EDDDD2",
"iX c #F6E5D2",
"pX c #EBE0D8",
"aX c #CFDAE1",
"sX c #E6E4EB",
"dX c #DCE7F2",
/* pixels */
"V.V.V.V.B.B.B.B.B.B.B.B.B.B.B.B.B.B.B.B.B.B.V.V.V.V.B.V.B.B.B.Z.B.B.B.B.Z.B.B.B.V.V.V.V.V.V.V.V.V.z.V.V.V.V.V.V.V.z.V.V.V.V.V.V.",
"V.V.V.V.B.B.B.B.B.B.B.B.B.B.B.B.V.B.B.B.V.B.B.V.B.B.B.B.B.B.B.B.B.B.B.B.B.B.B.B.V.V.V.V.z.V.V.V.V.V.V.V.V.V.V.V.V.V.V.V.V.z.V.V.",
"V.V.V.B.B.B.B.B.B.B.B.B.B.B.B.B.B.B.B.B.B.B.B.B.V.B.B.B.B.B.B.B.B.B.B.B.B.B.B.V.V.V.V.V.V.V.V.V.V.V.V.V.V.V.V.z.V.V.V.V.V.V.V.V.",
"V.V.V.B.B.B.B.B.B.B.B.B.B.B.B.B.B.B.B.V.B.B.B.B.B.B.B.B.B.B.B.V.B.B.B.B.B.V.V.V.V.z.V.V.V.V.V.V.V.V.V.V.V.V.V.V.V.V.V.V.V.V.V.V.",
"V.V.V.B.B.B.B.z.B.B.B.B.B.B.B.B.B.B.B.B.B.B.B.B.B.B.B.B.B.B.B.B.B.B.B.B.B.V.V.V.V.V.V.V.V.V.V.z.V.V.V.V.V.V.V.V.V.V.V.B.V.V.V.V.",
"V.C.V.B.B.B.B.B.B.x.B.B.B.B.B.B.B.B.B.B.B.B.B.B.B.B.V.B.B.B.B.B.B.V.B.B.B.V.B.V.V.V.V.V.V.V.V.V.V.z.V.V.V.z.V.V.V.V.V.B.V.V.V.V.",
"V.V.V.B.B.B.z.B.B.B.B.B.B.x.B.B.B.V.B.V.V.V.B.B.B.B.V.B.B.B.B.B.B.B.B.B.B.V.V.V.V.V.V.V.V.V.V.V.V.V.V.V.V.V.V.V.V.B.B.B.B.B.B.B.",
"V.V.B.B.B.B.B.B.B.B.B.B.B.B.B.B.V.V.V.V.V.V.B.B.B.B.B.B.B.n.H H f.x.B.B.B.V.B.V.z.V.V.V.V.V.B.V.V.V.V.V.V.V.V.V.V.B.B.B.B.B.B.B.",
"B.B.B.B.B.B.B.B.x.B.B.B.B.B.B.B.V.V.V.V.V.B.B.B.B.B.x.f.-...I P Y ..n L B.B.B.B.B.B.B.V.V.V.V.V.V.V.V.V.V.V.V.V.V.B.V.B.B.B.B.B.",
"B.B.B.B.B.B.B.B.B.B.B.B.B.B.B.B.V.B.B.V.V.V.B.B.x.m.c.( P ! ] ] ! W , b g.l.B.B.B.B.B.V.V.V.V.V.V.V.V.V.V.V.V.V.V.B.B.B.B.B.B.B.",
"B.B.B.B.B.B.B.x.B.B.B.B.B.B.B.B.B.V.B.B.V.V.B.B.m.G / / ! ] ] ] ] ' ! / ~ b g.n.V.V.V.V.V.V.V.V.V.V.V.V.V.V.V.V.B.B.B.B.B.B.B.B.",
"B.B.B.B.x.B.B.B.B.B.B.x.B.z.B.B.B.B.B.B.V.B.B.B.L ( / ] ] ] ] ] ] ] ] 5.W I n m.V.V.n.V.V.V.V.V.V.V.V.V.V.V.V.V.V.B.B.B.B.B.B.B.",
"B.B.B.B.B.B.x.B.B.B.B.B.B.B.B.B.B.B.B.B.B.B.B.x.( / 5.5.R.R.] E.E.8.6.8.6.E h L V.V.V.V.V.V.V.V.V.V.V.V.V.V.V.V.V.V.V.V.B.B.B.B.",
"B.B.B.B.B.B.B.B.B.B.z.B.B.B.B.B.B.B.B.B.B.B.n.g.( !.9.E.-X-X(.-X0X*X8._./.' i b n.V.V.V.V.V.V.V.V.V.V.V.V.V.V.V.V.V.V.V.B.B.B.B.",
"B.B.B.B.B.B.B.B.B.B.B.B.B.B.B.B.B.B.B.B.B.B.h.n ^.&XE.!.aXeX&XaXdX0Xe.*X0X~.E 1 n.V.V.V.V.V.V.C.V.V.V.V.V.V.V.V.V.V.V.V.B.V.B.B.",
"B.B.B.B.B.B.B.B.B.B.B.B.B.B.B.B.B.B.B.B.B.n.K ( !./.9.9.&X/.a.|.=X(.6.(._.!.W I c.V.V.V.V.C.V.V.V.V.V.V.V.V.V.V.V.V.V.V.V.V.V.V.",
"B.B.B.B.B.B.B.V.B.B.B.B.B.B.B.B.B.B.B.B.B.x.j n ' _ _ ' Q y I Y U P ` ' ' _ ' _ C b.V.V.V.V.V.V.V.V.V.V.V.V.V.V.V.V.V.V.V.V.V.V.",
"B.B.V.B.B.B.B.B.V.B.B.B.B.B.B.V.B.V.B.B.V.B.8 R _ ` Q ` [ @.^ h Y +.` E E ` _ W b j.V.V.V.V.V.V.V.V.V.V.V.V.V.Z.V.V.V.V.V.V.V.V.",
"B.B.B.B.V.B.B.B.B.B.V.V.B.V.V.V.V.B.V.B.V.h.e t ` ` ` f &.S.<.-.<.u.v s T T T P Z l.V.V.V.V.Z.V.V.V.V.V.V.V.V.Z.V.V.Z.V.V.V.V.V.",
"B.B.V.B.V.B.B.B.B.V.V.V.B.V.V.V.V.V.V.V.V.n.S 3 p p =.=.C 1.OX%X.X1.N { ) y y 1 l.B.V.Z.V.V.V.V.V.V.V.V.V.V.V.V.V.V.V.V.V.V.V.V.",
"V.V.V.V.V.V.V.V.V.V.V.V.V.V.V.V.V.V.V.V.V.n.L & 7 p p K.3XOX8X8X3X3XrX.X0 6 y < n.B.B.V.V.V.V.V.Z.V.V.V.V.V.V.V.V.V.V.V.V.V.V.V.",
"V.V.V.V.V.V.B.V.V.V.V.V.V.V.V.V.V.V.V.V.V.V.L 9 p 7 O.$X8X3X8XtX8X2XuX:X^ 6 y u n.B.V.V.V.V.V.V.V.V.V.V.V.Z.V.V.V.V.V.V.V.V.V.V.",
"V.V.V.V.V.V.B.B.V.Z.V.V.V.V.V.V.V.B.V.V.V.V.A.J.7 2 2.;XuXtXyXiXuXuXuX2X} . ~ d.C.V.V.V.V.V.V.V.V.V.V.V.V.V.V.V.V.V.V.V.V.V.V.V.",
"V.V.V.V.V.V.V.B.Z.V.V.V.V.V.V.V.V.B.V.V.V.V.H.$X7 . N S.8XiXyXiXuXpX2X`.a   } [.C.V.V.V.V.V.V.B.Z.V.V.V.V.V.V.V.V.V.V.V.V.V.V.V.",
"V.B.B.V.V.Z.V.V.V.V.Z.V.V.V.V.V.V.V.B.V.V.C.I.:.e 2.p.,.u..X2X6X1X[.,.o.d.2.e | Z.C.B.B.V.B.B.B.V.Z.V.V.V.V.V.V.V.V.V.V.V.V.V.V.",
"V.V.V.V.V.V.V.V.V.V.V.V.V.Z.V.V.V.V.V.z.C.M.>.Z ,.XX;Xu.q ;.G.).S...5 ,.:X@Xk * A.Z.V.V.V.B.V.B.V.V.V.V.V.V.V.V.V.V.V.V.V.V.V.V.",
"B.V.V.V.V.V.V.V.V.V.V.V.V.V.V.V.V.V.V.V.k.L >.N.i.{.7XK.8 h f a b q * u.:XP.M w U.A.V.V.B.B.B.B.V.V.V.V.V.V.V.V.V.V.V.V.V.V.V.V.",
"B.V.V.V.V.V.V.V.Z.V.V.V.V.V.V.V.V.V.V.b.m m Y.Y.J u.%X'.^ } q.t.#.} b i.oX4.k c ].A.V.V.B.V.B.V.V.V.V.V.V.V.V.V.V.V.V.V.V.V.V.V.",
"V.B.V.V.V.V.V.V.V.V.V.V.V.V.V.V.V.V.z.D # m T.<XI.:.,.'.d.7.>XqXd.*. X{.O.J P.@Xw c.Z.V.V.V.V.V.V.V.V.V.V.V.V.V.V.V.V.V.V.V.V.V.",
"V.V.V.V.V.V.V.V.V.V.V.V.V.V.V.Z.V.V.z.D ; J <X9XP.D.X.2.d.t.r.*.=.r.J.p.4.I.<X@Xh N.Z.V.V.V.V.V.V.V.V.V.V.V.V.V.V.V.V.V.V.V.V.V.",
"V.V.V.V.V.V.V.V.V.V.V.V.V.V.V.V.V.V.j.m J #X5X5XP.K.p.2.f { t.s.t.{ r O.I.P.4X@Xh N.Z.V.V.V.V.V.V.V.V.V.V.V.V.V.V.V.V.V.V.V.V.V.",
"V.V.V.V.V.V.V.V.Z.V.V.V.V.Z.V.V.V.z.D Z P.5X9X#XI.4.p.2.N *.X.{ %.%.p O.4.4.%X@Xl Y.Z.V.V.V.V.V.V.V.V.V.V.V.V.V.V.V.V.V.V.V.V.V.",
"V.V.V.V.V.V.V.V.V.V.V.V.C.V.V.V.V.l.- X.6X6X1X{.B r a b p.$Xp.N `. X| b r A P.;X<.&.L.A.Z.B.V.B.V.V.B.B.B.B.V.B.V.B.V.V.V.V.V.V.",
"V.V.V.V.V.V.Z.V.C.V.V.V.z.C.V.V.z.l.- X.6X6X#XU.9 * V o.p.{.{.O.;X[.,.,.M r D.;Xp.v ].U.B.B.B.B.V.V.V.B.V.V.B.B.V.B.B.V.z.V.V.V.",
"V.V.V.V.V.Z.V.V.V.V.V.V.V.V.V.V.l.D A p.6X1XL.2.0 N *.u.| X.L.O. X%. .t.c = o. X`.v ,.G.Z.B.B.B.V.B.B.B.V.V.V.V.B.V.V.V.V.V.B.B.",
"V.Z.V.V.Z.V.V.V.V.C.V.V.C.V.V.V.k.j V p.:X1XD.c u *.*.| Z 2.K.Z {.2.B | c q v p.J.} 4 :.A.B.B.B.B.B.B.V.B.B.B.B.B.B.B.B.B.B.B.B.",
"V.V.Z.B.V.V.V.V.V.V.V.V.V.V.V.V.K - = A S.L.<.q s t.`. X:X4XK.M F.'.'.'.S.o.u d | y.0 M m.B.B.B.B.V.B.B.B.B.B.B.B.B.B.B.B.B.B.B.",
"V.V.B.B.V.V.V.V.V.V.V.V.V.V.V.V.f.g V i.S.;.b * u 7.d. X6X6XP.Z L.[..X.X1.a d ,.u.u.N 5 L C.B.B.B.B.B.V.B.V.B.B.B.B.V.B.B.B.B.V.",
"B.B.B.Z.V.V.V.V.V.V.C.V.V.V.B.B.f.g 9 Z S.'.<.0 7 s } s.:X:XP.Z :X2X2X2X].<.5 a c ..L...H Z.B.B.B.B.B.B.B.B.B.V.B.B.B.B.V.V.B.B.",
"B.B.B.B.V.C.C.V.V.V.V.V.V.V.B.B.L g o.L.F.;.c 4 t 7.d.t.,.O.B r 1X6X6X3X.X2.* 9 N.L.+X..H Z.B.B.V.B.V.B.B.B.B.B.B.B.V.V.V.V.B.B.",
"Z.B.V.V.V.Z.B.V.B.V.V.V.V.V.V.V.f.g u.1X.X;.8 & 6 d +.a.,X$Xp.O.`.{.'.J.,.N 7 4 v ..b :.C.B.B.B.B.B.B.B.B.B.B.B.B.B.B.B.B.V.B.B.",
"B.B.V.V.V.V.V.V.C.V.V.V.V.V.V.V.h.j 3.XXF.| 0 3 t ^ { t._. X>X X%.O.%.O.*.t.{ t t.1.:.v.Z.V.B.B.V.B.B.B.B.B.B.B.B.B.V.B.B.B.B.B.",
"B.B.V.V.V.V.V.Z.V.V.V.V.V.V.V.V.x.F n ..b 9 0 7 w.^.).s.d [ _.`.`.`.t.t.t.7.^ i OXU.A.A.V.V.B.B.V.V.B.B.B.B.B.B.B.B.B.B.B.B.B.B.",
"B.B.V.V.V.V.V.V.C.V.V.B.C.V.V.V.B.l.S - * 7 f [ |.,XqX=X7.) f ) =X$Xd.a.=./ i t +XA.Z.B.V.B.B.B.B.V.B.B.B.B.B.B.B.B.V.B.B.B.B.B.",
"V.V.V.V.V.Z.V.V.V.V.V.C.B.B.B.B.B.B.B.G < u R a.|.0XsXsX=Xa.s 3 2 7 R W 7.Q.7.i N.M.V.V.V.B.B.B.V.B.V.B.B.B.B.B.B.B.B.B.B.B.B.B.",
"V.B.V.V.V.V.V.V.B.B.V.V.C.B.B.B.B.B.B.F < t t / a.^.wXrX>X_.s 3 2 p 0.e.!.Q.0.U u c.V.B.V.B.B.B.B.B.B.B.B.B.B.B.B.B.V.V.B.B.B.B.",
"B.V.B.B.V.V.V.V.B.B.B.B.B.B.B.C.B.B.B.-.< 1 Y / a.Q.^.`.}.a.f -.2 y E 6.e.7.W U 3 J n.V.V.B.B.B.B.B.B.B.B.B.B.B.B.B.B.B.B.B.B.B.",
"V.V.B.B.B.V.V.V.C.B.B.B.B.B.B.B.B.C.B.m.h < ~ 7.a.!.!.a.r.R q :.. 2 Q _ @.W R I 2 9 v.V.V.V.B.B.B.B.V.B.B.B.B.B.B.B.V.B.B.Z.B.B.",
"V.V.V.V.B.V.V.B.B.B.V.B.B.B.V.V.V.V.V.V.n   ~ w.!.Q.a.0.y 4 >.m.J e 2 y @.7.%.d 4 = J b.V.V.B.B.B.B.B.B.B.B.B.B.B.B.B.B.B.B.V.V.",
"V.V.V.V.V.V.B.B.B.B.V.B.B.B.V.V.V.V.V.C.x O b w.a.!.7./ 1 8 m.B.m.-.2 2 ) { v r -.V k K V.V.B.B.B.B.B.B.B.B.B.B.B.B.B.z.B.B.V.B.",
"B.B.V.V.V.V.V.V.V.V.V.B.V.V.V.V.V.V.C.n.z 8 1.$.~ R P < q K n.B.V.b.J 9 o 3 Z ,.2.c o m V.B.B.B.B.B.B.B.B.B.B.B.B.B.B.B.V.V.V.V.",
"V.B.B.V.V.V.V.B.V.B.V.B.V.V.V.V.V.V.B.B.z 8 w.&.[ i 1 w G m.B.B.B.B.l.J % $ B o.( k 3 k j.V.B.B.B.B.B.B.B.B.B.B.B.B.B.B.B.V.V.B.",
"B.B.B.B.V.B.B.B.V.V.B.B.B.V.B.B.B.B.B.h.c h d #.+.6 k L B.V.V.V.V.n.K J 9 X 2 R } $.s X G V.V.V.B.B.B.B.B.B.B.B.B.B.V.z.V.B.B.B.",
"B.B.B.B.B.B.B.B.V.V.V.B.B.V.V.V.B.B.B.F b q.} u .   . l h.j.j.j.k.L r $ $ X y =.&.~ 6 X m l.C.V.B.B.B.B.B.Z.B.B.z.B.B.B.V.V.B.B.",
"B.V.V.B.B.B.B.B.V.B.B.B.B.B.V.B.B.B.m.z Y q.+.s X     * - ; ; ; ; ; = % 2 2 > > i f Y N 8 l B.Z.B.B.B.B.B.B.B.B.V.V.V.V.V.V.B.B.",
"V.V.V.V.B.B.V.B.V.B.B.B.B.B.V.V.B.B.z w Y ~ i 1 X X . & & $ $ $ % % = $ 2 > X X d &.t.t.h x B.V.B.B.B.B.B.B.B.B.z.V.V.z.B.V.B.V.",
"B.B.B.B.B.B.V.B.B.B.B.B.B.B.B.V.B.x.j 8 <.s.<.1 . . 3 & $ . . % $ $ . . . . + . ; 2. Xu.H x.V.V.V.V.V.z.V.V.z.V.V.V.z.V.V.V.V.V.",
"B.B.B.B.B.B.B.B.B.B.B.B.B.B.B.V.B.B.x h ).>X).1   + . . + & + &   o O @ @ @ @ O % j -.:.x.V.V.V.V.V.V.V.V.V.V.V.z.V.V.V.V.V.V.V.",
"V.V.V.B.B.B.B.B.B.B.B.B.B.B.B.B.B.B.f.F ).wX).w         x K K K F H F F H H H H D D F k.B.V.V.V.V.V.V.V.V.V.V.V.V.V.V.V.V.V.V.B.",
"V.V.V.V.B.B.B.B.B.B.V.B.B.B.B.B.B.B.B.l.<.S.( < g x l x f.B.z.z.n.n.z.n.B.n.B.B.V.V.V.V.V.V.V.V.V.V.V.V.V.V.V.z.V.V.V.V.V.B.V.V.",
"V.V.V.B.B.B.V.V.B.B.B.B.B.B.B.B.B.B.Z.B.h.S S D B.B.B.B.V.V.V.B.B.V.B.V.B.B.V.V.V.V.V.V.V.V.V.V.V.V.V.V.V.V.V.V.V.V.V.V.B.V.V.V.",
"B.V.V.B.B.B.V.V.B.B.B.B.B.B.V.B.B.B.B.B.B.V.B.V.B.B.B.B.V.V.V.V.V.V.V.V.B.B.V.V.V.V.V.V.V.V.V.V.V.V.V.V.V.V.V.V.V.V.V.V.V.V.V.V.",
"V.V.B.B.B.B.B.B.B.B.V.B.V.B.V.V.B.B.B.Z.B.B.V.V.V.V.B.V.V.z.V.V.V.V.V.V.V.V.V.V.V.V.V.V.V.V.V.V.V.z.V.V.V.V.z.V.V.V.V.V.V.V.V.V.",
"B.V.V.B.B.B.B.B.B.B.B.B.B.B.V.B.B.B.B.B.B.B.V.V.V.V.B.V.V.V.V.V.n.V.V.V.V.V.V.V.V.V.V.V.V.V.V.V.V.V.V.V.V.V.V.V.V.V.V.V.V.V.V.V."
};
