/* XPM */
static char *bc5260a3d1454a0d9000709999439940yWRl0pdsXrtgb5As[] = {
/* columns rows colors chars-per-pixel */
"64 64 225 2 ",
"   c #17171B",
".  c #231E1D",
"X  c #281E1C",
"o  c #161923",
"O  c #1B1D23",
"+  c #141723",
"@  c #221E24",
"#  c #221E2B",
"$  c #1F2129",
"%  c #242224",
"&  c #2B2425",
"*  c #26222A",
"=  c #2A262A",
"-  c #2E2A2B",
";  c #352A29",
":  c #3C342D",
">  c #242231",
",  c #2B2B35",
"<  c #332C34",
"1  c #392D34",
"2  c #332D3D",
"3  c #372B37",
"4  c #3B343C",
"5  c #3D3A3F",
"6  c #373334",
"7  c #42281D",
"8  c #40332F",
"9  c #412E31",
"0  c #453B33",
"q  c #43353C",
"w  c #4A3D3D",
"e  c #463739",
"r  c #513E3C",
"t  c #452C26",
"y  c #4C433D",
"u  c #584639",
"i  c #6C4D36",
"p  c #694938",
"a  c #724F37",
"s  c #6E503D",
"d  c #735035",
"f  c #73513A",
"g  c #342F46",
"h  c #353344",
"j  c #3A3445",
"k  c #3B3A44",
"l  c #34354B",
"z  c #3B364A",
"x  c #3C3C4C",
"c  c #36384C",
"v  c #343454",
"b  c #353A54",
"n  c #3B3D5B",
"m  c #383C58",
"M  c #2C2943",
"N  c #353E63",
"B  c #3A3D61",
"V  c #433B44",
"C  c #4C3D43",
"Z  c #433C4A",
"A  c #473745",
"S  c #453F52",
"D  c #503E43",
"F  c #3B415A",
"G  c #3B446C",
"H  c #3C4A6D",
"J  c #394365",
"K  c #3B4A74",
"L  c #3C4C7A",
"P  c #384775",
"I  c #3D5078",
"U  c #4B4444",
"Y  c #44424B",
"T  c #4A454C",
"R  c #4F494B",
"E  c #544444",
"W  c #5A4544",
"Q  c #594A43",
"!  c #534C4C",
"~  c #5B4A4D",
"^  c #54464A",
"/  c #5C514B",
"(  c #5B5348",
")  c #4B4453",
"_  c #4C4A54",
"`  c #464859",
"'  c #5C4C53",
"]  c #554C56",
"[  c #5D5651",
"{  c #58525A",
"}  c #654B4B",
"|  c #63534E",
" . c #6B544B",
".. c #675A4C",
"X. c #73544B",
"o. c #755847",
"O. c #635554",
"+. c #655B53",
"@. c #6B5C55",
"#. c #6C5A5D",
"$. c #685757",
"%. c #725C54",
"&. c #745C5A",
"*. c #765A54",
"=. c #704F42",
"-. c #6D625C",
";. c #6B6254",
":. c #72645B",
">. c #7A685A",
",. c #6E624F",
"<. c #464B68",
"1. c #4D5168",
"2. c #585869",
"3. c #434F72",
"4. c #485679",
"5. c #585D75",
"6. c #655C65",
"7. c #55617D",
"8. c #5F606B",
"9. c #6C6466",
"0. c #746364",
"q. c #746A64",
"w. c #7A6D64",
"e. c #766C6B",
"r. c #7B6C6B",
"t. c #776569",
"y. c #7C7165",
"u. c #7C716C",
"i. c #79756D",
"p. c #696875",
"a. c #7A6D74",
"s. c #7A7777",
"d. c #815A3C",
"f. c #895E42",
"g. c #835F4B",
"h. c #8D6444",
"j. c #85614C",
"k. c #8C654C",
"l. c #8C674B",
"z. c #926544",
"x. c #956845",
"c. c #9C6B44",
"v. c #926649",
"b. c #956A4B",
"n. c #9C6E4B",
"m. c #9F714D",
"M. c #836355",
"N. c #896452",
"B. c #886859",
"V. c #946D53",
"C. c #966E57",
"Z. c #9C7152",
"A. c #A56F42",
"S. c #A16F48",
"D. c #A57042",
"F. c #A3724A",
"G. c #A87146",
"H. c #A87856",
"J. c #876A64",
"K. c #86766A",
"L. c #947766",
"P. c #837B73",
"I. c #877A78",
"U. c #8B7776",
"Y. c #8D827D",
"T. c #8C8476",
"R. c #92847C",
"E. c #958978",
"W. c #9D9078",
"Q. c #A3997E",
"!. c #4D5C83",
"~. c #4C5683",
"^. c #535E8A",
"/. c #586588",
"(. c #4E6183",
"). c #656D86",
"_. c #6B7696",
"`. c #70778E",
"'. c #717DA1",
"]. c #847F81",
"[. c #7884A5",
"{. c #888586",
"}. c #958582",
"|. c #958B82",
" X c #9A8C85",
".X c #948C8A",
"XX c #998987",
"oX c #9C928D",
"OX c #9E9184",
"+X c #868992",
"@X c #9C9594",
"#X c #979593",
"$X c #948C91",
"%X c #A2958D",
"&X c #AB9C88",
"*X c #A39691",
"=X c #A49B94",
"-X c #A99B93",
";X c #A99C99",
":X c #A99582",
">X c #AEA18E",
",X c #B6A78B",
"<X c #ADA198",
"1X c #B2A59D",
"2X c #B6A99A",
"3X c #BDB19B",
"4X c #8892B3",
"5X c #8A97B7",
"6X c #B6A9A3",
"7X c #BEB3A9",
"8X c #C9BA9B",
"9X c #C4AF8E",
"0X c #C6BAAC",
"qX c #C5B5A6",
"wX c #CBBDB3",
"eX c #C3B7B1",
"rX c #CDC1AC",
"tX c #CDC2B3",
"yX c #D4C4B4",
"uX c #D5C9B5",
"iX c #D5C5BA",
"pX c #D9C7BA",
"aX c #D8C9B8",
"sX c #9CA5C4",
"dX c #AEB4D5",
/* pixels */
"D.D.D.D.A.A.A.A.A.A.A.A.A.A.A.A.A.A.A.A.A.A.D.D.D.D.D.D.D.D.D.D.D.D.D.D.D.A.A.A.D.D.D.D.D.D.D.D.D.D.D.D.D.D.D.D.D.D.D.D.D.D.D.D.",
"D.D.D.A.A.A.A.A.A.A.A.A.A.A.A.A.A.A.A.A.A.A.A.A.A.A.A.A.A.A.A.A.A.A.A.A.A.D.D.D.D.D.D.D.D.D.D.D.D.D.D.D.D.D.D.D.D.D.D.D.D.D.A.A.",
"D.D.D.A.A.A.A.A.A.A.A.A.A.A.A.A.A.A.A.A.A.A.A.A.A.A.A.A.A.A.A.A.A.A.A.A.A.D.D.D.D.D.D.D.D.D.D.D.D.D.D.D.D.D.D.D.D.D.D.D.D.D.A.A.",
"D.D.D.A.A.A.A.A.A.A.A.A.A.A.A.A.A.A.A.A.A.A.A.A.A.A.A.A.A.A.A.A.A.A.A.A.A.D.D.D.D.D.D.D.D.D.D.D.D.D.D.D.D.D.D.D.D.D.D.D.D.D.A.A.",
"D.D.D.A.A.A.A.A.A.A.A.A.A.A.A.A.A.A.A.A.A.A.A.A.A.A.A.A.z.f.f.f.h.x.A.A.A.D.D.D.D.D.D.D.D.D.D.D.D.D.D.D.D.D.D.D.D.D.D.D.D.D.A.A.",
"D.D.D.A.A.A.A.A.A.A.A.A.A.A.A.A.A.A.A.A.A.A.A.A.A.A.x.x.W A A A C } z.c.A.D.D.D.D.D.D.D.D.D.D.D.D.D.D.D.D.D.D.D.D.D.D.D.D.D.A.A.",
"D.D.D.A.A.A.A.A.A.A.A.A.A.A.A.D.D.D.D.D.D.D.A.A.A.x.^ ) F N N N B n ^ =.c.A.D.D.D.D.D.D.D.D.D.D.D.D.D.D.D.D.D.D.D.A.A.A.A.A.A.A.",
"D.D.A.A.A.A.A.A.A.A.A.A.A.A.D.D.D.D.D.D.D.D.A.A.z. .F J G P K K G G n ) o.x.D.D.D.D.D.D.D.D.D.D.D.D.D.D.D.D.D.D.D.A.A.A.A.A.A.A.",
"D.D.A.A.A.A.A.A.A.A.A.A.A.A.D.D.D.D.D.D.A.A.A.A.^ F H H P L L P P K K <.x W z.D.D.D.D.D.D.D.D.D.D.D.D.D.D.D.D.D.D.A.A.A.A.A.A.A.",
"D.D.A.A.A.A.A.A.A.A.A.A.A.A.D.D.D.D.D.D.A.A.A.c._ J H H K L L L L L 4.4.m Z j.c.D.D.D.D.D.D.D.D.D.D.D.D.D.D.D.D.D.A.A.A.A.A.A.A.",
"D.D.A.A.A.A.A.A.A.A.A.A.A.A.D.D.D.D.D.D.A.D.n.B.).5.3.4.!.~.^./.!.!._.4X7.` E h.D.D.D.D.D.D.D.D.D.D.D.D.D.D.D.D.D.A.A.A.A.A.A.A.",
"D.D.A.A.A.A.A.A.A.A.A.A.A.A.D.D.D.D.D.D.A.c.M.a.`./.7._.'._.[.5X[.).[.sX`.1.j | c.D.D.D.D.D.D.D.D.D.D.D.D.D.D.D.D.A.A.A.A.A.A.A.",
"D.D.A.A.A.A.A.A.A.A.A.A.A.A.A.A.A.A.A.A.c.o._ 5./.4./.4XsX4XsXdXsX[.)._./.1.m n b.D.D.D.D.D.D.D.D.D.D.D.D.D.D.D.D.D.D.D.D.D.A.A.",
"D.D.A.A.A.A.A.A.A.A.A.A.A.A.A.A.A.A.A.A.z.~ n <.3.3.(.[.4X[.5XsX4X_.4.4.3.<.B v M.n.D.D.D.D.D.D.D.D.D.D.D.D.D.D.D.D.D.D.D.D.A.A.",
"D.D.A.A.A.A.A.A.A.A.A.A.A.A.A.A.A.A.A.A.h.Z b J G L I !.!.4.^./.(.4.K K G G G v { k.D.D.D.D.D.D.D.D.D.D.D.D.D.D.D.D.D.D.D.D.D.A.",
"D.D.D.A.A.A.A.A.A.A.A.A.A.A.A.A.A.A.A.A.h.^ v B P P L L L P L L L L P P G G B v ) j.D.D.D.D.D.D.D.D.D.D.D.D.D.D.D.D.D.D.D.D.D.D.",
"D.D.D.A.A.A.A.A.A.A.A.A.A.A.A.A.A.A.A.A.b.6.z v G G P P P P P P P P P G G B l l *.b.D.D.D.D.D.D.D.D.D.D.D.D.D.D.D.D.D.D.D.D.D.D.",
"D.D.D.A.A.A.A.A.A.A.A.A.A.A.A.A.A.A.A.A.Z.r.z g B N J H H H P L P P G N m v M z b.F.D.D.D.D.D.D.D.D.D.D.D.D.D.D.D.D.D.D.D.D.D.D.",
"D.D.D.A.A.A.A.A.A.A.A.A.D.D.D.D.D.D.D.D.F.B.) l v v m m F J N N N N m b c h j ] n.D.D.D.D.D.D.D.D.D.D.D.D.D.D.D.D.D.D.D.D.D.D.D.",
"D.D.D.A.A.A.A.A.A.A.A.D.D.D.D.D.D.D.D.D.F.b.$.Z x x c l b b b v b b c l x z ] &.F.D.D.D.D.D.D.D.D.D.D.D.D.D.D.D.D.D.D.D.D.D.D.D.",
"D.D.D.D.A.A.A.A.A.A.A.D.D.D.D.D.D.D.D.D.D.D.Z.$.R T k k j h k k j j k V ] [ J.F.D.D.D.D.D.D.D.D.D.D.D.D.D.D.D.D.D.D.D.D.D.D.D.D.",
"D.D.D.D.G.G.G.D.D.D.D.D.D.D.D.D.D.D.D.D.D.D.Z.:.y U ! ] ] { { ] ) T R ! w | V.F.D.D.D.D.D.D.D.D.D.D.D.D.D.D.D.D.D.D.D.D.D.D.D.D.",
"D.D.D.D.G.G.G.G.D.D.D.D.D.D.D.D.D.D.D.D.D.F.L.| 0 y +.s.$X#XoX.XI.u.-.| 0 E J.V.D.D.D.D.D.D.D.D.D.D.D.D.D.D.D.D.D.D.D.D.D.D.D.D.",
"D.D.D.D.D.D.D.D.D.D.D.D.D.D.D.D.D.D.D.D.F.Z.&.$.y.T.|.oX;X;X;X=XoX.X|.T.-.$.O.&.c.D.D.D.D.D.D.D.D.D.D.D.D.D.D.D.D.D.D.D.D.D.D.D.",
"D.D.D.D.D.D.D.D.D.D.D.D.D.D.D.D.D.A.D.D.n.B.W | K.E. XoX=X*X%X%X*X*XOXE.y.@.w C v.S.D.D.D.D.A.A.D.D.G.G.G.D.D.D.D.D.D.D.D.D.D.D.",
"D.D.D.D.D.D.D.D.D.D.D.D.D.D.D.D.D.A.D.D.b.*.| %.,.;.:.e.u.u.y.y.r.u.q.:...@.| $.j.x.A.D.D.D.A.A.D.D.G.G.G.G.D.D.D.D.D.D.D.D.D.D.",
"D.D.D.D.D.D.D.D.D.D.D.D.D.D.D.D.D.A.D.F.J.*.K.E.>.,.@.-.-.:.:.:.:.-.-.@...w.R.W. .s x.D.D.D.A.A.D.D.G.G.D.D.D.D.D.D.D.D.D.D.D.D.",
"D.D.D.D.D.D.D.D.D.D.D.D.D.D.D.D.D.A.S.C.&.%.W.,X&XOXR.XX*X%X&X-X-X%XoX}.K.T.>X,X>.o.l.F.D.D.A.A.D.D.G.G.D.D.D.D.D.D.D.D.D.D.D.D.",
"D.D.D.D.D.D.D.D.D.D.D.D.D.D.D.D.D.D.b.X.t o.&X8XqX<X%X;XwXiXpXpXiXtX6X;XR.T.,X8X,XW.>.h.D.D.A.A.D.D.D.D.D.D.D.D.D.D.D.D.D.D.D.D.",
"D.D.D.D.D.D.D.D.D.D.D.D.D.D.D.D.D.D.v. .7 o.,X8X&XOXXX*XqXwXpXuXaXwX1XoXP.y.Q.8X8X&X,.h.D.D.D.D.D.D.D.A.D.D.D.D.D.D.D.D.D.D.D.A.",
"G.G.D.D.D.D.D.D.D.D.D.D.D.D.D.D.D.D.v.X.u L.9X9XL.K.}.*XqXyXaXuXuXtX1XoXq.@.E.3XrX>X%.j.D.D.D.D.D.D.D.D.D.D.D.D.D.D.D.D.D.D.A.A.",
"G.G.D.D.D.D.D.D.D.D.D.D.D.D.D.D.D.D.z. . .&XqX3X>.w.R.-XwXiXpXpXaXyX6X%X| Q T.3XrX>X;.M.F.D.D.D.D.D.D.D.D.D.D.D.D.D.D.D.D.D.A.A.",
"G.G.D.D.D.D.D.D.D.D.D.D.D.D.D.D.D.F.B.&.R.7X0X%X@.>.R.<XyXpXpXpXpXiXqX X: : u.<XwX6Xq.#.b.D.D.D.D.D.D.D.D.D.D.D.D.D.D.D.D.D.A.A.",
"G.G.D.D.D.G.D.D.D.D.D.D.D.D.D.D.D.m.J.t.1XeX7XY.@.w. X2XyXaXaXaXpXiXqXOXy 0 q.oXeX6X0.^ h.D.D.D.D.D.D.D.D.D.D.D.D.D.D.D.D.D.A.A.",
"D.D.D.D.G.G.G.D.D.D.D.D.D.D.D.D.m.B.0.r.6X7X;X-.q.I.-XqXuXaXuXaXiXaX0X>X-.( [ u.%X|.~ 1 j.H.D.D.D.D.D.D.D.D.D.D.D.D.D.D.D.D.A.A.",
"D.D.D.D.G.G.G.D.D.D.D.D.D.D.D.D.V.0.$.-. X-XR./ q.}.1X0XuXuXuXuXpXiXtX3Xy./ y +.K.w.Q 9 B.H.A.A.A.A.A.A.A.A.A.A.A.A.A.A.A.A.A.A.",
"D.D.D.D.D.D.G.D.D.D.D.D.D.D.D.F.B.' E +.y.;.u 0 9.{.6XeXwXrXrXuXpXpXuXrXT.[ Q ;.P.u.W 9 N.H.A.A.A.A.A.A.A.A.A.A.A.A.A.A.A.A.A.A.",
"G.G.G.G.D.D.G.D.D.D.D.D.D.D.D.Z.K.0.| ..>.;.( : ! 0..X=X1X3X0XrXyXyXuXtXE.+.y / w.w./ e N.H.A.A.A.A.A.A.A.A.A.A.A.A.A.A.A.A.A.A.",
"G.G.G.G.D.D.D.D.D.D.D.D.D.D.D.v.r.}.R.:.....u : U O.e.I. X*X1X2X7XqXtXtXoX;.: : -.u.q.~ k.F.A.A.A.A.A.A.A.A.A.A.A.A.A.A.A.A.A.A.",
"G.G.G.G.D.D.D.D.D.D.D.D.D.D.D.z.0.}.-XT.Q y 0 ; ! O.9.P..X*X;X<X1X7X0X7XY.[ - 6 0.K.u.#.k.D.A.A.A.A.A.A.A.A.A.A.A.A.A.A.A.A.A.A.",
"D.D.D.D.D.D.D.D.D.D.D.D.D.D.D.n.>.#.0.0.O.+.O.! O.q.P.u.u.I.Y.Y.Y.Y.P.i.s.#.5 < w / >.C.F.A.A.A.A.A.A.A.A.A.A.A.A.A.A.A.A.A.A.A.",
"D.D.D.D.D.D.D.D.D.D.D.D.D.D.D.F.N.$.} } @.*.| O.e.Y.*X}.q.q.r.e.r.i.q.i..Xs._ < U %.V.m.D.A.A.A.A.A.A.A.A.A.A.A.A.A.A.A.A.A.A.A.",
"D.D.D.D.D.D.D.D.D.D.D.D.D.D.D.D.c.x.h.z.k.&.q C [ +.q.P.oX@X@X@X@X@X#X#X+Xp.Y 2 4 ~ x.A.A.A.A.A.A.A.A.A.A.A.A.A.A.A.A.A.A.A.A.A.",
"D.D.D.D.D.D.D.D.D.D.D.D.D.D.D.D.D.D.D.D.v.~ 3 q [ +.-.q.s.P.I.I.I.{.s.s.p.8.F 2 , q h.D.A.A.A.A.A.A.A.A.A.A.A.A.A.A.A.A.A.A.A.A.",
"D.D.D.D.D.D.D.D.D.D.D.D.D.D.D.D.D.D.D.D.M.A 2 A R ! ! U 6 6 6 4 ] 9.s.{.+X`.1.c * 1 k.F.A.A.A.A.A.A.A.A.A.A.A.A.A.A.A.A.A.A.A.A.",
"D.D.D.D.D.D.D.D.D.D.D.D.D.D.D.D.A.A.D.F.t.A 2 Z T T T 5 = - 4 5 T 2.s.+X+X`.1.x # 1 k.F.A.A.A.A.A.A.A.A.A.A.A.A.A.A.A.A.A.A.A.A.",
"D.D.D.D.D.D.D.D.D.D.D.D.A.D.D.D.D.D.m.J.] g z 1.8.5.2.` , h +. .k 4 Y _ ` ` m c > 1 k.F.D.A.A.A.A.A.A.A.A.A.A.A.A.A.A.A.D.D.D.D.",
"D.D.D.D.D.D.D.D.D.D.D.A.A.A.D.D.D.D.V.0.2 2 S 2.p.5.2.` h T N.k.! 2 , , x x x c > 1 k.F.D.D.A.A.A.A.A.A.A.A.A.A.A.A.A.A.D.D.D.D.",
"D.D.D.D.D.D.D.D.D.D.D.A.A.A.D.D.D.D.k.' > c 1.2.2.<.n l ) &.F.F.L.6.< , Z T V V 1 e k.F.D.D.A.A.A.A.A.A.A.A.A.A.A.A.A.A.D.D.D.D.",
"D.D.D.D.D.D.D.D.D.D.D.A.A.A.D.D.D.D.l.' > x 2.5.2.` x h ' B.A.A.H.K.4 - q C w ~ ^ r k.F.A.D.A.A.A.A.A.A.A.A.A.A.A.A.A.A.D.D.D.D.",
"D.D.D.D.D.D.D.D.D.D.D.A.A.A.D.D.D.D.b.O.* k { 2.2.{ z S M.n.A.A.D.b.} C D $.r.U.@.W X.b.D.D.A.A.A.A.A.A.A.A.A.A.A.A.A.A.D.D.D.D.",
"D.D.D.D.D.D.D.D.D.D.D.A.A.A.D.D.D.D.v.$.1 ! { { ] T 4 ] C.S.A.A.A.F.B.*.' t.}.}.$.r W g.D.D.A.A.A.A.A.A.A.A.A.A.A.A.A.A.D.D.D.D.",
"A.A.A.A.A.A.A.A.A.A.A.A.A.A.D.D.D.D.v.X.~ U.}.:.e 1 q X.F.D.D.D.D.D.D.c. . .$.#.^ e e o.D.D.D.D.A.A.A.A.A.D.A.A.A.A.A.A.D.D.A.A.",
"A.A.A.A.A.A.A.A.A.A.A.A.A.A.D.D.D.A.x.X.W U.-XU.Q 9 ~ N.D.D.D.D.D.D.D.F.z.=.8 e E E e =.S.D.D.D.A.A.A.A.A.D.A.A.A.A.A.A.D.D.A.A.",
"A.A.A.A.A.A.A.A.A.A.A.A.A.A.D.D.D.D.b.o.9 $.K.:.8 ; ~ *.z.z.z.z.z.h.h.h.f u : q U V q ^ N.S.D.D.A.A.A.A.A.D.A.D.D.A.A.A.D.D.A.A.",
"A.A.A.A.A.A.A.A.A.A.A.A.A.A.D.D.D.D.b.o.1 E ~ w X . 6 y Q Q Q Q Q Q u u ; & & < 5 4 T 6.0.N.G.D.A.A.A.A.A.D.A.D.D.A.A.A.D.D.A.A.",
"A.A.A.A.A.A.A.A.A.A.A.A.A.A.D.D.D.F.l. .Z ] Z =     % % % % % % % % % % O O   $ Y T _ 9.#.g.F.D.A.A.A.A.A.D.A.D.D.A.A.A.D.D.A.A.",
"A.A.A.A.A.A.A.A.A.A.A.A.A.A.A.D.S.b.M.O.Y _ k $   O % % . . . . @ @ @ @ O O + O k Z T O.B.V.D.D.A.A.A.A.D.D.D.D.D.A.A.A.D.D.D.A.",
"D.D.D.A.A.A.A.A.A.A.A.A.A.A.A.A.c.j.#.6.Z x 2 + + O * & & & & & & & & = = % @ @ < 1 s h.n.D.D.D.D.D.D.D.D.D.D.D.D.D.D.D.D.D.D.D.",
"D.D.D.A.A.A.A.A.A.A.A.A.A.A.A.A.c.v.%.] Z x , + + * u i d d d d a a a d a i i i a f z.S.D.D.D.D.D.D.D.D.D.D.D.D.D.D.D.D.D.D.D.D.",
"D.D.D.A.A.A.A.A.A.A.A.A.A.A.A.A.A.A.z.=.1 < - ; p d.x.A.D.D.D.D.D.D.D.D.D.D.D.D.D.D.D.D.D.D.D.D.D.D.D.D.D.D.D.D.D.D.D.D.D.D.D.D.",
"D.D.D.A.A.A.A.A.A.A.A.A.A.A.D.D.D.D.A.z.p p p a x.A.D.D.D.D.D.D.D.D.D.D.D.D.D.D.D.D.D.D.D.D.D.D.D.D.D.D.D.D.D.D.D.D.D.D.D.D.D.D.",
"D.D.D.A.A.A.A.A.A.A.A.A.A.A.D.D.D.D.D.A.c.c.D.D.D.D.D.D.D.D.D.D.D.D.D.D.D.D.D.D.D.D.D.D.D.D.D.D.D.D.D.D.D.D.D.D.D.D.D.D.D.D.D.D.",
"D.D.D.A.A.A.A.A.A.A.A.A.A.A.A.A.A.A.A.D.A.A.D.A.D.D.D.D.D.D.D.D.D.D.D.D.D.D.D.D.D.D.D.D.D.D.D.D.D.D.D.D.D.D.D.D.D.D.D.D.D.D.D.D."
};
