/* XPM */
static char *result[] = {
/* columns rows colors chars-per-pixel */
"64 64 233 2 ",
"   c #150B0E",
".  c #190A0A",
"X  c #1E180E",
"o  c #0C0915",
"O  c #130B13",
"+  c #1B0C14",
"@  c #1A0B1B",
"#  c #16061B",
"$  c #0E1117",
"%  c #1B121B",
"&  c #19171B",
"*  c #0D0509",
"=  c #230D13",
"-  c #21131C",
";  c #221A1D",
":  c #2A1A16",
">  c #331D0D",
",  c #1F211E",
"<  c #24241E",
"1  c #38251C",
"2  c #1C1B23",
"3  c #1E1B2A",
"4  c #171522",
"5  c #181531",
"6  c #221C23",
"7  c #2B1C22",
"8  c #241D2A",
"9  c #2D1E2B",
"0  c #301D2D",
"q  c #1F2027",
"w  c #232123",
"e  c #242229",
"r  c #2C242C",
"t  c #2C2927",
"y  c #3A2C23",
"u  c #3C2C2D",
"i  c #352827",
"p  c #37342A",
"a  c #292637",
"s  c #322D34",
"d  c #342D3A",
"f  c #382A37",
"g  c #363332",
"h  c #3C343C",
"j  c #3A3539",
"k  c #41281B",
"l  c #44332C",
"z  c #59392D",
"x  c #432F36",
"c  c #473A39",
"v  c #563C36",
"b  c #4A433C",
"n  c #5B493B",
"m  c #6A4634",
"M  c #754E35",
"N  c #7A5238",
"B  c #6B4E33",
"V  c #2A2742",
"C  c #2C2C45",
"Z  c #342D45",
"A  c #2C3149",
"S  c #333343",
"D  c #3A3544",
"F  c #39354B",
"G  c #3A3A4C",
"H  c #373647",
"J  c #2F3853",
"K  c #333553",
"L  c #343A55",
"P  c #3C3B52",
"I  c #333B5B",
"U  c #343F63",
"Y  c #463A47",
"T  c #483D53",
"R  c #3F425D",
"E  c #354265",
"W  c #3C4464",
"Q  c #3D466B",
"!  c #36496B",
"~  c #3B4A6D",
"^  c #35456D",
"/  c #364674",
"(  c #3B4773",
")  c #374971",
"_  c #3B4A74",
"`  c #3C4C7A",
"'  c #4C4544",
"]  c #564A43",
"[  c #574A4A",
"{  c #5A534A",
"}  c #474456",
"|  c #544C53",
" . c #554A55",
".. c #5B545D",
"X. c #5A5559",
"o. c #4E515A",
"O. c #6A4C43",
"+. c #62564D",
"@. c #685548",
"#. c #765947",
"$. c #645B53",
"%. c #6A5A53",
"&. c #675758",
"*. c #755C57",
"=. c #6E645A",
"-. c #6E6255",
";. c #736459",
":. c #75695B",
">. c #776757",
",. c #424563",
"<. c #414B6D",
"1. c #454964",
"2. c #5C5B6B",
"3. c #5C5563",
"4. c #424B72",
"5. c #454A75",
"6. c #5B5771",
"7. c #4E4F6E",
"8. c #6A5D68",
"9. c #725E6A",
"0. c #53617C",
"q. c #696469",
"w. c #766B64",
"e. c #76696B",
"r. c #7C7369",
"t. c #676573",
"y. c #746671",
"u. c #79747A",
"i. c #8C5E3B",
"p. c #8C5D37",
"a. c #94643E",
"s. c #9C6A3F",
"d. c #8E603D",
"f. c #825E49",
"g. c #89634A",
"h. c #9E6C41",
"j. c #91684B",
"k. c #856654",
"l. c #896957",
"z. c #936D55",
"x. c #99755B",
"c. c #8D7A47",
"v. c #A56F42",
"b. c #A57042",
"n. c #A7744A",
"m. c #A9764D",
"M. c #A87449",
"N. c #A77750",
"B. c #A97751",
"V. c #A97A54",
"C. c #AA7D5B",
"Z. c #A77854",
"A. c #83766A",
"S. c #947361",
"D. c #9B7864",
"F. c #867E7D",
"G. c #887B72",
"H. c #927D77",
"J. c #84696E",
"K. c #AA7F66",
"L. c #AE805E",
"P. c #8A827B",
"I. c #94897D",
"U. c #97877B",
"Y. c #9D8E6D",
"T. c #AD8264",
"R. c #AA8A78",
"E. c #B28973",
"W. c #B6917D",
"Q. c #AD9E7F",
"!. c #B2A075",
"~. c #988655",
"^. c #566785",
"/. c #6B6786",
"(. c #746D88",
"). c #857884",
"_. c #917A82",
"`. c #75859B",
"'. c #6D819B",
"]. c #7C8AA8",
"[. c #8C8687",
"{. c #948B84",
"}. c #9A8C84",
"|. c #918786",
" X c #9C918B",
".X c #9F9589",
"XX c #8D8D92",
"oX c #998E98",
"OX c #A28984",
"+X c #B28E86",
"@X c #A2948C",
"#X c #A59788",
"$X c #B89588",
"%X c #A99B97",
"&X c #B19593",
"*X c #A9A19C",
"=X c #B3A69B",
"-X c #B9A999",
";X c #8593A8",
":X c #8896B5",
">X c #898CA7",
",X c #92A2B4",
"<X c #ABA6A8",
"1X c #B4A9A3",
"2X c #B5A9A7",
"3X c #BDB4AA",
"4X c #B7ADB1",
"5X c #C6B78E",
"6X c #C1B3A7",
"7X c #C5B7AA",
"8X c #C6BBB8",
"9X c #C7B2B0",
"0X c #D3C493",
"qX c #CCC4BC",
"wX c #C9C0B0",
"eX c #D3C5B6",
"rX c #D8C6B7",
"tX c #D5CAB6",
"yX c #D3C6BA",
"uX c #D9C7B9",
"iX c #D5C9BB",
"pX c #DAC9BB",
"aX c #D2C5AB",
"sX c #C3BEC1",
"dX c #ACC1CF",
"fX c #DBCCC0",
"gX c #D5C9C5",
"hX c #D4CDC3",
"jX c #E4DAD0",
"kX c #C6D6E5",
"lX c #D7E7F1",
"zX c #CFE3EA",
"xX c #EBFBFF",
/* pixels */
"b.b.b.v.v.v.v.v.v.v.v.v.v.v.v.v.v.v.v.v.v.v.v.v.M.v.v.v.v.v.v.v.v.v.v.v.v.v.v.v.b.b.b.b.b.b.b.b.b.b.b.b.b.b.b.b.b.b.b.b.b.b.b.b.",
"b.b.b.v.v.v.v.v.v.v.v.v.v.v.v.v.b.v.v.v.v.v.v.v.v.v.v.v.v.v.v.v.v.v.v.M.v.v.v.v.b.b.b.b.b.b.b.b.b.b.b.b.s.b.b.b.b.b.b.b.b.b.b.b.",
"b.b.b.v.v.v.v.v.v.v.v.v.v.v.v.v.v.v.v.v.v.v.v.v.M.v.v.v.v.v.v.v.v.v.v.v.v.v.v.M.b.s.b.b.b.b.s.b.b.b.s.b.b.b.b.b.b.b.b.b.v.v.b.b.",
"b.b.b.v.v.v.s.v.v.v.v.v.v.v.v.v.v.v.v.b.v.v.v.v.v.v.v.v.v.v.v.v.v.v.v.v.v.v.v.v.b.b.b.b.b.b.b.b.b.b.b.b.b.b.b.b.b.b.s.b.b.b.v.b.",
"b.b.b.v.v.v.v.v.v.v.v.v.v.s.v.v.v.v.v.v.v.v.b.v.v.v.v.v.v.v.v.v.v.b.v.v.v.v.v.v.b.b.b.b.b.b.b.v.b.b.b.b.b.b.b.b.v.v.b.b.s.b.b.b.",
"b.b.v.v.v.v.v.v.v.v.v.v.v.v.v.v.v.v.v.v.v.v.v.v.v.v.v.v.v.v.v.v.v.v.v.v.v.v.v.v.b.b.b.b.b.b.s.b.b.b.b.b.b.b.b.b.b.b.v.b.b.b.v.b.",
"b.b.b.v.v.v.v.h.s.v.s.v.v.v.v.v.b.v.b.h.v.v.v.v.v.v.v.v.v.v.v.v.v.v.v.v.v.b.b.b.b.s.b.b.b.b.b.b.b.b.s.b.b.b.s.b.v.v.v.v.v.b.b.v.",
"b.b.b.v.s.v.v.v.v.v.v.v.v.s.v.v.b.b.b.b.b.b.v.v.v.v.v.v.v.v.h.i.a.a.v.v.v.b.v.b.b.b.b.b.b.b.b.v.b.b.b.b.b.b.b.b.v.b.v.v.v.v.v.v.",
"v.v.v.s.v.v.v.v.v.s.v.v.v.v.v.v.v.b.b.b.b.b.v.v.v.v.v.v.a.h.m u u v j.a.v.v.v.b.v.v.b.v.b.b.b.b.b.b.b.b.b.b.b.b.v.b.b.v.v.v.v.v.",
"v.v.v.v.v.v.s.v.v.v.v.v.v.v.v.v.v.v.b.v.v.b.v.v.v.v.v.v.y S I ,.,.} P 7 a.v.v.v.b.v.b.v.b.b.b.b.b.b.b.b.b.b.b.b.v.v.v.v.v.b.v.v.",
"v.v.v.v.v.v.s.v.v.v.v.s.v.v.s.v.v.v.v.M.b.b.v.v.v.i.u T T ,.<.<.Q Q ,.,.G #.s.b.b.s.v.v.b.b.b.b.b.b.b.b.b.b.b.b.v.v.b.b.v.v.v.v.",
"v.v.v.v.v.v.v.v.v.v.v.v.s.v.v.v.v.v.v.v.b.b.v.v.N r F ,.<.Q Q _ ( ( 5.( W } g.b.b.b.v.b.b.b.b.b.s.b.b.b.b.b.b.b.b.v.v.v.v.v.v.v.",
"v.v.v.v.v.v.v.v.s.v.v.v.v.v.v.v.v.v.v.v.v.v.v.b.m 5 ,.,.W ~ ~ _ ( _ ) ` ! W j B b.b.b.M.b.b.b.b.b.b.b.b.b.b.b.b.b.b.b.b.b.v.v.v.",
"v.v.v.v.v.s.v.v.v.v.v.v.v.v.v.v.v.v.v.v.v.v.v.N Y K /.,.<.~ ~ _ ) / ! ) ].0.E j M b.b.b.b.b.b.b.b.b.b.b.b.b.b.b.b.b.b.b.b.b.v.v.",
"v.v.v.v.v.v.v.v.v.v.v.v.v.v.v.v.v.v.v.v.v.v.n.v C (.:XQ ^.`.0.^.`.'.^.! zX].7.a p M.b.b.b.b.b.b.b.b.b.b.b.b.b.b.b.b.b.b.b.b.v.v.",
"v.v.v.v.v.v.v.v.v.v.v.v.v.v.v.v.v.v.v.v.v.n.z.Y T >X`.W :XlX`.,XxXlX:X) dX,X0.A c l.b.b.b.b.b.M.b.b.b.b.b.b.b.b.b.b.b.v.b.b.b.b.",
"v.v.v.v.v.v.v.v.v.v.b.v.v.v.v.v.v.v.v.v.v.M.B l ,.,.W <.:XkX(.,XlXkX].! ! ! <.1.S 7 b.b.b.b.b.b.b.b.b.b.b.b.b.b.b.b.b.b.b.b.b.b.",
"v.v.v.v.v.v.v.v.v.v.v.v.v.v.v.M.v.v.v.v.v.M.x s ,.,.5.^ _ ` 4.4.5.5.` ` ` _ Q W A 6 b.b.b.b.M.b.b.b.b.b.M.b.b.b.b.M.b.b.b.b.b.b.",
"v.v.v.v.v.v.v.v.v.v.b.v.b.b.v.v.v.v.v.b.v.E.c a U <.Q / ` ( ( 5.5.` ` ( ) _ ( W K a 7 v.b.b.b.b.M.b.b.b.b.b.b.b.b.b.M.b.b.b.b.b.",
"v.v.v.v.v.v.v.v.b.v.v.v.b.b.b.v.v.v.v.v.v.B.H.1.a P Q / _ ) / ( ( ` ` ) ^ _ W I V 0 p.b.b.b.b.b.b.b.b.b.b.b.b.b.b.b.b.b.b.b.b.b.",
"b.b.v.v.v.v.v.v.v.v.v.v.b.b.b.b.b.b.h.b.v.v.+X&.5 K W U ^ ) ( ( / _ _ ! E E L V F J.v.v.v.b.M.b.b.b.b.b.b.b.b.M.b.b.b.b.b.b.b.b.",
"b.v.v.b.v.b.b.b.v.v.b.b.b.b.b.b.b.b.b.b.b.v.E. .3 H C I U U ^ U ^ ^ I W J A A e Y $Xv.M.b.b.b.b.M.b.b.b.M.b.b.b.b.b.b.b.b.b.b.b.",
"b.b.b.v.b.b.b.b.M.v.b.b.b.b.b.b.b.b.b.v.v.v.C.*.D S G A K I J J E J A L A G Z Z &.T.M.v.b.b.b.b.b.b.b.b.M.b.b.b.b.b.b.b.b.b.b.b.",
"b.b.b.b.b.b.b.b.M.b.b.b.b.b.b.b.b.b.b.b.b.v.v.W.F.Y t.S C Z H S d S S H S 8.} y.$Xb.v.v.b.b.b.b.b.b.b.b.b.b.b.b.b.b.b.b.b.b.b.b.",
"b.b.b.b.M.b.b.M.b.b.b.b.b.b.b.b.b.b.b.b.v.v.v.M.R.).w P.g s g a e t r r u.i y.+XM.v.v.b.b.v.b.v.b.b.b.b.b.b.b.b.b.b.b.b.b.b.b.b.",
"b.b.b.b.b.b.b.b.b.b.M.b.M.b.b.b.b.b.b.b.v.v.b.$Xu.% X 1 A.1X8X8XqX4XF.P.g w ; &.$Xv.v.b.b.v.v.v.b.b.b.b.b.b.b.b.b.b.b.b.b.b.b.b.",
"b.b.b.b.b.b.b.b.M.b.b.b.b.b.b.b.b.h.b.b.v.v.+Xq.[ I.=X-X6XtX-X#X X X{.{.1XP.r.[ ] C.v.v.b.v.v.v.b.b.b.b.b.b.b.b.b.b.b.b.b.b.b.b.",
"b.b.b.b.b.b.b.b.b.b.b.b.b.M.b.b.b.b.b.b.v.$X;.y 7 $.=X#XaXtXwX3X3X7X3X7XyX%X&.u : z n.v.v.v.v.v.v.b.b.b.b.b.b.b.b.b.b.b.b.b.b.b.",
"b.b.b.b.b.b.v.b.b.b.b.b.b.b.M.b.b.b.b.b.T.-.>.l.>.B n { >.>.:.:.:.:.:.:.:.@.+.e.e.O.z v.b.v.v.v.v.b.M.v.b.b.b.b.b.b.b.b.b.b.b.b.",
"v.b.b.b.b.b.b.v.b.b.b.b.b.b.b.b.b.b.b.b.W.1 B !.5XY.n ] -.>.=.=.:.-.:.:.;.{ A.1X8X|.= v.b.v.v.v.v.b.v.v.b.b.b.b.b.b.b.b.b.b.b.b.",
"b.v.b.b.b.M.v.v.b.b.M.b.b.b.b.b.b.b.b.b.$Xk > s.0X5X}.%XyXiXiXiXtXeXpXiXiX#XA.}.9X=Xk v.v.b.b.b.b.b.v.v.b.s.b.b.b.b.b.b.b.b.b.b.",
"v.v.b.b.b.b.M.v.M.b.b.b.b.b.b.b.b.b.b.b.$Xk k ~.0X5XU.gXiXyXiXiXiXfXyXyXiX=X[ { -XQ.k v.b.b.b.b.v.b.b.v.b.b.b.b.b.b.b.b.b.b.b.b.",
"M.v.M.v.b.b.b.b.b.b.s.n.b.b.b.b.v.v.v.M.$Xk ~.5X5X!.l yXiXtXyXyXyXiXiXyXiXiX;.r.hX*X% s.b.b.b.b.b.b.b.v.b.b.v.b.v.v.b.v.b.v.v.v.",
"v.v.v.M.b.b.b.M.b.b.~.b.b.n.b.b.v.v.v.v.$X1 -.-XtX#Xi .XtXtXtXiXiXyXtXfXfXyX-.w.iX<X. s.b.b.v.v.v.b.b.b.b.b.b.b.v.v.b.b.b.b.v.v.",
"v.v.v.v.b.b.b.b.b.b.b.b.b.c.h.b.n.v.v.M.9Xu -.-XpX6X:.l 3XtXrXpXiXpXpXrXtXrX-.{ =X3Xq.1 a.v.v.v.b.b.s.b.b.b.b.b.v.v.v.b.b.b.v.v.",
"v.M.v.v.M.b.b.b.b.b.b.b.b.b.b.b.v.v.v.Z. ....XwXtX7XG.< 6XpXpXuXiXpXrXpXpX-XG.+.r.8XP.  d.b.v.b.b.b.b.b.v.v.v.v.v.v.v.v.v.v.v.b.",
"v.M.v.v.M.M.b.b.b.b.b.b.b.b.b.b.v.v.n.K.@ b *X7X=X*XA.1 9XpXpXpXrXpXrXrX-X#XU.+.$.8XP.  j.M.v.v.v.v.b.b.b.b.v.v.v.v.b.b.v.v.v.v.",
"v.v.M.v.b.b.b.b.b.b.b.b.b.b.b.b.v.b.h.@.@ c r.P.I.P.@.n =X6X8XpXpXrXpXrX-XOXI.{ b F.X.O z.B.v.v.v.v.v.v.b.b.v.v.b.b.b.b.v.v.v.v.",
"M.v.v.v.b.b.b.M.b.b.b.b.b.b.b.b.v.v.g.#  .9.X.-.r.+.y U.U.U.-XwX7XpXpXrXpX=X.X$.i j x O z.n.v.v.v.v.b.v.v.v.v.v.v.v.v.b.v.v.v.v.",
"v.v.v.M.M.b.b.b.b.b.b.b.b.b.b.v.v.v.i.= gX$.[.w.y y y I.}..X.X.X-XpXrXyXyXyX@X{ ' F.y.0 z.M.v.v.v.v.v.v.v.v.b.v.v.v.v.v.v.v.v.b.",
"v.v.v.M.v.M.v.v.b.n.v.b.b.b.b.b.v.v.p.. 6XjX-.{ {.w.t XXwXhXhXiXpXfXpXyXiX.Xn b { n & =XB.v.v.v.v.v.v.v.v.v.v.v.v.v.v.v.v.v.v.v.",
"v.v.v.v.v.v.v.v.v.v.b.b.b.b.b.v.v.b.p.. H.7X.X{ t , , t g *XqXiXyXyX8X@Xb p -.$.: p %XV.v.v.v.v.v.v.v.v.v.v.v.v.v.v.v.v.v.v.v.v.",
"v.v.v.v.v.v.M.v.b.M.v.v.b.b.b.b.b.v.h.f.y p p t b F.[.hXsXq.' ' ' ' | c 4X XX.i w s Y &XB.v.v.v.v.v.v.v.v.v.v.v.v.v.v.v.v.v.v.v.",
"v.v.M.v.v.v.v.M.b.b.b.v.b.M.b.b.b.b.b.N.M #.y X p ] { w.e.*X<X<X<X<X<X<Xu.X.| o.' r d T x.n.v.v.v.v.v.v.v.v.v.v.b.v.v.v.v.v.v.M.",
"b.b.b.b.M.M.v.b.b.M.v.v.v.v.v.v.v.v.v.v.~.#.l : i c +.{ &.F.[.XXXXXXXXXXo.} 8.8.} a a o S.n.v.v.v.v.v.v.v.v.v.v.v.v.v.b.v.v.v.v.",
"b.b.b.b.b.v.b.b.b.b.b.M.v.M.v.v.v.v.v.v.V.0 Y T Y  .9.9.9.f 6 & & & e e o.2.6.1.F Z a o S.B.v.v.v.v.v.v.v.v.v.v.v.v.v.v.v.v.v.v.",
"b.b.b.v.v.b.b.b.v.v.v.v.v.v.v.v.v.v.v.v.g.0  ./.3.f f r ; ; 2 r s t & g j H P } P S C o S.n.v.v.v.v.v.v.v.v.v.v.v.v.b.v.v.v.v.v.",
"b.v.b.b.b.b.b.v.v.M.v.v.v.v.v.n.v.v.M.v.@ Z 6./././.t.S j 7 ; %.$XP.& & 6 s o.t.3.s e * S.Z.v.v.v.v.v.v.v.v.v.v.v.v.b.b.v.v.v.v.",
"b.v.v.v.b.b.b.b.v.b.b.v.v.v.b.b.b.b.b.h.O d F 7.6.J G S $ F.R.V.b.V.OX+ * ; w e ..4X .O K.V.v.v.v.M.v.v.v.v.v.v.v.v.v.s.v.b.b.b.",
"b.v.v.v.b.b.b.b.b.b.v.v.v.v.b.b.b.b.b.b.O 2 q g o.t.2.S o l.C.M.b.b.N.D.R.k w.3X3X|.[ . _.C.v.v.v.v.v.v.v.v.v.v.v.v.v.v.v.b.b.b.",
"b.b.v.b.b.b.b.b.v.v.v.v.v.v.b.b.M.b.b.h.= c g < t g g e o k.n.b.b.b.b.B.K.1 b I.{.+.x x Y l.B.v.v.v.v.v.v.v.v.v.v.v.v.v.s.b.b.b.",
"b.b.v.b.v.v.b.b.v.v.v.v.b.b.b.b.b.b.b.b.#.y w.I.r.+.c X 9.x.n.b.b.b.B.B.V.l.v c c c T Y @ J.K.v.v.M.v.v.v.v.v.v.s.v.v.v.b.b.b.b.",
"b.b.v.v.v.v.v.v.v.v.b.b.b.b.b.v.h.b.b.v.M : w.=X#XA.l *.+XK.n.N.C.x.O.O.O.%.i - h [ q.d # _.E.v.v.v.v.v.v.v.v.v.b.b.b.b.b.b.b.v.",
"b.b.v.b.v.v.v.v.v.b.b.b.b.b.v.v.v.v.b.s.= u Y { =.n - H.f.f.g.#.>.*.8 9 8 e % 6 D 8. .a [ y.S.v.v.v.v.v.v.v.v.v.b.s.v.b.b.b.b.v.",
"b.v.v.v.v.v.v.v.b.v.v.v.v.v.v.v.v.v.v.v.+  .' d t 2 o 2 6 6 w ; & w 6 8 q 3 3 4 2 Y d D <Xx m M.v.v.v.v.v.v.v.v.v.v.s.b.b.b.b.s.",
"v.v.v.v.v.b.v.v.v.v.v.v.v.v.v.v.v.v.v.d.7 D 3.t.o.4 $ 2 6 w < , w < & w e 3 3 4 a t.t.j u.y m M.v.v.v.v.v.v.v.v.s.v.v.v.v.v.b.b.",
"v.v.v.v.v.v.v.v.v.v.v.v.v.v.v.b.v.v.p.- 2X3.D s 2 $ 2 2 & w 6 < w w w e & e e 4 , b R e O M v.M.v.b.b.b.s.b.b.b.b.b.b.b.b.b.b.b.",
"v.v.v.v.v.v.v.v.v.v.v.v.v.v.v.v.v.v.p.# _. .3.} q $ q e e w 6 w e e w 2 e 6 8 % * X $ * M v.b.b.v.v.v.b.b.b.b.s.s.v.s.b.b.b.b.b.",
"b.b.b.v.v.v.v.v.v.v.v.v.v.v.v.b.v.v.s.p.Y 0 f d 2 $ e e 2 2 , b g.g.k.k.k.k.k.f.N N N N s.b.b.b.b.v.b.b.b.b.b.b.b.b.b.b.b.b.b.b.",
"b.b.b.v.v.v.v.v.v.b.v.v.v.b.v.v.v.v.v.v.m 7 @ @ % 4 r #.@.#.#.g.N.n.N.V.B.B.B.B.b.b.b.b.b.v.b.b.b.v.b.b.b.b.b.b.b.b.b.b.b.s.b.b.",
"v.v.v.v.v.v.v.v.v.v.v.v.v.v.v.v.v.v.v.v.v.m z z v O.@.Z.L.N.N.M.b.s.b.b.b.b.b.M.b.b.b.b.b.b.b.b.b.b.b.b.b.b.b.b.b.b.b.b.b.b.b.b.",
"v.M.v.v.v.v.v.v.v.v.v.v.v.v.v.b.v.v.v.v.v.b.b.m.B.V.V.b.s.b.b.b.b.b.b.b.b.b.b.b.b.b.b.b.b.b.b.b.b.b.b.b.b.b.b.b.b.b.b.b.b.b.b.b.",
"b.v.v.v.v.v.v.v.v.v.v.v.v.v.v.M.M.M.v.v.v.v.b.b.b.s.b.v.v.b.v.v.b.b.b.b.b.b.b.b.b.b.b.b.b.b.b.b.b.s.b.b.b.b.s.b.b.b.b.b.b.b.b.b.",
"v.v.v.v.v.M.v.v.v.v.v.v.v.v.v.v.v.v.v.b.b.b.b.b.b.b.b.b.b.b.b.b.b.b.b.b.b.b.b.b.b.b.b.b.b.b.b.b.b.b.b.b.b.b.b.b.b.b.b.b.b.b.b.b."
};
