/* XPM */
static char *result[] = {
/* columns rows colors chars-per-pixel */
"64 64 233 2 ",
"   c #160E1A",
".  c #1B151E",
"X  c #191619",
"o  c #221D1D",
"O  c #27171A",
"+  c #2A170C",
"@  c #28221F",
"#  c #3D2619",
"$  c #1E1821",
"%  c #231E23",
"&  c #221A29",
"*  c #2C1D26",
"=  c #331D22",
"-  c #231732",
";  c #301F30",
":  c #1F2322",
">  c #242023",
",  c #2D2323",
"<  c #2C242A",
"1  c #292529",
"2  c #392623",
"3  c #342C2A",
"4  c #3C2D2B",
"5  c #352727",
"6  c #3B342B",
"7  c #2D2431",
"8  c #2C273A",
"9  c #332C34",
"0  c #332C3B",
"q  c #352936",
"w  c #3B343B",
"e  c #3B3538",
"r  c #2D313D",
"t  c #442E29",
"y  c #49352C",
"u  c #583929",
"i  c #433434",
"p  c #463A38",
"a  c #553C37",
"s  c #412D33",
"d  c #603E30",
"f  c #4D443E",
"g  c #4B433B",
"h  c #5D433B",
"j  c #54453D",
"k  c #68472B",
"l  c #644A3C",
"z  c #6A4C3B",
"x  c #684635",
"c  c #7C553A",
"v  c #775239",
"b  c #705032",
"n  c #312F42",
"m  c #3A2D4E",
"M  c #2E3244",
"N  c #3B3342",
"B  c #3B3943",
"V  c #383648",
"C  c #353553",
"Z  c #353A53",
"A  c #3A3B55",
"S  c #39395A",
"D  c #3B3D62",
"F  c #353F61",
"G  c #433B42",
"H  c #443E4C",
"J  c #483A46",
"K  c #533E43",
"L  c #433D53",
"P  c #3E4258",
"I  c #3B496D",
"U  c #394467",
"Y  c #3C4674",
"T  c #3A4974",
"R  c #3B4A79",
"E  c #394777",
"W  c #4C4244",
"Q  c #4C444B",
"!  c #4A464B",
"~  c #534B44",
"^  c #544D4B",
"/  c #5D4C4A",
"(  c #574647",
")  c #5B534D",
"_  c #575249",
"`  c #444151",
"'  c #4E4553",
"]  c #4D4857",
"[  c #534C54",
"{  c #564B58",
"}  c #5B5356",
"|  c #664C44",
" . c #61534D",
".. c #6B5249",
"X. c #785849",
"o. c #655D5B",
"O. c #6B5C5C",
"+. c #675955",
"@. c #735D5A",
"#. c #755951",
"$. c #644B54",
"%. c #5D625E",
"&. c #6A6154",
"*. c #6C625C",
"=. c #63625F",
"-. c #74635A",
";. c #424463",
":. c #43496A",
">. c #49516D",
",. c #595464",
"<. c #414674",
"1. c #495678",
"2. c #585A76",
"3. c #584B60",
"4. c #665A67",
"5. c #775E63",
"6. c #605471",
"7. c #52637E",
"8. c #5E6062",
"9. c #63626B",
"0. c #6A6A65",
"q. c #756C65",
"w. c #796C62",
"e. c #756D6C",
"r. c #776865",
"t. c #7D7561",
"y. c #7C736A",
"u. c #7F786F",
"i. c #666477",
"p. c #7C7978",
"a. c #706570",
"s. c #845A3B",
"d. c #8C5E3C",
"f. c #825737",
"g. c #8C603C",
"h. c #92633D",
"j. c #9B683F",
"k. c #875F46",
"l. c #8B6141",
"z. c #87624B",
"x. c #966944",
"c. c #9D6B42",
"v. c #996B47",
"b. c #987258",
"n. c #8B6D55",
"m. c #A56F42",
"M. c #A57042",
"N. c #A87146",
"B. c #A6734B",
"V. c #A8764E",
"C. c #A57652",
"Z. c #AA7A55",
"A. c #AB7D5B",
"S. c #A87853",
"D. c #876C67",
"F. c #817469",
"G. c #857569",
"H. c #9B7865",
"J. c #867A76",
"K. c #967C77",
"L. c #A67E65",
"P. c #978158",
"I. c #8C8279",
"U. c #95837D",
"Y. c #96897C",
"T. c #998C7D",
"R. c #978974",
"E. c #9D8D6B",
"W. c #AD8263",
"Q. c #AC846A",
"!. c #B38D78",
"~. c #A99779",
"^. c #AE8C74",
"/. c #B9A56C",
"(. c #C6B17C",
"). c #475684",
"_. c #596989",
"`. c #5D6F92",
"'. c #686E89",
"]. c #7A7482",
"[. c #687693",
"{. c #717894",
"}. c #947F91",
"|. c #78849E",
" X c #6F839B",
".X c #998784",
"XX c #9D9186",
"oX c #9B918A",
"OX c #90908E",
"+X c #9A9491",
"@X c #8B848D",
"#X c #A68882",
"$X c #A4978A",
"%X c #B79386",
"&X c #AB9C91",
"*X c #A79B95",
"=X c #B0968B",
"-X c #B2A38A",
";X c #A5A59D",
":X c #AAA39C",
">X c #A7A296",
",X c #BAAB9D",
"<X c #B3A698",
"1X c #B7AC95",
"2X c #97A3B6",
"3X c #AAA7A5",
"4X c #BBADA3",
"5X c #B3A9A3",
"6X c #BCB0A2",
"7X c #BCB6A9",
"8X c #B8B7B4",
"9X c #8795AC",
"0X c #C9B998",
"qX c #CFBE8C",
"wX c #C3BBA4",
"eX c #C4BAAD",
"rX c #C5B7A8",
"tX c #C9BBB3",
"yX c #CCC3AB",
"uX c #CDC2B7",
"iX c #D4C5B4",
"pX c #D6C9B5",
"aX c #D6C6BB",
"sX c #D8C6BB",
"dX c #D6C8BB",
"fX c #D9C9BB",
"gX c #D9CAB5",
"hX c #9EB2C4",
"jX c #B3C7D4",
"kX c #AFC1D7",
"lX c #D8C8C1",
"zX c #CCDFE6",
"xX c #CEE0E9",
/* pixels */
"M.M.M.M.m.m.m.m.m.m.m.m.m.m.m.m.m.m.m.m.m.m.M.M.M.N.m.M.m.N.m.N.m.N.N.N.m.m.m.m.M.M.M.M.M.M.M.M.M.M.M.M.M.M.M.M.M.M.M.M.M.M.M.M.",
"M.M.M.M.m.m.m.m.m.m.m.m.m.m.m.m.m.m.m.M.m.m.m.m.m.m.m.m.m.N.m.m.m.m.m.m.m.m.m.m.M.M.M.M.M.j.M.M.M.j.M.M.M.M.M.M.j.M.M.M.M.M.M.M.",
"M.M.M.m.m.m.m.m.m.m.m.m.m.m.m.m.m.m.m.m.m.m.M.m.m.m.m.m.m.m.m.m.m.m.m.m.m.m.m.M.M.M.M.j.M.M.M.M.M.M.M.M.M.M.M.M.M.M.M.M.M.M.M.M.",
"M.M.M.m.m.m.j.m.m.m.m.m.m.m.m.m.M.m.m.m.m.m.m.m.m.m.m.m.m.m.m.m.m.m.m.m.M.M.m.m.M.M.M.M.M.M.M.M.M.M.M.M.M.M.j.M.M.M.M.M.M.M.M.M.",
"M.M.M.m.m.m.m.m.j.m.m.m.m.m.m.m.m.m.m.m.m.m.m.m.m.m.m.m.m.m.m.m.m.M.m.m.m.M.M.m.M.M.M.M.M.M.M.M.M.M.M.M.M.M.M.M.M.m.M.M.M.M.M.m.",
"N.M.M.m.m.m.m.m.m.m.m.j.m.m.m.m.m.m.m.m.m.m.M.m.m.N.m.m.m.m.m.m.m.m.m.m.m.m.M.M.M.M.M.M.M.M.M.M.M.j.M.M.M.j.M.M.M.M.M.m.M.M.M.m.",
"M.M.M.m.m.m.m.c.m.m.m.m.m.j.m.m.M.M.M.M.M.M.m.m.m.m.m.m.m.c.f.f.g.j.m.m.M.M.M.M.M.M.M.j.M.M.M.M.M.M.M.M.M.M.M.M.m.m.m.m.m.m.m.m.",
"M.M.M.m.m.c.m.m.m.m.m.m.m.m.m.m.M.m.M.m.M.M.m.m.m.m.m.m.m.s.t 2 y f.j.j.M.M.M.M.M.M.M.M.M.M.j.M.M.M.M.M.M.M.M.M.M.m.m.m.m.m.m.m.",
"m.m.m.j.m.m.j.m.m.m.m.j.m.m.m.m.m.M.M.M.M.M.m.m.m.m.x.v B ! P P ! ` 4 a m.m.m.m.m.m.c.M.M.M.M.M.M.M.M.M.M.M.M.M.m.M.m.m.M.m.m.m.",
"m.m.m.m.m.m.m.m.m.m.m.m.m.m.m.m.m.m.M.m.M.m.m.m.c.l.| Q A P U U :.U C L X.v.m.m.m.m.M.M.M.M.M.M.M.M.M.M.M.M.M.M.m.m.m.M.m.m.m.m.",
"m.m.m.m.m.m.j.m.m.m.j.m.m.m.m.m.m.m.N.m.M.c.M.m.x K ` ;.I U I T <.Y <.:.L ..c.m.M.M.M.M.M.M.M.M.M.M.M.M.M.M.M.M.m.m.M.m.m.m.m.m.",
"m.m.m.m.m.m.m.m.m.m.m.m.m.m.m.m.m.m.m.m.M.M.M.m.y m U :.U I T E E E <.<.D ' k.m.M.M.M.M.M.M.M.M.M.M.M.M.M.M.M.M.M.m.m.m.m.m.m.m.",
"m.m.m.m.m.m.m.m.m.m.j.m.m.m.m.m.m.m.m.m.m.m.x.v ' i.).>.I T T R R R T [.'.;.+.x.M.M.M.M.M.M.M.M.M.M.M.M.M.M.M.M.M.M.M.M.m.m.m.m.",
"m.m.m.m.m.m.m.m.m.m.m.m.m.m.m.m.m.m.m.m.m.m.d.y i.{.'.1._.`.7.`.`._.>.9X2X2.3.k.m.M.M.M.M.M.M.M.M.M.M.M.M.M.M.M.M.M.M.M.m.m.m.m.",
"m.m.m.m.m.m.m.m.m.j.m.m.m.m.m.m.m.m.m.m.m.m.s.p '.{._._.kXjX|.jXxXhX). X2X'.] ( v.M.M.M.M.M.M.B.M.M.M.M.M.M.M.M.M.M.M.M.M.M.m.m.",
"m.m.m.m.m.m.m.m.m.m.m.m.m.m.m.m.m.m.m.m.m.h.a Q >.2.:._.kXjX XjXxXhX7.1._.1.;.3.x.M.M.M.M.B.M.M.M.M.M.M.M.M.M.M.M.M.M.M.M.M.M.M.",
"m.m.M.M.M.M.m.M.M.M.M.M.m.m.m.M.m.m.m.m.m.j.# g U ;.I T ).).R 1.1.R T T Y Y I ;./ g.M.M.M.M.M.M.M.M.M.M.M.M.M.N.M.M.M.M.M.M.M.M.",
"m.m.M.M.M.M.m.m.M.M.M.M.m.m.m.m.m.m.m.m.m.m.y p U I Y T R R R Y T T T T T Y I S / x.M.M.M.M.M.M.M.M.M.M.N.M.M.M.M.M.M.M.M.M.M.M.",
"m.m.j.M.m.m.m.m.M.M.M.M.M.M.m.m.M.m.m.m.M.c.b 6 C U I Y E E Y E T T E E I U U A z.j.N.M.N.M.M.M.M.M.M.M.M.M.M.M.M.M.M.M.M.M.M.M.",
"m.M.M.M.m.m.m.m.M.M.M.M.M.M.M.M.M.M.m.m.M.M.s.3 M Z U I Y Y <.<.I T E U U U Z W c.M.M.M.M.M.M.M.M.M.M.M.N.N.M.M.M.M.M.M.M.M.M.M.",
"M.M.M.M.m.M.m.m.M.M.M.M.M.M.M.M.m.m.M.M.M.M.f.2 r n M C S D F S D D S Z M r W c M.M.M.M.M.M.M.M.M.M.M.N.M.M.M.M.M.M.M.M.M.M.M.M.",
"M.M.M.M.m.M.m.M.M.N.M.M.M.M.M.M.m.m.M.M.M.M.g.u 9 V V V C C C V S C V r w w j g.M.M.M.M.M.M.M.M.M.M.M.M.M.M.N.M.M.M.M.M.M.M.M.M.",
"M.M.M.M.M.M.m.m.N.N.M.M.M.M.M.M.m.m.M.M.M.M.m.j./ { [ H 0 0 r r n n 0 B ~ )  .x.M.M.M.M.M.M.M.M.M.M.M.M.N.M.M.M.M.M.M.M.M.M.M.M.",
"M.M.M.M.M.M.M.m.M.N.M.M.M.M.M.N.M.m.M.M.M.M.M.V.F.Q [ [ w B P r B N e ! g g G.C.M.M.M.M.M.M.M.M.M.M.M.N.M.N.M.M.M.M.M.M.M.M.M.M.",
"m.m.m.M.N.M.M.M.N.M.M.N.N.M.M.N.M.M.M.M.M.M.A.K.K 3 p *.;X8X8X7X3X+X@Xe.p 6 y c j.M.M.M.M.M.m.m.N.N.M.M.M.M.M.M.M.M.V.M.M.M.M.M.",
"m.m.M.M.M.M.M.M.M.M.M.M.M.M.M.M.M.M.c.M.N.V.H.h O.}.*X:X6X;X*X>X;X+X+X+XI.0./ y j.M.M.M.M.M.m.m.N.N.N.M.M.M.M.M.M.M.M.M.M.M.M.M.",
"M.M.M.M.M.M.M.M.M.M.M.M.N.M.M.M.M.M.M.M.m.Z.R.y i F.oX&XuXyX7X7X7X7XeX5X.XF.p 2 j.M.M.M.M.M.M.M.M.M.M.M.M.M.M.M.M.M.M.M.M.M.M.M.",
"M.M.M.M.M.N.M.m.M.M.N.M.M.N.M.N.M.M.j.M.Z.L.#.j |  . .O.t.G.t.t.t.t.u.-.$. . . .k g.j.M.M.M.M.m.M.M.M.M.M.M.M.M.M.M.M.M.M.M.M.M.",
"M.M.M.M.M.M.m.N.M.N.M.M.M.M.M.M.M.M.M.N.z.z P./.E.D.@.D.U.Y.Y.R.R.Y.Y..Xu.q.XX<XR.b.j.M.M.M.M.M.M.M.M.N.M.M.M.M.M.M.M.M.M.M.M.M.",
"M.M.M.M.N.N.N.m.M.M.M.M.M.M.M.M.M.M.M.V.z # P./.-X~..X<XlXdXpXpXpXdXlXlX<X.X$X5X6Xn.j.M.m.M.M.M.M.M.M.M.M.M.M.M.M.M.M.M.M.M.M.M.",
"M.N.M.N.M.m.m.m.M.N.M.M.M.M.M.N.M.M.M.P.X.+ k /.0X-X.X*XtXfXfXpXdXdXsXtX$XR.Y.$X1XP.b j.M.M.M.M.M.M.M.M.M.M.M.M.M.M.M.M.M.M.M.M.",
"M.M.M.M.N.N.N.m.M.M.M.M.M.M.M.M.M.M.M.W.#.+ b /.0X$XU.#X4XsXdXpXfXlXlX7XT.R.J.T.yX/.k k m.M.M.M.M.M.M.M.M.M.M.M.M.M.M.M.M.M.M.M.",
"m.N.m.N.M.N.N.M.M.M.M.M.M.M.M.M.M.M.m.W.-.t ~.qX1X&.O..X,XgXiXgXdXlXlX4XT.F.j I.yX6X6 u j.M.M.M.M.M.M.M.M.M.M.M.M.M.M.m.m.m.m.m.",
"N.M.m.m.M.M.N.M.M.M.M.M.M.M.M.M.M.M.M.W.-.t E.qX0X-.@.K.<XiXgXsXlXlXdX4XT.-.g G.yX0Xg u M.m.M.M.M.M.M.M.m.M.M.m.M.M.M.M.m.m.m.m.",
"N.N.N.N.M.N.M.M.M.M.M.M.B.M.M.M.M.M.m.W.-.5 R.rX,X&.*.U.,XiXgXsXaXsXaXiX-Xt.j u.yX7Xp u M.j.M.M.M.M.j.M.M.M.M.M.M.M.M.M.m.m.m.m.",
"N.m.M.N.N.M.M.N.M.M.M.j.P.M.M.M.M.m.m.Q.r.6 -XtX6X*.O.#XtXgXgXsXsXaXpXdX:X-.e _ >X6Xj 2 g.V.M.M.M.M.M.M.m.m.m.m.M.M.M.m.m.M.m.m.",
"m.m.m.N.N.M.N.M.M.M.M.M.M.M.M.M.M.M.W.G._ o.e.<X3Xo.*.&XiXpXpXsXgXgXpXpX1X@X) 4 ~ &.*.i #.Q.N.m.M.M.m.m.m.m.m.m.m.m.m.m.m.M.M.M.",
"m.N.N.m.M.N.N.M.M.M.M.M.M.M.M.M.M.M.!.D._ J.f 0.e.~ O.$X,X4XiXsXgXgXpXpXeX*Xe.e ^ *.O.6 @.%XN.m.M.M.m.m.m.M.m.M.m.m.m.m.m.M.M.M.",
"N.m.N.N.M.M.M.M.M.M.M.M.M.M.M.M.N.B.D.w.q.u.0.) ~ e W r..X$X,X6X0X,XyXpXdX7Xy.i  .w.$.s 5.%XN.m.M.m.M.m.m.m.m.m.m.m.m.m.m.m.m.m.",
"m.m.N.m.M.M.M.M.M.M.P.M.M.M.M.M.N.Z.| +.XXw.J.e.o.! G O.oX$X>X&X&X<XeXiXuX1X&.6 g ~ O.p 5.%XV.m.M.m.m.m.m.m.m.m.m.m.M.m.m.m.m.m.",
"m.N.M.M.m.M.M.M.M.M.B.M.M.M.M.M.N.A.a ( uX7Xj @ 3 _ e.e.OX>XrXuXsXlXlXaX+X*.6 3 0.0.6 < D.L.V.m.m.m.m.m.m.m.m.m.m.m.m.m.m.m.m.m.",
"m.m.M.N.M.N.M.M.M.M.M.M.M.N.M.M.m.C.x j XX*X&.3 6 g g ~ ) &.XX6X4X4X7X;X0.8.0.w r e 8 $.L.V.m.m.m.m.m.m.m.m.m.m.m.m.m.m.m.m.m.m.",
"m.m.m.M.N.M.N.M.M.M.M.M.M.M.M.M.m.B.L.w.4 y 3 @ q.u.u.oX7X+X) ) _ _ ^ ^ OX8Xp.P r - ].#XV.m.m.m.m.m.m.m.m.m.m.m.m.m.m.m.m.m.m.m.",
"m.m.m.M.M.M.M.M.M.N.M.M.M.N.M.M.m.M.A.b.-.O.@ @ f ~ _ &.u.I.>X;X;X;X;X3X8X;X8.i.N ; OX=Xm.m.m.m.m.m.m.m.m.m.m.m.m.m.m.m.m.m.m.m.",
"M.M.M.M.M.M.N.M.M.M.M.M.m.B.m.m.m.m.m.B.%X}.; * W ) &.*.) ^ o.,.%.%.0.0.%.} ].@Xn q m @.Z.m.m.m.m.m.m.m.m.m.m.m.m.M.m.M.m.m.m.m.",
"M.M.M.M.M.M.M.M.M.M.M.M.N.m.m.m.m.m.m.C.D.6.; J J ^ ) ) ~ i > X X : ! %.%.9.a.9.8 n   K A.m.m.m.m.m.m.m.m.m.m.m.m.m.m.M.m.m.m.m.",
"M.M.M.M.M.M.M.M.m.M.m.m.m.m.m.N.N.N.N.A.6.- m 2.] ` e 9 < 1 1 Q ] r ! 9.i.9.P V 8 n L D.A.m.m.N.m.m.m.m.m.m.m.m.m.m.M.M.m.M.N.m.",
"M.M.M.M.M.M.M.M.m.m.m.m.m.m.m.N.m.m.N.A.4.- L 6.2.,.P B 9 9 [ I..X} 0 9 ` [ P B 8 ; }.L.N.N.m.m.m.m.m.m.m.m.m.m.m.m.M.m.M.M.M.M.",
"M.M.M.M.m.M.m.M.M.M.M.M.M.m.m.M.M.M.M.A.+.& A 2.>.:.L C & 9 .XZ.A.#XJ - ' { ' G J q D.L.m.m.m.m.m.m.m.m.m.m.m.m.m.m.m.m.M.M.M.M.",
"M.M.M.M.m.M.m.m.M.m.M.m.m.m.M.M.M.M.M.W.+.$ V ,.i.i.;.A 8 G Q.B.V.L.K ; 7 p W W J.( r.L.N.m.m.m.m.m.m.m.m.m.m.m.m.m.M.M.j.M.M.M.",
"m.m.m.M.m.m.M.M.M.M.M.m.m.m.M.M.M.M.M.Z...+ 6 p ,.4.4.L 3..XS.M.N.V.^.5.s O.&X&XU. .2 l V.M.m.m.m.m.m.m.m.m.m.m.j.m.m.M.M.M.M.M.",
"M.M.m.m.m.M.M.M.M.m.M.M.m.M.M.M.M.M.M.S.z 2 y.y.p w G q $.^.B.M.m.N.L.H.a p U.$X-.p O h Z.M.m.m.m.m.m.m.m.m.m.m.m.m.m.j.M.M.M.M.",
"m.m.m.m.M.m.m.m.m.m.m.m.M.m.M.M.m.m.m.V.x t &XeXG. ., y b.V.N.M.N.N.v.v.z.l 3 G p W % a Z.N.N.N.N.m.m.m.m.m.m.m.M.M.M.m.M.M.M.M.",
"M.m.M.m.m.m.m.m.M.m.m.m.m.m.m.M.m.m.m.B.x = r.&XI.^ + j A.B.B.M.B.C.X.| l p & G ' ' 7 q z.Z.N.N.N.m.m.m.m.m.m.M.j.M.M.j.M.j.M.M.",
"m.m.m.m.m.m.M.m.m.m.M.m.m.m.M.M.m.m.m.m.x * J ) ( @ O t l x x x z l 4 * & $ & w L N q ' $.X.B.N.m.m.m.m.m.m.m.m.M.M.m.m.m.M.M.M.",
"m.M.M.m.m.m.m.m.M.m.m.m.m.m.m.M.m.m.m.x.a q ,.] < X X @ = , , < 3 < > % o % % % H J G a.{ y C.B.m.m.m.N.m.m.m.m.j.m.m.m.M.M.M.m.",
"m.m.m.m.m.m.m.m.m.m.m.m.M.M.m.m.m.m.f.| L L ,.{ : X . X @ > > > : > . @ > > . . } } B J ( x B.M.M.M.M.M.M.M.M.M.M.M.m.j.M.M.M.M.",
"m.m.m.m.m.m.m.m.m.M.m.M.m.m.m.M.m.m.u / }.L H 0   X > % $ % : > % > > > > > $   e 6 1 < v B.B.M.m.M.M.M.M.M.M.j.j.M.M.M.M.M.M.M.",
"m.m.m.m.m.N.m.m.m.m.m.m.m.M.m.m.m.m.d K 4.J ] B   $ & % > 1 3 3 4 4 4 4 s 6 3 O # @ + k v.M.M.M.M.M.M.M.M.M.M.M.M.M.M.M.m.M.m.M.",
"m.m.m.m.m.m.m.m.M.m.M.m.m.m.m.M.m.m.j.x ; & q 7   $ % & < 6 v g.f.f.f.s.s.s.s.f.c f.b h.m.m.M.M.M.M.M.M.M.j.M.M.M.M.M.M.M.M.M.m.",
"M.m.M.m.m.m.m.m.m.M.m.m.m.m.m.m.m.m.m.j.d = % O 4 x l.l.g.g.M.M.M.M.M.M.M.M.M.M.M.M.M.M.M.M.M.M.M.M.M.M.M.M.M.M.M.M.M.M.M.M.M.M.",
"M.M.M.m.m.m.N.m.m.m.m.m.m.M.m.M.m.N.m.N.d.x k x v x.M.M.M.M.M.M.M.M.M.M.M.M.M.M.M.M.M.M.M.M.M.M.m.j.M.M.M.M.M.M.M.M.M.M.M.M.M.M.",
"M.m.M.m.m.M.m.m.m.M.m.m.m.m.m.m.N.m.N.m.N.N.M.M.M.M.M.M.M.M.M.M.M.m.M.M.M.M.M.M.M.M.M.M.M.M.M.M.M.M.M.M.M.M.M.M.M.M.M.M.M.M.M.M.",
"M.M.M.m.m.M.m.M.m.m.m.m.m.m.m.m.N.m.m.m.m.m.m.M.M.M.M.M.M.M.M.M.M.j.M.M.M.M.M.M.M.M.M.M.M.M.m.M.M.M.M.M.M.j.M.M.M.M.M.M.M.M.M.M."
};
