/* XPM */
static char *_3a7404842944e11a7aaef1dca3767f0Sks6RubihPYroXHX[] = {
/* columns rows colors chars-per-pixel */
"64 64 224 2 ",
"   c #1D1D1D",
".  c #18171B",
"X  c #2D1F13",
"o  c #1E211D",
"O  c #21221D",
"+  c #1D1C22",
"@  c #1C1522",
"#  c #221E23",
"$  c #241B2F",
"%  c #1E2121",
"&  c #232223",
"*  c #29262A",
"=  c #352D2C",
"-  c #342726",
";  c #3A332D",
":  c #2C2A34",
">  c #2D2D3C",
",  c #2A2637",
"<  c #332C33",
"1  c #3A2E33",
"2  c #322C3C",
"3  c #2E313B",
"4  c #3C3334",
"5  c #35313C",
"6  c #3C323B",
"7  c #3B3939",
"8  c #4C2E16",
"9  c #443B3A",
"0  c #4A3D3D",
"q  c #453837",
"w  c #523E3A",
"e  c #523429",
"r  c #623C25",
"t  c #45423B",
"y  c #4B433C",
"u  c #4B4137",
"i  c #57433C",
"p  c #544227",
"a  c #6B4C38",
"s  c #6D513B",
"d  c #6F5135",
"f  c #775437",
"g  c #684729",
"h  c #7F6438",
"j  c #2E2C43",
"k  c #322D42",
"l  c #2E334B",
"z  c #3C3544",
"x  c #3C3B4A",
"c  c #353648",
"v  c #2F3851",
"b  c #363955",
"n  c #373E63",
"m  c #433C43",
"M  c #4C3D42",
"N  c #443948",
"B  c #513F42",
"V  c #443D54",
"C  c #3D415C",
"Z  c #3A4257",
"A  c #3E414B",
"S  c #3C466C",
"D  c #3B4667",
"F  c #3B4972",
"G  c #3C4771",
"H  c #4B4242",
"J  c #4B434C",
"K  c #484549",
"L  c #524443",
"P  c #534A44",
"I  c #52454C",
"U  c #544B4B",
"Y  c #5C4D4C",
"T  c #5C4A45",
"R  c #5C534C",
"E  c #5A544A",
"W  c #454354",
"Q  c #4C4253",
"!  c #43435B",
"~  c #4B4859",
"^  c #534B53",
"/  c #564B59",
"(  c #5C5454",
")  c #5C5A52",
"_  c #55525B",
"`  c #5C555C",
"'  c #585A5C",
"]  c #624C41",
"[  c #664C48",
"{  c #6E534A",
"}  c #665449",
"|  c #745442",
" . c #71554A",
".. c #795B49",
"X. c #624D53",
"o. c #635353",
"O. c #635B54",
"+. c #6B5E53",
"@. c #645B59",
"#. c #6A5C5C",
"$. c #665353",
"%. c #735A55",
"&. c #6B635C",
"*. c #6D695C",
"=. c #676259",
"-. c #7D6255",
";. c #72695E",
":. c #76645A",
">. c #776B54",
",. c #424564",
"<. c #484B69",
"1. c #5A556C",
"2. c #5B5B6A",
"3. c #595765",
"4. c #444E73",
"5. c #44527A",
"6. c #4A5474",
"7. c #595976",
"8. c #505065",
"9. c #675D65",
"0. c #685E6A",
"q. c #6C6463",
"w. c #686568",
"e. c #736364",
"r. c #736B63",
"t. c #7A6B6A",
"y. c #786967",
"u. c #7C726B",
"i. c #787367",
"p. c #676677",
"a. c #7C7474",
"s. c #7A7777",
"d. c #736F71",
"f. c #875C3D",
"g. c #8B613E",
"h. c #96673F",
"j. c #855E46",
"k. c #8C6344",
"l. c #85634D",
"z. c #8C654B",
"x. c #886346",
"c. c #936541",
"v. c #966843",
"b. c #9C6C44",
"n. c #946A4B",
"m. c #9B6D4A",
"M. c #956744",
"N. c #9B754D",
"B. c #876754",
"V. c #916B52",
"C. c #946E58",
"Z. c #877957",
"A. c #A56F42",
"S. c #A57042",
"D. c #A2724A",
"F. c #A87043",
"G. c #826A64",
"H. c #84766A",
"J. c #957966",
"K. c #857A73",
"L. c #847C7B",
"P. c #877875",
"I. c #8C827C",
"U. c #8A8277",
"Y. c #92857D",
"T. c #968778",
"R. c #9D8062",
"E. c #A9956D",
"W. c #C5AE74",
"Q. c #575E83",
"!. c #495880",
"~. c #5A6788",
"^. c #6A6788",
"/. c #787389",
"(. c #6A7695",
"). c #717891",
"_. c #857E82",
"`. c #917C80",
"'. c #7F828E",
"]. c #7886A2",
"[. c #958A82",
"{. c #9B8C85",
"}. c #938C8C",
"|. c #92918C",
" X c #9E9389",
".X c #9B9484",
"XX c #878796",
"oX c #989796",
"OX c #8C878D",
"+X c #A28E89",
"@X c #A5978A",
"#X c #A59992",
"$X c #A99E94",
"%X c #A79B97",
"&X c #ACA394",
"*X c #A9A599",
"=X c #B2A39C",
"-X c #B7A89A",
";X c #B7A98E",
":X c #959CB5",
">X c #8F91A6",
",X c #98A3BB",
"<X c #B6A9A2",
"1X c #A5A3AE",
"2X c #C6B99D",
"3X c #CAB987",
"4X c #C6B8AB",
"5X c #CCBDB4",
"6X c #D7BDB2",
"7X c #D5C389",
"8X c #D0C49C",
"9X c #D2C4BA",
"0X c #D4C8B9",
"qX c #CEC2AD",
"wX c #E3C6BA",
"eX c #9AA5C0",
"rX c #B5BAD0",
"tX c #C3BFCF",
"yX c #BAC1D2",
"uX c #CCCBD0",
"iX c #E8D4C5",
"pX c #F4D7C7",
"aX c #E3CFC4",
"sX c #D4DEEE",
/* pixels */
"S.S.S.S.A.A.A.A.A.A.A.A.A.A.A.A.A.A.A.A.A.A.S.S.S.S.S.S.S.S.S.S.S.S.S.S.S.A.A.A.S.S.S.S.S.S.S.S.S.S.S.S.S.S.S.S.S.S.S.S.S.S.S.S.",
"S.S.S.A.A.A.A.A.A.A.A.A.A.A.A.A.A.A.A.A.A.A.A.A.A.A.A.A.A.A.A.A.A.A.A.A.A.S.S.S.S.S.S.S.S.S.S.S.S.S.S.S.S.S.S.S.S.S.S.S.S.S.A.A.",
"S.S.S.A.A.A.A.A.A.A.A.A.A.A.A.A.A.A.A.A.A.A.A.A.A.A.A.A.A.A.A.A.A.A.A.A.A.S.S.S.S.S.S.S.S.S.S.S.S.S.S.S.S.S.S.S.S.S.S.S.S.S.A.A.",
"S.S.S.A.A.A.A.A.A.A.A.A.A.A.A.A.A.A.A.A.A.A.A.A.A.A.A.A.A.A.A.A.A.A.A.A.A.S.S.S.S.S.S.S.S.S.S.S.S.S.S.S.S.S.S.S.S.S.S.S.S.S.A.A.",
"S.S.S.A.A.A.A.A.A.A.A.A.A.A.A.A.A.A.A.A.A.A.A.A.A.A.A.A.A.A.A.A.A.A.A.A.A.S.A.A.S.S.S.S.S.S.S.S.S.S.S.S.S.S.S.S.S.S.S.S.S.S.A.A.",
"S.S.S.A.A.A.A.A.A.A.A.A.A.A.A.A.A.A.A.A.A.A.A.A.A.A.A.A.A.v.h.c.k.k.c.v.A.A.A.A.S.S.S.S.S.S.S.S.S.S.S.S.S.S.S.S.S.S.S.S.S.S.A.A.",
"S.S.S.A.A.A.A.A.A.A.A.A.A.A.A.S.S.S.S.S.S.S.A.A.A.A.A.h.f w 6 6 z 6 9 i j.b.A.S.S.S.S.S.S.S.S.S.S.S.S.S.S.S.S.S.S.A.A.A.A.A.A.A.",
"S.S.A.A.A.A.A.A.A.A.A.A.A.A.S.S.S.S.S.S.S.S.A.A.A.A.h.a 6 k l v b v l k 0  .A.A.S.S.S.S.S.S.S.S.S.S.S.S.S.S.S.S.S.A.A.A.A.A.A.A.",
"S.S.A.A.A.A.A.A.A.A.A.A.A.A.S.S.S.S.S.S.S.S.A.A.A.c.w j n S S G S S D n b b [ M.S.S.S.S.S.S.S.S.S.S.S.S.S.S.S.S.S.A.A.A.A.A.A.A.",
"S.S.A.A.A.A.A.A.A.A.A.A.A.A.S.S.S.S.S.S.S.S.A.A.b.| z b S G F F F F F S n b x { A.S.S.S.S.S.S.S.S.S.S.S.S.S.S.S.S.A.A.A.A.A.A.A.",
"S.S.A.A.A.A.A.A.A.A.A.A.A.A.S.S.S.S.S.S.S.S.A.A.f.m b S 5.5.5.5.!.!.5.4.4.<.v I b.S.S.S.S.S.S.S.S.S.S.S.S.S.S.S.S.A.A.A.A.A.A.A.",
"S.S.A.A.A.A.A.A.A.A.A.A.A.A.S.S.S.S.S.S.S.S.A.A.| V 4.6.~.(.~.~.].(.~.~.~.~.C W l.b.S.S.S.S.S.S.S.S.S.S.S.S.S.S.S.A.A.A.A.A.A.A.",
"S.S.A.A.A.A.A.A.A.A.A.A.A.A.A.A.A.A.A.A.A.A.S.b.9.).(.~.,XrX:X:XsXsX,X].eXeX^.C m | S.S.S.S.S.S.S.S.S.S.S.S.S.S.S.S.S.S.S.S.A.A.",
"S.S.A.A.A.A.A.A.A.A.A.A.A.A.A.A.A.A.A.A.A.A.A.b.p.).(.~.>X,XXXXXuXyX>X).:X:X(.<.z [ b.S.S.S.S.S.S.S.S.S.S.S.S.S.S.S.S.S.S.S.A.A.",
"S.S.A.A.A.A.A.A.A.A.A.A.A.A.A.A.A.A.A.A.A.A.c.| <.6.6.4.6.8.! ~ 7.1.,.,.Q.Q.6.,.b N k.S.S.S.S.S.S.S.S.S.S.S.S.S.S.S.S.S.S.S.S.A.",
"S.S.S.A.A.A.A.A.A.A.A.A.A.A.A.A.A.A.A.A.A.A.f.0 ,.S D D C x z z z z b b S S D D b x x.S.S.S.S.S.S.S.S.S.S.S.S.S.S.S.S.S.S.S.S.S.",
"S.S.S.A.A.A.A.A.A.A.A.A.A.A.A.A.A.A.A.A.A.A.f.a C Z v v W _ ( M q I 3.~ l v b b c H c.S.S.S.S.S.S.S.S.S.S.S.S.S.S.S.S.S.S.S.S.S.",
"S.S.S.A.A.A.A.A.A.A.A.A.A.A.A.A.A.A.A.A.A.A.b.f c v c A J ` y.e.:.r.e._ x x l c z } A.S.S.S.S.S.S.S.S.S.S.S.S.S.S.S.S.S.S.S.S.S.",
"S.S.S.A.A.A.A.A.A.A.A.A.S.S.S.S.S.S.S.S.S.S.A.g., > 7 U d.t.+X-X4X&XK.y.@.H < , 4 | S.S.S.S.S.S.S.S.S.S.S.S.S.S.S.S.S.S.S.S.S.S.",
"S.S.S.A.A.A.A.A.A.A.A.S.S.S.S.S.S.S.S.S.S.S.A.f., 2 7 R *X%X-X6XwX4X#X#Xu.H < * 1 | S.S.S.S.S.S.S.S.S.S.S.S.S.S.S.S.S.S.S.S.S.S.",
"S.S.S.S.A.A.A.A.A.A.A.S.S.S.S.S.S.S.S.S.S.S.A.h.< < H r.aX0X0XiXpXwX9X9X X@.< , ] k.S.S.S.S.S.S.S.S.S.S.S.S.S.S.S.S.S.S.S.S.S.S.",
"S.S.S.S.F.F.F.F.S.S.S.S.S.S.S.S.S.S.S.S.S.S.A.b.q * 0 r.0XaXiXpXpXpXiX0X[.( * 4 k.S.S.S.S.S.S.S.S.S.S.S.S.S.S.S.S.S.S.S.S.S.S.S.",
"S.S.S.S.F.F.F.F.S.S.S.S.S.S.S.S.S.S.S.S.S.S.A.b.0 # ; T &XqXpXpXpXpXaX<X;.y & w m.S.S.S.S.S.S.S.S.S.S.S.S.S.S.S.S.S.S.S.S.S.S.S.",
"S.S.S.S.S.S.S.S.S.S.S.S.S.S.S.S.S.S.S.S.S.S.S.b.H 4 R +.H.T.4XwXwX6X=XU.+.@.L } m.S.S.S.S.S.S.S.S.S.S.S.S.S.S.S.S.S.S.S.S.S.S.S.",
"S.S.S.S.S.S.S.S.S.S.S.S.S.S.S.S.S.S.S.S.S.S.S.m.o.t.#X Xu y e.P.`.P.R P K.%X{.t.z.b.A.S.S.S.A.A.S.S.F.F.F.S.S.S.S.S.S.S.S.S.S.S.",
"S.S.S.S.S.S.S.S.S.S.S.S.S.S.S.S.S.S.S.S.S.A.z.B.9.a.<X%X9 4 I / / / 9 H I.=X+Xy...j.b.A.S.S.A.A.S.S.S.F.F.S.S.S.S.S.S.S.S.S.S.S.",
"S.S.S.S.S.S.S.S.S.S.S.S.S.S.S.S.S.S.S.S.S.n...i.&.#.[.#X^ W 8.1.2._ J U [.@XH.-.-. ...b.S.S.A.A.S.S.F.F.S.S.S.S.S.S.S.S.S.S.S.S.",
"S.S.S.S.S.S.S.S.S.S.S.S.S.S.S.S.S.S.S.S.x...Z.E.U.r.u.I.d.2.d.XX'.p._ w.Y.P.:.J.J.| e f.S.S.A.A.S.F.F.F.S.S.S.S.S.S.S.S.S.S.S.S.",
"S.S.S.S.S.S.S.S.S.S.S.S.S.S.S.S.S.S.A.h.r g E.3X-X@X;.=.s.d.w.w.w.' w.y.;.&.Y.;XE.h X g A.S.A.A.S.S.S.S.S.S.S.S.S.S.S.S.S.S.S.S.",
"S.S.S.S.S.S.S.S.S.S.S.S.S.S.S.S.S.S.A.g.8 g E.7X2X&XH.;.) ) @.O.) ) ) ) &.i.{.3XW.N.8 g S.S.S.S.S.S.S.A.S.S.S.S.S.S.S.S.S.S.S.A.",
"F.F.S.S.S.S.S.S.S.S.S.S.S.S.S.S.S.S.A.z.r g.W.7X;X+XP.P.t y R O.) ) E P r.u.U.;X3XE.p d S.S.S.S.S.S.S.S.S.S.S.S.S.S.S.S.S.S.A.A.",
"F.F.S.S.S.S.S.S.S.S.S.S.S.S.S.S.S.S.S.C.| R.W.7X@XP.e.t.P O.r.) U &.;.} =.*.*.T.2XE.w | D.S.S.S.S.S.S.S.S.S.S.S.S.S.S.S.S.S.A.A.",
"F.F.S.S.S.S.S.S.S.S.S.S.S.S.S.S.S.A.n.G.H.;X8X2XK.$.M I O.u.|.s.9.OXY.r.P t P K.=X{.o.#.V.A.S.S.S.S.S.S.S.S.S.S.S.S.S.S.S.S.A.A.",
"F.F.S.S.F.F.S.S.S.S.S.S.S.S.S.S.S.b...X.{.2XqX-XO.9 9 Y r.*.U.s.q.L.r.;.&.U P t. X XK.#.-.m.S.S.S.S.S.S.S.S.S.S.S.S.S.S.S.S.A.A.",
"S.S.S.S.F.F.F.S.S.S.S.S.S.S.S.S.S.b.] q @X4X4X*Xy = q P +.R r.r.) r.E R @.@.o.&.[.$X@X:.$.l.S.S.S.S.S.S.S.S.S.S.S.S.S.S.S.S.A.A.",
"S.S.S.S.F.F.F.S.S.S.S.S.S.S.S.S.S.b.T 1 I.-X4X*XH 7 T O.H.H.K.r.E r.;.r.r.y.#.@.[.=X-Xu.w %.m.A.A.A.A.A.A.A.A.A.A.A.A.A.A.A.A.A.",
"S.S.S.S.S.S.F.S.S.S.S.S.S.S.S.S.b.l.Y L ;.H.K.r.9 P K.#X4X5X#Xu.R K.%X=X XY.q.P O.u.U.r.0 P z.A.A.A.A.A.A.A.A.A.A.A.A.A.A.A.A.A.",
"F.F.F.F.S.S.F.S.S.S.S.S.S.S.S.S.v.{ L R } E U t = P [.<X9X5X<XP.#.{.4X4X$X[.r.u ; L &.r.R L %.m.A.A.A.A.A.A.A.A.A.A.A.A.A.A.A.A.",
"F.F.F.F.S.S.S.S.S.S.S.S.S.S.S.S.z.} P O.=.) U 7 & t u.{.=X4X4X{.y.$X9X9X-X Xr.q - y *.r.@.U L k.A.A.A.A.A.A.A.A.A.A.A.A.A.A.A.A.",
"F.F.F.F.S.S.S.S.S.S.S.S.S.S.S.S.n. .r.T.i.E 7 : & = U #.P.#X<X[.t.=X9X9X4X&Xr.9 - 4 P R q.@.L j.A.A.A.A.A.A.A.A.A.A.A.A.A.A.A.A.",
"S.S.S.S.S.S.S.S.S.S.S.S.S.S.S.S.n. .K.&XU.( < * * 7 q.L.L.I.K.r.#.I.&X=X*X.X=.U J H 0 ( t.e.X.z.A.A.A.A.A.A.A.A.A.A.A.A.A.A.A.A.",
"S.S.S.S.S.S.S.S.S.S.S.S.S.S.S.S.n. .r.T.K.Y < : * 3 ( w.s.}.oX|.e.&.*.*.*.=.@.` ( $.Y U Y $.:.m.A.A.A.A.A.A.A.A.A.A.A.A.A.A.A.A.",
"S.S.S.S.S.S.S.S.S.S.S.S.S.S.S.S.b.l.%.:.Y q : > 3 x _ ` w.s.|.oXoX_.a.a.a.s._.w.J  .l.{ [ ..m.A.A.A.A.A.A.A.A.A.A.A.A.A.A.A.A.A.",
"S.S.S.S.S.S.S.S.S.S.S.S.S.S.S.S.A.b...{ 0 = : 5 W p.OXOXd.w.' d.oXoX|.|.|.|.OXw.m | m.m.m.m.A.A.A.A.A.A.A.A.A.A.A.A.A.A.A.A.A.A.",
"S.S.S.S.S.S.S.S.S.S.S.S.S.S.S.S.S.S.S.D.$.6 > j 7.XXrXuX1XOX_ K m m K _ 3.2.1.V z o.m.A.A.A.A.A.A.A.A.A.A.A.A.A.A.A.A.A.A.A.A.A.",
"S.S.S.S.S.S.S.S.S.S.S.S.S.S.S.S.S.S.S.S.%.6 : > ! p.:XuXtX1X2.x * & 5 W 2.7.7.8.c N z.A.A.A.A.A.A.A.A.A.A.A.A.A.A.A.A.A.A.A.A.A.",
"S.S.S.S.S.S.S.S.S.S.S.S.A.S.S.S.S.S.S.S.B.M , > C 6./.>X>XXX8.~ ` z > x 7.7.7.<.k 5 x.S.S.A.A.A.A.A.A.A.A.A.A.A.A.A.A.A.S.S.S.S.",
"S.S.S.S.S.S.S.S.S.S.S.A.A.A.S.S.S.S.S.S.n.o.> > <.7.^././.p.W / H.o.2 j ,.<.<.! k 5 -.D.S.S.A.A.A.A.A.A.A.A.A.A.A.A.A.A.S.S.S.S.",
"S.S.S.S.S.S.S.S.S.S.S.A.A.A.S.S.S.S.S.S.z.( l l 7.^.^.^.1.Q / e.S.m.#.V j ! 8.W < 1 w j.S.S.A.A.A.A.A.A.A.A.A.A.A.A.A.A.S.S.S.S.",
"S.S.S.S.S.S.S.S.S.S.S.A.A.A.S.S.S.S.S.S...m l b Q.^.^.^.~ z e.J.A.S.J.` , x ~ K q q - | S.S.A.A.A.A.A.A.A.A.A.A.A.A.A.A.S.S.S.S.",
"S.S.S.S.S.S.S.S.S.S.S.A.A.A.S.S.S.S.S.S.x.Y z x p.^.p.1.N J B.b.A.S.N...: < L R :.-.] { m.S.A.A.A.A.A.A.A.A.A.A.A.A.A.A.S.S.S.S.",
"S.S.S.S.S.S.S.S.S.S.S.A.A.A.S.S.S.S.S.S.m.:.J m 3.0.3.~ Q %.m.A.A.S.S.z.M 9 o.H.T.J. .i k.A.A.A.A.A.A.A.A.A.A.A.A.A.A.A.S.S.S.S.",
"A.A.A.A.A.A.A.A.A.A.A.A.A.A.S.S.S.S.S.S.j.$.t.K.( H 7 m B.m.S.S.S.S.S.S.z.] q E >.:.i q  .n.S.S.A.A.A.A.A.S.A.A.A.A.A.A.S.S.A.A.",
"A.A.A.A.A.A.A.A.A.A.A.A.A.A.S.S.S.S.S.S.{ B e.L.&.t 7 Y D.S.S.S.S.S.S.S.M.s * = P P L q X.z.S.S.A.A.A.A.A.S.A.A.A.A.A.A.S.S.A.A.",
"A.A.A.A.A.A.A.A.A.A.A.A.A.A.S.S.S.S.S.A.I J J ^ K 7 = y S.S.S.S.S.S.S.k.L 9 # * Q / / N m $.m.S.A.A.A.A.A.S.A.S.S.A.A.A.S.S.A.A.",
"A.A.A.A.A.A.A.A.A.A.A.A.A.A.S.S.S.S.A.V.Q ~ W x * & # 1 B.V.V.V.V.V.l.[ : * + , Q / V k , M ..b.A.A.A.A.A.S.A.S.S.A.A.A.S.S.A.A.",
"A.A.A.A.A.A.A.A.A.A.A.A.A.A.S.S.S.A.z.X.x ! Z c . . + # 1 1 4 4 4 4 = * o o + + $ 2 N Q I M w j.A.A.A.A.A.S.A.S.S.A.A.A.S.S.A.A.",
"A.A.A.A.A.A.A.A.A.A.A.A.A.A.A.S.S.b.{ m x W x 3 . . + # & # # # # # o o o o &   @ , ^ 0.e.Y i k.A.A.A.A.S.S.S.S.S.A.A.A.S.S.S.A.",
"S.S.S.A.A.A.A.A.A.A.A.A.A.A.A.A.A.b.L < _ w.3.7 .       & # # & % o o o o O O     * U d.a.e.x.b.S.S.S.S.S.S.S.S.S.S.S.S.S.S.S.S.",
"S.S.S.A.A.A.A.A.A.A.A.A.A.A.A.A.A.b.P 5 L.}._.( . O O O   + + # % % o o o o o o   O 4 ^ y.B.m.S.S.S.S.S.S.S.S.S.S.S.S.S.S.S.S.S.",
"S.S.S.A.A.A.A.A.A.A.A.A.A.A.A.A.A.A.k.%.P.{.P.[ - = 1 7 %. .s s s s s d d d d d d f f f.m.S.S.S.S.S.S.S.S.S.S.S.S.S.S.S.S.S.S.S.",
"S.S.S.A.A.A.A.A.A.A.A.A.A.A.S.S.S.S.A.n.y.G.+.i w T Y } n.b.b.v.v.h.v.v.v.v.h.h.h.h.b.b.S.S.S.S.S.S.S.S.S.S.S.S.S.S.S.S.S.S.S.S.",
"S.S.S.A.A.A.A.A.A.A.A.A.A.A.S.S.S.S.S.A.l. .] ] k.M.b.b.S.S.S.S.S.S.S.S.S.S.S.S.S.S.S.S.S.S.S.S.S.S.S.S.S.S.S.S.S.S.S.S.S.S.S.S.",
"S.S.S.A.A.A.A.A.A.A.A.A.A.A.A.A.A.A.S.S.b.M.k.c.A.S.S.S.S.S.S.S.S.S.S.S.S.S.S.S.S.S.S.S.S.S.S.S.S.S.S.S.S.S.S.S.S.S.S.S.S.S.S.S."
};
