/* XPM */
static char *result[] = {
/* columns rows colors chars-per-pixel */
"64 64 230 2 ",
"   c #140D13",
".  c #1B151B",
"X  c #191A1B",
"o  c #121312",
"O  c #221D1C",
"+  c #221A1A",
"@  c #321E14",
"#  c #1E221F",
"$  c #23221D",
"%  c #2C221C",
"&  c #272614",
"*  c #34271A",
"=  c #3C311E",
"-  c #1A1B27",
";  c #1A1832",
":  c #221D22",
">  c #241F2A",
",  c #1B2324",
"<  c #1C242C",
"1  c #142231",
"2  c #212221",
"3  c #2B2422",
"4  c #2C2A24",
"5  c #23232B",
"6  c #2C242B",
"7  c #2B2B2C",
"8  c #3D2A24",
"9  c #352A2C",
"0  c #342A27",
"q  c #3B322D",
"w  c #393529",
"e  c #2C2D34",
"r  c #23253B",
"t  c #2D2C3B",
"y  c #272736",
"u  c #332D33",
"i  c #392C35",
"p  c #2E333A",
"a  c #343235",
"s  c #3C3433",
"d  c #34353C",
"f  c #3C3638",
"g  c #482C1C",
"h  c #4B2D22",
"j  c #48362A",
"k  c #553624",
"l  c #453B34",
"z  c #443C3C",
"x  c #4A3B35",
"c  c #563C34",
"v  c #482E30",
"b  c #643E27",
"n  c #3E423D",
"m  c #4B433C",
"M  c #4A4538",
"N  c #52473B",
"B  c #584739",
"V  c #57432F",
"C  c #68452C",
"Z  c #754C2F",
"A  c #634433",
"S  c #684B35",
"D  c #795538",
"F  c #714C34",
"G  c #1E3443",
"H  c #282841",
"J  c #2C3143",
"K  c #293449",
"L  c #353A43",
"P  c #3C3B42",
"I  c #353647",
"U  c #293E55",
"Y  c #3B3D53",
"T  c #353A54",
"R  c #362940",
"E  c #433B44",
"W  c #483D44",
"Q  c #4C3E48",
"!  c #3C414B",
"~  c #2D455B",
"^  c #3E4155",
"/  c #39455B",
"(  c #3D4A66",
")  c #3C4B6B",
"_  c #364867",
"`  c #3B4972",
"'  c #4D4A44",
"]  c #44454D",
"[  c #4C454B",
"{  c #4F4B4B",
"}  c #484343",
"|  c #524A43",
" . c #5B4C45",
".. c #554D4B",
"X. c #574645",
"o. c #5C5246",
"O. c #5A544D",
"+. c #464956",
"@. c #534C54",
"#. c #535153",
"$. c #5A5453",
"%. c #59555A",
"&. c #49525C",
"*. c #675648",
"=. c #785C45",
"-. c #645654",
";. c #645A52",
":. c #655C5A",
">. c #675957",
",. c #6A5449",
"<. c #7D6147",
"1. c #6D635A",
"2. c #6B6458",
"3. c #75655A",
"4. c #4A4C65",
"5. c #484E69",
"6. c #4A546B",
"7. c #585766",
"8. c #585C74",
"9. c #4C556D",
"0. c #645C66",
"q. c #625C75",
"w. c #5C637A",
"e. c #6B6565",
"r. c #6D6A63",
"t. c #6B636D",
"y. c #666466",
"u. c #746C64",
"i. c #726B6C",
"p. c #786868",
"a. c #7C736B",
"s. c #777069",
"d. c #67677A",
"f. c #756D75",
"g. c #7E7373",
"h. c #777679",
"j. c #845B3A",
"k. c #8C5E3B",
"l. c #835633",
"z. c #92623C",
"x. c #9B683E",
"c. c #8C633F",
"v. c #825E48",
"b. c #896648",
"n. c #956B44",
"m. c #9D6C42",
"M. c #9C6E49",
"N. c #976843",
"B. c #9B714B",
"V. c #9C7146",
"C. c #876958",
"Z. c #9D7455",
"A. c #A56F42",
"S. c #A57042",
"D. c #A5744A",
"F. c #A87348",
"G. c #A67A56",
"H. c #846C64",
"J. c #886C60",
"K. c #8D726D",
"L. c #897768",
"P. c #887A76",
"I. c #937972",
"U. c #A87F67",
"Y. c #A9805E",
"T. c #8B8279",
"R. c #94847B",
"E. c #978676",
"W. c #9F9077",
"Q. c #AB856B",
"!. c #A98466",
"~. c #AA8875",
"^. c #B18B76",
"/. c #5A6887",
"(. c #6E6A84",
"). c #686A87",
"_. c #756B82",
"`. c #687288",
"'. c #797986",
"]. c #757B97",
"[. c #697895",
"{. c #887A84",
"}. c #807E98",
"|. c #7E879C",
" X c #7E8BA3",
".X c #898587",
"XX c #958C83",
"oX c #988683",
"OX c #9B9188",
"+X c #85869D",
"@X c #979194",
"#X c #8D9094",
"$X c #A48C85",
"%X c #A79789",
"&X c #B6988C",
"*X c #A89C93",
"=X c #A49A96",
"-X c #B59C98",
";X c #ACA698",
":X c #B8A79A",
">X c #B5A78D",
",X c #8D92A9",
"<X c #A39DA1",
"1X c #A8A6A6",
"2X c #B8ABA5",
"3X c #B9B2A8",
"4X c #A9AAB6",
"5X c #AEB2BE",
"6X c #BFB6B7",
"7X c #C7B699",
"8X c #C6B5AA",
"9X c #C9BBB6",
"0X c #C8BBB7",
"qX c #D7BEB5",
"wX c #C4A7A2",
"eX c #D6C2AB",
"rX c #D5C7B9",
"tX c #CDC1AB",
"yX c #E4C7BD",
"uX c #A7AEC6",
"iX c #B6B8CA",
"pX c #B8C5D6",
"aX c #D0CACF",
"sX c #E8D7CA",
"dX c #F3D9CB",
"fX c #EEDFD1",
"gX c #EDE2D2",
"hX c #F6E4D6",
"jX c #D6D8E6",
"kX c #E9EBF8",
/* pixels */
"S.S.S.S.A.A.A.A.A.A.A.A.A.A.A.A.A.A.A.A.A.A.S.S.S.S.S.A.S.F.A.S.S.S.F.A.A.A.A.A.S.S.S.S.S.S.S.S.S.S.S.S.S.S.S.S.S.S.x.S.S.S.S.S.",
"S.S.S.S.A.A.A.A.A.A.A.A.A.A.A.A.S.A.A.A.A.S.A.A.A.A.A.A.S.A.A.A.S.S.A.A.A.A.A.A.S.x.S.S.S.S.S.S.S.S.S.S.S.S.x.S.S.S.S.S.S.S.S.S.",
"S.S.S.A.A.A.x.A.A.x.A.A.A.A.A.A.A.A.A.A.A.A.A.S.A.S.A.A.A.A.A.A.S.A.A.A.A.A.A.S.S.S.S.S.S.S.S.S.S.S.S.S.S.S.S.S.S.S.S.S.S.S.S.S.",
"S.S.S.A.A.A.A.A.A.A.A.A.A.A.A.A.A.A.A.S.A.A.A.A.A.A.A.A.A.A.A.A.A.S.A.A.A.F.A.A.S.S.S.S.S.S.x.S.S.S.S.x.S.S.S.S.S.S.S.S.S.S.S.S.",
"S.F.S.A.A.A.A.A.A.A.A.A.A.A.A.A.A.A.A.A.A.A.A.S.A.A.A.A.A.A.A.A.S.V.S.S.A.A.S.S.S.S.S.S.S.S.x.S.S.S.S.S.S.S.S.S.S.S.A.A.S.S.S.S.",
"S.S.S.A.A.A.A.A.A.A.A.x.A.A.A.A.A.A.A.A.A.A.A.A.A.F.A.A.A.A.A.m.B.B.V.x.A.S.S.S.S.S.S.S.S.S.S.S.S.S.S.S.S.S.S.x.S.S.S.A.S.S.A.S.",
"S.S.S.A.A.A.A.A.A.x.A.A.A.A.A.A.A.S.S.A.S.S.A.A.A.A.A.A.A.k.A V M M M =.B.V.A.S.S.x.S.S.S.S.S.S.S.S.S.x.S.S.S.S.S.A.A.A.A.A.A.A.",
"S.S.S.A.m.A.A.A.A.A.A.A.A.A.A.A.S.S.S.S.S.S.A.A.A.A.A.z.l.c 6 5 7 , < ! <.D m.S.S.S.S.S.S.S.S.S.S.S.S.S.S.S.S.S.S.A.A.A.A.A.A.A.",
"A.A.A.x.A.A.A.A.A.A.A.x.A.A.A.A.S.S.A.S.A.S.A.A.A.A.D v ; H ^ / ( / ~ G 1 < *.b.S.S.S.S.S.S.S.S.S.S.S.S.S.S.S.S.S.A.A.S.A.A.A.A.",
"A.A.A.A.A.A.A.x.A.A.A.A.A.A.A.A.S.S.S.S.A.V.A.A.m.j.i t T T ( ) _ _ _ ~ ~ G s D V.S.S.V.S.S.S.S.S.S.S.S.S.S.S.S.S.A.A.A.A.A.A.A.",
"A.A.A.A.A.A.A.A.A.A.A.A.A.A.A.A.S.A.A.A.S.S.A.A.D 9 H T ( ( ` ) ) ) _ _ _ ~ H < z.S.S.S.S.S.S.S.S.S.S.S.S.S.S.S.S.A.A.A.A.A.A.A.",
"A.A.A.A.A.A.A.A.x.A.A.A.A.A.A.A.A.A.A.A.S.A.A.A.F > I / ( ) ` ` ` ) _ ) ) _ K 1 b.V.S.S.S.S.S.S.S.S.S.S.S.S.S.S.S.A.A.A.A.A.A.A.",
"A.A.A.A.A.A.A.A.A.A.A.A.A.A.A.A.A.A.A.F.A.A.m.D i Y d.w.`.,X X/.uXuX,X/.+X,X9.T f D S.S.S.S.S.S.S.S.S.S.S.F.S.S.S.S.S.S.A.A.S.A.",
"A.A.A.A.x.A.A.x.A.A.A.A.A.A.A.A.A.A.A.A.A.A.m.,.r w. X/. XpXuX|.kXkXiX|.uXjX`.) 7 S S.S.S.S.S.S.S.S.S.S.S.S.S.S.S.S.S.S.A.A.A.A.",
"A.A.A.A.A.A.A.A.A.A.x.A.A.A.A.A.A.A.A.A.A.A.b.X.! d.|.8.`.,X|./.5X5X Xw.|.uX[.9.p c b.S.S.S.S.S.S.S.S.S.S.S.S.S.S.S.S.S.S.S.S.A.",
"A.A.A.A.A.A.A.A.A.A.A.A.A.A.A.A.A.A.A.A.A.M.B e 4.6.6.&.5.4.Y Q 9.9.! ~ 9./.` ) T a F x.S.S.S.F.S.S.S.S.S.S.S.S.S.S.S.S.A.A.S.A.",
"A.A.S.A.A.A.A.A.S.S.A.A.A.A.A.A.A.A.A.S.F.^.z.q Q _ Y Y Y Y I P d d L I / ~ ~ _ T y A m.S.S.F.S.S.S.S.S.S.S.S.S.S.S.S.S.S.S.S.S.",
"A.A.S.A.A.A.A.A.S.S.A.S.A.A.S.A.A.A.A.A.F.Y.>.i Y ^ I I I 4.t.Q q f i.0.J K T _ I e S V.S.S.S.S.S.S.S.S.S.S.F.S.S.S.S.S.S.S.S.S.",
"A.A.A.A.A.A.S.A.S.S.S.S.S.S.S.A.S.S.A.A.A.G.I.p.y R u @.z i p.{.$XE.3.z [ 7.K K y c z.S.S.F.S.S.F.S.S.S.S.S.S.S.S.F.S.S.S.S.S.S.",
"A.A.A.A.S.A.A.A.S.S.S.S.S.S.A.S.S.S.A.A.A.D.^.P.; t 6 z p.t.I.wXqX8XH.3.e.@.t J > A S.S.S.S.S.S.S.S.S.S.S.S.F.S.S.S.S.S.S.S.S.S.",
"S.S.S.S.S.S.S.S.S.S.S.S.S.S.S.S.S.A.S.A.S.S.~.K.; i 3 x 9XaXwXyXdXyXwXqX*XN 6 p O C S.S.S.S.S.S.S.F.S.S.S.S.S.S.S.S.S.S.S.S.S.S.",
"S.S.S.S.S.S.A.S.F.S.S.S.S.S.S.S.S.S.S.S.S.S.!.K.R i 8 -.rXsXrXsXdXdX8XrX8Xs.e 7 h F S.S.S.S.S.S.S.S.S.S.S.S.S.S.S.S.S.S.S.S.S.S.",
"S.S.S.S.S.S.A.A.S.S.S.S.S.S.S.S.S.S.S.S.S.A.D.U.'.6 3 o.3XsXgXfXhXgXhXsX*X>.$ o D n.S.S.S.S.S.S.S.S.F.S.F.S.S.S.S.S.S.S.S.S.S.S.",
"S.S.S.S.S.S.S.A.S.S.S.S.S.S.F.S.S.A.S.A.S.A.A.U.{.6 O 4 L.7XsXgXgXgXgXtX=.8 & o =.D.S.S.S.S.S.S.S.S.S.S.S.S.F.S.S.S.S.S.S.S.S.S.",
"S.S.A.S.S.S.S.S.S.S.S.S.F.S.S.S.S.S.m.S.S.F.Q.I.v q oXXXo.N R.:X3X3XP.o.;.E.T.M = Z m.A.A.S.A.S.S.F.F.S.S.S.S.S.S.S.S.S.S.S.S.S.",
"S.S.S.S.S.S.S.S.F.S.S.S.F.S.S.S.S.S.S.S.F.!.L.;.-.e.3X0X .* N :.1.y.z 0 H.9X1Xu.@ C x.A.S.A.A.A.S.S.S.S.S.S.S.S.S.S.S.S.S.S.S.S.",
"S.S.S.S.S.F.S.A.S.F.F.S.S.S.S.F.S.S.S.S.Q.L.=.L.:X2X2X9X-.3 a a d a a 9 {.9X=X2.@ C m.S.S.A.A.A.S.S.S.S.S.S.S.S.S.S.S.F.S.S.S.S.",
"A.S.S.S.S.S.S.A.S.S.S.S.S.S.S.S.S.S.S.G.L.B 2.>XqX9XI.*Xs.[ $.f.f.0.W [ oX;Xp. .* C S.S.S.S.A.A.S.S.S.S.S.S.S.S.S.S.S.S.S.S.S.S.",
"A.A.S.S.S.S.S.F.S.S.S.S.S.S.F.S.S.S.G.&Xv k W.7XeX:Xr.2.@X.Xf.=X1X.X..a.oX>.,.P.B A z.x.S.S.S.S.S.S.F.S.S.S.S.S.S.S.S.S.S.S.S.S.",
"S.S.S.S.S.S.S.A.S.F.S.S.F.S.S.S.S.S.U.$XQ p.7XeX7X%X%X3.r.P.y.$.' ' :.g.>. .K.oXH.j C x.S.S.S.S.S.S.S.S.S.S.S.S.S.S.S.S.S.S.S.S.",
"S.S.S.S.S.S.F.A.S.S.S.S.S.S.S.S.S.G.U.x H.-XrXtXW.E.E.T.| s O.e.i.i...z *.P.$X3XT.k b A.S.S.S.S.S.S.S.S.S.S.S.S.S.S.S.S.S.S.S.S.",
"S.S.S.S.S.S.A.F.S.S.S.S.S.S.S.S.S.Y.oXi P.2XrX8XW.T.*.a.| ' r.$.' ..g.-.-.P.a.:XY.k b A.S.S.S.S.S.S.S.S.S.S.S.S.S.S.S.S.S.S.S.S.",
"S.S.S.S.S.S.F.S.S.S.S.S.Y.S.S.S.Y.Z.O.2.=X6X9X*XV M * w n r.;XT.s a.3XT.l m o.;X*X .b z.A.S.S.S.S.S.S.S.A.A.A.A.S.A.S.S.S.S.S.A.",
"S.S.S.S.S.S.S.S.S.S.S.V.x.S.S.S.Y.L.n s..XT.T.a.l % & n 2.a.OXW.M T.XXu.:.$.o.;X3X;.g Z S.S.S.S.S.S.S.S.S.A.S.A.S.S.S.S.S.S.A.A.",
"S.F.S.F.S.F.F.S.S.S.S.S.S.S.S.S.B.<.& N ......$...9 m $.a.;.o.u.M 2.M M s.r.o.OX.X:.8 g l.A.A.S.S.S.S.A.S.S.S.S.S.S.S.S.S.S.A.S.",
"F.S.F.S.S.S.S.S.S.S.S.S.S.S.S.S.V.<.# w 2.3.e.2.f q 2.;.N M ;.r.j 2.N f f a f r...$.X.c C k.x.S.A.A.A.A.A.A.A.A.A.A.S.A.A.A.A.A.",
"A.S.S.S.S.S.S.S.S.S.V.S.S.S.S.S.V.D = o.B N M N -.l e.P.OX1X3XR.l P.oX.X:.v s 3 O v I.wXJ.h N.A.A.A.A.A.S.A.A.A.A.A.A.A.A.A.A.A.",
"S.F.S.S.S.S.F.S.S.S.S.S.S.S.S.S.S.<.& = E.&XW.3.q 7 m r.=X3X6X;Xm oX=X$X{.p.;.8 @ Q OX$X .h k.A.A.A.A.A.S.A.A.A.A.A.A.A.A.A.A.A.",
"F.A.F.S.F.F.F.S.S.S.S.S.S.S.S.S.S.x.Z & %XeX:XH.& 4 y.$.n ' h.=XN =X9X9X-XoXp.0 b h 8 h k l.A.A.A.A.A.A.A.A.A.A.A.S.A.A.A.A.A.A.",
"A.A.A.F.S.S.S.S.S.S.V.S.S.S.S.S.S.S.D & E.>XE.o.$ 4 #.n ' r.T.f.m =XaX0X@XP...@ h k h k Z x.A.A.A.A.A.A.A.A.S.A.S.S.A.A.A.A.A.A.",
"A.A.S.S.F.S.S.S.S.S.S.S.S.F.S.S.S.S.z.S M M = = 4 , 7 p #.t..X@X#Xh.i.0.#.$.y.y.3 A m.m.A.A.A.A.A.A.A.A.A.A.A.A.A.A.A.A.A.A.A.A.",
"A.A.S.S.A.S.S.S.S.S.S.S.S.S.S.S.S.S.S.x.= & # & w n #.&.I 6 0.4XaXh.%...] #.h.h.0 A m.S.A.A.A.A.A.A.A.A.A.A.A.A.S.A.A.S.A.A.A.A.",
"A.S.S.S.S.S.S.F.S.F.S.S.S.S.S.S.S.S.S.S.S 4 , n %.#X4X5X'.7.I ] .X<X1X@Xf.y.P p O A A.A.A.A.A.A.A.A.A.A.A.A.A.A.A.A.A.A.A.A.A.A.",
"A.A.S.S.S.S.S.S.S.S.F.S.S.S.S.S.S.S.x.x.n , < d .X4XaXjXaX,XE L ! ] @.[ E +.&.T > c N.A.A.A.A.A.A.A.A.A.A.A.A.A.A.A.A.A.A.A.A.A.",
"S.S.S.S.S.S.S.F.S.S.S.S.F.S.S.S.S.S.V.x.& o 1 r 7.(.].}.iX5Xh.+., p 7.7.q.q.).q.T y b M.A.A.A.A.A.A.A.A.A.A.A.A.A.A.A.A.A.A.A.A.",
"S.A.S.S.S.F.S.S.S.S.S.S.S.S.S.S.S.S.x.n.& , r K 4.).(.(.#X#X|.w.- 5 E 7.(.(.).).5.H c k.A.A.A.A.A.A.S.A.A.A.A.A.S.A.A.A.A.A.A.A.",
"S.S.S.S.S.S.S.S.A.S.S.S.S.S.S.S.S.S.S.S.B e r ~ d.).d.`.d.w.&.+.l < < T q.).[.).4.I 9 c A.A.A.A.A.A.S.S.A.A.A.A.A.A.A.A.S.S.A.A.",
"S.S.S.S.S.S.S.S.S.S.S.S.S.S.S.S.S.S.S.S.<.s y 4.(.(.f.d.y./ p } =.l 1 H 5.8.8.8.4.I - h A.A.A.A.S.S.S.S.A.A.A.A.A.A.S.S.S.A.F.A.",
"S.S.A.S.A.A.A.A.S.A.A.A.A.A.S.S.S.S.S.D.b.l t @.(._.0.4.I p  .n.A.N.N e r J I a [ { s j Z x.A.A.A.A.A.A.A.A.A.A.A.A.A.A.A.A.A.A.",
"S.S.A.S.S.A.A.A.S.S.S.A.A.A.S.S.S.S.S.S.C.l > E q.7.Q E - s C.D.A.m.b.B - < u i x 1.2.m g l.A.S.A.A.A.A.A.A.A.A.A.A.A.A.A.A.A.A.",
"S.A.A.A.S.S.S.S.S.S.S.A.S.S.S.S.S.S.S.D.3.l P %.E E t 6 e X.Z.S.A.A.m.n.l O 7 z 3.a.2.N % = z.A.A.A.S.A.A.A.A.A.A.A.x.A.S.S.x.S.",
"S.A.A.A.S.A.S.S.A.S.S.A.S.S.S.S.S.S.D.G.z 6 u [ t.q.Q 6 %.P.D.S.A.A.S.V.D x , 7 l m w l s % k.S.A.A.A.A.A.A.A.A.A.A.A.A.S.S.S.S.",
"A.A.S.S.S.S.A.A.A.A.A.A.S.A.S.S.S.S.D.W.t L ] E W z : + f.$XZ.B.n.b.N w w 4 X o u } f d 5 $ D m.A.A.A.A.A.A.A.A.S.S.S.S.S.S.S.S.",
"A.A.S.A.S.A.A.S.S.S.A.A.A.A.S.S.S.S.G.$Xd ^ 0.+.9 >   . %.>.B S B N 7 < - , , . 5 d d p 5 X k j.A.A.A.A.A.A.A.A.S.x.S.S.S.S.A.S.",
"A.A.A.S.A.A.A.A.A.S.A.A.A.A.A.S.S.S.n.2.p d @.] 6 : . : > : 2 $ # # # , , : > :   - L ] &.] % C A.A.A.A.A.A.S.A.x.S.x.S.S.S.A.A.",
"A.A.A.A.A.A.A.A.A.A.A.A.A.A.S.S.S.S.j.w e d P R . . + : + : $ 2 # # $ $ O : : - . 5 %.d.h.7.j D A.A.A.A.A.A.S.S.S.S.A.A.S.S.A.A.",
"A.A.A.A.A.A.A.A.A.S.A.S.A.A.S.A.A.A.l.@ Q f.{.0.  : : : 2 : : : $ 2 - O O # $ , & o n h.h.V c.S.A.A.S.S.S.S.S.x.S.S.S.S.S.S.S.S.",
"A.A.A.A.A.A.A.A.A.A.A.S.A.A.A.S.A.A.k.h t.<X6X{.  O : : : 2 6 9 9 9 u 9 0 0 0 4 & & # w B D x.S.A.S.A.S.S.S.S.S.S.x.x.S.S.S.S.S.",
"F.A.A.A.A.A.A.A.S.A.S.A.A.A.A.A.A.A.A.x.Q {.2Xf.  + 6 6 6 6 } 3.J.H.H.C.3.<.=.=.D D Z Z j.x.F.S.S.A.S.S.S.S.S.S.S.S.S.S.S.S.S.S.",
"S.A.A.A.A.A.A.A.A.A.A.A.A.A.A.A.A.A.A.A.b ,.%.Q + 6 0.t.p.p.H.Z.G.G.Z.Z.Z.M.M.D.x.V.V.S.x.S.F.S.S.A.S.S.S.S.S.S.S.S.S.S.S.S.S.S.",
"S.S.S.A.A.A.F.A.A.A.A.A.A.A.A.A.A.A.A.A.N.C.p.P.K.K.U.~.!.!.Y.S.S.S.S.S.A.S.S.S.S.S.S.S.S.S.S.S.A.S.S.S.S.S.S.S.S.S.S.S.x.S.S.S.",
"S.A.S.A.A.A.A.A.A.A.A.A.A.A.A.A.F.A.A.A.F.U.&X-X&X^.D.A.S.S.A.S.A.S.A.S.A.S.S.S.S.S.S.S.S.S.S.S.S.S.S.S.S.S.S.S.S.S.S.S.S.S.S.S.",
"S.S.S.A.A.A.A.A.A.A.A.A.A.S.S.S.F.A.A.A.F.F.D.D.D.D.A.A.S.S.S.A.S.S.S.S.S.S.S.F.S.S.S.S.S.S.S.S.x.S.S.S.S.S.S.S.S.S.S.S.S.S.S.S.",
"S.A.S.A.A.A.A.A.A.A.A.S.A.S.S.S.A.A.F.A.A.A.S.S.A.A.A.A.S.S.S.S.S.x.S.A.S.S.S.S.S.S.S.S.S.S.S.S.S.S.S.S.x.S.S.S.S.S.S.S.S.S.S.S."
};
