/* XPM */
static char *result[] = {
/* columns rows colors chars-per-pixel */
"64 64 231 2 ",
"   c #0B0902",
".  c #12060C",
"X  c #171708",
"o  c #0B0917",
"O  c #140E18",
"+  c #0C171B",
"@  c #141113",
"#  c #19121A",
"$  c #1D1C1D",
"%  c #171718",
"&  c #0F1204",
"*  c #281508",
"=  c #261C18",
"-  c #331C18",
";  c #1E221C",
":  c #22221C",
">  c #2B231B",
",  c #3B271A",
"<  c #3A2000",
"1  c #190F23",
"2  c #0F1325",
"3  c #1E1E24",
"4  c #1A1429",
"5  c #181527",
"6  c #181935",
"7  c #221D24",
"8  c #2A1C26",
"9  c #261D2A",
"0  c #231F32",
"q  c #301B26",
"w  c #1D2124",
"e  c #1E242A",
"r  c #162127",
"t  c #1E223A",
"y  c #242222",
"u  c #23232B",
"i  c #2C252B",
"p  c #2B2A2B",
"a  c #2C2724",
"s  c #352B25",
"d  c #342B2E",
"f  c #37272A",
"g  c #393629",
"h  c #2A2433",
"j  c #2B2834",
"k  c #2E2C3D",
"l  c #27263A",
"z  c #312B34",
"x  c #362B39",
"c  c #3B3533",
"v  c #3C353B",
"b  c #37333A",
"n  c #412711",
"m  c #462D26",
"M  c #45352A",
"N  c #5A3B26",
"B  c #5C3C2A",
"V  c #543426",
"C  c #433B33",
"Z  c #473837",
"A  c #533D3B",
"S  c #462F34",
"D  c #5F461E",
"F  c #5C4426",
"G  c #5E442B",
"H  c #45423C",
"J  c #4A4439",
"K  c #574539",
"L  c #524A36",
"P  c #624529",
"I  c #634634",
"U  c #664838",
"Y  c #724D35",
"T  c #795537",
"R  c #6C5236",
"E  c #2C2C41",
"W  c #262743",
"Q  c #2D334C",
"!  c #333345",
"~  c #3B344A",
"^  c #3C3C4C",
"/  c #373748",
"(  c #3C3A53",
")  c #393C59",
"_  c #3A2F40",
"`  c #413D4B",
"'  c #453B42",
"]  c #453E54",
"[  c #533C44",
"{  c #384143",
"}  c #3D435C",
"|  c #3E4264",
" . c #3D456B",
".. c #39496E",
"X. c #3C4B73",
"o. c #364974",
"O. c #4C464B",
"+. c #53444D",
"@. c #584B47",
"#. c #5B524C",
"$. c #56544B",
"%. c #464658",
"&. c #574C55",
"*. c #5A555D",
"=. c #5C5855",
"-. c #654D47",
";. c #63554B",
":. c #675B4B",
">. c #785843",
",. c #635956",
"<. c #79654A",
"1. c #6B6358",
"2. c #78665C",
"3. c #76715E",
"4. c #414662",
"5. c #424963",
"6. c #41466B",
"7. c #4B4C67",
"8. c #544D65",
"9. c #4B576E",
"0. c #555466",
"q. c #5E5A71",
"w. c #675A65",
"e. c #645D72",
"r. c #5A6579",
"t. c #6B6567",
"y. c #726B6B",
"u. c #786A64",
"i. c #7D736B",
"p. c #787166",
"a. c #636373",
"s. c #696778",
"d. c #766C77",
"f. c #6D707F",
"g. c #7A7974",
"h. c #8B5D3B",
"j. c #835A3B",
"k. c #8A613D",
"l. c #94663E",
"z. c #855B42",
"x. c #896342",
"c. c #966A43",
"v. c #9C6C41",
"b. c #966641",
"n. c #9C7556",
"m. c #916F54",
"M. c #A56F42",
"N. c #A06F49",
"B. c #A57042",
"V. c #A5744B",
"C. c #A8764B",
"Z. c #AB7E5B",
"A. c #A87952",
"S. c #85766A",
"D. c #8B6E74",
"F. c #837D74",
"G. c #847778",
"H. c #907C7A",
"J. c #8F7468",
"K. c #A47B63",
"L. c #B2805C",
"P. c #8A8579",
"I. c #97887A",
"U. c #928B76",
"Y. c #AC8368",
"T. c #A88977",
"R. c #B58C74",
"E. c #AF9278",
"W. c #BAA674",
"Q. c #978254",
"!. c #C39F70",
"~. c #C9A87C",
"^. c #5F6C87",
"/. c #6C6C82",
"(. c #696884",
"). c #716B88",
"_. c #6C768D",
"`. c #787786",
"'. c #737C91",
"]. c #857C85",
"[. c #907E82",
"{. c #798495",
"}. c #7B8CA1",
"|. c #888585",
" X c #988985",
".X c #9B958B",
"XX c #868C9D",
"oX c #9A9392",
"OX c #99979D",
"+X c #988E96",
"@X c #A6978B",
"#X c #B1968D",
"$X c #A79C95",
"%X c #AE9692",
"&X c #B3A78E",
"*X c #A8A296",
"=X c #B7A799",
"-X c #9699A8",
";X c #A79BA6",
":X c #9AA9BB",
">X c #9EA5AF",
",X c #ABA6A6",
"<X c #B3AAA5",
"1X c #BCB2A3",
"2X c #AAABB9",
"3X c #BAACB8",
"4X c #B6B5B6",
"5X c #C5B19E",
"6X c #CFB890",
"7X c #C5B7A8",
"8X c #CFB9B2",
"9X c #D4C69B",
"0X c #D9C6A7",
"qX c #CBC6BA",
"wX c #D6C8B7",
"eX c #C8C8AA",
"rX c #E2C9B1",
"tX c #B6B4C4",
"yX c #B7C5D4",
"uX c #D8CDC3",
"iX c #D1CDCD",
"pX c #EAD9CA",
"aX c #EAD3C6",
"sX c #ECE1CF",
"dX c #F4E8D9",
"fX c #EBE0D6",
"gX c #E1DDED",
"hX c #E9E9F2",
"jX c #EDF9FD",
"kX c #EFEAEE",
"lX c #D2DCE6",
/* pixels */
"B.B.B.M.M.M.M.M.M.M.M.M.M.M.M.M.M.M.M.M.M.M.M.B.M.B.B.B.M.M.M.M.M.M.M.M.M.M.M.M.B.B.B.B.B.B.B.B.B.B.B.B.B.B.B.B.B.B.B.M.l.B.B.B.",
"B.B.B.M.M.M.M.M.M.M.M.M.M.M.M.M.B.M.M.M.M.M.M.M.M.M.M.M.M.M.M.M.M.M.M.M.M.M.M.M.B.B.B.B.M.B.B.B.B.B.B.B.B.B.B.B.B.B.B.B.B.B.B.B.",
"B.B.B.M.v.M.v.M.M.M.M.M.M.M.M.M.M.M.M.M.M.M.M.M.M.M.M.M.M.M.M.M.M.C.M.M.M.B.M.M.B.B.B.B.B.M.B.B.B.B.B.B.B.B.M.B.B.B.B.B.M.B.B.B.",
"B.B.B.M.M.M.M.M.M.M.M.M.M.M.M.M.M.M.M.B.M.M.M.M.M.M.M.M.M.M.M.M.M.M.M.M.M.M.M.M.B.B.B.B.B.B.l.B.B.B.B.B.B.B.l.B.B.B.B.B.B.B.M.M.",
"B.B.B.M.M.M.M.M.M.M.M.v.M.M.M.M.M.M.M.M.M.M.M.B.M.B.M.M.M.M.M.M.M.M.M.M.M.B.B.M.B.B.l.B.B.B.B.B.B.B.B.B.B.B.B.B.B.B.B.M.B.M.M.M.",
"B.B.M.M.M.M.M.M.M.M.M.M.M.M.M.M.M.M.M.M.M.M.M.M.M.M.M.M.M.M.Y Y Y h.M.M.M.B.B.B.B.B.B.B.B.B.B.B.B.B.B.B.B.B.M.B.B.M.M.M.B.B.M.M.",
"B.B.B.M.M.M.M.M.M.M.M.M.M.M.M.M.M.M.M.M.M.M.M.M.M.M.M.b.j.z.0 0 9 U j.h.M.B.B.B.B.B.B.B.M.B.B.B.B.B.B.B.B.B.B.B.M.M.M.B.M.M.M.M.",
"B.B.B.M.v.M.M.M.M.M.M.M.M.M.l.M.B.B.B.B.B.B.M.M.M.M.b.Y 4 ) 4.6. .) W x h.M.B.M.B.B.B.B.B.B.B.B.M.l.B.B.B.B.B.B.B.M.M.B.M.M.M.M.",
"M.M.M.M.M.M.M.M.M.l.M.l.M.M.M.M.B.B.M.B.B.M.M.M.M.h.[ ) 6.X.X.o.X.X.6.| ] T B.B.B.B.M.B.B.B.B.l.B.B.B.B.B.B.B.B.B.M.M.M.M.M.M.M.",
"M.M.M.M.M.l.M.M.M.M.M.M.M.M.M.M.B.M.B.B.B.B.M.M.j.[ ) 6...X.o.o.o.X. . .| %.l.B.B.B.B.B.B.B.B.B.B.B.B.B.B.B.B.B.B.M.M.M.M.B.B.M.",
"M.M.M.M.M.M.M.M.M.M.M.M.M.M.M.M.M.M.M.M.B.B.M.B.I ~  ...X...X.o.o.o.X. .| } i l.B.B.B.M.B.B.V.B.B.B.B.B.B.B.B.B.B.M.M.M.M.M.M.M.",
"M.M.M.M.M.M.M.M.M.M.M.M.M.M.M.M.M.V.M.M.B.M.M.Y [ q.(.9.}.yX7.:XtX:X^.).2X5.Q c k.B.v.B.B.B.B.B.B.B.B.B.B.B.B.B.B.M.M.M.M.M.M.M.",
"M.M.M.M.M.M.M.M.M.M.M.M.M.M.l.M.M.M.M.M.M.M.M.M 0.XX{.9.:XjX9.lXjXyX_.{.lX'.%.5 j.B.B.B.B.B.B.B.B.B.B.B.B.B.B.B.B.B.B.B.M.B.B.M.",
"M.M.M.M.M.M.M.M.M.M.M.M.M.M.M.M.M.M.M.M.M.M.j.Z 0._.(.9.'.XX%.XX>X'.9.^.-X_...W A k.B.B.B.B.B.B.B.B.B.B.B.B.B.B.B.B.B.B.B.B.B.M.",
"M.M.M.M.M.M.l.M.M.M.M.M.M.M.M.M.M.M.M.M.M.M.S ` 6.| | 5.| 6 ~ ~ ( W Q | | } | 5.2 Y V.M.B.B.B.B.B.B.B.B.B.B.B.B.B.B.B.B.B.M.M.M.",
"M.M.M.M.M.M.M.M.M.M.M.M.M.M.M.M.M.M.M.M.M.M.f Q %.} ( ) ] ] _ x E ` ] ^ } Q } %.5 Y V.M.B.V.B.B.B.B.B.B.B.B.B.B.B.B.B.M.M.M.B.M.",
"M.M.M.M.M.M.M.M.M.M.M.M.M.M.M.M.M.M.M.M.M.M.D V } / k j b <XA S S G.y.9 z Q | W t >.C.B.B.B.B.B.B.B.B.B.B.B.B.B.B.B.B.B.B.B.B.B.",
"M.M.M.M.M.M.M.M.M.M.M.M.B.M.M.M.M.M.M.M.M.M.M.n e j O.i.= s 7XrX8Xu.= O.d.l / o -XT.B.B.B.C.B.B.B.B.B.B.B.B.B.B.B.B.B.B.B.B.B.B.",
"M.M.M.M.M.M.M.M.M.B.M.M.B.B.M.B.B.M.M.M.B.B.l.> e j i ,.uX%X8XaXrX=X7X,Xp e ~ o  XY.B.B.B.B.B.B.B.B.B.B.B.C.B.B.B.B.B.B.B.B.B.B.",
"M.M.M.M.M.M.M.M.M.M.M.M.B.B.B.B.B.B.M.M.B.B.l.s u j [ oXkX#XrXpXaX7XwXwXw.h ~ o F.L.B.C.B.B.B.B.B.B.B.B.B.B.B.B.B.B.B.B.B.B.B.B.",
"M.M.B.B.M.M.M.M.B.B.M.B.B.B.B.B.B.B.l.B.B.B.l.S./ = O.%XfXpXsXdXsXaXsX8Xi.7 4 ].K.V.V.B.B.B.B.B.B.B.B.B.B.B.B.B.B.B.B.B.B.B.B.B.",
"B.M.B.B.M.M.M.M.C.B.M.B.B.B.B.B.B.B.B.B.B.B.B.E.O.% s 1.7XdXpXfXsXsXwXT.Z $ o $XL.B.B.B.B.B.B.B.B.B.B.B.B.B.B.B.B.B.B.B.B.B.B.B.",
"B.B.B.B.M.M.M.M.B.B.B.B.B.B.B.B.B.B.B.B.B.B.B.#X+.c 1.L 1.%XwXaXwX7XP.;.#.t.. $XZ.V.B.B.B.B.B.B.B.B.C.B.B.B.B.B.B.B.B.B.B.B.B.B.",
"M.B.M.M.M.M.M.M.B.B.B.B.B.B.B.B.B.B.B.B.B.B.L.P.&.F.eXS.> @.H. X X1.g @.,X7XM D.Y.C.B.B.B.B.B.B.B.B.B.B.C.B.C.B.B.B.B.B.B.B.B.B.",
"B.M.B.B.B.B.B.B.B.B.B.B.B.B.B.C.B.B.B.B.B.L. X&.=. XeX$X= d f 8 f s = #.qX1Xi.m H.Z.B.B.B.M.M.M.B.B.B.B.B.B.B.B.B.B.B.B.B.B.B.B.",
"B.B.B.B.B.B.B.B.C.B.B.C.B.B.B.B.B.B.B.B.C.%XM @XD.@.@X$Xv ` e.e.0.O.H 3.1Xi.M I., T n.B.B.M.B.M.B.B.B.B.B.B.B.B.B.B.B.B.B.B.B.B.",
"B.B.B.B.B.B.B.B.B.B.B.B.B.B.B.B.C.l.B.B.n.* E.rX=X;.L @X3Xl gXjXtX*.y.1X3.C wX6XP * D B.B.M.M.M.B.B.B.B.B.B.B.B.B.B.B.B.B.B.B.B.",
"B.B.B.B.B.B.B.B.B.B.B.B.B.B.B.C.B.B.B.k.* < !.0XwX&X,.O.+X].Z c c ,.P.p.M .X0X6XD * D B.B.M.M.M.M.B.B.B.B.B.B.B.B.B.B.B.B.B.B.B.",
"B.B.B.B.B.B.B.B.B.B.B.B.B.B.B.B.B.B.v.<.& < !.9X0X=XP.t.b v y.g.i.$.g @.F. X0X6XW.g D Q.B.M.M.M.M.B.B.B.B.B.B.B.B.B.B.B.B.B.B.B.",
"B.B.M.B.B.B.B.B.C.B.B.B.B.C.B.B.B.B.B.k.& Q.6X9X5Xi.p..Xp t.O.O.H #.J #.$X#.rX9XW.D D l.B.M.M.M.M.B.B.M.B.B.B.B.B.B.B.B.B.B.B.B.",
"B.B.B.B.B.B.B.B.B.B.B.B.B.B.B.B.B.B.B.<.X 9X9X0X%X,.c =.c 2XP.p 1..Xp.Z ,.c <XwXU.g D M.B.B.B.M.M.B.M.M.B.B.B.B.B.B.B.B.B.B.B.B.",
"M.B.B.B.B.B.B.B.B.B.B.B.B.B.B.B.B.B.l.L L 9X9X5XJ.A s $.p.F.qXH .X*Xi.w.[ j  X=XE.:.D l.B.B.B.B.B.B.B.B.B.B.B.B.B.B.B.B.B.B.B.B.",
"M.M.M.C.B.B.B.C.B.B.B.B.B.B.B.B.B.B.T > U.eXeX%XK > J p.P.: =XH P.1.#.[.w.[ y.|.*X.XZ V B.B.B.B.B.B.B.B.M.B.B.M.B.B.M.B.B.M.M.M.",
"M.M.M.B.B.B.B.B.B.B.B.B.B.B.B.B.B.l.R X i.qXuX$X@.s g C J L P.g 3.#.A A @.G.i F.qX<X+.m k.B.B.B.B.B.M.B.B.B.B.B.B.B.B.B.B.B.M.M.",
"B.C.B.C.B.B.B.B.B.B.Q.l.C.B.B.B.B.l.L ; g <X4X+X+.#.U.*XwXqX Xg u..X=X5XI.F.y g.,X4Xt.* n B.B.B.B.B.B.B.B.B.B.B.M.B.B.B.B.B.M.M.",
"M.M.B.B.B.B.C.B.C.B.B.B.B.B.B.B.l.D p U.P.p = u 8 &.*XqXuXqX.Xg 1.<XwX7XI.P.% ; w = ,.$.n B.B.B.M.M.M.M.M.M.M.M.M.M.M.M.M.M.M.B.",
"M.M.C.M.B.B.B.B.B.B.B.B.B.B.B.B.B.F X g s S.G.' y $.*XuXqXwXqXH .XwXwX7XI.P.% ; y.,XOX,.* n C.M.M.M.M.M.M.M.M.M.M.M.M.M.M.M.M.M.",
"M.M.C.M.B.B.B.B.B.B.B.B.B.B.B.B.l.F g 1X@XJ c y $ p C O.1.qXiXH @XwXwXeX1XP.; & p O.H 1.y.- M.M.M.M.M.M.M.B.M.B.M.M.M.M.M.M.M.M.",
"M.C.M.M.B.B.B.B.B.B.B.B.B.B.B.B.v.F g eX@X3.s ; ; O.|.<X*X=.=.a S.7XwXwX7Xg.@ d.i +.G. Xu.- C.M.M.M.M.M.M.M.M.M.B.M.B.M.M.M.M.B.",
"M.M.M.M.C.B.B.B.B.B.C.B.B.B.B.B.N.F g &X&X:.a p a { t.{.|.oXOXy.#.1.3.3.t.$.=.*.t.-.-.-.I T C.B.M.M.B.M.M.M.M.M.M.M.M.M.M.M.M.M.",
"M.M.M.M.C.M.M.M.M.M.M.B.C.M.B.M.B.<.@.:.p.8 i v l ~ &.^ +.OXOXqXoXP.g.F.g.{.OX=  Xm.A I >.Z.B.B.M.M.M.M.M.M.M.M.M.M.M.M.M.M.M.M.",
"M.M.M.M.M.M.B.C.C.B.M.B.B.B.B.B.B.Q.K.Z ' 9 x ! ( `.2X-X`.v p OX4X4X4X4X4X2X`.# [.#XK.R.Z.M.B.B.M.M.M.M.M.M.M.M.M.M.M.M.M.M.B.M.",
"M.M.M.M.B.M.B.B.B.B.M.M.B.B.B.B.B.B.C.E.8X4 E l e.tXgXhX2X`.{ e ; r e Q E E ! 5 d.K.C.C.M.M.M.M.M.M.M.M.M.M.M.M.M.M.M.M.M.B.M.M.",
"M.M.M.C.B.M.C.M.M.M.M.M.B.B.B.M.B.B.B.C.%X1 k l ! 0.-XkXgXOX{ + r k 7.(.(.).q.( 1 m.Z.M.M.M.M.M.C.M.M.M.M.M.M.M.M.M.M.M.M.M.M.B.",
"B.B.M.B.B.B.B.C.B.C.M.C.M.M.M.M.M.M.M.A.%X1 4 E ` 8.s.f.f.>X2 2.j 2 W 7.).(.( / o w.Z.M.M.M.M.M.M.M.M.M.M.M.M.M.M.M.M.M.M.M.B.M.",
"B.B.M.B.B.B.B.B.B.B.M.M.M.V.M.M.M.M.M.M.N.;Xl W 8.s.).s.a.%.+ m.I.{ 5 E ( ( ~ ~ 1 >.A.M.M.M.M.M.M.M.M.M.M.M.M.M.M.M.M.M.B.M.B.M.",
"M.B.B.M.B.B.B.B.B.B.M.M.M.M.M.M.M.M.M.C.K.] W ] q.(.s.f.a.+ 2.N.A.m.Z 4 %.a.w.z 1 = Y V.M.M.M.M.M.M.M.M.M.M.M.M.M.M.M.M.B.M.M.M.",
"B.B.B.B.B.B.B.B.B.M.B.M.M.M.M.M.V.M.M.Z.%X1 W 8.s.f.(.q.%.o n.V.B.V.K O i ' C = p.g P M.M.M.M.M.M.M.M.M.M.M.M.M.M.M.M.M.M.M.B.M.",
"M.M.M.M.B.B.B.B.B.B.B.M.M.M.B.B.B.B.B.C.R.y.l / w.f.a.} 0 U v.V.B.B.<.M X J U.S.@X;.m Y M.M.M.M.M.M.M.M.M.M.M.M.M.M.M.M.M.M.M.M.",
"B.B.M.M.B.M.B.B.B.B.M.M.M.M.B.B.B.B.C.B.Z.i.w.$.+.&.] j A M.M.M.B.B.B.k.M J &X=XI.-.- V M.M.M.M.M.M.M.M.M.M.M.M.M.M.M.M.M.M.B.B.",
"B.M.M.M.M.B.M.B.B.M.M.M.B.B.B.B.B.B.B.C.R.X P.@X1.z 7 K V.M.M.M.B.B.C.l.T X L :.K Z q V M.M.M.M.M.M.M.M.M.M.M.M.M.M.M.v.l.B.B.M.",
"B.B.B.B.M.B.M.B.B.M.M.M.B.B.B.B.B.B.B.V.J.: ; P. X[ f m.V.M.M.M.B.B.l.k.R *   , f &._ m b.M.M.M.M.M.M.M.M.M.M.M.M.M.v.M.B.B.B.B.",
"B.B.M.M.M.M.M.M.M.M.M.B.B.M.M.B.M.B.C.n.o a.O.z q # O v n.v.v.v.l.v.L e w =   0.d.&.l 5 f M.M.M.M.M.M.M.M.M.B.M.M.M.l.M.B.B.B.B.",
"B.B.M.M.M.M.M.M.M.M.M.M.B.B.M.B.B.B.B.x.o r.s.+.8 # 3 3 i 7 e e y e p w 3 u 3 O 4 u E W 9 - M.M.M.M.C.M.M.M.B.B.M.M.B.M.B.B.B.B.",
"B.B.M.M.M.B.M.M.M.M.M.M.M.M.M.M.B.B.z.S x ^ x i O @ 3 3 3 3 3 w w w r ; y 7 7 . i 8.e.d.*.- C.M.M.M.M.M.M.M.M.M.l.B.M.M.B.B.B.B.",
"M.M.M.M.M.M.M.B.B.M.M.B.B.M.M.M.M.B.h.q ` ,.&.8 # = $ w 3 e w w ; w w w 7 7 7 7 # w.;X[.V h.M.M.M.M.M.M.M.M.M.M.B.B.M.M.B.B.M.M.",
"M.M.M.M.B.M.M.M.M.M.M.M.M.M.M.M.M.M.v.U d.7X;Xx % : $ y u 3 y ; $ % % @ O o @ @ X > @.-.j.M.M.M.M.M.B.B.B.B.B.B.B.B.B.B.B.B.M.M.",
"B.B.B.M.M.M.B.M.M.M.M.M.M.M.M.M.M.M.M.N.D.iX3XS # y i d U I I P I I N N N N N N D D F T M.M.C.B.M.M.B.B.B.B.B.B.l.B.B.B.B.B.M.M.",
"M.M.B.M.M.M.M.M.M.M.M.M.M.M.M.B.M.M.M.M.z.[.w.S m G K Y B.B.B.B.M.B.B.M.B.B.B.B.B.B.B.B.M.M.B.B.B.B.B.B.B.B.B.B.B.B.B.B.B.l.B.B.",
"M.B.B.M.M.M.M.M.M.M.M.M.M.B.M.M.M.M.M.M.b.V q B h.M.B.B.B.B.B.B.M.M.B.B.B.B.B.B.B.B.B.B.M.M.B.B.B.B.B.B.B.B.l.B.B.B.B.B.B.M.B.B.",
"M.M.M.B.M.M.M.M.B.B.M.M.B.M.M.M.M.M.M.M.M.M.M.M.M.M.B.B.B.B.B.B.B.B.B.B.B.B.B.B.B.B.B.B.B.B.B.B.B.B.B.v.B.B.B.B.B.B.B.B.B.B.B.B.",
"B.M.M.M.M.B.M.M.B.B.B.M.M.M.M.M.M.M.C.M.B.B.M.B.B.M.B.B.B.B.B.B.B.B.B.B.B.B.B.B.B.B.B.B.B.B.B.B.M.B.M.B.B.B.B.B.B.B.B.B.B.B.B.B.",
"B.M.B.M.M.M.M.M.M.M.M.M.M.M.M.M.M.M.M.C.B.B.B.B.B.B.B.B.B.B.B.B.B.B.M.B.B.B.B.C.B.B.B.B.B.B.B.B.B.M.B.v.B.B.B.B.B.B.B.B.B.B.B.B.",
"B.M.B.M.M.M.M.M.B.M.M.M.M.M.M.M.M.M.M.B.B.B.B.B.B.M.B.B.B.B.l.B.B.B.B.B.B.B.B.B.B.B.B.B.B.B.B.M.M.M.B.B.B.B.B.B.B.B.B.B.B.B.B.B."
};
