/* XPM */
static char *_6daed9690b54daab578595dde30e1b6haSYFxo67BmxAMUV[] = {
/* columns rows colors chars-per-pixel */
"64 64 249 2 ",
"   c #291619",
".  c #391919",
"X  c #2E130F",
"o  c #1B221E",
"O  c #28271E",
"+  c #39221A",
"@  c #3B321A",
"#  c #1C1829",
"$  c #241C24",
"%  c #291929",
"&  c #351527",
"*  c #390C37",
"=  c #2C1B35",
"-  c #381738",
";  c #1F2025",
":  c #2A2725",
">  c #2B2B25",
",  c #2C242B",
"<  c #25292B",
"1  c #29292C",
"2  c #262826",
"3  c #362627",
"4  c #383429",
"5  c #2D2333",
"6  c #2C2B32",
"7  c #332537",
"8  c #343434",
"9  c #383739",
"0  c #29302C",
"q  c #1F1814",
"w  c #4D190D",
"e  c #46191A",
"r  c #7E191E",
"t  c #58290F",
"y  c #572917",
"u  c #4A331B",
"i  c #553017",
"p  c #462915",
"a  c #6D2D16",
"s  c #471628",
"d  c #491A3B",
"f  c #5A1B3F",
"g  c #4D0B35",
"h  c #671621",
"j  c #6E1338",
"k  c #4A2D21",
"l  c #52282A",
"z  c #433226",
"x  c #5A2739",
"c  c #463A3A",
"v  c #52322D",
"b  c #632829",
"n  c #79272A",
"m  c #653D29",
"M  c #662938",
"N  c #7B2537",
"B  c #793838",
"V  c #6E3831",
"C  c #3E453B",
"Z  c #71481F",
"A  c #55452C",
"S  c #574D31",
"D  c #514A33",
"F  c #674926",
"G  c #77482A",
"H  c #79542D",
"J  c #674738",
"K  c #784C37",
"L  c #785338",
"P  c #645532",
"I  c #574717",
"U  c #380944",
"Y  c #2F1A41",
"T  c #49094B",
"R  c #451246",
"E  c #5B184B",
"W  c #500C54",
"Q  c #5C2346",
"!  c #463B46",
"~  c #543643",
"^  c #4C364F",
"/  c #672648",
"(  c #782742",
")  c #773846",
"_  c #72314F",
"`  c #761E51",
"'  c #3B4240",
"]  c #484848",
"[  c #554E4C",
"{  c #584B44",
"}  c #4E524D",
"|  c #58514B",
" . c #4F4E52",
".. c #534E52",
"X. c #584B57",
"o. c #4C5252",
"O. c #515252",
"+. c #595950",
"@. c #654D44",
"#. c #7E4A43",
"$. c #765749",
"%. c #765B58",
"&. c #764D57",
"*. c #6E6656",
"=. c #7A6E6E",
"-. c #881914",
";. c #8B2915",
":. c #AE2E18",
">. c #921737",
",. c #83262C",
"<. c #962A28",
"1. c #843A26",
"2. c #983927",
"3. c #862838",
"4. c #972C36",
"5. c #8B3838",
"6. c #963936",
"7. c #AA302E",
"8. c #C83C19",
"9. c #EA3F01",
"0. c #A7421D",
"q. c #984929",
"w. c #85562D",
"e. c #8D4B3B",
"r. c #884A38",
"t. c #944A36",
"y. c #87573B",
"u. c #93573B",
"i. c #99573C",
"p. c #965B3C",
"a. c #924E25",
"s. c #B94325",
"d. c #B65426",
"f. c #AF4836",
"g. c #97653B",
"h. c #8D7035",
"j. c #BE713C",
"k. c #AF7036",
"l. c #DA4707",
"z. c #C74B19",
"x. c #D74517",
"c. c #CF5717",
"v. c #E64404",
"b. c #E45714",
"n. c #E3530D",
"m. c #DB6418",
"M. c #E6661A",
"N. c #C64A24",
"B. c #CA542F",
"V. c #CD6829",
"C. c #D56527",
"Z. c #C76938",
"A. c #D86938",
"S. c #D77A3B",
"D. c #E46626",
"F. c #EB7328",
"G. c #F17A2C",
"H. c #F27932",
"J. c #EB7D35",
"K. c #8B1343",
"L. c #862645",
"P. c #853A46",
"I. c #8B3454",
"U. c #AC3648",
"Y. c #844B43",
"T. c #8D4C45",
"R. c #8B4A4A",
"E. c #944C46",
"W. c #895943",
"Q. c #955642",
"!. c #945B44",
"~. c #9A5948",
"^. c #874758",
"/. c #954E50",
"(. c #A74145",
"). c #B75148",
"_. c #A74857",
"`. c #AD524B",
"'. c #8C6746",
"]. c #9C6444",
"[. c #966B48",
"{. c #95775F",
"}. c #90724F",
"|. c #A56F42",
" X c #A06546",
".X c #BA6945",
"XX c #A57042",
"oX c #A97647",
"OX c #BA7847",
"+X c #A97758",
"@X c #B7735B",
"#X c #954667",
"$X c #92786E",
"%X c #B07A6A",
"&X c #B27668",
"*X c #A15870",
"=X c #C47848",
"-X c #DA7457",
";X c #CC6C4D",
":X c #EE7742",
">X c #A78A3D",
",X c #EC863B",
"<X c #FB8D3B",
"1X c #F58438",
"2X c #FD943D",
"3X c #F5993C",
"4X c #FC9B3D",
"5X c #B68755",
"6X c #A89859",
"7X c #A28752",
"8X c #AB8467",
"9X c #AE936D",
"0X c #86816D",
"qX c #C3855C",
"wX c #D89556",
"eX c #CF8B4B",
"rX c #EB9A48",
"tX c #FC9544",
"yX c #FA9943",
"uX c #F4964A",
"iX c #FB944C",
"pX c #F69948",
"aX c #E78A55",
"sX c #E89955",
"dX c #F69754",
"fX c #E98948",
"gX c #C8B054",
"hX c #C99966",
"jX c #CB8B68",
"kX c #EC9767",
"lX c #D5A870",
"zX c #E6AD75",
"xX c #E9B277",
"cX c #F2B878",
"vX c #EAA568",
"bX c #E5A95D",
"nX c #F4DA6C",
"mX c #ECC879",
"MX c #E5D16A",
"NX c #AE918B",
"BX c #B8AFA5",
"VX c #CC9F80",
"CX c #CEAA8B",
"ZX c #E9B58F",
"AX c #F4D5B0",
"SX c #EBC08C",
"DX c #EBBFC0",
"FX c #D9D5CB",
"GX c #FFECCD",
/* pixels */
"XXXXXXXX|.|.|.|.|.|.|.|.|.|.|.|.|.|.|.|.|.|.XXXXXXXXXXXXXXXXXXXXXXXXXXXXXX|.|.|.g.H H G u.|.|.XXXXXXXXXXXXXXXXXXXXXXXXXXXXXXXXXX",
"XXXXXX|.|.|.|.|.|.|.|.|.|.|.|.|.|.|.|.|.|.|.|.|.|.|.|.|.|.|.|.|.|.|.|.|.|.XXXXXX#.@.@.$.P.Q.|.XXXXXXXXXXXXXXXXXXXXXXXXXXXXXX|.|.",
"XXXXXX|.|.|.|.|.|.|.|.|.|.|.|.|.|.|.|.|.|.|.|.|.|.|.|.|.|.|.|.|.|.|.|.|.|.XXXXXX^.CXZXZX&X_.u.|.XXXXXXXXXXXXXXXXXXXXXXXXXXXX|.|.",
"XXXXXX|.|.|.|.|.|.|.|.|.|.|.|.|.|.|.|.|.|.|.|.|.|.|.|.|.|.|.|.|.|.|.|.|.|.XXXXXX) hXvXeXZXZX#X~.XXXXXXXXXXXXXXXXXXXXXXXXXXXX|.|.",
"XXXXXX|.|.|.|.|.|.|.|.|.|.|.|.|.|.|.|.|.|.|.|.|.|.|.|.|.|.|.|.|.|.|.|.|.|.XXXX( &.L ].i.sXZ.L.E.XXXXXXXXXXXXXXXXXXXXXXXXXXXX|.|.",
"XXXXXX|.|.|.|.|.|.|.|.|.|.|.|.|.|.|.|.|.|.|.|.|.|.|.|.|.|.|.|.|.|.|.|.|.|.XXXX/ DX8Xa a d.Z.I.E.XXXXXXXXXXXXXXXXXXXXXXXXXXXX|.|.",
"XXXXXX|.|.|.|.|.|.|.|.|.|.|.|.XXXXXXXXXXXXXX|.|.|.|.|.|.|.|.|.|.|.|.|.|.|.XXXX!.B G =XjXq.`.I.E.XXXXXXXXXXXXXXXXXX|.|.|.|.|.|.|.",
"XXXX|.|.|.|.|.|.|.|.|.|.|.|.XXXXXXXXXXXXXXXX|.|.|.|.|.|.|.|.|.|.|.|.|.^.|.XXXX|.. p ].@X~.M P.].XXXXXXXXXXXXXXXXXX|.|.|.|.|.|.|.",
"XXXX|.|.|.|.|.|.|.|.|.|.|.|.XXXXXXXXXXXXXXXX|.|.|.|.|.|.|.|._ ) XXg.P.E XXXX~.].y.d { J + = #.XXXXXXXXXXXXXXXXXXXX|.|.|.|.|.|.|.",
"XXXX|.|.|.|.|.|.|.|.|.|.|.|.XXXXXXXXXXXXXXXX|.|.|.|.~./.|.|.M x H G @XJ ].Y.P.~.Y.W X.[ O = Y.XXXXXXXXXXXXXXXXXXXX|.|.|.|.|.|.|.",
"XXXX|.|.|.|.|.|.|.|.|.|.|.|.XXXXXXXXXXXXXXXX|.|.|.|.~.` b b w '.'.Z nXP J ) r.G s Y X...6 = Y.XXXXXXXXXXXXXXXXXXXX|.|.|.|.|.|.|.",
"XXXX|.|.|.|.|.|.|.|.|.|.|.|.XXXXXXXXXXXXXXXX|.|.|.|.|.M 8X'.i g.lX>XnX>X6Xg.t $.  6  ...5 Y Y.XXXXXXXXXXXXXXXXXXXX|.|.|.|.|.|.|.",
"XXXX|.|.|.|.|.|.|.|.|.|.|.|.|.|.|.|.|.|.|.|.XXXXXX!.f x h.MXnXgX6X6X6XmXgXnXmXF 3 6 o.O.= R !.XXXXXXXXXXXXXXXXXXXXXXXXXXXXXX|.|.",
"XXXX|.|.|.|.|.|.|.|.|.|.|.|.|.|.|.|.|.|.|.|.XXXX|.XXK ^.h.gXMX}.D D D 9XI gX6Xu L 6 o.o.- M XXXXXXXXXXXXXXXXXXXXXXXXXXXXXXXX|.|.",
"XXXX|.|.|.|.|.|.|.|.|.|.|.|.|.|.|.|.|.|.|.|.XXXXXX|.XXM 9X>XCXBXFXFXFXBXq @ *.4 4 9 ....R / XXXXXXXXXXXXXXXXXXXXXXXXXXXXXXXXXX|.",
"XXXXXX|.|.|.|.|.|.|.|.|.|.|.|.|.|.|.|.|.|.|.XXXXXXXXXXb 7Xi J J $.$.%.@.q q 8 3 $ 9 [ ! R ` XXXXXXXXXXXXXXXXXXXXXXXXXXXXXXXXXXXX",
"XXXXXX|.|.|.|.|.|.|.|.|.|.|.|.|.|.|.|.|.|.|.XXXXXXXX( *Xm 9X[.9XZX+X'.8X9Xz   $ , 9 O.9 E I.XXXXXXXXXXXXXXXXXXXXXXXXXXXXXXXXXXXX",
"XXXXXX|.|.|.|.|.|.|.|.|.|.|.|.|.|.|.|.|.|.|.XXXXXX].M I.W.lX}.[.xXoXK H lX'.  $ 8 o. .8 x XXXXXXXXXXXXXXXXXXXXXXXXXXXXXXXXXXXXXX",
"XXXXXX|.|.|.|.|.|.|.|.|.XXXXXXXXXXXXXXXXXXXX|.|.|.].E.e._ !.hXxXSXcXwXeXzXy.  # 9 o.9 1 x XXXXXXXXXXXXXXXXXXXXXXXXXXXXXXXXXXXXXX",
"XXXXXX|.|.|.|.|.|.|.|.XXXXXXXXXXXXXXXXXXXXXX|.|.|.|.|.|.B B lXcXcXZXvXbXhXy.  $ ' 8 1 2 / XXXXXXXXXXXXXXXXXXXXXXXXXXXXXXXXXXXXXX",
"XXXXXXXX|.|.|.|.|.|.|.XXXXXXXXXXXXXXXXXXXXXX|.|.|.|.|.|.e.5.VXAXGXGXZXxXm   6 ] C 2 , = ) XXXXXXXXXXXXXXXXXXXXXXXXXXXXXXXXXXXXXX",
"XXXXXXXXXXXXXXXXXXXXXXXXXXXXXXXXXXXXXXXXXXXX|.|.|.|.|.|.u.P.&XZXAXAXVX+XX   ] O.C O , - XXXXXXXXXXXXXXXXXXXXXXXXXXXXXXXXXXXXXXXX",
"XXXXXXXXXXXXXXXXXXXXXXXXXXXXXXXXXXXXXXXXXXXX|.|.|.|.|.|.|.r.b +XqX5XW.. % 7 ] } 4 > 5 T XXXXXXXXXXXXXXXXXXXXXXXXXXXXXXXXXXXXXXXX",
"XXXXXXXXXXXXXXXXXXXXXXXXXXXXXXXXXXXXXXXXXXXXXXXXXXXXXXXX|.r.& k u u 3 % $ 8  .O.O : - _ XXXXXXXXXXXXXXXXXXXXXXXXXXXXXXXXXXXXXXXX",
"XXXXXXXXXXXXXXXXXXXXXXXXXXXXXXXXXXXXXXXXXXXXXXXXXXXXW.x - ^ ^ 6 < < 1 1 2 8  .8 3 - Q W.XXXX|.|.XXXXXXXXXXXXXXXXXXXXXXXXXXXXXXXX",
"XXXXXXXXXXXXXXXXXXXXXXXXXXXXXXXXXXXXXXXXXXXXXXXXXX].~ ^ ....X.! 8 8 9 8 > : 9 6 5 * Y.XXXXXX|.|.XXXXXXXXXXXXXXXXXXXXXXXXXXXXXXXX",
"XXXXXXXXXXXXXXXXXXXXXXXXXXXXXXXXXXXXXXXXXXXXXXXXXX#.7 ] C } | [ O.O.[ ! 2 2 < 5 - E ].XXXXXX|.|.XXXXXXXXXXXXXXXXXXXXXXXXXXXXXXXX",
"XXXXXXXXXXXXXXXXXXXXXXXXXXXXXXXXXXXXXXXXXXXXXXXXXXK 5 6 ] } | [ o.O.| 9 < 2 2 5 f Q.XXXXXXXX|.|.XXXXXXXXXXXXXXXXXXXXXXXXXXXXXXXX",
"XXXXXXXXXXXXXXXXXXXXXXXXXXXXXXXXXXXXXXXXXXXXXXXX].) % : } O.[ [ } ] 4 3 , , 1 7 ` XXXXXXXXXX|.|.XXXXXXXXXXXXXXXXXXXXXXXXXXXXXXXX",
"XXXXXXXXXXXXXXXXXXXXXXXXXXXXXXXXXXXXXXXXXXXXXXXXR.W % c { [ [ ..[ D A u + 3 : = / XXXXXXXXXXXXXXXXXXXX|.XXXXXXXXXXXXXXXXXXXXXX|.",
"XXXXXXXXXXXXXXXXXXXXXXXXXXXXXXXXXXXXXXXXXXXXXXXXT.T & W.8X{.| [ $.8XOXa.a.V + & / XXXXXXXXXXXXXXXXXXXXXXXXXXXXXXXXXXXXXXXXXX|.|.",
"XXXXXXXXXXXXXXXXXXXXXXXXXXXXXXXXXXXXXXXXXXXXXXXXT.T   |.vX8X{ { qXkXdXV.z.s.h V R ) XXXXXXXXXXXXXXXXXXXXXXXXXXXXXXXXXXXXXXXX|.|.",
"XXXXXXXXXXXXXXXXXXXXXXXXXXXXXXXXXXXXXXXXXXXXXXXXT.g . k.sX5XP J dX2XM.l.l.8.3.i.U Q XXXXXX|.XXXXXXXXXXXXXXXXXXXXXXXXXXXXXXXX|.|.",
"XXXXXXXXXXXXXXXXXXXXXXXXXXXXXXXXXXXXXXXXXXXXXXXXY.g y j.sX5XS S pX1Xn.v.x.:.t.XXU Q XXXXXXXXXXXXXXXXXXXXXXXXXXXXXXXXXXXXXXXX|.|.",
"XXXXXXXXXXXXXXXXXXXXXXXXXXXXXXXXXXXX|.G x M u.#.d s 1.B.Z.u.k i C.n.v.9.x.2.t.XXU R ~.XXXXXXXXXXXXXXXXXXXXXXXXXXXXXXXXXXXXXX|.|.",
"XXXXXXXXXXXXXXXXXXXXXXXXXXXXXXXX|.y.i + NX&.l d ^ v 2.N.0.a w a z.l.9.v.z.2.t.|.U U R.|.|.|.|.|.|.|.|.|.|.|.|.|.|.|.|.|.|.|.|.|.",
"XXXXXXXXXXXXXXXXXXXXXXXXXXXXXXXXT.#XZX[.NX8Xv v c . 1.qXm k oXsXpXiXC.z.2.n e.|.* U R.|.|.|.|.|.|.|.|.|.|.|.|.|.|.|.|.|.|.|.|.|.",
"XXXXXXXXXXXXXXXXXXXXXXXXXXXXXXXXe.P.vXzXZ ].jXG 3   m {.{ { [.wXwX=Xq.q.w e ) ].Q W R.|.|.|.|.|.|.|.|.|.|.|.|.|.|.|.|.|.|.|.|.|.",
"XXXXXXXXXXXXXXXXXXXXXXXXXXXXXXXX].r.qXzXcXzXS.j.X $ : 4 8 8 k F G i . 3   % T R.].I./.|.|.|.|.|.|.|.|.|.|.|.|.|.|.|.|.|.|.|.|.|.",
"XXXXXXXXXXXXXXXXXXXXXXXXXXXXXXXXXXr.Q.=XvXsXj.a.  $ < < 6 1 , 3 e . . X X & T R.|. X X|.|.|.|.|.|.|.|.|.|.|.|.|.|.|.|.|.|.|.|.|.",
"XXXXXXXXXXXXXXXXXXXXXXXXXXXXXXXXXXXXr.h U.(.B u.r.s y t w . y y t a i..XOXt.g T.|.|.|.|.|.|.|.|.|.|.|.|.|.|.|.|.|.|.|.|.|.|.|.|.",
"XXXXXXXXXXXXXXXXXXXXXXXXXXXXXXXXXXXXXXR.( ( Q.|.e.3.A.C.q.a =XV.V.V.fXuXdX=Xj T.|.|.|.|.|.|.|.|.|.|.|.|.|.|.|.|.|.|.|.|.|.|.|.|.",
"XXXXXXXXXXXXXXXXXXXXXXXXXXXXXXXXXXXXXXXXXXXXXX|.3.).F.C.Z.1.dX2X2XtXF.m.tXaX3.e.|.|.|.|.|.|.|.|.|.|.|.|.|.|.|.|.|.|.|.|.|.|.|.|.",
"XXXXXXXXXXXXXXXXXXXXXXXXXXXXXXXXXXXXXXXXXXXXXX|.4.aX1Xc.;.a V.m.m.m.l.M.2XiX).L.|.|.|.|.|.|.|.|.|.|.|.|.|.|.|.|.|.|.|.|.|.|.|.|.",
"XXXXXXXXXXXXXXXXXXXXXXXXXXXXXXXXXXXXXXXX|.|.XX~.s.uXiXD.x.:.-.;.z.l.G.<X4XyXkX(.~.|.|.|.|.|.|.|.|.|.|.|.|.|.|.|.|.|.|.|.|.|.|.|.",
"XXXXXXXXXXXXXXXXXXXXXXXXXXXXXXXXXXXXXXXX|.|.XXL.-XpXiXb.v.x.B.r 7.N.H.2X4XyXdX-XL.|.|.|.|.|.|.|.|.|.|.|.|.|.|.|.|.|.|.|.|.|.|.|.",
"XXXXXXXXXXXXXXXXXXXXXXXX|.XXXXXXXXXXXXXXXXXXXXN dXyXtXM.v.l.7.5.6.7.:X<X4XiXpXdX4.5.XXXXXX|.|.|.|.|.|.|.|.|.|.|.|.|.|.|.XXXXXXXX",
"XXXXXXXXXXXXXXXXXXXXXX|.|.|.XXXXXXXXXXXXXXXXP.P.dXtXF.n.v.x.>.t.E.>.B.1XyXyXyXiX).,.XXXXXXXX|.|.|.|.|.|.|.|.|.|.|.|.|.|.XXXXXXXX",
"XXXXXXXXXXXXXXXXXXXXXX|.|.|.XXXXXXXXXXXXXXXXn @XuX<Xb.v.8.<.i.|.|.t.:.A.yXpX3X3XfX_.E.XXXXXX|.|.|.|.|.|.|.|.|.|.|.|.|.|.XXXXXXXX",
"XXXXXXXXXXXXXXXXXXXXXX|.|.|.XXXXXXXXXXXXXXXXn .XyXG.l.l.7.N |.|.|.i.4.s.1XdXyX3XdX;Xe.XX|.XX|.|.|.|.|.|.|.|.|.|.|.|.|.|.XXXXXXXX",
"XXXXXXXXXXXXXXXXXXXXXX|.|.|.XXXXXXXXXXXXXXXXa .XuXG.v.l.U.L.|.|.|.XXi.<.C.tX3X3XiX-X3.u.|.|.|.|.|.|.|.|.|.|.|.|.|.|.|.|.XXXXXXXX",
"XXXXXXXXXXXXXXXXXXXXXX|.|.|.XXXXXXXXXXXXXXQ.<.-XuXH.l.x.<.~.|.|.|.|.XX,.B.F.4X3XiXkX3.e.XXXX|.|.|.|.|.|.|.|.|.|.|.|.|.|.XXXXXXXX",
"|.|.|.|.|.|.|.|.|.|.|.|.|.|.XXXXXXXXXXXXXXe.;XdXyXtXD.N.,.XXXXXXXXXXXXXX>.x.G.4XtXiX-XL.XXXX|.|.|.|.|.|.|.XX|.|.|.|.|.|.XXXX|.|.",
"|.|.|.|.|.|.|.|.|.|.|.|.|.|.XXXXXXXXXXXX].5.;XuXtXtXm.d.,.XXXXXXXXXXXXXXK.N.M.<XtXtXdXf.Q.XXXX|.|.|.|.|.|.XX|.|.|.|.|.|.XXXX|.|.",
"|.|.|.|.|.|.|.|.|.|.|.|.|.|.XXXXXXXXXXXXe.,.aXpXtX1Xc.d.n XXXXXXXXXXXXXX6.:.c.G.tXyXpXaXn XX|.|.|.|.|.|.|.XX|.XXXX|.|.|.XXXX|.|.",
"|.|.|.|.|.|.|.|.|.|.|.|.|.|.XXXXXXXXXXXXe.5.sXyXtX<Xm.d.n XXXXXXXXXXXXXXt.-.z.F.4X3XpXiX4.P.XXXX|.|.|.|.|.XX|.XXXX|.|.|.XXXX|.|.",
"|.|.|.|.|.|.|.|.|.|.|.|.|.|.XXXXXXXXXXXXQ.I.-X,XyXJ.N.-.|.XXXXXXXXXXXXXXE.K.f.z.rXrXiXiX7.N XXXX|.|.|.|.|.XX|.XXXX|.|.|.XXXX|.|.",
"|.|.|.|.|.|.|.|.|.|.|.|.|.|.|.XXXXXXXXXXXXe.(.A.,XS.7.j XXXXXXXXXXXXXXXX~.L.4.2.OXeXrXfX4.P.XXXX|.|.|.|.XXXXXXXXXX|.|.|.XXXXXX|.",
"XXXXXX|.|.|.|.|.|.|.|.|.|.|.|.|.|.|.|.|.W.x ) %X[.i e B XXXXXXXXXXXXXXXXXXXXi.t.s A H G l #.XXXXXXXXXXXXXXXXXXXXXXXXXXXXXXXXXXXX",
"XXXXXX|.|.|.|.|.|.|.|.|.|.|.|.|.|.|.|.B l & ~ $X0X4 * Y.XXXXXXXXXXXXXXXXXXXXXXXXU : *.+.= d !.XXXXXXXXXXXXXXXXXXXXXXXXXXXXXXXXXX",
"XXXXXX|.|.|.|.|.|.|.|.|.|.|.|.|.|.].B jXSXwX+X$X] , U Y.|.XXXXXXXXXXXXXXXXXXXXXXU , ] =.=.$.&.Q !.XXXXXXXXXXXXXXXXXXXXXXXXXXXXXX",
"XXXXXX|.|.|.|.|.|.|.|.|.|.|.XXXX].) %.{.7Xp.{.@.! 7 R Y.XXXXXXXXXXXXXXXXXXXXXXXX* 3 D %.CXCXSX$XQ !.XXXXXXXXXXXXXXXXXXXXXXXXXXXX",
"XXXXXX|.|.|.|.|.|.|.|.|.|.|.XXXX].B   o ; % $ ; # = ) ].XXXXXXXXXXXXXXXXXXXXXXXX* > z m G F H L - / XXXXXXXXXXXXXXXXXXXXXXXXXXXX",
"XXXXXX|.|.|.|.|.|.|.|.|.|.|.|.|.|.g.L L L L L L L L ].XXXXXXXXXXXXXXXXXXXXXXXXXXK L y.w.w.w.w.w.L W.XXXXXXXXXXXXXXXXXXXXXXXXXXXX"
};
