/* XPM */
static char *bc554e5988e840b7878d74386787fff6qKRew29FLL1Jlm5n[] = {
/* columns rows colors chars-per-pixel */
"64 64 244 2 ",
"   c #1D1B1E",
".  c #38150C",
"X  c #261A17",
"o  c #361C1A",
"O  c #2B160B",
"+  c #1C221F",
"@  c #2A231B",
"#  c #3D2413",
"$  c #1B1A25",
"%  c #251B26",
"&  c #351A29",
"*  c #380D36",
"=  c #2C1E33",
"-  c #391739",
";  c #1A2127",
":  c #272427",
">  c #322423",
",  c #38272B",
"<  c #2A2936",
"1  c #362A35",
"2  c #2D313B",
"3  c #333432",
"4  c #393539",
"5  c #32352E",
"6  c #581714",
"7  c #4A2317",
"8  c #582417",
"9  c #5B3319",
"0  c #482C11",
"q  c #682B1B",
"w  c #723117",
"e  c #451B26",
"r  c #490B3E",
"t  c #421739",
"y  c #571736",
"u  c #52112F",
"i  c #621A36",
"p  c #681134",
"a  c #473227",
"s  c #59382B",
"d  c #5B2A3A",
"f  c #43383B",
"g  c #4E2C2D",
"h  c #79272A",
"j  c #743826",
"k  c #6D273B",
"l  c #782B34",
"z  c #6E352D",
"x  c #6A0A07",
"c  c #57441C",
"v  c #4E422C",
"b  c #6D4E33",
"n  c #7C6629",
"m  c #3E0945",
"M  c #3C1A42",
"N  c #3D2F45",
"B  c #363941",
"V  c #450749",
"C  c #471647",
"Z  c #571B49",
"A  c #4B0653",
"S  c #550558",
"D  c #661656",
"F  c #6A1450",
"G  c #5A2A46",
"H  c #473B47",
"J  c #5D2D57",
"K  c #593857",
"L  c #4E2551",
"P  c #642B49",
"I  c #662848",
"U  c #782846",
"Y  c #74364A",
"T  c #6A2352",
"R  c #792858",
"E  c #77375A",
"W  c #6F3A4A",
"Q  c #640567",
"!  c #6A1664",
"~  c #761767",
"^  c #7A216E",
"/  c #3C4242",
"(  c #494648",
")  c #544B4C",
"_  c #4E5249",
"`  c #534E56",
"'  c #575356",
"]  c #4F4E51",
"[  c #745C52",
"{  c #734B4A",
"}  c #73694F",
"|  c #685268",
" . c #6E6F6F",
".. c #931A11",
"X. c #992D0F",
"o. c #962C19",
"O. c #9A3C1F",
"+. c #B5370C",
"@. c #AE3015",
"#. c #86272B",
"$. c #852836",
"%. c #972938",
"&. c #963939",
"*. c #903829",
"=. c #A72735",
"-. c #A83637",
";. c #B6312C",
":. c #9F1C33",
">. c #C43510",
",. c #E93E04",
"<. c #E63E03",
"1. c #C9392A",
"2. c #A7401F",
"3. c #836B1D",
"4. c #89472E",
"5. c #884A38",
"6. c #964A3A",
"7. c #98573C",
"8. c #885530",
"9. c #B94C2D",
"0. c #A15538",
"q. c #AF552E",
"w. c #86672B",
"e. c #967334",
"r. c #A87632",
"t. c #A7731E",
"y. c #DE4405",
"u. c #DC430A",
"i. c #D74705",
"p. c #DB5B0F",
"a. c #CA4917",
"s. c #DB4314",
"d. c #D34913",
"f. c #DA411A",
"g. c #D34617",
"h. c #D75817",
"j. c #E44203",
"k. c #EA4302",
"l. c #E3420A",
"z. c #E14E11",
"x. c #E66319",
"c. c #C64B26",
"v. c #D54223",
"b. c #DB4227",
"n. c #C94637",
"m. c #DE762D",
"M. c #D37638",
"N. c #EB722C",
"B. c #87284C",
"V. c #883C44",
"C. c #993745",
"Z. c #842A5A",
"A. c #8C3857",
"S. c #943A56",
"D. c #902857",
"F. c #AA2A49",
"G. c #821F6C",
"H. c #902E69",
"J. c #871E54",
"K. c #C03340",
"L. c #854C42",
"P. c #8B4B43",
"I. c #8C4D4A",
"U. c #894547",
"Y. c #934A49",
"T. c #935945",
"R. c #945A49",
"E. c #9A5A4C",
"W. c #9A5743",
"Q. c #8C4354",
"!. c #884C57",
"~. c #944858",
"^. c #9D5B52",
"/. c #9B565C",
"(. c #A05643",
"). c #9D6443",
"_. c #9D6648",
"`. c #96784D",
"'. c #8D6B54",
"]. c #A16343",
"[. c #A56F42",
"{. c #A16649",
"}. c #A57042",
"|. c #A66858",
" X c #B67157",
".X c #994D72",
"XX c #A85167",
"oX c #A24C71",
"OX c #8E6F6F",
"+X c #AC7170",
"@X c #D86547",
"#X c #D87643",
"$X c #C06E54",
"%X c #AC8731",
"&X c #C5893A",
"*X c #D58839",
"=X c #C78B2B",
"-X c #F48A39",
";X c #FD933C",
":X c #F79A3C",
">X c #E8833C",
",X c #D1A038",
"<X c #E2B03D",
"1X c #EBCC3D",
"2X c #99864C",
"3X c #A89658",
"4X c #B38E4A",
"5X c #94816D",
"6X c #B28B6B",
"7X c #BBB366",
"8X c #C48E42",
"9X c #D99649",
"0X c #C0855B",
"qX c #D78B54",
"wX c #FC9543",
"eX c #FA9648",
"rX c #EB8E4F",
"tX c #D3B054",
"yX c #D29466",
"uX c #E59C6B",
"iX c #C0B066",
"pX c #EBA87A",
"aX c #EEAF72",
"sX c #F2A95A",
"dX c #F9DB4B",
"fX c #FDDB52",
"gX c #F4D953",
"hX c #EBCE4C",
"jX c #F7E248",
"kX c #FCE152",
"lX c #F6CC76",
"zX c #767281",
"xX c #AD5E8E",
"cX c #AB6381",
"vX c #8B6E8C",
"bX c #8D8B8A",
"nX c #A29F9D",
"mX c #AA9B8C",
"MX c #BBAAA1",
"NX c #CC8B8E",
"BX c #D3A09D",
"VX c #EAB495",
"CX c #F2C595",
"ZX c #EAC8AB",
/* pixels */
"}.}.}.}.[.[.[.[.[.[.[.[.[.[.[.[.[.[.[.[.[.[.}.}.}.}.}.}.}.}.}.}.}.}.}.}.}.[.[.[.}.}.}.}.}.}.}.}.}.}.}.}.}.}.}.}.}.}.}.}.}.}.}.}.",
"}.}.}.[.[.[.[.[.[.[.[.[.[.[.[.[.[.[.[.[.[.[.[.[.[.[.[.[.[.[.[.[.[.[.[.[.[.}.}.}.}.}.}.}.}.}.}.}.}.}.}.}.}.}.}.}.}.}.}.}.}.}.[.[.",
"}.}.}.[.[.[.[.[.[.[.[.[.[.[.[.[.[.[.[.[.[.[.[.[.[.[.[.[.[.[.[.[.[.[.[.[.[.}.}.}.}.}.}.}.}.}.}.}.}.}.}.}.}.}.}.}.}.}.}.}.}.}.[.[.",
"}.}.}.[.[.[.[.[.[.[.[.[.[.[.[.[.[.[.[.[.[.[.[.[.[.[.[.[.[.[.[.[.[.[.[.[.[.}.}.}.}.}.}.}.}.}.}.}.}.}.}.}.}.}.}.}.}.}.}.}.}.}.[.[.",
"}.}.}.[.[.[.[.[.[.[.[.[.[.[.[.[.[.[.[.[.[.[.[.[.[.[.[.[.[.[.[.[.[.[.[.[.[.}.}.}.}.}.}.}.}.}.}.}.}.}.}.}.}.}.}.}.}.}.}.}.}.}.[.[.",
"}.}.}.[.[.[.[.[.[.[.[.[.[.[.[.[.[.[.[.[.[.[.[.[.[.[.[.[.[.[.[.[.[.[.[.[.[.}.}.}.}.}.}.}.}.}.}.}.}.}.}.}.}.}.}.}.}.}.}.}.}.}.[.[.",
"}.}.}.[.[.[.[.[.[.[.[.[.[.[.[.}.}.}.}.}.}.}.[.[.[.[.[.[.[.[.[.[.[.[.[.[.[.}.}.}.}.}.}.}.}.}.}.}.}.}.}.}.}.}.}.}.}.[.[.[.[.[.[.[.",
"}.}.[.[.[.[.[.[.[.[.[.[.[.[.}.}.}.}.}.}.}.}.[.[.[.[.[.[.[.[.[.[.[.[.[.[.[.}.}.}.}.}.}.}.}.}.}.}.}.}.}.}.}.}.}.}.}.[.[.[.[.[.[.[.",
"}.}.[.[.[.[.[.[.[.[.[.[.[.[.}.}.}.}.}.}.}.}.[.[.[.[.[.[.[.[.[.[.[.[.[.[.[.}.}.}.}.}.}.}.}.}.}.}.}.}.}.}.}.}.}.}.}.[.[.[.[.[.[.[.",
"}.}.[.[.[.[.[.[.[.[.[.[.[.[.}.}.}.}.}.}.}.}.[.[.[.[.[.[.[.[.[.[.[.[.[.[.[.}.}.}.}.}.}.}.}.}.}.}.}.}.}.}.}.}.}.}.}.[.[.[.[.[.[.[.",
"}.}.[.[.[.[.[.[.[.[.[.[.[.[.}.}.}.}.}.}.}.}.[.[.[.[.[.[.[.[.[.[.[.[.[.[.[.}.}.}.}.}.}.}.}.}.}.}.}.}.}.}.}.}.}.}.}.[.[.[.[.[.[.[.",
"}.}.[.[.[.[.[.[.[.[.[.[.[.[.}.}.}.}.}.}.}.}.[.[.[.[.[.[.[.[.[.[.[.[.[.[.[.}.}.}.}.}.}.}.}.}.}.}.}.}.}.}.}.}.}.}.}.[.[.[.[.[.[.[.",
"}.}.[.[.[.[.[.[.[.[.[.[.[.[.[.[.[.[.[.[.[.[.}.}.}.}.}.}.}.}.}.}.}.}.[.[.[.}.}.}.}.}.}.}.}.}.}.}.}.}.}.}.}.}.}.}.}.}.}.}.}.}.[.[.",
"}.}.[.[.[.[.[.[.[.[.[.[.[.[.[.[.[.[.[.[.[.[.}.}.}.}.}.}.}.}.}.}.}.}.[.[.[.}.}.}.}.}.}.}.}.}.}.}.}.}.}.}.}.}.}.}.}.}.}.}.}.}.[.[.",
"}.}.[.[.[.[.[.[.[.[.[.[.[.[.[.[.[.[.[.[.[.[.}.}.}.}.}.}.}.}.}.}.}.}.[.[.[.}.}.}.}.}.}.}.}.}.}.}.}.}.}.}.}.}.}.}.}.}.}.}.}.}.}.[.",
"}.}.}.[.[.[.[.[.[.[.[.[.[.[.[.[.[.[.[.[.[.[.}.}.}.}.}.}.}.}.}.}.}.}.[.[.[.}.}.}.}.}.}.}.}.}.}.}.}.}.}.}.}.}.}.}.}.}.}.}.}.}.}.}.",
"}.}.}.[.[.[.[.[.[.[.[.[.[.[.[.[.[.[.[.[.[.[.}.}.}.}.}.}.}.}.}.}.}.}.[.[.[.}.}.}.}.}.}.}.}.}.}.}.}.}.}.}.}.}.}.}.}.}.}.}.}.}.}.}.",
"}.}.}.[.[.[.[.[.[.[.[.[.[.[.[.[.[.[.[.[.[.[.}.}.}.}.}.}.}.}.}.}.}.}.[.[.[.}.}.}.}.}.}.}.}.}.}.}.}.}.}.}.}.}.}.}.}.}.}.}.}.}.}.}.",
"}.}.}.[.[.[.[.[.[.[.[.[.}.}.}.}.}.}.}.}.}.}.[.[.[.[.[.[.[.[.[.[.[.[.[.[.[.}.}.}.}.}.}.}.}.E.E.}.}.}.~.E.}.}.}.}.}.}.}.}.}.}.}.}.",
"}.}.}.[.[.[.[.[.[.[.[.}.}.}.}.}.}.}.}.}.}.}.[.[.[.[.[.[.[.[.[.[.[.[.[.[.[.}.}.}.}.}.}.}.}.Y.Z.E.}.R.D I.}.}.}.}.}.}.}.}.}.}.}.}.",
"}.}.}.}.[.[.[.[.[.[.[.}.}.}.}.}.}.}.}.}.}.}.[.[.^.^ V m V D ).[.[.[.[.[.[.}.}.}.{.Y.Y.).}.P.XX6.5.~.l 5.A.H.}.}.}.}.}.}.}.}.}.}.",
"}.}.}.}.}.}.}.}.}.}.}.}.}.}.}.}.}.}.}.}.}.}.[.[.[.R.P P A S Y I.[.[.[.[.[.}.}.}.^.R R U.5.z ).9X8.0Xj j G.R }.}.}.}.}.}.}.}.}.}.",
"}.}.}.}.}.}.}.}.}.}.}.}.}.}.}.}.}.}.}.}.}.}.[.[.[.[.[.[.~.Q.Z V Q.[.[.[.[.}.}.}.}.5.^.6Xb O 3.hX<X,X%X4X/.k }.}.}.}.}.}.}.}.}.}.",
"}.}.}.}.}.}.}.}.}.}.}.}.}.}.}.}.}.}.}.}.}.}.}.}.}.T.P G G G { L.! Q.}.}.}.}.}.}.}.).j yXtXw.%X1XdXhXhXgX%X5.l 7.}.}.}.}.}.}.}.}.",
"}.}.}.}.}.}.}.}.}.}.}.}.}.}.}.}.}.}.}.}._.~.~ Q Q D P P P P D S Y A Y I.}.}.}.}.5.5.j t.fXfXfXkXdXjXjXjXgXtX+XA.~.}.}.}.}.}.}.}.",
"}.}.}.}.}.}.}.}.}.}.}.}.}.}.}.}.}.}.}.}.^.^ ! R R Q.}.}.}.}.Q.R Z V V A I.E.}.}.y 5.&X=XhXfXfXkX1XdXgXjXhX8X&.W.}.}.}.}.}.}.}.}.",
"}.}.}.}.}.}.}.}.}.}.}.}.}.}.}.}.}.}.}.}.}._._.}.}.}.}.}.}.}.}.}.).I.L.T Q ~ R I : v e.=X1XkXtXe.e.lX2X3X3X).~.R.}.}.}.}.}.}.}.}.",
"}.}.}.}.}.}.}.}.}.}.}.}.}.}.}.}.}.}.}.}.}.}.}.}.}.}.}.}.}.}.}.}.}.}.[.E.I.Y.D V % X 0 4XfXhXn # iX7X} MXMX5XE L.}.}.}.}.}.}.}.}.",
"}.}.}.}.}.}.}.}.}.}.}.}.}.}.}.}.}.}.}.}.}.}.}.}.}.}.}.}.}.}.}.}.}.}.}.}.[.}.[.[.L.y c 0 3X`.c b } O ' zX .' { T ^.}.}.}.}.}.}.}.",
"}.}.}.}.}.}.}.}.}.}.}.}.}.}.}.}.}.}.}.}.}.}.}.E.I.T.}.}.}.}.}.}.}.}.W.P.5.L.L.L.{ !.3Xw.r.w.w.2X9 s , % H , g k ~.}.}.}.}.}.}.[.",
"}.}.}.}.}.}.}.}.}.}.}.}.}.}.}.~.E.~.}.}.U U T.R J J I I R Q.}.Q.I k E .XG K H H f s c r.=X&X8Xt.9X0X+XOX[ OX5.}.}.}.}.}.}.}.[.[.",
"}.}.}.}.}.}.}.}.}.}.}.}.}.}.U.cXQ.cXl q NXNXU.P | K J J C Z G C * * 1 H 1 1 < ( f O b 4X&X*X*X=XsXaXZXmX'.+X5.}.}.}.}.}.}.}.[.[.",
"}.}.}.}.}.}.}.}.}.}.}.R.R.}.k /.yX XVXpXlXlX6X{ ( ` ] ) ) ` ` 2 2 2 B 2 3 5 3 3 ` f O O w M.m.m.*XM.pXCXCXVXoXY.}.}.}.}.}.}.[.[.",
"}.}.}.}.}.}.}.}.}.}.R.T T R.U./.$X0. XpXaXaX_.a 4 ` ` ( H H ( 3 ( H ] ` _ _ _ ] ` B @ X 8 0.#Xm.m.>XaXCXuXpXS.Y.}.}.}.}.}.}.[.[.",
"}.}.}.}.}.}.[.}.T.I Z C M Z R.7.J.p B.Z.Z.B.u * % < 2 3 : < : X X @ 1 ) ) _ _ ] 4 H % : @ 9 4.0.m.>XrXqXVXNXY.).}.[.[.}.}.}.[.[.",
"}.}.}.}.}.}.}.Q.I C H H < - L.}.Y.P.P.P.P.P.P.y X       + ; 3 [ b . . e a 4 4 3 % 1 % = & e u p @X#XrXuXBX!.).}.[.[.[.[.[.[.[.[.",
"}.}.}.}.{.Y.I - 1 ( _ _ > & r Y }.[.[.[.}.].l j b z s s f ( , z c.d.a.X.7 % $ ; : : - G R Q.[.[.l l Y.|.XXU.[.[.[.[.[.[.[.[.[.[.",
"}.}.}.}.A.F W [ @ 3 / ( , o & V T.[.[.[.].&.-.qXuXyX4.q o > > 7 O.+.d.a.4.> < < = t I R.[.[.[.[.[.W.l l P.[.[.[.[.[.[.[.[.[.[.[.",
"}.}.}.}.~ oXNX|.& < < 1 { _.7 . B.&.[.[.6...a.h.eXeXeXrXw . o & o 8 2.c.4.e - m T T.[.[.[.[.[.[.[.[.[.[.[.[.[.[.[.[.[.[.[.[.[.[.",
"}.}.}.}.S.G.Z.i V V m * |.qXq.O.-.#.[.[.%.>.i.i.;X;XwXeX#X0.*.8 > > 8 q i r Y L.R.[.[.[.[.[.[.}.[.[.[.[.[.[.[.[.[.[.[.[.[.[.[.[.",
"}.}.}.}.}.}.}.}.}.}.R.y w h.y.u.f.1.&.4.o.s.>.a.p.-XwXwX;XeXeXM.6 e d I V.[.[.[.[.[.[.[.[.[.[.[.[.[.[.[.[.[.[.[.[.[.[.[.[.[.[.[.",
"}.}.}.}.}.}.}.}.}.}.Q.p o.d.y.y.y.g.o.x c.s...@.i.p.-XwX;XwXwXeX9.#.].[.[.[.[.[.[.[.[.[.[.[.[.[.[.[.[.[.[.[.[.[.[.[.[.[.[.[.[.[.",
"}.}.}.}.}.}.}.}.}.}.}.T.F.v.y.j.l.g.X.X.u.<.>...g.i.p.x.wX;X:X:XeX@X%.7.[.[.[.[.[.}.}.[.[.[.[.[.[.[.[.[.[.[.[.[.[.[.[.[.[.[.[.[.",
"}.}.}.}.}.}.}.}.}.}.}.}.&.=.f.y.l.g...+.k.,.f.@.X.c.s.u.x.N.;X:XwXeXn.%.[.[.[.[.[.}.[.[.[.[.[.[.[.[.[.[.[.[.[.[.[.[.[.[.[.[.[.[.",
"}.}.}.}.}.}.}.}.}.}.}.}.[.(.=.1.s.s.@.>.k.j.j.g.h 6 %.-.v.u.y.x.eX-Xh.9.$.[.[.[.[.[.[.[.[.[.[.[.[.[.[.[.[.[.[.[.[.[.[.[.[.[.[.[.",
"}.}.}.}.}.}.}.}.}.}.}.}.}.}.&.=.b.s.s.j.j.j.s.;.l U.V.#.K.v.y.j.N.N.i.9.#.[.[.[.[.[.[.[.[.[.[.[.[.[.[.[.[.[.[.[.[.[.[.[.[.[.[.[.",
"}.}.}.}.}.}.}.}.}.}.}.}.[.}.}.W.=.1.l.l.s.v.=.&.}.[.[.[.C.#.>.s.j.k.y.a.#.[.}.}.}.}.}.}.}.[.[.[.[.[.[.[.[.[.[.[.[.[.[.[.}.}.}.}.",
"}.}.}.}.}.}.}.}.}.}.}.[.[.[.}.}.&.=.f.s.c.-.&.].}.[.[.[.].6.o.+.j.<.y.d.=.C.}.}.}.}.}.}.}.}.[.[.[.[.[.[.[.[.[.[.[.[.[.[.}.}.}.}.",
"}.}.}.}.}.}.}.}.}.}.}.[.[.[.}.}.}.0.F.F.#.U.}.}.}.}.[.[.[.[.h *.u.k.j.j.;.h }.}.}.}.}.}.}.}.[.[.[.[.[.[.[.[.[.[.[.[.[.[.}.}.}.}.",
"}.}.}.}.}.}.}.}.}.}.}.[.[.[.}.}.}.}.S.D.}.}.}.}.}.}.[.[.[.[.$.&.u.k.,.k.;.$.).}.}.}.}.}.}.}.[.[.[.[.[.[.[.[.[.[.[.[.[.[.}.}.}.}.",
"}.}.}.}.}.}.}.}.}.}.}.[.[.[.}.}.}.}.}.}.}.}.}.}.}.}.[.[.[.[.$.F.s.<.,.k.a.C.6.}.}.}.}.}.}.}.[.[.[.[.[.[.[.[.[.[.[.[.[.[.}.}.}.}.",
"}.}.}.}.}.}.}.}.}.}.}.[.[.[.}.}.}.}.}.}.}.}.}.}.}.}.[.[.[.[.W.%.f.,.k.j.c.C.6.}.}.}.}.}.}.}.[.[.[.[.[.[.[.[.[.[.[.[.[.[.}.}.}.}.",
"[.[.[.[.[.[.[.[.[.[.[.[.[.[.}.}.}.}.}.}.}.}.}.}.}.}.}.}.}.}.}.$.b.l.u.+.$.U E.}.}.}.}.}.}.}.}.}.[.[.[.[.[.}.[.[.[.[.[.[.}.}.[.[.",
"[.[.[.[.[.[.[.[.[.[.[.[.[.[.}.}.}.}.}.}.}.}.}.}.}.}.}.}.}.}.}.U n.g.@Xh *.}.}.}.}.}.}.}.}.}.}.}.[.[.[.[.[.}.[.[.[.[.[.[.}.}.[.[.",
"[.[.[.[.[.[.[.[.[.[.[.[.[.[.}.}.}.}.}.}.}.}.}.}.}.}.}.}.}.}.}.U #.7.'.{ P U R E.}.}.}.}.}.}.}.}.[.[.[.[.[.}.[.}.}.[.[.[.}.}.[.[.",
"[.[.[.[.[.[.[.[.[.[.[.[.[.[.}.}.}.}.}.}.}.}.}.}.}.}.}.}.}.}.}.U g [ 5X| L r .XV.U Q.}.}.}.}.}.}.[.[.[.[.[.}.[.}.}.[.[.[.}.}.[.[.",
"[.[.[.[.[.[.[.[.[.[.[.[.[.[.}.}.}.}.}.}.}.}.}.}.}.}.}.}.}.}.}.T N  .nX .( 3 [ 6XMXxXY.}.}.}.}.}.[.[.[.[.[.}.[.}.}.[.[.[.}.}.[.[.",
"[.[.[.[.[.[.[.[.[.[.[.[.[.[.[.}.}.}.}.}.}.}.}.}.}.}.}.}.}.}.}.T N ] bXnX| H : > t D E.}.}.}.}.}.[.[.[.[.}.}.}.}.}.[.[.[.}.}.}.[.",
"}.}.}.[.[.[.[.[.[.[.[.[.[.[.[.[.[.[.[.[.[.[.[.[.[.[.}.}.}.}.}.T 1 4 bXnXvXC V A L.T.}.}.}.}.}.}.}.}.}.}.}.}.}.}.}.}.}.}.}.}.}.}.",
"}.}.}.[.[.[.[.[.[.[.[.[.[.[.[.[.[.[.[.[.[.[.[.[.[.[.}.}.}.}.}.R - f K K E L.I.I.}.}.}.}.}.}.}.}.}.}.}.}.}.}.}.}.}.}.}.}.}.}.}.}.",
"}.}.}.[.[.[.[.[.[.[.[.[.[.[.[.[.[.[.[.[.[.[.[.[.[.}.}.}.}.}.}.[.d d R.[.}.}.}.}.}.}.}.}.}.}.}.}.}.}.}.}.}.}.}.}.}.}.}.}.}.}.}.}.",
"}.}.}.[.[.[.[.[.[.[.[.[.[.[.}.}.}.}.}.}.}.}.}.}.}.}.}.}.}.}.}.}.}.}.}.}.}.}.}.}.}.}.}.}.}.}.}.}.}.}.}.}.}.}.}.}.}.}.}.}.}.}.}.}.",
"}.}.}.[.[.[.[.[.[.[.[.[.[.[.}.}.}.}.}.}.}.}.}.}.}.}.}.}.}.}.}.}.}.[.}.}.}.}.}.}.}.}.}.}.}.}.}.}.}.}.}.}.}.}.}.}.}.}.}.}.}.}.}.}.",
"}.}.}.[.[.[.[.[.[.[.[.[.[.[.[.[.[.[.}.}.}.}.}.}.}.}.}.}.}.}.}.}.}.[.}.}.}.}.}.}.}.}.}.}.}.}.}.}.}.}.}.}.}.}.}.}.}.}.}.}.}.}.}.}."
};
