/* XPM */
static char *f0b5a7fac34f49dda5732ace51bbe61bHefo9B0DlHPQQrni[] = {
/* columns rows colors chars-per-pixel */
"64 64 256 2 ",
"   c #1C1917",
".  c #2B1C0A",
"X  c #351A0C",
"o  c #271918",
"O  c #381B11",
"+  c #380F0C",
"@  c #2D241B",
"#  c #332415",
"$  c #36241B",
"%  c #3A200F",
"&  c #1C1820",
"*  c #271B28",
"=  c #391828",
"-  c #390C35",
";  c #2A1533",
":  c #351736",
">  c #2D0C37",
",  c #1F2530",
"<  c #2B2525",
"1  c #25232B",
"2  c #292727",
"3  c #372828",
"4  c #252431",
"5  c #332C3A",
"6  c #37363B",
"7  c #38342B",
"8  c #4F1411",
"9  c #6E1A15",
"0  c #4A2D1A",
"q  c #5D381C",
"w  c #40321A",
"e  c #742B15",
"r  c #591721",
"t  c #500F33",
"y  c #611926",
"u  c #691E37",
"i  c #582724",
"p  c #5C3B27",
"a  c #4B3D3A",
"s  c #512731",
"d  c #68272A",
"f  c #79282A",
"g  c #693B26",
"h  c #793A26",
"j  c #6A2739",
"k  c #7B2838",
"l  c #6E383C",
"z  c #5A401C",
"x  c #4C4438",
"c  c #57453D",
"v  c #554631",
"b  c #784B33",
"n  c #7C5536",
"m  c #785737",
"M  c #694735",
"N  c #604D19",
"B  c #361641",
"V  c #3F0A45",
"C  c #3A3943",
"Z  c #382F41",
"A  c #480A49",
"S  c #5A1B49",
"D  c #530851",
"F  c #4F124E",
"G  c #641E4D",
"H  c #6F1858",
"J  c #452548",
"K  c #463E47",
"L  c #552A52",
"P  c #6A274B",
"I  c #75354B",
"U  c #782655",
"Y  c #732D49",
"T  c #552A68",
"R  c #752878",
"E  c #3C4349",
"W  c #474449",
"Q  c #534D4D",
"!  c #54524E",
"~  c #4E5352",
"^  c #575356",
"/  c #504E52",
"(  c #7F4E44",
")  c #6C5246",
"_  c #72635E",
"`  c #626265",
"'  c #584764",
"]  c #881915",
"[  c #852719",
"{  c #9A3714",
"}  c #8F3116",
"|  c #A63416",
" . c #B33711",
".. c #8C1534",
"X. c #931432",
"o. c #842729",
"O. c #963227",
"+. c #862A37",
"@. c #962936",
"#. c #87393A",
"$. c #963637",
"%. c #8F3826",
"&. c #A9392B",
"*. c #A72B39",
"=. c #B72A37",
"-. c #A53436",
";. c #B12E2C",
":. c #C83E1D",
">. c #EC3D03",
",. c #E83F06",
"<. c #E43B19",
"1. c #DB3F22",
"2. c #C4322B",
"3. c #E43B21",
"4. c #BA431A",
"5. c #9E7C1B",
"6. c #9B472C",
"7. c #875B25",
"8. c #884B3C",
"9. c #934B39",
"0. c #845536",
"q. c #99583A",
"w. c #8E4D28",
"e. c #BA553A",
"r. c #AF512C",
"t. c #976339",
"y. c #8A6A2F",
"u. c #A9643B",
"i. c #AB7130",
"p. c #DC4402",
"a. c #D84708",
"s. c #CA4817",
"d. c #D44514",
"f. c #D7441A",
"g. c #D25211",
"h. c #E34203",
"j. c #E94203",
"k. c #E3430A",
"l. c #E34113",
"z. c #E55518",
"x. c #DB611F",
"c. c #C64927",
"v. c #DA4227",
"b. c #DA5724",
"n. c #C44D32",
"m. c #E05522",
"M. c #C66938",
"N. c #D26C31",
"B. c #F4792C",
"V. c #EB7934",
"C. c #F37A36",
"Z. c #EA712A",
"A. c #9D1648",
"S. c #872645",
"D. c #873C49",
"F. c #983A49",
"G. c #8A3858",
"H. c #93284E",
"J. c #891F65",
"K. c #862367",
"L. c #95346E",
"P. c #B82845",
"I. c #894C45",
"U. c #8B4B4A",
"Y. c #854849",
"T. c #944B42",
"R. c #96494A",
"E. c #945744",
"W. c #9C5745",
"Q. c #945945",
"!. c #9A5942",
"~. c #97574A",
"^. c #984D54",
"/. c #885250",
"(. c #A15C4F",
"). c #A45B55",
"_. c #A64547",
"`. c #9D6443",
"'. c #926848",
"]. c #856454",
"[. c #9E785C",
"{. c #996951",
"}. c #A56F42",
"|. c #A26447",
" X c #A57042",
".X c #A97143",
"XX c #A67859",
"oX c #B16852",
"OX c #954E6D",
"+X c #A24E61",
"@X c #8E766D",
"#X c #AE7366",
"$X c #CE594C",
"%X c #C97744",
"&X c #D47746",
"*X c #CE7250",
"=X c #E67447",
"-X c #E17162",
";X c #CE7661",
":X c #A9863D",
">X c #BEA730",
",X c #C59619",
"<X c #DC823D",
"1X c #CB8F36",
"2X c #F9973E",
"3X c #EF8535",
"4X c #D6B230",
"5X c #E7B63B",
"6X c #EDCC3E",
"7X c #B58A4E",
"8X c #8E8372",
"9X c #B79679",
"0X c #B18865",
"qX c #C88848",
"wX c #D38B4F",
"eX c #FE8E4A",
"rX c #FC9542",
"tX c #F89844",
"yX c #F18D50",
"uX c #D2A543",
"iX c #CFB04F",
"pX c #E3B944",
"aX c #D49669",
"sX c #EA9568",
"dX c #D8AD73",
"fX c #F4B47B",
"gX c #EDA772",
"hX c #DEC04C",
"jX c #EACF43",
"kX c #FBDE4E",
"lX c #EAC958",
"zX c #F0D04E",
"xX c #F5E24B",
"cX c #F6E155",
"vX c #F0CB6F",
"bX c #756B80",
"nX c #B87A8C",
"mX c #8E7F89",
"MX c #8D8A90",
"NX c #B1A496",
"BX c #B6B3B0",
"VX c #D7B191",
"CX c #E9B888",
"ZX c #F4BB87",
"AX c #E7AD8C",
"SX c #E5BCA4",
"DX c #C19688",
"FX c #F8C48B",
"GX c #EFC693",
"HX c #D0C1BB",
"JX c #EAC2A0",
"KX c #FCD6AC",
"LX c #B8BCC4",
"PX c #D9D5D2",
"IX c #CEC8C5",
"UX c #E1DDD7",
/* pixels */
" X X X X}.}.}.}.}.}.}.}.}.}.}.}.}.}.}.}.}.}. X X X X X X X X X X}.}.}. X X}.}.}. X X X X X X X X X X X X X X X X X X X X X X X X",
" X X X}.}.}.}.}.}.}.}.}.}.}.}.}.}.}.}.}.}.}.}.}.}.}.}.}.}.}.}.}.}.}.}.}.}. X X X X X X X X X X X X X X X X X X X X X X X X X}.}.",
" X X X}.}.}.}.}.}.}.}.}.}.}.}.}.}.}.}.}.}.}.}.}.}.}.}.}.}.}.}.}.}.}.}.}.}. X X X X X X X X X X X X X X X X X X X X X X X X X}.}.",
" X X X}.}.}.}.}.}.}.}.}.}.}.}.}.}.}.}.}.}.}.}.}.}.}.}.}.}.}.}.}.}.}.}. X}. X X X X X X X X X X X X X X X X X X X X X X X X X}.}.",
" X X X}.}.}.}.}.}.}.}.}.}.}.}.}.}.}.}.}.}.}.}.}.}.}.}.}.}.}.K.G.}.}.Q.U }. X X X X X X X X X X X X X X X X X X X X X X X X X}.}.",
" X X X}.}.}.}.}.}.}.}.}.}.}.}.}.}.}.}.}.}.}.}.}.}.}.).).}.}.U J.q.`.G.G  X|.|. X X X X X X X X X X X X X X X X X X X X X X X}.}.",
" X X X}.}.}.}.}.}.}.}.}.}.}.}. X X X X X X X}.}.}.).K.K.}.}.k ).w.h #Xf ~.H ^. X X X X X X X X X X X X X X X X X X}.}.}.}.}.}.}.",
" X X}.}.}.}.}.}.}.}.}.}.}.}. X X X X X X X X}.}.}.|.Y G.d d 8 t.uXi.qXe #.L.U. X X X X X X X X X X X X X X X X X X}.}.}.}.}.}.}.",
" X X}.}.}.}.}.}.}.}.}.}.}.}. X X X X X X X X}.}.}.}.#.I.iXvX7.5.kX6XzXpXlXi.w.8. X X X X X X X X X X X X X X X X X}.}.}.}.}.}.}.",
" X X}.}.}.}.}.}.}.}.}.}.}.}. X X X X X X X X}.}.^.U.I.r uXzXpX4XxXxXxXcXjX4Xw.+.R.(. X X X X X X X X X X X X X X X}.}.}.}.}.}.}.",
" X X}.}.}.}.}.}.}.}.}.}.}.}. X X X X X X X X}.}.G.K.+Xq.,X4XkXkXjX4XcXhXiXlX7.k R.(. X X X X X X X X X X X X X X X}.}.}.}.}.}.}.",
" X X}.}.}.}.}.}.}.}.}.}.}.}. X X X X X X X X}.}.`.R.oXqX,X,XjXcX>XiXdXy.N :X7Xj  X X X X X X X X X X X X X X X X X}.}.}.}.}.}.}.",
" X X}.}.}.}.}.}.}.}.}.}.}.}.}.}.}.}.}.}.}.}. X X X Xd M 1X5XlX:X.   o o W x 9XOX^.). X X X X X X X X X X X X X X X X X X X X}.}.",
" X X}.}.}.}.}.}.}.}.}.}.}.}.}.}.}.}.}.}.}.}. X X X Xd + uXvX:Xz @ W W W LXBX@XOXK.+X X X X X X X X X X X X X X X X X X X X X}.}.",
" X X}.}.}.}.}.}.}.}.}.}.}.}.}.}.}.}.}.}.}.}. X X X!.R.t.7.iXm c ^ IXHXPXUXBXL Y  X X X X X X X X X X X X X X X X X X X X X X X}.",
" X X X}.}.}.}.}.}.}.}.}.}.}.}.}.}.}.}.}.}.}. X Xq.D.#X7X7.q w x ` PXPXIX) c B S  X X X X X X X X X X X X X X X X X X X X X X X X",
" X X X}.}.}.}.}.}.}.}.}.}.}.}.}.}.}.}.}.}.}. X XG.D.d q.1XqX7.q 3 & 3 p [.) B H  X X X X X X X X X X X X X X X X X X X X X X X X",
" X X X}.}.}.}.}.}.}.}.}.}.}.}.}.}.}.}.}.}.}. X X X!.k T.&X<XN.qX].^ M XX9X_ T (  X X X X X X X X X X X X X X X X X X X X X X X X",
" X X X}.}.}.}.}.}.}.}.}. X X X X X X X X X X}.}.}.}.}.k 6.wX<XsXVXHX( 9XKXSXP 8. X X X X X X X X X X X X X X X X X X X X X X X X",
" X X X}.}.}.}.}.}.}.}. X X X X X X X X X X X}.}.}.}.}.!.f qXN.wXKXJXVXJXCXAXS.T. X X X X X X X X X X X X X X X X X X X X X X X X",
" X X X X}.}.}.}.}.}.}. X X X X X X X X X X X}.}.}.}.}. X- o g oXM.wXaXwX*X$.!. X X X X X X X X X X X X X X X X X X X X X X X X X",
" X X X X.X.X X X X X X X X X X X X X X X X X}.}.}.}.}.E.> & o g u.aXgXgXg r `. X X X X X X X X X X X X X X X X X X X X X X X X X",
" X X X X.X.X.X.X X X X X X X X X X X X X X X}.}.}.}.}.P ; 1 1 < # q g q o : S U  X X X X X X X X X X X X X X X X X X X X X X X X",
" X X X X X X X X X X X X X X X X X X X X X X X X X}.I J K 6 * 1 < # X # 2 4 L A P D. X X X X X X X X X X X X X X X X X X X X X X",
" X X X X X X X X X X X X X X X X X X X X X X X X`.I B Z / 6 * 5 < @ X O 2 Z / 3 = - D I  X X}.}. X X.X.X.X X X X X X X X X X X X",
" X X X X X X X X X X X X X X X X X X X X X X X XI A 5 * 6 1 4 Z 3 0 g M < 5 a p g 0 = - U.~.}.}. X X X X.X.X X X X X X X X X X X",
" X X X X X X X X X X X X X X X X X X X X X X XD.J W / W 6 C C 2 v 0XCXaXg 8 h }.dX'.O * T R ~.}. X X.X.X X X X X X X X X X X X X",
" X X X X X X X X X X X X X X X X X X X X X XG.F W ~ Q Q / / / x 0XZXFXCXu.6.%XdXZXaXM x ' T Y.}. X X.X.X X X X X X X X X X X X X",
" X X X X X X X X X X X X X X X X X X X X X XG.S 5 E W x Q / / c GXFXFXKXaXr.=XFXFXFX@X! Q K A Y. X X X X X X X X X X X X X X X X",
" X X X X X X X X X X X X X X X X X X X X X X XY.B , 2 2 W W W v CXfXfXZXu.e yXfXfXZX].K W J G E. X X X}. X X X X X X X X X X X}.",
".X.X X X X X X X X X X X X X X X X X X X X X X XA ; ; : ; = O + h 6.&X%X0.8 r.&X%Xu.i - A G `. X X X X X X X X X X X X X X X}.}.",
".X.X X X X X X X X X X X X X X X X X X X X X X XD - l I.l y { { { { [ e 0 8 9 e e y D I I.E. X X X X X X X X X X X X X X X X}.}.",
".X X X X X X X X X X X X X X X X X X X X X X XQ.D U  X XR.A.d.z.z.s.e.9.$ p r.c.$.j  X X}.}.}.}. X X X X X X X X X X X X X X}.}.",
".X.X X X X.X X X X X X X X X X X X X X X X X XI S U. X XW.H.:.Z.C.x.M.w.) I.N.x.&.k }.}.}.}. X}. X X X X X X X X X X X X X X}.}.",
" X X X X.X.X.X X X X X X X X X X X X X X X X XG.~. X X XQ.f | s.Z.eXeXsX].].=XeXn.f  X}. X X X X X X X X X X X X X X X X X X}.}.",
" X X X X.X.X.X X X X X X X X X X X}.}.}.}.}.}.(.}.}.}.}.H t O.r.s.x.N.M.0 0 q.M.e.D.!.}.}.}.}.}.}.}.}.}.}.}.}.}.}.}.}.}.}.}.}.}.",
" X X X X X X.X X X X X X X X X X X}.}.}.}.}.}.}.}.}. X X.X8.t $ $ # # # < < 3 $ $ = I.}.}.}.}.}.}.}.}.}.}.}.}.}.}.}.}.}.}.}.}.}.",
".X.X X X X X.X X X X X X X X X X X}.}.}.}.}.}.}.}.}. X X X8.8 O @ 2 2 2 4 4 , 4 2 = 8.}.}.}.}.}.}.}.}.}.}.}.}.}.}.}.}.}.}.}.}.}.",
".X.X.X.X X X X X X X X X X X X X X}.}.}.}.}.}.}.}.}..X XW.S.%.%.q X . . o * & * s j 8.}.}.}.}.}.}.}.}.}.}.}.}.}.}.}.}.}.}.}.}.}.",
".X.X.X.X X X X X X X X X X X X X X}.}.}.}.}.}.}.}.}..X.X9.H.wX<X%X.Xu..X0.i XX6.6.#.9.}.}.}.}.}.}.}.}.}.}.}.}.}.}.}.}.}.}.}.}.}.",
" X X X X X X X X X X X X X X X X X X}.}.}.}.}.}.}.}. X XS.;XtXrX3XB.B.V.M.[ | p.d.&.9.}.}.}.}.}.}.}.}.}.}.}.}.}.}.}.}.}.}.}.}.}.",
" X X X X X X X X X X X X X X X X X X X X X X X}.}.}.}.}.#.sXtXrX3Xg.a.d.} ]  .k.f.-.9.}.}.}.}.}.}.}.}.}.}.}.}.}.}.}.}.}.}.}.}.}.",
" X X X X X X X X X X X X X X X X X X X X X X X X X X}.F.e.yX2X2XeXC.c.}  .d.a.p.c.F.T.}.}.}.}.}.}.}.}.}.}.}.}.}.}.}.}.}.}.}.}.}.",
" X X X X X X X X X X X X X X X X X X X X X X X X}. X XS.yXrXtX2XC.b.[ 8 d.h.h.p.;.+.`.}.}.}.}.}.}.}.}.}.}.}.}.}.}.}.}.}.}.}.}.}.",
" X X X X X X X X X X X X X X X X X X X X X X X X X Xq.+.yX2X2XrXC.4.r 8 d.>.>.>.;.+.}.}.}.}.}.}.}.}.}.}.}.}.}.}.}.}.}.}.}.}.}.}.",
" X X X X X X X X X X X X X X X X X X X X X X X X X Xf _.yXrX2X2XN.O.y r d.j.>.,.=.+.}.}.}.}.}.}.}.}.}.}.}.}.}.}.}.}.}.}.}.}.}.}.",
" X X X X X X X X X X X X}. X X X X X X X X X X X XW.@.&XtX2X2XrX&.o.t.k f.j.j.j.=.+. X X X}.}.}.}.}.}.}.}.}.}.}.}.}.}.}. X X X X",
" X X X X X X X X X X X}.}.}. X X X X X X X X X X!.S.$XyXrX2XrXV.*.+. XS.1.h.j.j.2.+. X X X X}.}.}.}.}.}.}.}.}.}.}.}.}.}. X X X X",
" X X X X X X X X X X X}.}.}. X X X X X X X X X X$.&.b.a.B.B.m.c.o.}.q.@.3.>.h.a.*.R. X X X X}.}.}.}.}.}.}.}.}.}.}.}.}.}. X X X X",
" X X X X X X X X X X X}.}.}. X X X X X X X X XW.*.b.a.p.h.h.<.;.#.}.+.-.<.>.k.s.o. X X X X X}.}.}.}.}.}.}.}.}.}.}.}.}.}. X X X X",
" X X X X X X X X X X X}.}.}. X X X X X X X X Xo.=Xz.h.p.h.j.3.X.}. X[ | k.>.<.n.+. X X X X X}.}.}.}.}.}.}.}.}.}.}.}.}.}. X X X X",
" X X X X X X X X X X X}.}.}. X X X X X X X XF.@.b.p.j.j.h.h.v.A.}.W.*.s.,.>.l.O.!. X X X X X}.}.}.}.}.}.}.}.}.}.}.}.}.}. X X X X",
"}.}.}.}.}.}.}.}.}.}.}.}.}.}. X X X X X X X`.+.$Xp.h.,.>.h.f.] 9. XT.=.l.j.,.v... X X X X.X.X X X}.}.}.}.}. X}.}.}.}.}.}. X X}.}.",
"}.}.}.}.}.}.}.}.}.}.}.}.}.}. X X X X X X X9.-.c.p.h.,.>.k.:.+.!. XT.=.l.j.j.1... X X X X.X.X.X X}.}.}.}.}. X}.}.}.}.}.}. X X}.}.",
"}.}.}.}.}.}.}.}.}.}.}.}.}.}. X X X X X X X9.$.c.p.p.k.l.f.=.T. X XT.P.v.d.d.v... X X X.X.X.X X X}.}.}.}.}. X}. X X}.}.}. X X}.}.",
"}.}.}.}.}.}.}.}.}.}.}.}.}.}. X X X X X X X`.+.&.g.g.s.c.&.@.|. X X`.H...O.$X-XS. X X X.X.X.X X X}.}.}.}.}. X}. X X}.}.}. X X}.}.",
"}.}.}.}.}.}.}.}.}.}.}.}.}.}. X X X X X X X`.P nXVX0Xf y k D. X X X X X X- = i s S Q. X X X X X X}.}.}.}.}. X}. X X}.}.}. X X}.}.",
"}.}.}.}.}.}.}.}.}.}.}.}.}.}.}. X X X X X`.I L mX@Xs A I. X X X X X X X X- < a Q J S `. X X X X X}.}.}.}. X X X X X}.}.}. X X X}.",
" X X X}.}.}.}.}.}.}.}.}.}.}.}.}.}.}.}.}.U.F bXMXMXK A U. X X X X X X X X- 2 W ! c s u Q. X X X X X X X X X X X X X X X X X X X X",
" X X X}.}.}.}.}.}.}.}.}.}.}.}.}.}.}.}.}.u S MXNX8XW A I. X X X X X X X X- 2 5 7 NXDXnXOX X X X X X X X X X X X X X X X X X X X X",
" X X X}.}.}.}.}.}.}.}.}.}.}.}.}.}.}.}.W.).AXCXGXdXp A Y. X X X X X X X XV ; 3 $ 8XXX{.#XU  X X X X X X X X X X X X X X X X X X X",
" X X X}.}.}.}.}.}.}.}.}.}.}. X X X X XU #X'.XXXX0X) A I. X X X X X X X XP s s = @ X % r Y. X X X X X X X X X X X X X X X X X X X",
" X X X}.}.}.}.}.}.}.}.}.}.}. X X X X X~.0.0.0.n 0.n I.`. X X X X X X X X X XQ.( m n n 8. X X X X X X X X X X X X X X X X X X X X",
" X X X}.}.}.}.}.}.}.}.}.}.}.}.}.}.}. X X X X X X X X X X X X X X X X X X X X X X X X}.}. X X X X X X X X X X X X X X X X X X X X"
};
