/* XPM */
static char *result[] = {
/* columns rows colors chars-per-pixel */
"64 64 64 1 ",
"  c #A56F42",
". c #A57043",
"X c #A87347",
"o c #A5754C",
"O c #A8764B",
"+ c #A6784F",
"@ c #A9784E",
"# c #A57750",
"$ c #A57954",
"% c #AA7A52",
"& c #A37C5B",
"* c #9E7F65",
"= c #A27F62",
"- c #A8805D",
"; c #9F8065",
": c #9E816A",
"> c #9C8674",
", c #978779",
"< c #9A8779",
"1 c #9B897B",
"2 c #A68163",
"3 c #A2836B",
"4 c #AB8A6E",
"5 c #A18670",
"6 c #A28975",
"7 c #A28C7B",
"8 c #968C85",
"9 c #9B8C83",
"0 c #948E8C",
"q c #998E89",
"w c #95908F",
"e c #9B928D",
"r c #948F90",
"t c #969293",
"y c #999495",
"u c #9E9896",
"i c #9B9798",
"p c #9D9A9B",
"a c #A18F81",
"s c #A09186",
"d c #A1948B",
"f c #A19D9E",
"g c #A6A09E",
"h c #A9A29F",
"j c #A29FA0",
"k c #A5A2A3",
"l c #A9A5A6",
"z c #AAA7A8",
"x c #ADABAB",
"c c #B1ADAE",
"v c #B2AFB0",
"b c #B4B2B3",
"n c #B8B5B6",
"m c #B7B8B7",
"M c #BAB7B8",
"N c #BDBBBC",
"B c #C0BDBE",
"V c #BEC0BF",
"C c #C0C0BF",
"Z c #C1BFC0",
"A c #C4C3C3",
"S c #C8C6C7",
"D c #C7C8C8",
"F c #CBCACA",
/* pixels */
"....              .      ...  X     X   ...... .......... . ....",
"....                         X          .... ...........  ....  ",
"...                .                    ..... ..  ............  ",
"...                  .X           X     ....      .... .. . ..  ",
"..                      oo####X      ...   .. ..  ....  . ....  ",
"X..                     $=71<>&X     ...  . ...    ...  ... .   ",
"...              . . o&*<8fjjt1=.    . .   .. .. ........       ",
"...             ...  #58ttjvxfr1$$$o. .........  .. .....       ",
"                 ...&<yibbmMDNktytw>..o$$$$o  ..........        ",
"                  .$,0jcZDDDFDvzllu1O.&>111: o...........    .  ",
"                  =*rjnZFZNVFFMvzgtq>>9tkkyw5*$ .........       ",
"                #X=qijbNMccMFZvkkyty00ticxguu85$.........       ",
"         ...*,rr9=*ykitiitjcVvityylzyyjzzxcxzfr9..............  ",
"         ..#,rkjrreritjzbptpcjttlzcxzlpiplxxcjpe,o............  ",
"          -:tkxxkjirtpxvDxptjjkkbNANNbzjtfffjzzj,*............. ",
"       ...;wpzvbvxprikvbDvpttjxxxNZAAmcztityfjzz,*........... ..",
"         X*yvbZFFNjpxcZFVbvzrrkkrtttxVmvvxbblifg,;..............",
"          *yvZFFFZvjfzZDbvxkrttttkitpxvcxxNZzitso...............",
"         X=enZZNMxjptznmiipprpkkkczptippppklpjyq,;;;............",
"        XO*ebZMvzpyyijzzttttikbvvbvztttttyyttkfy8w,,-...........",
"....     X&axZncjyjvjytypzxxccNVDDDBcccvmbbbttpktkpt,;..........",
"....  ..X @4fxczyrvNttjjzxkpcckkbmmbcccvADAVkytikxxz1,-.........",
"........  &7jzBbtfvvtjxvbNmbxckzBBVVNvkjBNSFmzytgzxxkw;+........",
"........X@5qzxZZizvjijcvmADVxcvmAAAADNkjxcBAVbputgxxxt;.........",
"........-1wttjZZjZjpxxcbVVbxcxVVzzzvADDVikzzzzzlttzxxp-.........",
" ......X5qpfryxbjNztjzcxkkppccmvipipzvmbkfpppppfktkxz7;o........",
" .......qfmVjyjxivcjtjjprrpzcxkpkkkptipppglzkkitVxzpp,;.........",
" ......-wzVVzfjjizcztjirttkxxxpizzxzttrruxvmvcpixVktw,+.........",
" ..... XuVDCgy0rpzmbrtpillkkipxzitjzcxpivVFFVVktwguw;+..........",
"...... -uVCcyt0yzxkprjzjitiirikxkzppxxpivVFFFVmkww,,............",
".  ....OuVAntfytxjjjlbVmptipkxVVVbptpzkkcVVFFFVkw0>-............",
".. ....oumSNyjytlijxvNDDkpkxvmVVVbpipxbbvmVDDDVxww-.............",
"   X...X1gzltkptkijxxvvxvbbbcjtixxccmVZDFNcxxxxxkso... . .. ..  ",
"X X X..X-elltkptfjffxxxxbBVVVNckvvcbNxjlSSmvzjkze2............  ",
" X X .X.$>ittklkritrppfpjbvxmxmVVDmxjtpjxASNitti1&........ ...  ",
" X  X..Xo;119gxxytrrttiyizpizpmDDDmzitjlpMSArrtr1&..            ",
"    X......o-1bSSbjyxxMZcjittjzzvnbxtjzxzipkjzjq;o         .    ",
" XX .......o>8lnSbfryixnAVvktttpbZZNttiiziypNvf9#..             ",
"X   .......o;9igmvptjrijNNbxjfttjZNjtjjjptpkzp7&.    .          ",
"  X X.......+38pcxiizjrtxxxcccptjBjypjxjytpkty6&        .     . ",
"        .....X;9ktrivvjttrflzxcz0rrrvzptjytypkf9o.            . ",
"   X X XX.....+2irflvNvzkttipzvz0rrtzfttptjjzxj03$              ",
" X   X  ......->jtujbbBAnipfykjytjypnffjjjnZNbft<&              ",
"   XX  X..X..X:8lyrtxcVSBjkkykfyyzpjnfjzbvZFNxfr*o   .     ..   ",
".... .......X.&<yzjitfzxAbzktkNNjMjr090yvnBn008=.  .        X   ",
".......X....  o&tzzkrtipbvjytyzmMjr09=*8tffy083$          .     ",
"..    ...  X  .oqpzzkkttpftr0rpgvppf1&#&==&==&o             ..  ",
"..   .. .     ..>qpkzzfitrrq<<8tjpjf*#X         .            .. ",
"......    .   ..--,,wgzzgiw;.o>wzt,;............X               ",
".... .  . .   ....--,wwwd,;-.$,yku6-............                ",
"........... ........;-----...+>exh7,;...........            .. .",
".... .... .  ........o........26gVu,,o.. ....... X          ..  ",
"    .   .   . ..   ... . .... .-uzp,............             .  ",
"              ..  .. ...........gxu>............            ..  ",
"               .  .... ........-hp7-...... .....X           ..  ",
".      .      ... .. . . .....X-hu;.............            ..  ",
"          ....   .....  .....o,,h7-............. .  ....        ",
"      .     ..    .... .......;,7;.............. .. ...         ",
"...     .      .        ......o;1-................  ..   ..... .",
"...           ..    . . .......+,-..............   ...  . . . ..",
"..              ... ............;+..............   .. . ........",
"...   .     . ..... ............o...............  ..............",
"  .   .       . .................................... ...........",
"  .  ..         ................................................"
};
