/* XPM */
static char *e77188787c8847b0a513a577534c09d9kDidZcfK6LnTzvC2[] = {
/* columns rows colors chars-per-pixel */
"64 64 245 2 ",
"   c #2A191E",
".  c #391D1D",
"X  c #301405",
"o  c #372218",
"O  c #2B2113",
"+  c #1D1E23",
"@  c #261E28",
"#  c #381839",
"$  c #2F132E",
"%  c #23242B",
"&  c #292426",
"*  c #362828",
"=  c #3A302B",
"-  c #2B2A35",
";  c #372937",
":  c #3C3432",
">  c #3B343B",
",  c #343638",
"<  c #2E3136",
"1  c #48241C",
"2  c #662915",
"3  c #76271B",
"4  c #6D2E17",
"5  c #491B3B",
"6  c #561832",
"7  c #610F2E",
"8  c #462526",
"9  c #523627",
"0  c #432636",
"q  c #572737",
"w  c #443A3A",
"e  c #552D2D",
"r  c #793B2A",
"t  c #622339",
"y  c #782D38",
"u  c #6B353B",
"i  c #783939",
"p  c #6D2E29",
"a  c #4A1B14",
"s  c #54461C",
"d  c #594327",
"f  c #5E4334",
"g  c #695728",
"h  c #764637",
"j  c #6C4F30",
"k  c #776431",
"l  c #381944",
"z  c #373B44",
"x  c #471A47",
"c  c #5B1D4A",
"v  c #541A48",
"b  c #4B0853",
"n  c #4B0C4E",
"m  c #601656",
"M  c #741753",
"N  c #4A2344",
"B  c #5E2448",
"V  c #4A3A48",
"C  c #583A48",
"Z  c #583956",
"A  c #5C295D",
"S  c #632D46",
"D  c #6C2C41",
"F  c #6D2A46",
"G  c #772C46",
"H  c #693646",
"J  c #773748",
"K  c #6B2455",
"L  c #732C52",
"P  c #7A295A",
"I  c #7F3457",
"U  c #792E65",
"Y  c #494648",
"T  c #55494B",
"R  c #4E534A",
"E  c #4C4952",
"W  c #544D53",
"Q  c #5C4B57",
"!  c #5C595B",
"~  c #654947",
"^  c #7D4645",
"/  c #794556",
"(  c #745250",
")  c #76674D",
"_  c #745069",
"`  c #756C72",
"'  c #6D6B6B",
"]  c #901C1F",
"[  c #902E12",
"{  c #B32E17",
"}  c #A8381A",
"|  c #B73614",
" . c #AD2A0D",
".. c #8B1B30",
"X. c #842A22",
"o. c #973429",
"O. c #8F263A",
"+. c #9A2B36",
"@. c #8D343A",
"#. c #983737",
"$. c #94332C",
"%. c #A53226",
"&. c #B93828",
"*. c #A42B39",
"=. c #A83235",
"-. c #B33938",
";. c #A7242C",
":. c #C63C18",
">. c #D43E19",
",. c #D93E06",
"<. c #E83F06",
"1. c #C6372D",
"2. c #C83A34",
"3. c #99421F",
"4. c #BB451A",
"5. c #8B4727",
"6. c #894A3A",
"7. c #97483A",
"8. c #875636",
"9. c #9B5A3C",
"0. c #965539",
"q. c #8B5329",
"w. c #AD4B29",
"e. c #AF5035",
"r. c #9A7639",
"t. c #8F6B2E",
"y. c #A46838",
"u. c #A77735",
"i. c #AE6D2F",
"p. c #DC440A",
"a. c #D74609",
"s. c #CA4515",
"d. c #DB4313",
"f. c #D64418",
"g. c #DB5414",
"h. c #E44304",
"j. c #E3420A",
"k. c #E5480A",
"l. c #E04615",
"z. c #E55B19",
"x. c #E66619",
"c. c #C54A25",
"v. c #C44931",
"b. c #C6673B",
"n. c #D67535",
"m. c #E76E21",
"M. c #E47836",
"N. c #F3782E",
"B. c #861944",
"V. c #873944",
"C. c #963C41",
"Z. c #832B5B",
"A. c #883855",
"S. c #933B54",
"D. c #8C2C45",
"F. c #AA2B48",
"G. c #A13E48",
"H. c #8C2B62",
"J. c #8B4A44",
"K. c #8A444B",
"L. c #864A4A",
"P. c #874848",
"I. c #934A43",
"U. c #944C46",
"Y. c #8C5244",
"T. c #8F5944",
"R. c #925745",
"E. c #955B43",
"W. c #9B5B43",
"Q. c #9B5C4A",
"!. c #97524D",
"~. c #8A4353",
"^. c #964853",
"/. c #9A5554",
"(. c #A25D45",
"). c #A85456",
"_. c #B25946",
"`. c #976043",
"'. c #9C6344",
"]. c #9E624B",
"[. c #9F6944",
"{. c #9A6655",
"}. c #886D52",
"|. c #A16544",
" X c #A56F42",
".X c #A16449",
"XX c #A86F46",
"oX c #A57042",
"OX c #A97242",
"+X c #A86651",
"@X c #AE7356",
"#X c #8C4766",
"$X c #9A4868",
"%X c #9C5667",
"&X c #925F69",
"*X c #B75D67",
"=X c #8D726B",
"-X c #A66768",
";X c #B7787B",
":X c #D27347",
">X c #D37C6F",
",X c #9B8128",
"<X c #B58F33",
"1X c #C28838",
"2X c #D58A30",
"3X c #E7883D",
"4X c #FB953D",
"5X c #F78937",
"6X c #CFA02A",
"7X c #EAC93C",
"8X c #B89749",
"9X c #B18E4F",
"0X c #B8A74A",
"qX c #858477",
"wX c #AB8E73",
"eX c #B6AA6B",
"rX c #D18E4B",
"tX c #F28C45",
"yX c #E8954F",
"uX c #F99544",
"iX c #E88F4C",
"pX c #D8AB46",
"aX c #D4B150",
"sX c #D48E6E",
"dX c #D7AE6C",
"fX c #EEB377",
"gX c #EAA355",
"hX c #EAC745",
"jX c #ECD24B",
"kX c #F8DA4A",
"lX c #F7DD53",
"zX c #EACA54",
"xX c #F5E14B",
"cX c #ECC970",
"vX c #CB7E93",
"bX c #918C8E",
"nX c #868389",
"mX c #A19C9B",
"MX c #ACA08A",
"NX c #CE9187",
"BX c #E7A985",
"VX c #E6C49C",
"CX c #F2C19B",
"ZX c #C9C2B6",
"AX c #FBC9A7",
/* pixels */
"oXoXoXoX X X X X X X X X X X X X X X X X X XoXoXoXoXoXoXoXoXoXoXoXoXoXoXoX X X XoXoXoXoXoXoXoXoXoXoXoXoXoXoXoXoXoXoXoXoXoXoXoXoX",
"oXoXoX X X X X X X X X X X X X X X X X X X X X X X X X X X X X X X X X X XoXoXoXoXoXoXoXoXoXoXoXoXoXoXoXoXoXoXoXoXoXoXoXoXoX X X",
"oXoXoX X X X X X X X X X X X X X X X X X X X X X X X X X X X X X X X X X XoXoXoXoXoXoXoXoXoXoXoXoXoXoXoXoXoXoXoXoXoXoXoXoXoX X X",
"oXoXoX X X X X X X X X X X X X X X X X X X X X X X X X X X X X X X X X X XoXoXoXoXoXoXoXoXoXoXoXoXoXoXoXoXoXoXoXoXoXoXoXoXoX X X",
"oXoXoX X X X X X X X X X X X X X X X X X X X X X X X X X X X X X X X X X XoXoXoXoXoXoXoXoXoXoXoXoXoXoXoXoXoXoXoXoXoXoXoXoXoX X X",
"oXoXoX X X X X X X X X X X X X X X X X X X X X X X X X X X X X X X X X X XoXoXoXoXoXoXoXoXoXoXoXoXoXoXoXoXoXoXoXoXoXoXoXoXoX X X",
"oXoXoX X X X X X X X X X X X XoXoXoXoXoXoXoX X X X X X X X X X X X X X X XoXoXoXoXoXoXoXoXoXoXoXoXoXoXoXoXoXoXoXoX X X X X X X X",
"oXoX X X X X X X X X X X X XoXoXoXoXoXoXoXoX X X X X X X X X X X X X X X XoXoXoXoXoXoXoXoXoXoXoXoXoXoXoXoXoXoXoXoX X X X X X X X",
"oXoX X X X X X X X X X X X XoXoXoXoXoXoXoXoX X X X X X X X X X X X X X X XoXoXoXoXoXoXoXoXoXoXoXoXoXoXoXoXoXoXoXoX X X X X X X X",
"oXoX X X X X X X X X X X X XoXoXoXoXoXoXoXoX X X X X X X X X X X X X X X XoXoXoXoXoXoXoXoXoXoXoXoXoXoXoXoXoXoXoXoX X X X X X X X",
"oXoX X X X X X X X X X X X XoXoXoXoXoXoXoXoX X X X X X X X X X X X X X X XoXoXoXoXoXoXoXoXoXoXoXoXoXoXoXoXoXoXoXoX X X X X X X X",
"oXoX X X X X X X X X X X X XoXoXoXoXoXoXoXoX X X X X X X X X X X X X X X XoXoXoXoXoXoXoXoXoXoXoXoXoXoXoXoXoXoXoXoX X X X X X X X",
"oXoX X X X X X X X X X X X X X X X X X X X XoXoXoXoXoXoXoXoXoXoXoXoX X X XoXoXoXoXoXoXoXoXoXoXoXoXoXoXoXoXoXoXoXoXoXoXoXoXoX X X",
"oXoX X X X X X X X X X X X X X X X X X X X XoXoXoXoXoXoXoXoXoXoXoXoX X X XoXoXoXoXoXoXoXoXoXoXoXoXoXoXoXoXoXoXoXoXoXoXoXoXoX X X",
"oXoX X X X X X X X X X X X X X X X X X X X XoXoXoXoXoXoXoXoXoXoXoXoX X X XoXoXoXoXoXoXoXoXoXoXoXoXoXoXoXoXoXoXoXoXoXoXoXoXoXoX X",
"oXoXoX X X X X X X X X X^..X X XQ.^. X X X XoXoXoXoXoXoXoXoXoXoXoXoX X X XoXoXoXoXoXoXoXoXoXoXoXoXoXoXoXoXoXoXoXoXoXoXoXoXoXoXoX",
"oXoXoX X X X X X X X X XL K. Xy.A.Z. X X X XoXoXoXoXoXoXoXoXoXoX X[.[.[. X XoXoXoXoXoXoXoXoXoXoXoXoXoXoXoXoXoXoXoXoXoXoXoXoXoXoX",
"oXoXoX X X X X X X|.!.|.D I R.0.H.G  X X'.|. XoXoXoXoXoXoXoXoXoXR.J J J ~.Q.oXoXoXoXoXoXoXoXoXoXoXoXoXoXoXoXoXoXoXoXoXoXoXoXoXoX",
"oXoXoX X X X X X XQ.H.K.r +X0.y.(.t 8.0.Z.A..X X X X X X X X'.R.m b v c ~..XoXoXoXoXoXoXoXoXoXoXoXoXoXoXoXoXoXoXoXoXoXoXoXoXoXoX",
"oXoXoX X X X X X XW.A./.q.8X1XpXt.. u Y.A.G  X X X X X X X|.J c K K L.T.'.oXoXoXoXoXoXoXoXoXoXoXoXoXoXoXoXoXoXoXoXoXoXoXoXoXoXoX",
"oXoXoXoXoX X.X(.I.6.OXaXjXjXkXkX<Xt.aXdXr 0. X X X X X X!.P L J S S S S P.Q.Q.].oXoXoXoXoXoXoXoXoXoXoXoXoXoXoXoXoXoXoXoXoXoXoXoX",
"oXoXoXoXoXoX/.S.^.+XaXjXxXxXkXxXhXhXjXpXr 6.'. X X X'.E.K m L P c v v v K P P A.]. XoXoXoXoXoXoXoXoXoXoXoXoXoXoXoXoXoXoXoXoXoXoX",
"oXoXoXoXoXoX.X.XU.(.aXlXlXlX7XjXlXkXhX6Xu.E.i E.|.!.L c n v J I '.`.`.`.K.A.I U #X.XoXoXoXoXoXoXoXoXoXoXoXoXoXoXoXoXoXoXoXoXoXoX",
"oXoXoXoXoXoXoXoX!./.9XdX0XcX<X,XzXlX7X6Xr.j 0 u A.P m K J P.'.'.oXoXoXoX X'.'.!./. XoXoXoXoXoXoXoXoXoXoXoXoXoXoXoXoXoXoXoXoXoXoX",
"oXoXoXoXoXoXoX X/ &XMXZXqX) eXg g 0XzX8Xo   0 B K.Q.Q.|.oXoXoXoXoXoXoXoXoXoXoXoXoXoXoXoX X X X XoXoXOXOXOXoXoXoXoXoXoXoXoXoXoXoX",
"oXoXoXoXoXoXQ.K.L ~ ` nX' = }.) s k 8Xg 9 q J.`. XoXoXoXoXoXoXoXoXoXoXoXoXoXoXoXoXoXoXoX X X X XoXoXoXOXOXoXoXoXoXoXoXoXoXoXoXoX",
"oXoXoXoXoXoX/.^.i e Q V 0 ( q.8.r.u.<Xu.9X&XH u D D G G [.oXoXoXoXoXoXoXY.L ~.].oXoXoXoXoXoX X XoXoXOXOXoXoX XoXoXoXoXoXoXoXoXoX",
"oXoXoXoXoXoX X X9.^ ) ~ =X{.rXi.1XrX1X<Xd d w V V C / #Xu D P Q.Q.P F F S A L K.G V. XoX^.Q.Q. XoXoXOXOXoXoXoXoXoXoXoXoXoXoXoXoX",
"oXoXoXoXoXoXoXoXQ./.wXwXVXfXgX3X2XyXy.t.d o Y > @ @ + + @ $ $ l x N C Q Q Q H {.AXBXI.K.;X-XS.6. X XoXoXoXoXoXoXoXoXoXoXoXoXoXoX",
"oXoXoXoXoXoXoXoX$XvXCXVXfXrX2XM.n.:X2 X O : Y , , , , z z < % z W W T W W Y ~ wXcXfXBXsXsXsXG 6.'.J.'. XoXoXoXoXoXoXoXoXoXoXoX X",
"OXOXoXoXoXoXoXoX^.*XsXdXfXiXM.n.b.0.1   & , E W R R W W < * & * ; > > Y E > 8 h sXsX>X).7.*XJ.E.B x L R. XoXoXoXoXoXoXoXoXoX X X",
"OXOXoXoXoXoXoXoXW./.NXdXyX3XM.b.r h   & & > > Y Y Y T V & O = * % % & - - @ # 6 A.A.A.D.G S.[.J l ; N B L.'. XoXoXoXoXoXoXoX X X",
"OXoXoXoXoXoXoXoXoX'.%XNX:X_.G.C.i u v x @ & % % & @ a 2 [ 3.@Xh < < = * o 1 e 6. XoXoX XoX XL.5 - > R E N v ^ E. XoXoXoXoXoX X X",
"OXOXoXoXoXOXoXoXoX X/.).I.K.V.W.oX].A.J 0 * % % @ . 3 } s.4.5.1 w : 9 p 6.9.7.@.W. XoXoX XR.v $ * w R Y : 0 S J Q.[.oXoXoXoX X X",
" X XoXoXOXOXOXoXoXoX X'.9.'. XoXoXoXoX XY.~ x # * e w.c.} 4 1 . o 1 q.b.iXyXM.c.$.9.oXoXI.D $ 8 f f > - = ( -XA.M A.oXoXoXoX X X",
"oX X XoXOXOXOXoXoXoXoXoXoXoXoX XoX X X X X`.J S 5 6 $.o.2 o . 1 2 q.:XuXuX5Xx.a.%.7. X XO.@.2 0.{.u # l 5 D %X$XZ.A. X X X X X X",
"oXoXoX X X XOXoXoXoXoXoXoXoXoXoXoX X X X X X X XE.P.t q 8 . r b.3XuXuXuX5Xm.a.a.:.+.0.7.&.f.d.z.w.7 D P.J.J.J.U.|. X X X X X X X",
"OXOXoXoX X XOXoXoXoXoXoXoXoXoXoXoX X X X X X X X X XR.Y.y 3 b.tXuX4X4XuXm.g.|  .f.%.X.%.>.p.h.p.} 7 G '. X X X X X X X X X X X X",
"OXOXOXOX XoXoXoXoXoXoXoXoXoXoXoXoX X X X X X X X XoXoX9.-.:XuX4X4X4XN.x.a.s.{ { d.:.[ } p.h.h.p.-.D.E. X X X X X X X X X X X X X",
"OXOXOXOX X XoXoXoXoXoXoXoXoXoXoXoX X X X X X X X XoXW.#.:XtXuX4X5Xm.g.d.s.| { :.<.p. .} d.h.p.f.*.U. X X X X X X X X X X X X X X",
"oXoXoXoXoXoXoXoXoXoXoXoXoXoXoXoXoXoX X X X X X X X9.+.&.N.uX5Xx.k.f.&.=.3 X.s.p.h.h. .| d.d.1.*.|. X X X X X X X X X X X X X X X",
"oXoXoXoXoXoXoXoXoXoXoXoXoXoXoXoXoXoXoXoXoXoXoX X X9.$.4.z.N.z.k.f.2.+.@.6.y &.f.h.h.,.d.f.2.+.7. X X X X X X X X X X X X X X X X",
"oXoXoXoXoXoXoXoXoXoXoXoXoXoXoXoXoXoXoXoXoXoXoXoXoX9.o.:.j.j.j.l.] D.|. X X|.7.=.f.d.j.j.1.*.(. X X X X X X X X X X X X X X X X X",
"oXoXoXoXoXoXoXoXoXoXoXoXoXoXoXoXoXoXoXoXoXoXoXoX|.C.&.f.<.<.f. .7.W. X X X X|.#.-.c.f.>.*.9. X X X X X X X X X X X X X X X X X X",
"oXoXoXoXoXoXoXoXoXoXoXoXoXoXoXoXoXoXoXoXoXoXoXoX9.$.>.h.h.h.c.X. X X X X X X X X7.O.F.F.|. X X X X X X X X X X X X X X X X X X X",
"oXoXoXoXoXoXoXoXoXoXoXoXoXoXoXoXoXoXoXoXoXoXoXoXI.#.f.h.<.j.c... X X X X X X X X X|.S.!. X X X X X X X X X X X X X X X X X X X X",
"oXoXoXoXoXoXoXoXoXoXoXoX XoXoXoXoXoXoXoXoXoXoXoX@.=.a.h.<.<.2.O. X X XoX X XoXoXoXoXoXoXoX X X X X X X X X X X X X X X XoXoXoXoX",
"oXoXoXoXoXoXoXoXoXoXoX X X XoXoXoXoXoXoXoXoXoXoXD.+.s.p.<.<.;.#. X XoXoXoXoXoXoXoXoXoXoXoX X X X X X X X X X X X X X X XoXoXoXoX",
"oXoXoXoXoXoXoXoXoXoXoX X X XoXoXoXoXoXoXoXoXoXoXU.V.X.} l.f.O.I. X XoXoXoXoXoXoXoXoXoXoXoXoX X X X X X X X X X X X X X XoXoXoXoX",
"oXoXoXoXoXoXoXoXoXoXoX X X XoXoXoXoXoXoXoXoXoX X'.R.p I.b.w.B.I. X XoXoXoXoXoXoXoXoXoXoXoXoX X X X X X X X X X X X X X XoXoXoXoX",
"oXoXoXoXoXoXoXoXoXoXoX X X XoXoXoXoXoXoX XW.6.U.L B Z _ }.h 7 J. XoXoXoXoXoXoXoXoXoXoXoXoXoX X X X X X X X X X X X X X XoXoXoXoX",
"oXoXoXoXoXoXoXoXoXoXoX X X XoXoXoXoXoXoX].%X%X-XH 0 Z ` =XT 5 J. XoXoXoXoXoXoXoXoXoXoXoXoXoX X X X X X X X X X X X X X XoXoXoXoX",
" X X X X X X X X X X X X X XoXoXoXoXoXoX^.U _ ~ : Y ` bX' E n L.oXoXoXoXoXoXoXoX X XoXoXOXOXOXoX X X X X XoX X X X X X XoXoX X X",
" X X X X X X X X X X X X X XoXoXoXoXoXoX'.J B 5 # Z bXmX! V n L.oXoXoXoXoXoXoXoX X XoXoXOXOXOXoX X X X X XoX X X X X X XoXoX X X",
" X X X X X X X X X X X X X XoXoXoXoXoXoX X XE.P.J / _ _ T ; n L.oXoXoXoXoXoXoXoX X XoXoXOXOXoXoX X X X X XoX XoXoX X X XoXoX X X",
" X X X X X X X X X X X X X XoXoXoXoXoXoXoXoX X[.'.`.L.^ N # F Q.oXoXoXoXoXoXoXoX XoXoXOXOXOXoXoX X X X X XoX XoXoX X X XoXoX X X",
" X X X X X X X X X X X X X XoXoXoXoXoXoXoXoXoXoXoXoXXXXXH q Y. XoXoXoXoXoXoXoXoXoXoXoXoXoXoXoXoX X X X X XoX XoXoX X X XoXoX X X",
" X X X X X X X X X X X X X X XoXoXoXoXoXoXoXoXoXoXoXoXoXoXoXoXoXoXoXoXoXoXoXoXoXoXoXoXoXoXoXoXoX X X X XoXoXoXoXoX X X XoXoXoX X",
"oXoXoX X X X X X X X X X X X X X X X X X X X X X X XoXoXoXoXoXoXoXoXoXoXoXoXoXoXoXoXoXoXoXoXoXoXoXoXoXoXoXoXoXoXoXoXoXoXoXoXoXoX",
"oXoXoX X X X X X X X X X X X X X X X X X X X X X X XoXoXoXoXoXoXoXoXoXoXoXoXoXoXoXoXoXoXoXoXoXoXoXoXoXoXoXoXoXoXoXoXoXoXoXoXoXoX",
"oXoXoX X X X X X X X X X X X X X X X X X X X X X XoXoXoXoXoXoXoXoXoXoXoXoXoXoXoXoXoXoXoXoXoXoXoXoXoXoXoXoXoXoXoXoXoXoXoXoXoXoXoX",
"oXoXoX X X X X X X X X X X XoXoXoXoXoXoXOXOXoXOXoXoXoXoXoXoXoXoXoXoXoXoXoXoXoXoXoXoXoXoXoXoXoXoXoXoXoXoXoXoXoXoXoXoXoXoXoXoXoXoX",
"oXoXoX X X X X X X X X X X XoXoXoXoXoXoXOXoXoXoXoXoXoXoXoXoXoXoXoXoXoXoXoXoXoXoXoXoXoXoXoXoXoXoXoXoXoXoXoXoXoXoXoXoXoXoXoXoXoXoX",
"oXoXoX X X X X X X X X X X X X X X XoXoXoXoXoXoXoXoXoXoXoXoXoXoXoXoXoXoXoXoXoXoXoXoXoXoXoXoXoXoXoXoXoXoXoXoXoXoXoXoXoXoXoXoXoXoX"
};
