/* XPM */
static char *_a81b941b066438ed0e7d3e705de219ag0yyJFHg1kS4QwNO[] = {
/* columns rows colors chars-per-pixel */
"64 64 248 2 ",
"   c #1F1B08",
".  c #3A190A",
"X  c #391917",
"o  c #341019",
"O  c #1F231D",
"+  c #372318",
"@  c #26271D",
"#  c #181921",
"$  c #291B27",
"%  c #350A37",
"&  c #2C1C36",
"*  c #361939",
"=  c #36132B",
"-  c #2C262D",
";  c #272827",
":  c #342527",
">  c #38273B",
",  c #363839",
"<  c #322D30",
"1  c #471615",
"2  c #531517",
"3  c #570E12",
"4  c #701612",
"5  c #582A16",
"6  c #45321B",
"7  c #712E0D",
"8  c #672B17",
"9  c #762A18",
"0  c #6B3312",
"q  c #400B2D",
"w  c #45133A",
"e  c #541A38",
"r  c #4C0F2F",
"t  c #771C28",
"y  c #69163B",
"u  c #621A24",
"i  c #572A37",
"p  c #443C39",
"a  c #4A2D2E",
"s  c #6B272B",
"d  c #6B3328",
"f  c #753625",
"g  c #6A263B",
"h  c #792739",
"j  c #793B35",
"k  c #782B2C",
"l  c #3C4238",
"z  c #594314",
"x  c #6E4718",
"c  c #584527",
"v  c #59473A",
"b  c #40453C",
"n  c #694626",
"m  c #7B493A",
"M  c #7C5536",
"N  c #6F492B",
"B  c #391643",
"V  c #3C2D48",
"C  c #440A46",
"Z  c #491747",
"A  c #581A49",
"S  c #510850",
"D  c #6B144E",
"F  c #592445",
"G  c #423A47",
"H  c #4D3E51",
"J  c #51314B",
"K  c #682549",
"L  c #7A2644",
"P  c #6C3644",
"I  c #733545",
"U  c #7D3D4A",
"Y  c #783347",
"T  c #6A2655",
"R  c #792557",
"E  c #782861",
"W  c #7E3A63",
"Q  c #3E4342",
"!  c #474749",
"~  c #5C4D43",
"^  c #55494A",
"/  c #4D5248",
"(  c #55514B",
")  c #4E4D53",
"_  c #4A4754",
"`  c #554E53",
"'  c #544A58",
"]  c #4D5152",
"[  c #495059",
"{  c #525152",
"}  c #5C595B",
"|  c #6F4F4C",
" . c #716559",
".. c #706967",
"X. c #8C1B11",
"o. c #8B371A",
"O. c #8F2F1A",
"+. c #B13516",
"@. c #851927",
"#. c #8A1739",
"$. c #893C27",
"%. c #852838",
"&. c #89353D",
"*. c #913031",
"=. c #B62A2B",
"-. c #A13421",
";. c #B72836",
":. c #AC3036",
">. c #D93F1F",
",. c #EA3E03",
"<. c #E53F07",
"1. c #F03E03",
"2. c #CC382A",
"3. c #E13B25",
"4. c #93491B",
"5. c #BE4A17",
"6. c #8C4B3E",
"7. c #894C36",
"8. c #924B39",
"9. c #835738",
"0. c #925735",
"q. c #A84638",
"w. c #B95637",
"e. c #B05332",
"r. c #926436",
"t. c #85653C",
"y. c #A66236",
"u. c #AE7A39",
"i. c #CB4705",
"p. c #DA4606",
"a. c #C94917",
"s. c #D54514",
"d. c #D64617",
"f. c #D55313",
"g. c #E44103",
"h. c #EB4102",
"j. c #E34409",
"k. c #E25917",
"l. c #E24513",
"z. c #DE621D",
"x. c #C07F1B",
"c. c #E96319",
"v. c #C64A26",
"b. c #CF4F28",
"n. c #C36E38",
"m. c #C97836",
"M. c #D7763A",
"N. c #CD732B",
"B. c #ED7728",
"V. c #F57A35",
"C. c #ED722D",
"Z. c #832544",
"A. c #852948",
"S. c #883D46",
"D. c #943F4A",
"F. c #883952",
"G. c #8F2B52",
"H. c #AD3A4E",
"J. c #852867",
"K. c #9C164A",
"L. c #894B46",
"P. c #93424B",
"I. c #934D4A",
"U. c #945645",
"Y. c #93574A",
"T. c #965849",
"R. c #9C5A4D",
"E. c #995847",
"W. c #884651",
"Q. c #954855",
"!. c #975C56",
"~. c #8F5941",
"^. c #AA4E50",
"/. c #8D6744",
"(. c #9C6444",
"). c #986648",
"_. c #886852",
"`. c #A56F42",
"'. c #A46646",
"]. c #BB6F48",
"[. c #A57042",
"{. c #A87043",
"}. c #A27958",
"|. c #B56F4F",
" X c #934866",
".X c #8F6F69",
"XX c #B26A67",
"oX c #D87849",
"OX c #CC7A5A",
"+X c #C86F4B",
"@X c #ED7451",
"#X c #C87B6B",
"$X c #C65D60",
"%X c #A58938",
"&X c #C89518",
"*X c #CDA719",
"=X c #C98B34",
"-X c #CC8B2E",
";X c #F88738",
":X c #D8AE31",
">X c #F3E33F",
",X c #ECC63D",
"<X c #A98546",
"1X c #AF905A",
"2X c #BFA745",
"3X c #93816D",
"4X c #BF9576",
"5X c #AC8C70",
"6X c #DB8348",
"7X c #D58C59",
"8X c #D19053",
"9X c #FB9A42",
"0X c #F99647",
"qX c #E79C59",
"wX c #F49653",
"eX c #ED914C",
"rX c #D3AA4D",
"tX c #F3A35E",
"yX c #CD9968",
"uX c #CA9973",
"iX c #D68F6B",
"pX c #EA9564",
"aX c #DAAA69",
"sX c #ECB175",
"dX c #DCC140",
"fX c #EDD647",
"gX c #F1C756",
"hX c #F6D857",
"jX c #EDCA53",
"kX c #F6E149",
"lX c #DDC566",
"zX c #AC5F83",
"xX c #9B6583",
"cX c #B27588",
"vX c #CB7192",
"bX c #989897",
"nX c #B69686",
"mX c #B09797",
"MX c #A7A08E",
"NX c #B5B0B3",
"BX c #D2958F",
"VX c #CFB194",
"CX c #F5B887",
"ZX c #E5B285",
"AX c #F3CD9B",
"SX c #E8B5CA",
"DX c #F3D6C1",
"FX c #D7D9DA",
/* pixels */
"[.[.[.[.`.`.`.`.`.`.`.`.`.`.`.`.`.`.`.`.`.`.[.[.[.[.[.[.[.[.[.[.[.[.[.[.[.`.`.`.[.[.[.[.[.[.[.[.[.[.[.[.[.[.[.[.[.[.[.[.[.[.[.[.",
"[.[.[.`.`.`.`.`.`.`.`.`.`.`.`.`.`.`.`.`.`.`.`.`.`.`.`.`.`.`.`.`.`.`.`.`.`.[.[.[.[.[.[.[.[.[.[.[.[.[.[.[.[.[.[.[.[.[.[.[.[.[.`.`.",
"[.[.[.`.`.`.`.`.`.`.`.`.`.`.`.`.`.`.`.`.`.`.`.`.`.`.`.`.`.`.`.`.`.`.`.`.`.[.[.[.[.[.[.[.[.[.[.[.[.[.[.[.[.[.[.[.[.[.[.[.[.[.`.`.",
"[.[.[.`.`.`.`.`.`.`.`.`.`.`.`.`.`.`.`.`.`.`.`.`.`.`.`.`.`.`.`.Q.`.`.`.`.Q.[.[.[.[.[.[.[.[.[.[.[.[.[.[.[.[.[.[.[.[.[.[.[.[.[.`.`.",
"[.[.[.`.`.`.`.`.`.`.`.`.`.`.`.`.`.`.`.`.`.`.`.`.`.`.`.`.`.`.`.g F.U.0.F.R [.R.'.[.[.[.[.[.[.[.[.[.[.[.[.[.[.[.[.[.[.[.[.[.[.`.`.",
"[.[.[.`.`.`.`.`.`.`.`.`.`.`.`.`.`.`.`.`.`.`.`.`.`.`.R.Q.U.`.`.s XXS.$.XXK ).R I.[.[.[.[.[.[.[.[.[.[.[.[.[.[.[.[.[.[.[.[.[.[.`.`.",
"[.[.[.`.`.`.`.`.`.`.`.`.`.`.`.[.[.[.[.[.[.[.`.`.`.`.R.D  Xs g 2 yX8Xx.=X2 j g 7.[.[.[.[.[.[.[.[.[.[.[.[.[.[.[.[.[.`.`.`.`.`.`.`.",
"[.[.`.`.`.`.`.`.`.`.`.`.`.`.[.[.[.[.[.[.[.[.`.`.[.`.`.R XX|.{.8 rXhX*X:Xu.1Xd 7.[.[.[.[.[.[.[.[.[.[.[.[.[.[.[.[.[.`.`.`.`.`.`.`.",
"[.[.`.`.`.`.`.`.`.`.`.`.`.`.[.[.[.[.[.[.[.[.`.`.'.I.L.7.7 :XhXrXdXkX>XkXhXjXrXY.J.I.'.[.[.[.[.[.[.[.[.[.[.[.[.[.[.`.`.`.`.`.`.`.",
"[.[.`.`.`.`.`.`.`.`.`.`.`.`.[.[.[.[.[.[.[.[.`.`.R.R K d 4.&X,XhXhXfXfXkXjXgXgX<X XJ.R.[.[.[.[.[.[.[.[.[.[.[.[.[.[.`.`.`.`.`.`.`.",
"[.[.`.`.`.`.`.`.`.`.`.`.`.`.[.[.[.[.[.[.[.[.`.`.`.(.U }.-X&X*XfXjX2XlXaXz z 1X<X8 [.[.[.[.[.[.[.[.[.[.[.[.[.[.[.[.`.`.`.`.`.`.`.",
"[.[.`.`.`.`.`.`.`.`.`.`.`.`.[.[.[.[.[.[.[.[.`.`.`.`.0.j =X&X:XhX%Xz N c     c 5X8 {.[.[.[.[.[.[.[.[.[.[.[.[.[.[.[.`.`.`.`.`.`.`.",
"[.[.`.`.`.`.`.`.`.`.`.`.`.`.`.`.`.`.`.`.`.`.[.[.[.[.[.g 0 rXgX<X+ : ^ ^ ..NXmX.XQ.R R.[.[.[.{.[.[.[.[.[.[.[.[.[.[.[.[.[.[.[.`.`.",
"[.[.`.`.`.`.`.`.`.`.`.`.`.`.`.`.`.`.`.`.`.`.[.[.[.[.0.&.N <XrXn p ` NXNXFXFXNXJ j {.[.[.{.{.[.[.[.[.[.[.[.[.[.[.[.[.[.[.[.[.`.`.",
"[.[.`.`.`.`.`.`.`.`.`.`.`.`.`.`.`.`.`.`.`.`.[.[.[.U.Q.|.<X0.d 6 b  .NXFXbX} _ B W.{.[.{.R.A.A.R.{.[.[.[.[.[.[.[.[.[.[.[.[.[.[.`.",
"[.[.[.`.`.`.`.`.`.`.`.`.`.`.`.`.`.`.`.`.`.`.L.h h g !.9.=Xm.y.5 + < ~ | N | > % R {.[.[. XvX$X&.S.{.[.[.[.[.[.[.[.[.[.[.[.[.[.[.",
"[.[.[.`.`.`.`.`.`.`.`.`.`.`.`.`.`.`.`.`.P.G.#XBXmXi j s y.m.N.m.}. .! ~ uX4X.XT [.[.[.T.P uXsXsX^.L {.[.[.[.[.[.[.[.[.[.[.[.[.[.",
"[.[.[.`.`.`.`.`.`.`.`.`.`.`.`.`.`.`.`.`.%.#XCXZX.Xe (.`.u y.N.N.yXnXbX] VXDXBXE [.[.[.R | 9.aXsX^.A.(.[.[.[.[.[.[.[.[.[.[.[.[.[.",
"[.[.[.`.`.`.`.`.`.`.`.`.[.[.[.[.[.[.[.P.w.qXsX/.nXxXL.`.w d 8XM.aXAXVXVXCXCXBXJ.{.{.[.R SXnX'.sXiXQ.L.[.[.[.[.[.[.[.[.[.[.[.[.[.",
"[.[.[.`.`.`.`.`.`.`.`.[.[.[.[.[.[.[.[.Z.oXtXsXn DXcXL.`.I r d y.7X7XsXsXqX7XP.D.{.[.{.R.W !.OXpX+XP.6.[.[.[.[.[.[.[.[.[.[.[.[.[.",
"[.[.[.[.`.`.`.`.`.`.`.[.[.[.[.[.[.[.[.D.q.m.oXuXo g `.`.L.C o o 7.y.aXZXuXj I (.{.[.[.[.6.y |.+X*.h {.[.[.[.[.[.[.[.[.[.[.[.[.[.",
"[.[.[.[.{.{.{.[.[.[.[.[.[.[.[.[.[.[.[.[.t q.OX).q K `.`.P % $ : . 5 M /.c X C I T.[.[.[.I q N 9.3 L [.[.[.[.[.[.[.[.[.[.[.[.[.[.",
"[.[.[.[.{.{.{.{.[.[.[.[.[.[.[.[.[.[.[.[.Y y f i J K `.F.B G - $ : $ ; O O ; G * A F.{.{.B > < @ Z R [.{.[.[.[.[.[.[.[.[.[.[.[.[.",
"[.[.[.[.[.[.[.[.[.[.[.[.[.[.[.[.[.[.[.[.I.S q p H * i Z H ` H p - - - ; ; ; ! ! * A U.U V _ ! < F Y.[.{.[.[.[.[.[.[.[.[.[.[.[.[.",
"[.[.[.[.[.[.[.[.[.[.[.[.[.[.[.[.[.[.[.[.[.L.B V ] Q , ) { ` ` , / ! , < , , { { , ` > * ' [ _ V U `.`.{.{.{.{.[.[.[.[.[.[.[.[.[.",
"[.[.[.[.[.[.[.[.[.[.[.[.[.[.[.[.[.[.[.[.[.U.Z * ) ! ; Q / ] ] l / ] { { [ ] { { ; b - G ' ) V C [.[.[.[.{.{.{.[.[.[.[.[.[.[.[.[.",
"[.[.[.[.[.[.[.[.[.[.[.[.[.[.[.[.[.[.[.[.[.[.T Z ( ( ! _ ! , ! { ] ] ( ( ' ) ] , O ; ; G ! > C Y [.[.[.[.[.[.[.[.[.[.[.[.[.[.[.[.",
"[.[.[.[.[.[.[.[.[.[.[.[.[.[.[.[.[.[.[.[.[.[.Y.F p ( ` V < $ : v ~ v v v ` ` ( < O - & > > w Y (.[.[.[.{.[.[.[.[.[.[.[.[.[.[.[.[.",
"[.[.[.[.[.[.[.[.[.[.[.[.[.[.[.[.[.[.[.[.[.[.[.U * > & & # . 4.M.wXqXaX/.~ _.pX].1 i B B A U `.`.[.[.[.[.[.[.[.[.[.[.[.[.[.[.[.[.",
"[.[.[.[.[.[.[.[.[.[.[.[.[.[.[.[.[.[.[.[.[.[.[.{.A S A F $ 5 v.a.;X0XqXr.~ ).wXn.9 Y.K K | [.[.[.[.[.[.`.[.[.[.[.[.[.[.[.[.[.[.`.",
"{.{.[.[.[.[.[.[.[.[.[.[.[.[.[.[.[.[.[.[.[.[.{.{.(.W.(.{.% 1 +.s.f.z.6Xr.~ ).M.w.k `.[.`.[.[.[.[.[.[.[.[.[.[.[.[.[.[.[.[.[.[.`.`.",
"{.{.[.[.[.[.[.[.[.[.[.[.[.[.[.[.[.[.[.[.[.[.[.{.[.{.[.F.% o -.C.i.i.n.x a f f.5.k `.[.[.[.[.[.[.[.[.[.[.[.[.[.[.[.[.[.[.[.[.`.`.",
"{.{.[.[.[.[.[.[.[.[.[.[.[.[.[.[.[.[.[.[.[.[.[.[.[.[.R.D e 3 +.V.0X0XwXy.~ 9.N.v.*.E.[.[.[.[.[.[.[.[.[.[.[.[.[.[.[.[.[.[.[.[.`.`.",
"{.{.[.[.[.{.[.[.[.[.[.[.[.[.[.[.[.[.[.[.[.[.[.[.[.[.E T L.@.s.c.0XeXwXqX3X3X8XM.H.Z.[.[.[.[.[.[.[.[.[.[.[.[.[.[.[.[.[.[.[.[.`.`.",
"[.[.[.[.{.{.{.[.[.[.[.[.[.[.[.[.[.[.[.[.[.[.[.[.[.[.R.'.L.#.v.5.n.n.n.].6 6 r.].H.L [.[.[.[.[.[.[.[.[.[.[.[.[.[.[.[.[.[.[.[.`.`.",
"[.[.[.[.{.{.{.[.[.[.[.[.[.[.[.[.[.`.`.`.`.`.`.`.`.[.{.[.L.D X.9 7 7 7 8 + + 5 8 y L `.`.`.`.`.`.`.`.`.`.`.`.`.`.`.`.`.`.`.`.`.`.",
"[.[.[.[.[.[.{.[.[.[.[.[.[.[.[.[.[.`.`.`.`.`.`.`.`.`.[.[.L.S q X + + + + : : : : w K `.`.`.`.`.`.`.`.`.`.`.`.`.`.`.`.`.`.`.`.`.`.",
"{.{.{.{.[.[.{.[.[.[.[.[.[.[.[.[.[.`.`.`.`.`.`.`.`.`.[.[.L.S 1 1 1 . X X X X X X q K `.`.`.`.`.`.`.`.`.`.`.`.`.`.`.`.`.`.`.`.`.`.",
"{.{.{.{.[.[.[.[.[.[.[.[.[.[.[.[.[.`.`.`.`.`.`.`.`.{.{.[.L.y $.o.4.o.o.$.2 m $.o.h L `.`.`.`.`.`.`.`.`.`.`.`.`.`.`.`.`.`.`.`.`.`.",
"{.{.{.{.[.[.[.[.[.[.[.[.[.[.[.[.[.`.`.`.`.`.`.`.`.`.[.[.8.%.oX=X6X6X6X6Xf #XoXb.:.L `.`.`.`.`.`.`.`.`.`.`.`.`.`.`.`.`.`.`.`.`.`.",
"[.[.[.[.[.[.[.[.[.[.[.[.[.[.[.[.[.[.`.`.`.`.`.`.`.`.[.[.Z.OX0X9X;XB.V.V.9 o.i.p.;.%.`.`.`.`.`.`.`.`.`.`.`.`.`.`.`.`.`.`.`.`.`.`.",
"[.[.[.[.[.[.[.[.[.[.[.[.[.[.[.[.[.[.[.[.[.[.[.`.`.`.`.`.&.pX0X9X;Xk.j.d.O.4 +.p.;.%.`.`.`.`.`.`.`.`.`.`.`.`.`.`.`.`.`.`.`.`.`.`.",
"[.[.[.[.[.[.[.[.[.[.[.[.[.[.[.[.[.[.[.[.[.[.[.[.[.[.`.S.w.eX9X9X;Xk.v.O.+.s.p.g.=.%.`.`.`.`.`.`.`.`.`.`.`.`.`.`.`.`.`.`.`.`.`.`.",
"[.[.[.[.[.[.[.[.[.[.[.[.[.[.[.[.[.[.[.[.[.[.[.[.`.`.`.h eX9X9X9XB.p.o.3 s.j.h.,.=.%.`.`.`.`.`.`.`.`.`.`.`.`.`.`.`.`.`.`.`.`.`.`.",
"[.[.[.[.[.[.[.[.[.[.[.[.[.[.[.[.[.[.[.[.[.`.`.`.[.[.U.%.wX9X9XV.p.p.7 . d.,.,.1.;.Z.`.`.`.`.`.`.`.`.`.`.`.`.`.`.`.`.`.`.`.`.`.`.",
"[.[.[.[.[.[.[.[.[.[.[.[.[.[.[.[.[.[.[.[.[.`.`.[.[.[.h Q.wX9X;Xc.p.5.9 2 d.h.,.,.;.Z.`.`.`.`.`.`.`.`.`.`.`.`.`.`.`.`.`.`.`.`.`.`.",
"[.[.[.[.[.[.[.[.[.[.[.[.`.[.[.[.[.[.[.[.[.[.[.[.[.[.k |.wX0XB.j.b.*.8.%.3.,.<.j.;.L [.[.[.`.`.`.`.`.`.`.`.`.`.`.`.`.`.`.[.[.[.[.",
"[.[.[.[.[.[.[.[.[.[.[.`.`.`.[.[.[.[.[.[.[.[.[.[.[.E.*.oX0X;Xc.g.2.%.r.%.3.<.g.g.=.h [.[.[.[.`.`.`.`.`.`.`.`.`.`.`.`.`.`.[.[.[.[.",
"[.[.[.[.[.[.[.[.[.[.[.`.`.`.[.[.[.[.[.[.[.[.[.[.{.6.$X0XB.c.p.j.;.Z.`.A.2.l.g.,.=.%.[.[.[.[.`.`.`.`.`.`.`.`.`.`.`.`.`.`.[.[.[.[.",
"[.[.[.[.[.[.[.[.[.[.[.`.`.`.[.[.[.[.[.[.[.[.[.[.'.&.+X;Xi.p.j.s.:.D.[.P.=.s.j.,.2.*.(.[.`.[.`.`.`.`.`.`.`.`.`.`.`.`.`.`.[.[.[.[.",
"[.[.[.[.[.[.[.[.[.[.[.`.`.`.[.[.[.[.[.[.[.[.[.[.6.A.pXz.p.j.d.v.@.[.`.[.X.a.g.h.b.H.8.[.`.`.`.`.`.`.`.`.`.`.`.`.`.`.`.`.[.[.[.[.",
"[.[.[.[.[.[.[.[.[.[.[.`.`.`.[.[.[.[.[.[.[.[.[.[.8.&.wXk.g.g.d.v.%.[.`.[.X.a.j.h.d.:.8.[.`.`.`.`.`.`.`.`.`.`.`.`.`.`.`.`.[.[.[.[.",
"`.`.`.`.`.`.`.`.`.`.`.`.`.`.[.[.[.[.[.[.[.[.[.[.G.@Xp.g.h.,.>.#.[.[.[.{.@.v.<.h.a.-.8.[.{.{.[.[.`.`.`.`.`.[.`.`.`.`.`.`.[.[.`.`.",
"`.`.`.`.`.`.`.`.`.`.`.`.`.`.[.[.[.[.[.[.[.[.[.[.D.@Xg.h.,.h.>.K.[.[.[.{.@.v.<.,.a.-.8.[.{.{.{.[.`.`.`.`.`.[.`.`.`.`.`.`.[.[.`.`.",
"`.`.`.`.`.`.`.`.`.`.`.`.`.`.[.[.[.[.[.[.[.[.[.S.q.b.g.g.j.s.-.*.[.[.{.{.#.w.d.s.v.*.8.{.{.{.[.[.`.`.`.`.`.[.`.[.[.`.`.`.[.[.`.`.",
"`.`.`.`.`.`.`.`.`.`.`.`.`.`.[.[.[.[.[.[.[.[.[.h ^.a.p.p.v.e.t 8.[.[.{.[.D t q.w.q.k '.{.{.{.[.[.`.`.`.`.`.[.`.[.[.`.`.`.[.[.`.`.",
"`.`.`.`.`.`.`.`.`.`.`.`.`.`.[.[.[.[.[.[.[.[.`.g m BXyX'.3 s L E.[.[.[.[.[.m X + i Z I ).[.[.[.[.`.`.`.`.`.[.`.[.[.`.`.`.[.[.`.`.",
"`.`.`.`.`.`.`.`.`.`.`.`.`.`.`.[.[.[.[.[.[.[.Y.A ..mX| a K [.[.[.[.[.[.[.[.L.& : ^ _ Z I [.[.[.[.`.`.`.`.[.[.[.[.[.`.`.`.[.[.[.`.",
"[.[.[.`.`.`.`.`.`.`.`.`.`.`.`.`.`.`.`.`.`.`.K J bXbX..G T [.[.[.[.[.[.[.[.L.& ; { ( ^ e S.[.[.[.[.[.[.[.[.[.[.[.[.[.[.[.[.[.[.[.",
"[.[.[.`.`.`.`.`.`.`.`.`.`.`.`.`.`.`.`.`.`.U.A J MXMX .i T [.[.[.[.[.[.[.[.L.& ; , } VX5XzXS.[.[.[.[.[.[.[.[.[.[.[.[.[.[.[.[.[.[.",
"[.[.[.`.`.`.`.`.`.`.`.`.`.`.`.`.`.`.`.`.'.D.iXyXAXAX.Xa T [.[.[.[.[.[.[.[.L.* & : v 5X).XX XL.[.[.[.[.[.[.[.[.[.[.[.[.[.[.[.[.[.",
"[.[.[.`.`.`.`.`.`.`.`.`.`.`.[.[.[.[.[.[.I.J.}.t.1X}.3XJ T [.[.[.[.[.[.[.[.T.K i * + . . 1 e T.[.[.[.[.[.[.[.[.[.[.[.[.[.[.[.[.[.",
"[.[.[.`.`.`.`.`.`.`.`.`.`.`.[.[.[.[.[.[.(.L.9.M M 9.M M Y.[.[.[.[.[.[.[.[.[.[.{.L.M M M m ~.[.[.[.[.[.[.[.[.[.[.[.[.[.[.[.[.[.[.",
"[.[.[.`.`.`.`.`.`.`.`.`.`.`.`.`.`.`.[.[.[.[.[.[.`.`.`.[.[.[.[.[.[.[.[.[.[.[.[.[.`.`.`.`.[.[.[.[.[.[.[.[.[.[.[.[.[.[.[.[.[.[.[.[."
};
