/* XPM */
static char *_9a6178c214040bc99bf6a1f2c4a1370v5d82v3RKZQpdyTn[] = {
/* columns rows colors chars-per-pixel */
"64 64 254 2 ",
"   c #1C181A",
".  c #1F1A0B",
"X  c #341609",
"o  c #2B1315",
"O  c #28171A",
"+  c #381B17",
"@  c #2B1807",
"#  c #191D24",
"$  c #171924",
"%  c #251728",
"&  c #351927",
"*  c #2A0D38",
"=  c #36093B",
"-  c #2E1432",
";  c #381739",
":  c #31092A",
">  c #1B232B",
",  c #2A2524",
"<  c #2C242C",
"1  c #292A2A",
"2  c #262828",
"3  c #36292A",
"4  c #36312D",
"5  c #2C2433",
"6  c #2B2A33",
"7  c #342636",
"8  c #383638",
"9  c #2F3231",
"0  c #3A2815",
"q  c #491A17",
"w  c #51130E",
"e  c #6A1911",
"r  c #4A2716",
"t  c #572813",
"y  c #503217",
"u  c #5B290D",
"i  c #672717",
"p  c #722D16",
"a  c #4F0D31",
"s  c #55272A",
"d  c #45342A",
"f  c #573526",
"g  c #4A3836",
"h  c #553839",
"j  c #472E32",
"k  c #682A26",
"l  c #7A282B",
"z  c #6A3927",
"x  c #763624",
"c  c #67273A",
"v  c #792633",
"b  c #743236",
"n  c #623D32",
"m  c #75133B",
"M  c #3F463C",
"N  c #5B421E",
"B  c #6B4B19",
"V  c #4D493F",
"C  c #79462E",
"Z  c #755A26",
"A  c #794935",
"S  c #6D4833",
"D  c #370845",
"F  c #3A1344",
"G  c #3E3244",
"H  c #450647",
"J  c #451445",
"K  c #581B49",
"L  c #4A0555",
"P  c #5A0457",
"I  c #5D1E53",
"U  c #520D4B",
"Y  c #631B4B",
"T  c #690F5D",
"R  c #6B1354",
"E  c #5E2547",
"W  c #423645",
"Q  c #462D51",
"!  c #512D51",
"~  c #64254C",
"^  c #672847",
"/  c #7A2746",
"(  c #75334B",
")  c #6C2554",
"_  c #662757",
"`  c #762558",
"'  c #7F3A57",
"]  c #580163",
"[  c #650468",
"{  c #72136F",
"}  c #424344",
"|  c #494749",
" . c #534845",
".. c #4E4A53",
"X. c #544B5A",
"o. c #545357",
"O. c #4D514E",
"+. c #70514C",
"@. c #555565",
"#. c #76737C",
"$. c #71707A",
"%. c #74604C",
"&. c #891C14",
"*. c #8C2E16",
"=. c #993619",
"-. c #932F17",
";. c #BA3C17",
":. c #AE340E",
">. c #921833",
",. c #862728",
"<. c #8B3527",
"1. c #96362A",
"2. c #882935",
"3. c #893535",
"4. c #95393C",
"5. c #972B3A",
"6. c #BC3A27",
"7. c #AE3233",
"8. c #DB3F1C",
"9. c #B04117",
"0. c #994528",
"q. c #81542D",
"w. c #8D493B",
"e. c #814D3B",
"r. c #934A3C",
"t. c #995A37",
"y. c #875033",
"u. c #B74726",
"i. c #A8552D",
"p. c #AD5234",
"a. c #85692C",
"s. c #8A6B35",
"d. c #9B643F",
"f. c #AF7038",
"g. c #DE4403",
"h. c #DC450E",
"j. c #D54512",
"k. c #DA4416",
"l. c #C74914",
"z. c #E44103",
"x. c #E5430A",
"c. c #E25716",
"v. c #E14013",
"b. c #D36918",
"n. c #E06219",
"m. c #C74A23",
"M. c #C7532E",
"N. c #EC5C22",
"B. c #D06D31",
"V. c #E36629",
"C. c #E87232",
"Z. c #952848",
"A. c #883C49",
"S. c #913E46",
"D. c #8A3A56",
"F. c #933C59",
"G. c #822454",
"H. c #953E63",
"J. c #84286D",
"K. c #A63E6E",
"L. c #844A44",
"P. c #844B49",
"I. c #8B4B4C",
"U. c #894448",
"Y. c #914A47",
"T. c #875446",
"R. c #94574B",
"E. c #99564B",
"W. c #965646",
"Q. c #8E4853",
"!. c #914C52",
"~. c #964957",
"^. c #9B5851",
"/. c #A25857",
"(. c #B6544E",
"). c #8A634E",
"_. c #9D6344",
"`. c #99644B",
"'. c #987A41",
"]. c #876A5F",
"[. c #A56F42",
"{. c #A46648",
"}. c #A57042",
"|. c #A87044",
" X c #A27F47",
".X c #AF655A",
"XX c #B0714F",
"oX c #974369",
"OX c #924A6C",
"+X c #AA5978",
"@X c #B07164",
"#X c #86766B",
"$X c #DA7945",
"%X c #CC764A",
"&X c #E97B46",
"*X c #EE6D48",
"=X c #C57569",
"-X c #A88839",
";X c #A88729",
":X c #C59318",
">X c #D7883A",
",X c #C29632",
"<X c #CA9129",
"1X c #FB973D",
"2X c #ED8A33",
"3X c #D5A935",
"4X c #D3A427",
"5X c #E7B937",
"6X c #B69247",
"7X c #AA874A",
"8X c #AF916C",
"9X c #968763",
"0X c #D98B48",
"qX c #CA875E",
"wX c #D68958",
"eX c #DC9758",
"rX c #CE925C",
"tX c #F59943",
"yX c #FA9646",
"uX c #E59A57",
"iX c #F1904B",
"pX c #D8B855",
"aX c #D0AD4C",
"sX c #E7A25E",
"dX c #F1A75E",
"fX c #CB9373",
"gX c #DA9267",
"hX c #E09C62",
"jX c #D7A967",
"kX c #F3B06F",
"lX c #DFC05F",
"zX c #E7CA58",
"xX c #ECC64B",
"cX c #D6C27F",
"vX c #F9CE6B",
"bX c #B05C8E",
"nX c #A16E8D",
"mX c #BB9F99",
"MX c #B7958B",
"NX c #B5A996",
"BX c #ACAD92",
"VX c #B6BCBC",
"CX c #A48DAA",
"ZX c #C79395",
"AX c #D09B85",
"SX c #C7A192",
"DX c #EBBA8C",
"FX c #D6B8A2",
"GX c #E4BCA8",
"HX c #F4D48A",
"JX c #CAC6B9",
"KX c #E2DFDC",
"LX c #EDEDE8",
"PX c #EAE7DC",
/* pixels */
"}.}.}.}.[.[.[.[.[.[.[.[.[.[.[.[.[.[.[.[.[.[.}.}.}.}.}.}.}.}.}.}.}.}.}.}.}.[.[.[.}.}.}.}.}.}.}.}.}.}.}.}.}.}.}.}.}.}.}.}.}.}.}.}.",
"}.}.}.[.[.[.[.[.[.[.[.[.[.[.[.[.[.[.[.[.[.[.[.[.[.[.[.[.[.[.[.[.[.[.[.[.[.}.}.}.}.}.}.}.}.}.}.}.}.}.}.}.}.}.}.}.}.}.}.}.}.}.[.[.",
"}.}.}.[.[.[.[.[.[.[.[.[.[.[.[.[.[.[.[.[.[.[.[.[.[.[.[.[.[.[.[.[.[.[.[.[.[.}.}.}.}.}.}.}.}.}.}.}.}.}.}.}.}.}.}.}.}.}.}.}.}.}.[.[.",
"}.}.}.[.[.[.[.[.[.[.[.[.[.[.[.[.[.[.[.[.[.[.[.[.[.[.[.[.[.[.[.[.[.[.[.[.[.}.}.}.}.}.}.}.}.}.}.}.}.}.}.}.}.}.}.}.}.}.}.}.}.}.[.[.",
"}.}.}.[.[.[.[.[.[.[.[.[.[.[.[.[.[.[.[.[.[.[.[.[.[.[.[.[.[.[.[.[.[.[.[.[.[.}.}.}.}.}.}.}.}.}.}.}.}.}.}.}.}.}.}.}.}.}.}.}.}.}.[.[.",
"}.}.}.[.[.[.[.[.[.[.[.[.[.[.[.[.[.[.[.[.[.[.[.[.[.[.[.[.[.[.[.[.[.[.[.[.[.}.}.}.}.}.}.}.}.}.}.}.}.}.}.}.}.}.}.}.}.}.}.}.}.}.[.[.",
"}.}.}.[.[.[.[.[.[.[.[.[.[.[.[.}.}.}.}.}.}.}.[.[.[.[.[.[.[.[.[.[.[.[.[.[.[.}.}.}.}.}.}.}.}.}.}.}.}.}.}.}.}.}.}.}.}.[.[.[.[.[.[.[.",
"}.}.[.[.[.[.[.[.[.[.[.[.[.[.}.}.}.}.}.}.}.}.[.[.[.[.[.[.[.[.[.[.[.[.[.[.[.}.}.}.}.}.}.}.}.}.}.}.}.}.}.}.}.}.}.}.}.[.[.[.[.[.[.[.",
"}.}.[.[.[.[.[.[.[.[.[.[.[.[.}.}.}.}.}.}.}.}.[.[.[.[.[.[.[.[.[.[.[.[.[.[.[.}.}.}.}.}.}.}.}.}.}.}.}.}.}.}.}.}.}.}.}.[.[.[.[.[.[.[.",
"}.}.[.[.[.[.[.[.[.[.[.[.[.[.}.}.}.}.}.}.}.}.[.[.[.[.[.[.[.[.[.[.[.[.[.[.[.}.}.}.}.}.}.}.}.}.}.}.}.}.}.}.}.}.}.}.}.[.[.[.[.[.[.[.",
"}.}.[.[.[.[.[.[.[.[.[.[.[.[.}.}.}.}.}.}.}.}.[.[.[.[.[.[.[.[.[.[.[.[.[.[.[.}.}.}.}.}.}.}.}.}.}.}.}.}.}.}.}.}.}.}.}.[.[.[.[.[.[.[.",
"}.}.[.[.[.[.[.[.[.[.[.[.[.[.}.}.}.}.}.}.}.}.[.[.[.[.[.[.[.[.[.[.[.[.[.[.[.}.}.}.}.}.}.}.}.}.}.}.}.}.}.}.}.}.}.}.}.[.[.[.[.[.[.[.",
"}.}.[.[.[.[.[.[.[.[.[.[.[.[.[.[.[.[.[.[.[.[.}.}.}.}.}.}.}.}.}.}.}.}.[.[.[.}.}.}.}.}.}.}.}.}.}.}.}.}.}.}.}.}.}.}.}.}.}.}.}.}.[.[.",
"}.}.[.[.[.[.[.[.[.[.[.[.[.[.[.[.[.[.[.[.[.[.}.}.}.}.}.}.}.}.}.}.}.}.[.[.{.^.}.}.}.}.}.}.}.}.}.}.}.}.}.}.}.}.}.}.}.}.}.}.}.}.[.[.",
"}.}.[.[.[.[.[.[.[.[.[.[.[.[.[.[.[.[.[.[.[.[.}.}.}.}.}.}.}.}.}.}.^.H.}.[.!.G.}.}.}.}.}.}.}.}.}.}.}.}.}.}.}.}.}.}.}.}.}.}.}.}.}.[.",
"}.}.}.[.[.[.[.[.[.[.[.[.[.[.[.[.[.[.[.[.[.[.}.}.}.}.}.}.E.F.}.}.!.` [.[.oXbXR.}.}.}.K./.}.}.}.}.}.}.}.}.}.}.}.}.}.}.}.}.}.}.}.}.",
"}.}.}.[.[.[.[.[.[.[.[.[.[.[.[.[.[.[.[.[.[.[.}.}.}.}.^.{.I.T U._.oXAXr.{.L.SXL.d.~.J.I.}.}.}.}.}.}.}.}.}.}.}.}.}.}.}.}.}.}.}.}.}.",
"}.}.}.[.[.[.[.[.[.[.[.[.[.[.[.[.[.[.[.[.[.[.}.}.}.}.H.F.b ( /.e.A HX=Xr. XHX+.z bXbXW.}.}.}.}.}.}.}.}.}.}.}.}.}.}.}.}.}.}.}.}.}.",
"}.}.}.[.[.[.[.[.[.[.[.[.}.}.}.}.}.}.}.}.}.}.[.[.[.[.[./ ^.q.7X8XZ zXzXaXzXpXZ s.@Xc }.}./.H.}.}.}.}.}.}.}.}.}.}.}.}.}.}.}.}.}.}.",
"}.}.}.[.[.[.[.[.[.[.[.}.}.}.}.}.}.}.}.}.}.}.[.Q.` U.[.W.y.-X;XaXaXxX4XxX4X3XZ '.).q k k D./.}.}.}.}.}.}.}.}.}.}.}.}.}.}.}.}.}.}.",
"}.}.}.}.[.[.[.[.[.[.[.}.}.}.}.}.}.}.}.}.}.}.[.[.OXbXH.Y.B pX3X:X4X5X<X,X<X,XpX'.Z '.cXAXA.}.}.}.}.}.}.}.}.}.}.}.}.}.}.}.}.}.}.}.",
"}.}.}.}.}.|.}.}.}.}.}.^.!.!.!.!.}.}.}.}.}.}.[.[.W.' ZX|.-XvX3X:X:X3X-Xa.a.s.a.7XlXpX6Xz }.}.}.}.}.}.}.}.}.}.}.}.}.}.}.}.}.}.}.}.",
"}.}.}.}.|.|.|.|.}./.J.{ [ [ [ P ~ U.}.}.}.}.[.[.}.d.S 7XpXvXaX6XB y 9XBXBXNXNXNXZ 6Xq.C }.}.}.}.}.}.}.}.}.}.}.}.}.}.}.}.}.}.}.}.",
"}.}.}.}.}.}.}.}.}.{.~.~.Q.!.I.Y L T J.^.}.}.}.D.) ^ q y ,XaXa.N o j JXLXVXVXKXLX%.f ~.D.F.}.[.[.}.}.}.}.}.}.}.}.}.}.}.}.}.}.}.}.",
"}.}.}.}.}.}.}.}.}.}.}.}.}.}.}.}.}.}.F.` { T I.I.OXMXjXzX;XB .   % W #.#.$.#.#.$.@.% Y E.}.}.[.[.}.}.|.|.|.}.}.}.}.}.}.}.}.}.}.}.",
"}.}.}.}.}.}.}.}.}.}.}.}.}.}.}.}.}.}.}.}.R.) P L n @ B -Xs.@ O O + f g o. .g g | @.Q L.}.}.}.[.[.}.}.}.|.|.|.}.}.}.}.}.}.}.}.}.}.",
"}.}.}.}.}.}.}.}.}.}.}.}.|.|.}.}.E.` ) ) ` ` U D = : o d y @ S e.t.XXFXPXMXA y.mXLXCXP.[.}.}.[.[.}.}.|.|.}.}.}.}.}.}.}.}.}.}.}.}.",
"}.}.}.}.}.}.}.}.}.E.~ E E ~ ^ E K H L L ] ] P ] P.L.s ].C u 7Xf.%Xt.8XKXFXt.p SXKXnXL.[.}.}.[.[.}.}.|.|.}.}.}.}.}.}.}.}.}.}.}.}.",
"}.}.D.[ ] ] L H D = * * D D K ^ ~ ~ ) R.}.}.}.}._.L.s o t.f.<X2XsX0Xq.S t.wXkXd.A P.w.[.}.}.[.[.}.}.}.}.}.}.}.}.}.}.}.}.}.}.}.}.",
"}.}.}.D.T L D D * * = K ) ` E.}.}.}.[.}.}.}.}.}.( a 7 4 r d.>X>X>X>XeXkXkXuXB.$XwXE.w.[.}.}.}.}.}.}.}.[.}.}.}.}.}.}.}.}.}.}.}.[.",
"}.}.}.}.{.Q.P.P.L.P.I.`.}.}.}.}.}.}.}.}.}.}.A.^ Q ! ..O.d r qXdXuX0XdXkXrXDXDXt.qX.Xw.[.}.}.}.}.}.}.}.}.}.}.}.}.}.}.}.}.}.}.[.[.",
"|.}.}.}.}.|.|.}.}.}.}.}.}.}.}.}.}.}.}.}.}.R._ ! | X.o.O.3 o ).hX0XdXkXeXr.fXfXx @X.Xw.}.}.}.}.}.}.}.}.}.}.}.}.}.}.}.}.}.}.}.[.[.",
"|.|.}.|.}.}.}.}.}.}.}.}.}.}.}.}.}.}.}.R.L Q | V } W 9 2 , O o y.kXvXDXC 0XB.t.x =XD.W.}.}.}.}.}.}.}.}.}.}.}.}.}.}.}.}.}.}.}.[.[.",
"|.|.}.}.}.|.}.}.}.}.}.}.}.}.}.}.}.}.R.I G } 9 2 2 2 % 2 9 , o z uXkX8X).wXwXx t.(.v }.}.}.}.}.}.}.[.}.}.}.}.}.}.}.}.}.}.}.}.[.[.",
"}.}.}.}.|.|.|.}.}.}.}.}.}.}.}.}.}.R.J 5 < < 1 > > 2 8 } M 2 , X XX%Xz mXGXGXS .X5.W.}.}.}.}.}.}.}.}.}.}.}.}.}.}.}.}.}.}.}.}.[.[.",
"}.}.|.}.|.|.|.}.}.}.}.}.}.}.}.}.R.Y ; 1 < , # $ # # 1 | O.8 3 O f C f S T.T.I.F.t.[.[.[.[.[.[.[.[.[.[.[.[.[.[.[.[.[.[.[.[.[.[.[.",
"}.}.|.}.}.}.|.}.}.}.}.}.}.}.}.}.L.= , 1 # $ $ O q t d ..X...5 1     o +.+XbXF.W.[.[.[.[.[.[.[.[.[.Y.P P [.[.[.[.[.[.[.[.[.[.[.[.",
"|.}.|.|.}.}.|.}.}.}.}.}.}.}.}.}.P.= , , # $ O q *.0.t g X.X.G 9 # $ % = / / E.[.[.[.[.[.[.[.[.[._.U.K H ^.[.[.[.[.[.[.[.[.[.[.[.",
"|.|.|.|.}.}.}.}.}.}.}.}.}.}.}.}.P.= , , O q -.;.k.j.;.=.+.g O. .& H ( I.[.[.[.[.[.[.[.[.[.[.[.[.r./ h - ` [.[.[.[.[.[.[.[.[.[.[.",
"|.|.|.|.}.}.}.}.}.}.}.}.}.}.}.}.I.H < , r 0.j.h.j.k.j.l.y 0 j +.c I.`.|.[.W./ / S.[.[.[.[.[.[.[.oXZXV % ) [.[.[.[.[.[.[.[.[.[.[.",
"}.}.}.}.}.}.}.}.}.}.}.}.}.}.}.}.}.P.F & 0.m.k.;.*.p <.x t w c ^ Y.Y.2.2.<.7.*X*X6.1.3.2.w.Y.Y._.H & , - ) [.[.[.[.[.[.[.[.[.[.[.",
"}.}.}.}.}.}.}.}.}.}.}.}.}.}.}.}.}.I.J & i 1.:.=.0.%XhXhXi.e w x G.Z.(.wX&X&Xc.z.c.&XiX$X5.Z.R b ; < < - ~ [.[.[.[.[.[.[.[.[.[.[.",
"}.}.}.}.}.}.}.}.}.}.}.}.}.}.}.}.[.I.J O + f XX0XyXyXyXtXiXB.e w p.$XC.B.m.j.z.z.z.g.c.n.V.V.%Xz 4 } } 7 F ' [.[.[.[.[.[.[.[.[.[.",
"}.}.}.}.}.}.}.}.}.}.}.}.}.}.}.}.}.I.OXs t t.uXtX1X1XtXtXtXiXu.e i.u.=.e *.m.h.g.z.z.g.g.g.h.$Xz | O.8 , = ) [.[.[.[.[.[.[.[.[.[.",
"}.}.}.}.}.}.}.}.}.}.}.}.}.}.}.}.}.I.+Xl b.yX1X1Xb.b.yXyXtXtXyXiX<.x h 4 + i &.-.m.k.v.x.z.j.M.z } } 1   * ~ [.[.[.[.[.[.[.[.[.[.",
"}.}.}.}.}.}.}.}.}.}.}.}.}.}.}.}.}.Y.oXl b.1XyX2Xl.:.V.yXyXtXyXyX{.+ 4 , & s v p 7.6.8.k.h.9.0.s 7 5 % $ * ~ [.[.[.[.[.[.[.[.[.[.",
"}.}.}.}.}.}.}.}.}.}.}.}.[.}.}.}.}.{.3.3.=.V.N.x.:.&.l.c.yXyXtXuXS d 2 1 5 J I.[.r.4.>.7.M.1.a b L F % % D ) [.[.[.[.[.[.}.}.}.}.",
"}.}.}.}.}.}.}.}.}.}.}.[.[.[.}.}.}.}.v ~.e M.8.v.u.*.;.k.C.yXtXuXX 4 , 2 5 J I.[.[.{.r.Z.>.m ( _.Q.( D = I R.[.[.[.[.[.[.}.}.}.}.",
"}.}.}.}.}.}.}.}.}.}.}.[.[.[.}.}.}.}.}.A.( e 7.7.5.v l 5.k.c.C.0X%.#X, , 1 ; ( _.}.}.}.[.[.[.[.[.[.[.[.[.[.[.[.[.[.[.[.[.}.}.}.}.",
"}.}.}.}.}.}.}.}.}.}.}.[.[.[.}.}.}.}.}.}./ v ,.,.S.}.[.4.7.m.M.gX].+., , 1 5 L I.}.}.}.}.}.}.[.[.[.[.[.[.[.[.[.[.[.[.[.[.}.}.}.}.",
"}.}.}.}.}.}.}.}.}.}.}.[.[.[.}.}.}.}.}.}.}.}.}.}.}.}.[.[.4.Z.<.k 3 } 9 1 2 2 D L.}.}.}.}.}.}.[.[.[.[.[.[.[.[.[.[.[.[.[.[.}.}.}.}.",
"}.}.}.}.}.}.}.}.}.}.}.[.[.[.}.}.}.}.}.}.}.}.}.}.}.}.[.[.{.S.a : - W 9 2 2 6 F L.}.}.}.}.}.}.[.[.[.[.[.[.[.[.[.[.[.[.[.[.}.}.}.}.",
"[.[.[.[.[.[.[.[.[.[.[.[.[.[.}.}.}.}.}.}.}.}.}.}.}.}.|.|.}.}.D.` R.K ! W 7 F K R.}.}.}.}.|.|.|.}.[.[.[.[.[.}.[.[.[.[.[.[.}.}.[.[.",
"[.[.[.[.[.[.[.[.[.[.[.[.[.[.}.}.}.}.}.}.}.}.}.}.}.}.|.|.}.}.}.}.}.E.^ ! F K E.}.}.}.}.}.|.|.|.}.[.[.[.[.[.}.[.[.[.[.[.[.}.}.[.[.",
"[.[.[.[.[.[.[.[.[.[.[.[.[.[.}.}.}.}.}.}.}.}.}.}.}.}.}.}.}.}.}.}.}.}.}.R.I.R.}.}.}.}.}.|.|.|.}.}.[.[.[.[.[.}.[.}.}.[.[.[.}.}.[.[.",
"[.[.[.[.[.[.[.[.[.[.[.[.[.[.}.}.}.}.}.}.}.}.}.}.}.}.}.}.}.}.}.}.}.}.}.}.}.}.}.}.}.}.}.|.|.|.}.}.[.[.[.[.[.}.[.}.}.[.[.[.}.}.[.[.",
"[.[.[.[.[.[.[.[.[.[.[.[.[.[.}.}.}.}.}.}.}.}.}.}.}.}.}.}.}.}.}.}.}.}.}.}.}.}.}.}.}.}.}.}.}.}.}.}.[.[.[.[.[.}.[.}.}.[.[.[.}.}.[.[.",
"[.[.[.[.[.[.[.[.[.[.[.[.[.[.[.}.}.}.}.}.}.}.}.}.}.}.}.}.}.}.}.}.}.}.}.}.}.}.}.}.}.}.}.}.}.}.}.}.[.[.[.[.}.}.}.}.}.[.[.[.}.}.}.[.",
"}.}.}.[.[.[.[.[.[.[.[.[.[.[.[.[.[.[.[.[.[.[.[.[.[.[.}.}.}.}.}.}.}.}.}.}.}.}.}.}.}.}.}.}.}.}.}.}.}.}.}.}.}.}.}.}.}.}.}.}.}.}.}.}.",
"}.}.}.[.[.[.[.[.[.[.[.[.[.[.[.[.[.[.[.[.[.[.[.[.[.[.}.}.}.}.}.}.}.}.}.}.}.}.}.}.}.}.}.}.}.}.}.}.}.}.}.}.}.}.}.}.}.}.}.}.}.}.}.}.",
"}.}.}.[.[.[.[.[.[.[.[.[.[.[.[.[.[.[.[.[.[.[.[.[.[.}.}.}.}.}.}.}.}.}.}.}.}.}.}.}.}.}.}.}.}.}.}.}.}.}.}.}.}.}.}.}.}.}.}.}.}.}.}.}.",
"}.}.}.[.[.[.[.[.[.[.[.[.[.[.}.}.}.}.}.}.|.|.}.|.}.}.}.}.}.}.}.}.}.}.}.}.}.}.}.}.}.}.}.}.}.}.}.}.}.}.}.}.}.}.}.}.}.}.}.}.}.}.}.}.",
"}.}.}.[.[.[.[.[.[.[.[.[.[.[.}.}.}.}.}.}.|.}.}.}.}.}.}.}.}.}.}.}.}.}.}.}.}.}.}.}.}.}.}.}.}.}.}.}.}.}.}.}.}.}.}.}.}.}.}.}.}.}.}.}.",
"}.}.}.[.[.[.[.[.[.[.[.[.[.[.[.[.[.[.}.}.}.}.}.}.}.}.}.}.}.}.}.}.}.}.}.}.}.}.}.}.}.}.}.}.}.}.}.}.}.}.}.}.}.}.}.}.}.}.}.}.}.}.}.}."
};
