/* XPM */
static char *c8c11a4ddc7f4bfec66424a2da6e931eqY3wPgy0ZMEPXjcx[] = {
/* columns rows colors chars-per-pixel */
"64 64 241 2 ",
"   c #1D191A",
".  c #371D0C",
"X  c #28191A",
"o  c #371719",
"O  c #2B150D",
"+  c #1B211E",
"@  c #2A231D",
"#  c #35241A",
"$  c #1E1B23",
"%  c #291527",
"&  c #380D3A",
"*  c #2A1038",
"=  c #381934",
"-  c #380F2F",
";  c #2C2225",
":  c #2C2B2B",
">  c #272728",
",  c #332324",
"<  c #38282A",
"1  c #2A2733",
"2  c #352635",
"3  c #343533",
"4  c #393838",
"5  c #2F3332",
"6  c #4D130B",
"7  c #731C13",
"8  c #482618",
"9  c #5B2C17",
"0  c #493219",
"q  c #533718",
"w  c #69271A",
"e  c #7A271C",
"r  c #743017",
"t  c #591D38",
"y  c #49142C",
"u  c #6B1F22",
"i  c #7A1B2D",
"p  c #553A2C",
"a  c #4C2433",
"s  c #562A39",
"d  c #593637",
"f  c #48312D",
"g  c #642929",
"h  c #683428",
"j  c #692639",
"k  c #782638",
"l  c #693736",
"z  c #773937",
"x  c #792D29",
"c  c #3D443E",
"v  c #56441F",
"b  c #70481B",
"n  c #47443B",
"m  c #5A4A3A",
"M  c #774A29",
"N  c #694738",
"B  c #7A4939",
"V  c #705439",
"C  c #390E43",
"Z  c #3B3144",
"A  c #4A0849",
"S  c #53104D",
"D  c #751D57",
"F  c #661A55",
"G  c #562D4B",
"H  c #682646",
"J  c #7D2644",
"K  c #692F4F",
"L  c #7D1C60",
"P  c #3C4347",
"I  c #474847",
"U  c #5A4C46",
"Y  c #4A534C",
"T  c #535149",
"R  c #4B4A56",
"E  c #534E56",
"W  c #4D5152",
"Q  c #475356",
"!  c #515252",
"~  c #775845",
"^  c #6F4F49",
"/  c #7A6752",
"(  c #786E74",
")  c #5B516B",
"_  c #8A1E1D",
"`  c #89191F",
"'  c #911A10",
"]  c #9B381B",
"[  c #942714",
"{  c #B83919",
"}  c #A5270A",
"|  c #891A29",
" . c #873A29",
".. c #973724",
"X. c #872837",
"o. c #843B35",
"O. c #922E2E",
"+. c #B0302C",
"@. c #C43511",
"#. c #E63F03",
"$. c #EB3D02",
"%. c #E93E0F",
"&. c #DB3721",
"*. c #87441A",
"=. c #96441A",
"-. c #A54017",
";. c #88492A",
":. c #9B4A2A",
">. c #864C34",
",. c #8A4C34",
"<. c #834D3A",
"1. c #8A4939",
"2. c #914B39",
"3. c #8B563D",
"4. c #93573C",
"5. c #955B39",
"6. c #985127",
"7. c #B6542B",
"8. c #A65438",
"9. c #B34726",
"0. c #956325",
"q. c #99653D",
"w. c #8E6B2D",
"e. c #A97730",
"r. c #CE4A0C",
"t. c #D9470A",
"y. c #DC510B",
"u. c #C9491A",
"i. c #D24813",
"p. c #D54517",
"a. c #CA571D",
"s. c #D85919",
"d. c #E44203",
"f. c #EB4102",
"g. c #E3420A",
"h. c #E14C09",
"j. c #E35B16",
"k. c #E24510",
"l. c #DC651D",
"z. c #C44C23",
"x. c #C35327",
"c. c #D9412E",
"v. c #E45026",
"b. c #D66929",
"n. c #C56A3B",
"m. c #CF6B2E",
"M. c #E96826",
"N. c #F47A2C",
"B. c #EC7737",
"V. c #F47A37",
"C. c #EC6E26",
"Z. c #E8671C",
"A. c #822746",
"S. c #873C47",
"D. c #893855",
"F. c #961E49",
"G. c #874B46",
"H. c #954746",
"J. c #8D5A43",
"K. c #8D5742",
"L. c #925543",
"P. c #995B45",
"I. c #965847",
"U. c #9A4856",
"Y. c #935A57",
"T. c #B3514B",
"R. c #9C6343",
"E. c #946648",
"W. c #9A6A55",
"Q. c #8C704D",
"!. c #A56F42",
"~. c #A36448",
"^. c #B86945",
"/. c #A57042",
"(. c #AD7347",
"). c #A96A54",
"_. c #A87553",
"`. c #BA7A5D",
"'. c #B9734D",
"]. c #B35577",
"[. c #9A7878",
"{. c #91786B",
"}. c #B67962",
"|. c #AB746B",
" X c #CC774B",
".X c #E57846",
"XX c #C2726D",
"oX c #A98638",
"OX c #B3852C",
"+X c #C99E19",
"@X c #CA9036",
"#X c #FB973B",
"$X c #F2843C",
"%X c #D5A92E",
"&X c #E2BB3A",
"*X c #E0C02F",
"=X c #AF8453",
"-X c #AD867B",
";X c #B8956C",
":X c #968563",
">X c #C88846",
",X c #D7864A",
"<X c #D58E53",
"1X c #FB8B45",
"2X c #FB9344",
"3X c #F99646",
"4X c #FB8F54",
"5X c #EA9A57",
"6X c #F69457",
"7X c #EA884C",
"8X c #C6A749",
"9X c #D3AE4F",
"0X c #E5BC44",
"qX c #EABF51",
"wX c #DC9A64",
"eX c #CD8E6E",
"rX c #D6A874",
"tX c #D9A261",
"yX c #E9A76E",
"uX c #EDC94B",
"iX c #FCD94C",
"pX c #FCD954",
"aX c #EFC954",
"sX c #EBC86D",
"dX c #727380",
"fX c #927B85",
"gX c #8E8B8B",
"hX c #BE8F95",
"jX c #AC998C",
"kX c #B4B1B5",
"lX c #B6B49F",
"zX c #D5B594",
"xX c #E3BA88",
"cX c #E6BB95",
"vX c #E1BDA7",
"bX c #CB9B85",
"nX c #F4C48D",
"mX c #CFC4BB",
"MX c #ECD0AA",
"NX c #CDCDD5",
"BX c #EEE5E7",
/* pixels */
"/./././.!.!.!.!.!.!.!.!.!.!.!.!.!.!.!.!.!.!./././././././././././././././.!.!.!././././././././././././././././././././././././.",
"/././.!.!.!.!.!.!.!.!.!.!.!.!.!.!.!.!.!.!.!.!.!.!.!.!.!.!.!.!.!.!.!.!.!.!./././././././././././././././././././././././././.!.!.",
"/././.!.!.!.!.!.!.!.!.!.!.!.!.!.!.!.!.!.!.!.!.!.!.!.!.!.!.!.!.!.!.!.!.!.!./././././././././././././././././././././././././.!.!.",
"/././.!.!.!.!.!.!.!.!.!.!.!.!.!.!.!.!.!.!.!.!.!.!.!.!.!.!.!.!.!.!.!.!.!.!./././././././././././././././././././././././././.!.!.",
"/././.!.!.!.!.!.!.!.!.!.!.!.!.!.!.!.!.!.!.!.!.!.!.!.!.!.!.R.R.!.!.!.I.R.!./././././././././././././././././././././././././.!.!.",
"/././.!.!.!.!.!.!.!.!.!.!.!.!.!.!.!.!.!.!.!.!.!.!.!.!.!.!.G.z q.!.R.H G.!./././././././././././././././././././././././././.!.!.",
"/././.!.!.!.!.!.!.!.!.!.!.!.!./././././././.!.!.~.].].).!.<.B z 4.z s <.I.G.!././././././././././././././././././.!.!.!.!.!.!.!.",
"/./.!.!.!.!.!.!.!.!.!.!.!.!././././././././.!.!.U.L D U.).<.q.e.M W.h M t K !././././././././././././././././././.!.!.!.!.!.!.!.",
"/./.!.!.!.!.!.!.!.!.!.!.!.!././././././././.!.!.).U.Y.<.M 0 0.qX%X@X0.b J.g /././././././././././././././././././.!.!.!.!.!.!.!.",
"/./.!.!.!.!.!.!.!.!.!.!.!.!././././././././.!.!.!.4.<.=XsX=Xe.0XuX&X0XuXe.M >.q./././././././././././././././././.!.!.!.!.!.!.!.",
"/./.!.!.!.!.!.!.!.!.!.!.!.!././././././././.!.U.j g 6 0.&XaXuXiXiXiXpXpXaX8XE.z G././././././././././././././././.!.!.!.!.!.!.!.",
"/./.!.!.!.!.!.!.!.!.!.!.!.!././././././././.!.I.D Y.0.OX%XiXiXiX&XpX0X8XsXoXl B P././././././././././././././././.!.!.!.!.!.!.!.",
"/./.!.!.!.!.!.!.!.!.!.!.!.!.!.!.!.!.!.!.!.!././.4.o.OX@X+X*XuXOXw.=X0 O v ;Xz >././././././././././././././././././././././.!.!.",
"/./.!.!.!.!.!.!.!.!.!.!.!.!.!.!.!.!.!.!.!.!./././.>.M oX0XpXoX0 O     4 n Q.E.B P./././././././././././././././././././././.!.!.",
"/./.!.!.!.!.!.!.!.!.!.!.!.!.!.!.!.!.!.!.!.!.!.!./.>.. w.sXoXq @ ( ( dXkXmX{.d B P././././././././././././././././././././././.!.",
"/././.!.!.!.!.!.!.!.!.!.!.!.!.!.!.!.!.!.!.!././.I.D.R.M 8XQ.m : NXkXNXBXkX( l R././././././././././././././././././././././././.",
"/././.!.!.!.!.!.!.!.!.!.!.!.!.!.!.!.!.!.!.!./.P.A.}.'.@Xb 0 < ; gXgXfXN 8 X A G././././././././././././././././././././././././.",
"/././.!.!.!.!.!.!.!.!.!.!.!.!.!.!.!.!.!.!.!./.H.S.S.8.>X>Xq.9 p   , d W.U 2 F I././././././././././././././././././././././././.",
"/././.!.!.!.!.!.!.!.!.!././././././././././.!.!.R.H.o.8.$Xm.,Xq.gXU E.zXjX) ~ /././././././././././././././././././././././././.",
"/././.!.!.!.!.!.!.!.!./././././././././././.!.!.!.!.j u ,Xb.yXrXmX/ ;XMXzX/ <./././././././././././././././././././././././././.",
"/./././.!.!.!.!.!.!.!./././././././././././.!.!.!./.H - J.^.n.tXxXxXrXwXeXG.4./././././././././././././././././././././././././.",
"/./././././././././././././././././././././.!.!./.R.S a 8 8 '.m.<XyX<X<X .z /./././././././././././././././././././././././././.",
"/./././././././././././././././././././././.!.!./.G.* B < @ 0 9  XeXeX>.8 N /./././././././././././././././././././././././././.",
"/./././././././././././././././././././././././.I.F * 2 > > @ @ 9 h h 8 % < s J././././././././././././././././././././././././.",
"/./././././././././././././././././././././././.G.C 2 I ! I : > , , ; > 3 W Z Z I./././.!./.!.!././././././././././././././././.",
"/././././././././././././././././././.3.B B <.~ K C I W W ! 4 3 > : ; > c ! I I K K././.!./.!.!.R.G.1.1././././././././././././.",
"/./././././././././././././././././.B [.jX[.s X 1 5 W W 4 ! W ! I n n n ! W 3 P R G K./.!.!.!.S.t j |.hXz /././././././././././.",
"/././././././././././././././././.4.[.vXbX|.|.jX> P I n 3 E E Q W Y ! W ! ! : c E G a s s G s y hXW._.eXU.S././././././././././.",
"/././././././././././././././././.>.;XnXyX_.=XxX< R 2 ; < m U U U T T U N p X X 3 3 : 3 Y Q P ; cX`._.yXXXk /./././././././././.",
"/././././././././././././././././.>.}.nXtX(.5.Q.< Z $   8 M q.E.~ m U / q.>.8 % > > 4 I Y Q Q < ).P.(.>XXXk /././././././././.!.",
"/././././././././././././././././.,.L.wX5X,X~.9 X $   O :.x.7X6X}.N m =X6X.Xu l * % 1 3 3 3 4 o =.7.,X5X}.j /./././././././.!.!.",
"/././././././././././././././././.q.x T.7X,X`.g % % p 8 7.t.j.$X`.N m =X2XB.i 1.B K C & = 2 = o n.m.7X7XU.k /./././././././.!.!.",
"/././././././././././././././././././.1.U.H.z 4.S A G./.7 s.h.r.;.8 p ^.t.t.| 2.!.!./.D.H H H j k U.H.U.o.!././././././././.!.!.",
"/./././././././././././././././././././.k k 4.!.G.S G./.7 b.C.l.6.6 8 =.t.i.` 2.!./././././././.L.k k k /./././././././././.!.!.",
"/./././././././././././././././././././././././.R.D.U.o.] s.#X3X,X(.W.'.B.M.-. .!.!././././././././././././././././././././.!.!.",
"/././././././././././././././././.!.!.!.!.!.!.!.!.~.~.x z.y.N.#X6XwX_.5.6X1X.XX.!.!.!.!.!.!.!.!.!.!.!.!.!./././.!.!.!.!.!.!.!.!.",
"/././././././././././././././././.!.!.!.!.!.!.!.!.!./.k  .] =.*.*.r 8 . M *.M t !.!.!.!.!.!.!.!.!.!.!.!.!.!.!.!.!.!.!.!.!.!.!.!.",
"/././././././././././././././././.!.!.!.!.!.!.!.!.!.!.H , o # # # < < @ # # , - !.!.!.!.!.!.!.!.!.!.!.!.!.!.!.!.!.!.!.!.!.!.!.!.",
"/././././././././././././././././.!.!.!.!.!.!.!.!.!./.H 1 1 > > 2 2 1 1 1 > ; y !.!.!.!.!.!.!.!.!.!.!.!.!.!.!.!.!.!.!.!.!.!.!.!.",
"/././././././././././././././././.!.!.!.!.!.!.!.!.!.!.H X O . . o o X X X o o y !.!.!.!.!.!.!.!.!.!.!.!.!.!.!.!.!.!.!.!.!.!.!.!.",
"/./././././././././././././././././.!.!.!.!.!.!.!.!./.x '.n.m.m.m.n.r 6.b.a.8.i !.!.!.!.!.!.!.!.!.!.!.!.!.!.!.!.!.!.!.!.!.!.!.!.",
"/././././././././././././././././././././././.!.!.!.P.O.6X4X2X2X2X4X..7.B.M.7.i !.!.!.!.!.!.!.!.!.!.!.!.!.!.!.!.!.!.!.!.!.!.!.!.",
"/./././././././././././././././././././././././././.k T.2X3X2XC.j.l.9.[ } t.x.| !.!.!.!.!.!.!.!.!.!.!.!.!.!.!.!.!.!.!.!.!.!.!.!.",
"/./././././././././././././././././././././././.!.!.w  X#X3X2X$Xt.i.[ } @.t.z.| !.!.!.!.!.!.!.!.!.!.!.!.!.!.!.!.!.!.!.!.!.!.!.!.",
"/./././././././././././././././././././././././.!.1.L.<X#X#X2Xl.u.' ] u.f.g.z._ !.!.!.!.!.!.!.!.!.!.!.!.!.!.!.!.!.!.!.!.!.!.!.!.",
"/./././././././././././././././././././././././.!.,.).5X3X2XV.s.] 6 ..u.d.d.z._ !.!.!.!.!.!.!.!.!.!.!.!.!.!.!.!.!.!.!.!.!.!.!.!.",
"/./././././././././././.!./././././././././././.P.X. X3X2XV.h.t.] 6 ] u.#.g.z._ /././././.!.!.!.!.!.!.!.!.!.!.!.!.!.!.!././././.",
"/././././././././././.!.!.!././././././././././.2.O.1X2X1XV.d.t.e r ] p.#.g.u._ /./././././.!.!.!.!.!.!.!.!.!.!.!.!.!.!././././.",
"/././././././././././.!.!.!././././././././././.o.:.2X#XN.i.p.{  .;.] i.f.d.u._ /./././././.!.!.!.!.!.!.!.!.!.!.!.!.!.!././././.",
"/././././././././././.!.!.!././././././././././.k  X2X#XZ.i.u.' !.;.] i.#.#.z._ /./././././.!.!.!.!.!.!.!.!.!.!.!.!.!.!././././.",
"/././././././././././.!.!.!././././././././././. .5XC.j.t.r.7.` !.2.O.u.d.g.u.' /./././././.!.!.!.!.!.!.!.!.!.!.!.!.!.!././././.",
"/././././././././././.!.!.!./././././././././.o.7.$Xy.d.t.i.[  .!.R.X.+.d.#.t.@.H./././././.!.!.!.!.!.!.!.!.!.!.!.!.!.!././././.",
"!.!.!.!.!.!.!.!.!.!.!.!.!.!././././././././.!.w 4XN.d.#.k.p.| 2././.k +.$.f.f.&.X./././././././.!.!.!.!.!./.!.!.!.!.!.!././.!.!.",
"!.!.!.!.!.!.!.!.!.!.!.!.!.!././././././././.L.z .XM.f.$.p.{ X.P././.J +.$.$.$.v.X./././././././.!.!.!.!.!./.!.!.!.!.!.!././.!.!.",
"!.!.!.!.!.!.!.!.!.!.!.!.!.!././././././././.g ).i.#.$.f.i.] 2./././.A.+.$.$.f.&.A./././././././.!.!.!.!.!./.!././.!.!.!././.!.!.",
"!.!.!.!.!.!.!.!.!.!.!.!.!.!./././././././.!.e ^.t.f.$.$.u...,./././.J +.g.d.g.c.A./././././././.!.!.!.!.!./.!././.!.!.!././.!.!.",
"!.!.!.!.!.!.!.!.!.!.!.!.!.!./././././././.1...i.d.d.g.g.+.e /./././.J A.-.a.a.+.S./././././././.!.!.!.!.!./.!././.!.!.!././.!.!.",
"!.!.!.!.!.!.!.!.!.!.!.!.!.!.!././././././.>.e x..Xm.{ +.F.J /./././.S.k u :.6.w 3./././././././.!.!.!.!./././././.!.!.!./././.!.",
"/././.!.!.!.!.!.!.!.!.!.!.!.!.!.!.!.!.!.!.<.a |.-X^ y z H.I././././././.A y f n < B /./././././././././././././././././././././.",
"/././.!.!.!.!.!.!.!.!.!.!.!.!.!.!.!.!.!.3.a d [.{.f - <././././././././.A 2 n T 4 2 3./././././././././././././././././././././.",
"/././.!.!.!.!.!.!.!.!.!.!.!.!.!.!.!.!.!.l a :XjXgXI C G././././././././.A 1 3 I {.Q.^ <././././././././././././././././././././.",
"/././.!.!.!.!.!.!.!.!.!.!.!././././././.t Y.jXlXgX4 C G././././././././.A 2 1 ; MXcXyXW.L./././././././././././././././././././.",
"/././.!.!.!.!.!.!.!.!.!.!.!./././././.z -XbXzXzXzX^ & G././././././././.A * 1 ; U V N ^ H /./.!././././././././././././././././.",
"/././.!.!.!.!.!.!.!.!.!.!.!.!.!.!.!./.j N M M M V p & G././././././././.G.B < $ +   % & L.!.!.!././././././././././././././././."
};
