/* XPM */
static char *result[] = {
/* columns rows colors chars-per-pixel */
"64 64 254 2 ",
"   c #1B1605",
".  c #1C1414",
"X  c #361809",
"o  c #291716",
"O  c #381817",
"+  c #320C0B",
"@  c #322817",
"#  c #1B1D25",
"$  c #160C27",
"%  c #290A27",
"&  c #35082A",
"*  c #281826",
"=  c #361B28",
"-  c #380A3C",
";  c #2A1935",
":  c #371734",
">  c #290D35",
",  c #2A2528",
"<  c #372627",
"1  c #342734",
"2  c #2E3234",
"3  c #383739",
"4  c #30312D",
"5  c #1B2326",
"6  c #481608",
"7  c #531712",
"8  c #6B0B03",
"9  c #7A1312",
"0  c #4C2816",
"q  c #572817",
"w  c #53300D",
"e  c #752B15",
"r  c #653717",
"t  c #6C310D",
"y  c #4A1329",
"u  c #541A29",
"i  c #460639",
"p  c #561535",
"a  c #75182B",
"s  c #76083C",
"d  c #6B112F",
"f  c #4A2E2D",
"g  c #572C27",
"h  c #493529",
"j  c #483639",
"k  c #573234",
"l  c #6C3723",
"z  c #763733",
"x  c #6D3131",
"c  c #6D510C",
"v  c #5A4A38",
"b  c #534D38",
"n  c #78553C",
"m  c #704B32",
"M  c #4D4117",
"N  c #320F44",
"B  c #383D41",
"V  c #3F2E40",
"C  c #580747",
"Z  c #451245",
"A  c #580B52",
"S  c #4E0F4B",
"D  c #75055A",
"F  c #681C59",
"G  c #731856",
"H  c #6E0F47",
"J  c #492A47",
"K  c #582954",
"L  c #53314E",
"P  c #6B2547",
"I  c #772543",
"U  c #792B5A",
"Y  c #551066",
"T  c #760768",
"R  c #661763",
"E  c #790D71",
"W  c #722771",
"Q  c #592963",
"!  c #3F4644",
"~  c #4B4C4C",
"^  c #474749",
"/  c #534A4B",
"(  c #49524E",
")  c #55554B",
"_  c #494A54",
"`  c #574B56",
"'  c #4D5356",
"]  c #545254",
"[  c #585656",
"{  c #785B5A",
"}  c #6F4E49",
"|  c #6D695B",
" . c #7B7973",
".. c #5D4F69",
"X. c #890516",
"o. c #880805",
"O. c #B31C13",
"+. c #8D290F",
"@. c #B23810",
"#. c #890027",
"$. c #840535",
"%. c #980439",
"&. c #8F1A2C",
"*. c #A81C29",
"=. c #AB163C",
"-. c #953936",
";. c #902733",
":. c #A5363D",
">. c #AF322E",
",. c #D93D01",
"<. c #D83B17",
"1. c #E43C01",
"2. c #E83D06",
"3. c #E23D1A",
"4. c #DA3D25",
"5. c #C53836",
"6. c #C73828",
"7. c #BC4B1A",
"8. c #BA5317",
"9. c #926A15",
"0. c #885637",
"q. c #965B35",
"w. c #8D4B2D",
"e. c #BE4A29",
"r. c #B9522B",
"t. c #BE4734",
"y. c #AE4D2D",
"u. c #916F2D",
"i. c #B56A3F",
"p. c #A6752D",
"a. c #9A5C1C",
"s. c #CD4907",
"d. c #DC4301",
"f. c #D94708",
"g. c #C74815",
"h. c #D84615",
"j. c #D75716",
"k. c #D25908",
"l. c #E44401",
"z. c #EB4502",
"x. c #E74709",
"c. c #E24918",
"v. c #EB530F",
"b. c #C44B27",
"n. c #D74329",
"m. c #CA5427",
"M. c #D8593A",
"N. c #CA4E34",
"B. c #C66928",
"V. c #CD7638",
"C. c #D36E30",
"Z. c #F97627",
"A. c #E97230",
"S. c #E56322",
"D. c #980457",
"F. c #8A0F50",
"G. c #A10B4F",
"H. c #8F3153",
"J. c #8F1074",
"K. c #AA0F6F",
"L. c #902470",
"P. c #B02A74",
"I. c #A52548",
"U. c #855942",
"Y. c #AB554A",
"T. c #947051",
"R. c #B36548",
"E. c #B6764A",
"W. c #A56C54",
"Q. c #BA7A59",
"!. c #AC724E",
"~. c #996B65",
"^. c #8F7573",
"/. c #A87069",
"(. c #A14C77",
"). c #C85048",
"_. c #CA6647",
"`. c #DB7646",
"'. c #CB7850",
"]. c #E57744",
"[. c #E57555",
"{. c #A88734",
"}. c #AF9119",
"|. c #CD9131",
" X c #FB883A",
".X c #FF913C",
"XX c #FC953A",
"oX c #C8AB32",
"OX c #EAB73A",
"+X c #C8931F",
"@X c #BC9844",
"#X c #B18653",
"$X c #90857C",
"%X c #AE8F75",
"&X c #BAA168",
"*X c #C98B53",
"=X c #D98A56",
"-X c #D08B4F",
";X c #FD8C46",
":X c #EF9448",
">X c #FC994C",
",X c #FD9643",
"<X c #E78557",
"1X c #F99B57",
"2X c #E89052",
"3X c #CFAD54",
"4X c #D79769",
"5X c #D58C65",
"6X c #FB9864",
"7X c #E69A69",
"8X c #D1A16F",
"9X c #E7A775",
"0X c #F3AB77",
"qX c #F7B97A",
"wX c #ECA96C",
"eX c #E7BC4C",
"rX c #DDC040",
"tX c #FADA47",
"yX c #EBC856",
"uX c #FCD856",
"iX c #F1D652",
"pX c #FDE25D",
"aX c #FCD666",
"sX c #EFC969",
"dX c #7E328D",
"fX c #771794",
"gX c #880188",
"hX c #8F1488",
"jX c #AF0584",
"kX c #842788",
"lX c #8E2F8D",
"zX c #A100A1",
"xX c #CB2697",
"cX c #CB0AAB",
"vX c #8657AF",
"bX c #AA5291",
"nX c #D64485",
"mX c #8F908F",
"MX c #B69A88",
"NX c #AE958F",
"BX c #BCAD9B",
"VX c #C7A583",
"CX c #D5B095",
"ZX c #EBB290",
"AX c #D3B8A6",
"SX c #D59289",
"DX c #F8CC91",
"FX c #D6C4B0",
"GX c #EEC7AC",
"HX c #FFE7BF",
"JX c #BBC1C1",
"KX c #E6DFE4",
"LX c #EBE4DE",
"PX c None",
/* pixels */
"PXPXPXPXPXPXPXPXPXPXPXPXPXPXPXPXPXPXPXPXPXPXPXPXPXPXPXPXPXPXA PXPXPXPXT PXPXPXPXPXPXPXPXPXPXPXPXPXPXPXPXPXPXPXPXPXPXPXPXPXPXPXPX",
"PXPXPXPXPXPXPXPXPXPXPXPXPXPXPXPXPXPXPXPXPXPXPXPXPXPXPXPXPXPXp P PXPXF C PXPXPXPXPXPXPXPXPXPXPXPXPXPXPXPXPXPXPXPXPXPXPXPXPXPXPXPX",
"PXPXPXPXPXPXPXPXPXPXPXPXPXPXPXPXPXPXPXPXPXPXPXPXPXT J.PXPXPXx W.m z /.g PXT zXPXPXPXPXPXPXPXPXPXPXPXPXPXPXPXPXPXPXPXPXPXPXPXPXPX",
"PXPXPXPXPXPXPXPXPXPXPXPXPXPXPXPXPXPXPXPXPXPXPXPXPXP k x d d w 3Xp.#X#XX m P J.PXPXPXPXPXPXPXPXPXPXPXPXPXPXPXPXPXPXPXPXPXPXPXPXPX",
"PXPXPXPXPXPXPXPXPXPXPXPXPXPXPXPXPXPXPXPXPXPXPXPXPXPX} W.4X9.c 3XaXoX3X{.*X0.I PXPXPXPXPXPXPXPXPXPXPXPXPXPXPXPXPXPXPXPXPXPXPXPXPX",
"PXPXPXPXPXPXPXPXPXPXPXPXPXPXPXPXPXPXPXPXPXPXPXPXPXPXl p.yXyX}.rXtXuXuXaXyX@Xm d PXPXPXPXPXPXPXPXPXPXPXPXPXPXPXPXPXPXPXPXPXPXPXPX",
"PXPXPXPXPXPXPXPXPXPXPXPXPXPXPXPXPXPXPXPXPXPXPXi y g t 9.|.uXtXiXtXtXuXuXaXqX#X/.J.gXPXPXPXPXPXPXPXPXPXPXPXPXPXPXPXPXPXPXPXPXPXPX",
"PXPXPXPXPXPXPXPXPXPXPXPXPXPXPXPXPXPXPXPXPXPXPXPXK ~.*X+X+XOXpXiXoXyXyX9.u.3Xu.6 PXPXPXPXPXPXPXPXPXPXPXPXPXPXPXPXPXPXPXPXPXPXPXPX",
"PXPXPXPXPXPXPXPXPXPXPXPXPXPXPXPXPXPXPXPXPXPXPXPXPXI E.{.}.OXaX}.c T.n   . M &Xl PXPXPXPXPXPXPXPXPXPXPXPXPXPXPXPXPXPXPXPXPXPXPXPX",
"PXPXPXPXPXPXPXPXPXPXPXPXPXPXPXPXPXPXPXPXPXPXPXPXPXI 6 }.yXaX@Xw       4 | | %X~.G gXPXPXPXPXPXPXPXPXPXPXPXPXPXPXPXPXPXPXPXPXPXPX",
"PXPXPXPXPXPXPXPXPXPXPXPXPXPXPXPXPXPXPXPXPXPXPXPXPXG + u.sX@Xw @ ~ mX^.mXLXFX{ K kXPXPXPXPXPXPXPXPXPXPXPXPXPXPXPXPXPXPXPXPXPXPXPX",
"PXPXPXPXPXPXPXPXPXPXPXPXPXPXPXPXPXPXPXPXPXPXPXPXPXH.#Xc p.p.b 4 mXJXKXKXJXNXL Q PXPXPXPXPXPXPXPXPXPXPXPXPXPXPXPXPXPXPXPXPXPXPXPX",
"PXPXPXPXPXPXPXPXPXPXPXPXPXPXPXPXPXPXPXPXPXPXPXPXP Q.#X|.c w X @  .mXBX^.k y % S PXPXPXPXPXPXPXPXPXPXPXPXPXPXPXPXPXPXPXPXPXPXPXPX",
"PXPXPXPXPXPXPXPXPXPXPXPXPXPXPXPXPXPXPXPXPXPXPXE U z w.'.=X!.c 0 5 , j } T.v = Y PXPXPXPXPXPXPXPXPXPXPXPXPXPXPXPXPXPXPXPXPXPXPXPX",
"PXPXPXPXPXPXPXPXPXPXPXPXPXPXPXPXPXPXPXPXPXPXPXPXPXD -.Y.<X`.|.!.^.] } MXCX^.L kXPXPXPXPXPXPXPXPXPXPXPXPXPXPXPXPXPXPXPXPXPXPXPXPX",
"PXPXPXPXPXPXPXPXPXPXPXPXPXPXPXPXPXPXPXPXPXPXPXPXPXPXD 7 '.C.2XwXGXNXn CXHXAXU PXPXPXPXPXPXPXPXPXPXPXPXPXPXPXPXPXPXPXPXPXPXPXPXPX",
"PXPXPXPXPXPXPXPXPXPXPXPXPXPXPXPXPXPXPXPXPXPXPXPXPXPXR + Y.5XV.1XDXZXZXZX0XSXU PXPXPXPXPXPXPXPXPXPXPXPXPXPXPXPXPXPXPXPXPXPXPXPXPX",
"PXPXPXPXPXPXPXPXPXPXPXPXPXPXPXPXPXPXPXPXPXPXPXPXPXPXR & u q i.<X'.0X2X-X4X-.F.PXPXPXPXPXPXPXPXPXPXPXPXPXPXPXPXPXPXPXPXPXPXPXPXPX",
"PXPXPXPXPXPXPXPXPXPXPXPXPXPXPXPXPXPXPXPXPXPXPXPXPXPXN Q W & 0 0.#XwXqX8Xz d PXPXPXPXPXPXPXPXPXPXPXPXPXPXPXPXPXPXPXPXPXPXPXPXPXPX",
"PXPXPXPXPXPXPXPXPXPXPXPXPXPXPXPXPXPXPXPXPXPXPXPXPXY - V V ; 1 X w w.a.m O & R PXPXPXPXPXPXPXPXPXPXPXPXPXPXPXPXPXPXPXPXPXPXPXPXPX",
"PXPXPXPXPXPXPXPXPXPXPXPXPXPXPXPXPXPXPXPXPXPXPXPXPX$ # B 3 3 , , @ o X X , 1 J Z F PXPXPXPXPXPXPXPXPXPXPXPXPXPXPXPXPXPXPXPXPXPXPX",
"PXPXPXPXPXPXPXPXPXPXPXPXPXPXPXPXPXPXPXPXPXPXPXPXPX# B ! ) ~ 3 1 2 , , < , B [ _ L A PXPXPXPXPXPXPXPXPXPXPXPXPXPXPXPXPXPXPXPXPXPX",
"PXPXPXPXPXPXPXPXPXPXPXPXPXPXPXPXPXPXPXz I G A i = 3 ^ ' ( ' ] ^ 3 , 3 # 2 ' b 3 ` L R PXPXPXPXPXPXPXE C G P.PXPXPXPXPXPXPXPXPXPX",
"PXPXPXPXPXPXPXPXPXPXPXPXPXPXPXPXPXPX#XDXZX%Xk j , 3 [ ^ B ( / ] / ~ ^ ( ' ^ ] 4 ^ ..L Y PXPXPXPXW C k ~.CXbXU.PXPXPXPXPXPXPXPXPX",
"PXPXPXPXPXPXPXPXPXPXPXPXPXPXPXPXPX0.DXqX8Xl VXFX4 ! 3 2 2 ' ] ` ( [ ( ( ' _ _ , 3 ~ _ ; ; N N S % bXGXc E.4XW.I.PXPXPXPXPXPXPXPX",
"PXPXPXPXPXPXPXPXPXPXPXPXPXPXPXPXPXu.0XDXZXr 8X&X@ ( 4 5 O h v v b v ) ) ) / j o , 2 2 5 ! ' ` / 1 U.GXt *XZX'.H.PXPXPXPXPXPXPXPX",
"PXPXPXPXPXPXPXPXPXPXPXPXPXPXPXPXPXw.wXqX9XE.m m < 4 5 o 0 w.R.!.W.n b n /.Q.U.7 ; * , 2 ! _ ( ' j h 0.q.=X9Xi.H.PXPXPXPXPXPXPXPX",
"PXPXPXPXPXPXPXPXPXPXPXPXPXPXPXPXPXY.].1X2X5Xq.X O * * O +.r.`.1X9Xn b | 7X6X_.8 P Z : ; V V 3 3 1 f w.i.=X0XY.bXPXPXPXPXPXPXPXPX",
"PXPXPXPXPXPXPXPXPXPXPXPXPXPXPXPXPXPXN.S.:X-X!.O % * J p y.e.g.A.1Xq.v n 7XXXC.9 PXPXJ.A - ; 1 = * z R.[.[.<X:.PXPXPXPXPXPXPXPXPX",
"PXPXPXPXPXPXPXPXPXPXPXPXPXPXPXPXPXPXPXM.m.M.H.PX- % F PX9 7.f.s.7.e m n V.k.8.X.PXPXPXPXE A A S C d :.).).5.nXPXPXPXPXPXPXPXPXPX",
"PXPXPXPXPXPXPXPXPXPXPXPXPXPXPXPXPXPXPXPXPXPXPXPXPX& F PX8 b.;XS.B.9 6 0 8.s.8.X.PXPXPXPXPXPXPXPXPXPXP.D.D.xXPXPXPXPXPXPXPXPXPXPX",
"PXPXPXPXPXPXPXPXPXPXPXPXPXPXPXPXPXPXPXPXPXPXPXPXPXA W PX+.m.;X;X>Xr.U.} V.A.m.*.jXPXPXPXPXPXPXPXPXPXPXPXPXPXPXPXPXPXPXPXPXPXPXPX",
"PXPXPXPXPXPXPXPXPXPXPXPXPXPXPXPXPXPXPXPXPXPXPXPXPXPXPXs @.f.Z..XXX1X8XT.'.1X X[.F.PXPXPXPXPXPXPXPXPXPXPXPXPXPXPXPXPXPXPXPXPXPXPX",
"PXPXPXPXPXPXPXPXPXPXPXPXPXPXPXPXPXPXPXPXPXPXPXPXPXPXPXH >.g.8.B.B.i.m 0 r i.r._.s PXPXPXPXPXPXPXPXPXPXPXPXPXPXPXPXPXPXPXPXPXPXPX",
"PXPXPXPXPXPXPXPXPXPXPXPXPXPXPXPXPXPXPXPXPXPXPXPXPXPXPXT u 0 q q w 0 @ o = g 0 q p PXPXPXPXPXPXPXPXPXPXPXPXPXPXPXPXPXPXPXPXPXPXPX",
"PXPXPXPXPXPXPXPXPXPXPXPXPXPXPXPXPXPXPXPXPXPXPXPXPXPXPXE : < < o < @ 1 1 1 = @ = C PXPXPXPXPXPXPXPXPXPXPXPXPXPXPXPXPXPXPXPXPXPXPX",
"PXPXPXPXPXPXPXPXPXPXPXPXPXPXPXPXPXPXPXPXPXPXPXPXPXPXPXT - o X 0 X O o = O O + y i PXPXPXPXPXPXPXPXPXPXPXPXPXPXPXPXPXPXPXPXPXPXPX",
"PXPXPXPXPXPXPXPXPXPXPXPXPXPXPXPXPXPXPXPXPXPXPXPXPXPXPXT g q l q r r g 6 e e e l H PXPXPXPXPXPXPXPXPXPXPXPXPXPXPXPXPXPXPXPXPXPXPX",
"PXPXPXPXPXPXPXPXPXPXPXPXPXPXPXPXPXPXPXPXPXPXPXPXPXPXPXd _.-XV.].|.V.R.e [.].M.6.H PXPXPXPXPXPXPXPXPXPXPXPXPXPXPXPXPXPXPXPXPXPXPX",
"PXPXPXPXPXPXPXPXPXPXPXPXPXPXPXPXPXPXPXPXPXPXPXPXPXPXL.;.<X>X,X.X.X>X<X+.j.v.x.4.%.PXPXPXPXPXPXPXPXPXPXPXPXPXPXPXPXPXPXPXPXPXPXPX",
"PXPXPXPXPXPXPXPXPXPXPXPXPXPXPXPXPXPXPXPXPXPXPXPXPXPXF.R.1XXX,XZ.z.v.m.@.o.@.,.4.s PXPXPXPXPXPXPXPXPXPXPXPXPXPXPXPXPXPXPXPXPXPXPX",
"PXPXPXPXPXPXPXPXPXPXPXPXPXPXPXPXPXPXPXPXPXPXPXPXPXPXa '.:XXXXX;Xv.h.@.e 7.h.,.4.X.PXPXPXPXPXPXPXPXPXPXPXPXPXPXPXPXPXPXPXPXPXPXPX",
"PXPXPXPXPXPXPXPXPXPXPXPXPXPXPXPXPXPXPXPXPXPXPXPXPXxXH.=X:X,X>XA.s.@.8 8.g.c.2.3.#.PXPXPXPXPXPXPXPXPXPXPXPXPXPXPXPXPXPXPXPXPXPXPX",
"PXPXPXPXPXPXPXPXPXPXPXPXPXPXPXPXPXPXPXPXPXPXPXPXPXP.y.1X,X,X;XB.e.o.6 y.<.3.2.<.X.PXPXPXPXPXPXPXPXPXPXPXPXPXPXPXPXPXPXPXPXPXPXPX",
"PXPXPXPXPXPXPXPXPXPXPXPXPXPXPXPXPXPXPXPXPXPXPXPXPXF.V.;XXX.Xj.h.N.9 8 >.j.1.z.3.X.PXPXPXPXPXPXPXPXPXPXPXPXPXPXPXPXPXPXPXPXPXPXPX",
"PXPXPXPXPXPXPXPXPXPXPXPXPXPXPXPXPXPXPXPXPXPXPXPXPX;.6X,X.X.Xd.h.*.;.8 t.h.1.2.3.X.PXPXPXPXPXPXPXPXPXPXPXPXPXPXPXPXPXPXPXPXPXPXPX",
"PXPXPXPXPXPXPXPXPXPXPXPXPXPXPXPXPXPXPXPXPXPXPXPXP.w.1XXX Xv.l.4.G.G.9 e.h.z.2.3.X.PXPXPXPXPXPXPXPXPXPXPXPXPXPXPXPXPXPXPXPXPXPXPX",
"PXPXPXPXPXPXPXPXPXPXPXPXPXPXPXPXPXPXPXPXPXPXPXPX$.'.>X.X Xd.x.O.K.PX$.t.,.,.z.3.X.PXPXPXPXPXPXPXPXPXPXPXPXPXPXPXPXPXPXPXPXPXPXPX",
"PXPXPXPXPXPXPXPXPXPXPXPXPXPXPXPXPXPXPXPXPXPXPXPX&.1XA.Z.l.d.c.*.jXPX$.t.<.1.2.3.o.PXPXPXPXPXPXPXPXPXPXPXPXPXPXPXPXPXPXPXPXPXPXPX",
"PXPXPXPXPXPXPXPXPXPXPXPXPXPXPXPXPXPXPXPXPXPXPXK.>.;XS.f.z.,.@.G.cXPXK.*.h.2.2.<.6.PXPXPXPXPXPXPXPXPXPXPXPXPXPXPXPXPXPXPXPXPXPXPX",
"PXPXPXPXPXPXPXPXPXPXPXPXPXPXPXPXPXPXPXPXPXPXPXa <XZ.d.,.z.c.>.D.PXPXPXX.4.2.x.h.6.%.PXPXPXPXPXPXPXPXPXPXPXPXPXPXPXPXPXPXPXPXPXPX",
"PXPXPXPXPXPXPXPXPXPXPXPXPXPXPXPXPXPXPXPXPXPXPXe ;XS.d.x.1.<.I.J.PXPXPX#.<.z.l.h.6.%.PXPXPXPXPXPXPXPXPXPXPXPXPXPXPXPXPXPXPXPXPXPX",
"PXPXPXPXPXPXPXPXPXPXPXPXPXPXPXPXPXPXPXPXPXPXD '.j.k.l.x.,.6.D.PXPXPXPXX.h.f.d.h.@.%.PXPXPXPXPXPXPXPXPXPXPXPXPXPXPXPXPXPXPXPXPXPX",
"PXPXPXPXPXPXPXPXPXPXPXPXPXPXPXPXPXPXPXPXPXPX$.<Xf.z.z.,.3.5.D.PXPXPXPXX.h.d.x.f.b.#.PXPXPXPXPXPXPXPXPXPXPXPXPXPXPXPXPXPXPXPXPXPX",
"PXPXPXPXPXPXPXPXPXPXPXPXPXPXPXPXPXPXPXPXPXPX&.M.x.2.2.2.4.=.jXPXPXPXPX9 g.s.v.,.>.G.PXPXPXPXPXPXPXPXPXPXPXPXPXPXPXPXPXPXPXPXPXPX",
"PXPXPXPXPXPXPXPXPXPXPXPXPXPXPXPXPXPXPXPXPXD.:.e.g.c.<.n.).s PXPXPXPXPXs &.@.m.M.;.P.PXPXPXPXPXPXPXPXPXPXPXPXPXPXPXPXPXPXPXPXPXPX",
"PXPXPXPXPXPXPXPXPXPXPXPXPXPXPXPXPXPXPXPXPXT a Q.9X5X-.a H D PXPXPXPXPXPXF.q l x y E PXPXPXPXPXPXPXPXPXPXPXPXPXPXPXPXPXPXPXPXPXPX",
"PXPXPXPXPXPXPXPXPXPXPXPXPXPXPXPXPXPXPXPXPXR k VX%Xg y R PXPXPXPXPXPXPXPXPX% < j L Z gXPXPXPXPXPXPXPXPXPXPXPXPXPXPXPXPXPXPXPXPXPX",
"PXPXPXPXPXPXPXPXPXPXPXPXPXPXPXPXPXPXPXPXhXZ L NX$Xj & lXPXPXPXPXPXPXPXPXlX= = / ] / S J.PXPXPXPXPXPXPXPXPXPXPXPXPXPXPXPXPXPXPXPX",
"PXPXPXPXPXPXPXPXPXPXPXPXPXPXPXPXPXPXPXPXF J NXNX$X/ > kXPXPXPXPXPXPXPXPXlX; ; j ~ | { U hXPXPXPXPXPXPXPXPXPXPXPXPXPXPXPXPXPXPXPX",
"PXPXPXPXPXPXPXPXPXPXPXPXPXPXPXPXPXPXPXL.P T.8XAXNXh ; PXPXPXPXPXPXPXPXPXlX5 2 , @ FXDXZXbXlXPXPXPXPXPXPXPXPXPXPXPXPXPXPXPXPXPXPX",
"PXPXPXPXPXPXPXPXPXPXPXPXPXPXPXPXPXPXPXL.MX&XGXGXAX] * PXPXPXPXPXPXPXPXPXPXN N : < { U.z (.Y PXPXPXPXPXPXPXPXPXPXPXPXPXPXPXPXPXPX",
"PXPXPXPXPXPXPXPXPXPXPXPXPXPXPXPXPXPXPXZ { h b b ) L N PXPXPXPXPXPXPXPXPXPXPXE Y N N & i N fXPXPXPXPXPXPXPXPXPXPXPXPXPXPXPXPXPXPX",
"PXPXPXPXPXPXPXPXPXPXPXPXPXPXPXPXPXPXPX# . .     . $ Q PXPXPXPXPXPXPXPXPXPXPXPXPXPXPXPXvXvXPXPXPXPXPXPXPXPXPXPXPXPXPXPXPXPXPXPXPX"
};
