/* XPM */
static char *result[] = {
/* columns rows colors chars-per-pixel */
"75 75 236 2 ",
"   c #1E1500",
".  c #181409",
"X  c #190D19",
"o  c #191514",
"O  c #171618",
"+  c #0A141D",
"@  c #290C08",
"#  c #330C00",
"$  c #390907",
"%  c #2B1300",
"&  c #251509",
"*  c #331301",
"=  c #361209",
"-  c #290B16",
";  c #360815",
":  c #261515",
">  c #3C1216",
",  c #1C201F",
"<  c #1D1026",
"1  c #290928",
"2  c #390229",
"3  c #221427",
"4  c #2C0233",
"5  c #2C003D",
"6  c #340035",
"7  c #34013B",
"8  c #3B003D",
"9  c #380835",
"0  c #2C142F",
"q  c #38362D",
"w  c #392E39",
"e  c #2E3C3C",
"r  c #343434",
"t  c #3B3B35",
"y  c #34353B",
"u  c #3B343B",
"i  c #373A3B",
"p  c #3B3B3C",
"a  c #383734",
"s  c #2F2F2D",
"d  c #48070A",
"f  c #540307",
"g  c #490A15",
"h  c #530215",
"j  c #560917",
"k  c #461519",
"l  c #521518",
"z  c #43100F",
"x  c #47351B",
"c  c #513115",
"v  c #490228",
"b  c #540329",
"n  c #44003D",
"m  c #4B0039",
"M  c #55003A",
"N  c #43152F",
"B  c #680228",
"V  c #640035",
"C  c #453726",
"Z  c #492939",
"A  c #443538",
"S  c #532334",
"D  c #682F36",
"F  c #364037",
"G  c #41403D",
"H  c #3B0144",
"J  c #3D004C",
"K  c #340442",
"L  c #2F0C40",
"P  c #3C3444",
"I  c #3D3B44",
"U  c #383645",
"Y  c #3D2849",
"T  c #430144",
"R  c #4C0043",
"E  c #44004C",
"W  c #4B004B",
"Q  c #5A0045",
"!  c #53004B",
"~  c #5C004D",
"^  c #520046",
"/  c #460053",
"(  c #4B0053",
")  c #4C005A",
"_  c #470059",
"`  c #530053",
"'  c #590054",
"]  c #54005B",
"[  c #5A005A",
"{  c #620047",
"}  c #65005D",
"|  c #630054",
" . c #780051",
".. c #492A4A",
"X. c #453547",
"o. c #4B2B54",
"O. c #522A57",
"+. c #4E2F50",
"@. c #5C0065",
"#. c #550063",
"$. c #5A0070",
"%. c #640066",
"&. c #740062",
"*. c #6C0073",
"=. c #7C4A57",
"-. c #7E456E",
";. c #A8763D",
":. c #A74E38",
">. c #85005B",
",. c #9A3847",
"<. c #933C56",
"1. c #A63955",
"2. c #A93A51",
"3. c #A92A6F",
"4. c #954353",
"5. c #9E5F50",
"6. c #AB5D59",
"7. c #B55B56",
"8. c #AC4F4D",
"9. c #966453",
"0. c #A86557",
"q. c #A67659",
"w. c #AD7449",
"e. c #8F4E62",
"r. c #AB5E64",
"t. c #906768",
"y. c #99716E",
"u. c #9E6771",
"i. c #897163",
"p. c #A96465",
"a. c #B46767",
"s. c #A47568",
"d. c #B06D73",
"f. c #C46550",
"g. c #8B857B",
"h. c #928E75",
"j. c #BFA37C",
"k. c #D99257",
"l. c #E7985A",
"z. c #EF974D",
"x. c #D59A69",
"c. c #C89D7B",
"v. c #D3996F",
"b. c #E69867",
"n. c #EA9674",
"m. c #C4A67F",
"M. c #7D7F8B",
"N. c #800086",
"B. c #B828B6",
"V. c #C629B9",
"C. c #A35B83",
"Z. c #9A7B87",
"A. c #9F6686",
"S. c #A87194",
"D. c #9676A7",
"F. c #AF73AC",
"G. c #C37DA6",
"H. c #BB26C6",
"J. c #CA1DCD",
"K. c #7D868A",
"L. c #8B8680",
"P. c #8B858C",
"I. c #86898B",
"U. c #888888",
"Y. c #928B84",
"T. c #8A8B91",
"R. c #8D8C9A",
"E. c #8E938F",
"W. c #A78B89",
"Q. c #B5888B",
"!. c #A78C97",
"~. c #B68A93",
"^. c #A8979B",
"/. c #B29291",
"(. c #BAA387",
"). c #B9A99A",
"_. c #ADA491",
"`. c #AC89A5",
"'. c #A997A4",
"]. c #B782A6",
"[. c #9087A2",
"{. c #CA9C86",
"}. c #D89787",
"|. c #CE9398",
" X c #E49583",
".X c #C4A787",
"XX c #D2A087",
"oX c #CD94A7",
"OX c #FFD79B",
"+X c #FEDCAC",
"@X c #FAD7A7",
"#X c #FEDDB3",
"$X c #FDDCBC",
"%X c #F8DAB7",
"&X c #ECD4A4",
"*X c #FFE4AB",
"=X c #FCE2BC",
"-X c #FBE6B7",
";X c #E9E1BC",
":X c #FFBCF2",
">X c #DCD1DC",
",X c #DEC9D6",
"<X c #E3C9C9",
"1X c #FDCBCE",
"2X c #EBD3CA",
"3X c #FDD3CD",
"4X c #FCDCCC",
"5X c #F7DAC8",
"6X c #E3CBD5",
"7X c #EACDD3",
"8X c #E8CDDB",
"9X c #FFCCD3",
"0X c #FEC8DB",
"qX c #ECD4D3",
"wX c #E6D5D9",
"eX c #FDD2D4",
"rX c #FCDBD3",
"tX c #F4D3DC",
"yX c #FED4DB",
"uX c #FEDBDC",
"iX c #F3D7D9",
"pX c #FBE4C6",
"aX c #EFE4D0",
"sX c #DED0E1",
"dX c #FFCCEC",
"fX c #FBCAE7",
"gX c #E9D5E3",
"hX c #FED3E4",
"jX c #FED5EB",
"kX c #F9DAE4",
"lX c #FFCDF3",
"zX c #FFCAFD",
"xX c #F6D4ED",
"cX c #FEE6FE",
"vX c #EEECE8",
"bX c None",
/* pixels */
"bXbXbXbXbXbXbXbXbXbXbXbXbXbXbXbXbXbXbXbXbXbXbXbXbXbXbXbXbXbXbXbXbXbXbXbXbXbXbXbXbXbXbXbXbXbXbXbXbXbXbXbXbXbXbXbXbXbXbXbXbXbXbXbXbXbXbXbXbXbXbXbXbXbXbX",
"bXbXbXbXbXbXbXbXbXbXbXbXbXbXbXbXbXbXbXbXbXbXbXbXbXbXbXbXbXbXbXbXbXbXbXbXbXbXbXbXbXbXbXbXbXbXbXbXbXbXbXbXbXbXbXbXbXbXbXbXbXbXbXbXbXbXbXbXbXbXbXbXbXbXbX",
"bXbXbXbXbXbXbXbXbXbXbXbXbXbXbXbXbXbXbXbXbXbXbXbXbXbXbXbXbXbXbXbXbXbXbXbXbXbXbXbXbXbXbXbXbXbXbXbXbXbXbXbXbXbXbXbXbXbXbXbXbXbXbXbXbXbXbXbXbXbXbXbXbXbXbX",
"bXbXbXbXbXbXbXbXbXbXbXbXbXbXbXbXbXbXbXbXbXbXbXbXbXbXbXbXbXbXbXbXbXbXbXbXbXbXbXbXbXbXbXbXbXbXbXbXbXbXbXbXbXbXbXbXbXbXbXbXbXbXbXbXbXbXbXbXbXbXbXbXbXbXbX",
"bXbXbXbXbXbXbXbXbXbXbXbXbXbXbXbXbXbXbXbXbXbXbXbXbXbXbXbXbXbXbXbXbXbXbXbXbXbXbXbXbXbXbXbXbXbXbXbXbXbXbXbXbXbXbXbXbXbXbXbXbXbXbXbXbXbXbXbXbXbXbXbXbXbXbX",
"bXbXbXbXbXbXbXbXbXbXbXbXbXbXbXbXbXbXbXbXbXbXbXbXbXbXbXbXbXbX| ~ W ] W W T [ *.bXbXbXbXbXbXbXbXbXbXbXbXbXbXbXbXbXbXbXbXbXbXbXbXbXbXbXbXbXbXbXbXbXbXbXbX",
"bXbXbXbXbXbXbXbXbXbXbXbXbXbXbXbXbXbXbXbXbXbXbXbXbXbXbXbXW R :XzXF.cXcXcXcXcXS.] bXbXbXbXbXbXbXbXbXbXbXbXbXbXbXbXbXbXbXbXbXbXbXbXbXbXbXbXbXbXbXbXbXbXbX",
"bXbXbXbXbXbXbXbXbXbXbXbXbXbXbXbXbXbXbXbXbXbXbXbXbXbXbX[ lXjX<.<.Y.g.L.P.Z.Z.Z.-.' bXbXbXbXbXbXbXbXbXbXbXbXbXbXbXbXbXbXbXbXbXbXbXbXbXbXbXbXbXbXbXbXbXbX",
"bXbXbXbXbXbXbXbXbXbXbXbXbXbXbXbXbXbXbXbXbXbXbXbXbXbX! dXhX<.1.1.4.iXtXkX<.e.hXtXxXm bXbXbXbXbXbXbXbXbXbXbXbXbXbXbXbXbXbXbXbXbXbXbXbXbXbXbXbXbXbXbXbXbX",
"bXbXbXbXbXbXbXbXbXbXbXbXbXbXbXbXbXbXbXbXbXbXbXbXbXbXm eX1X,.2.1.tXuXtXhX0X0XtX3XqXjX~ bXbXbXbXbXbXbXbXbXbXbXbXbXbXbXbXbXbXbXbXbXbXbXbXbXbXbXbXbXbXbXbX",
"bXbXbXbXbXbXbXbXbXbXbXbXbXbXbXbXbXbXbXbXbXbXbXbXbX} :XjX,.,.1.fX9XeXyX0Xa.9X1Xp.3XeXlX! bXbXbXbXbXbXbXbXbXbXbXbXbXbXbXbXbXbXbXbXbXbXbXbXbXbXbXbXbXbXbX",
"bXbXbXbXbXbXbXbXbXbXbXbXbXbXbXbXbXbXbXbXbXbXbXbXbX[ lX0X8.2.<.hXuX9X1Xr.6.0.7.7.p.eXrXlX] bXbXbXbXbXbXbXbXbXbXbXbXbXbXbXbXbXbXbXbXbXbXbXbXbXbXbXbXbXbX",
"bXbXbXbXbXbXbXbXbXbXbXbXbXbXbXbXbXbXbXbXbXbXbXbXbX' lX9X,.2.yXyXqXuX7.7.f.:.f.8.0.1XuXyXlXT bXbXbXbXbXbXbXbXbXbXbXbXbXbXbXbXbXbXbXbXbXbXbXbXbXbXbXbXbX",
"bXbXbXbXbXbXbXbXbXbXbXbXbXbXbXbXbXbXbXbXbXbXbXbXbXn jXyX4.h eXiXuX9X0.7.b.b.x. X7.p.1XeXkX8 @.N.bXbXbXbXbXbXbXbXbXbXbXbXbXbXbXbXbXbXbXbXbXbXbXbXbXbXbX",
"bXbXbXbXbXbXbXbXbXbXbXbXbXbXbXbXbXbXbXbXbXbXbXbXW jXtX0Xj j 1XrX3X0.v.n.@X+X#X#X}.5.rXjX8 bXbXbXbXbXbXbXbXbXbXbXbXbXbXbXbXbXbXbXbXbXbXbXbXbXbXbXbXbXbX",
"bXbXbXbXbXbXbXbXbXbXbXbXbXbXbXbXbXbXbXbXbXbXbXbX9 iXyXu.g g 3X4X4X5.v.+X@X-X$X$XXX* 3XdX' bXbXbXbXbXbXbXbXbXbXbXbXbXbXbXbXbXbXbXbXbXbXbXbXbXbXbXbXbXbX",
"bXbXbXbXbXbXbXbXbXbXbXbXbXbXbXbXbXbXbXbXbXbXbXR fXeXp.r.h f uX4X3Xq.m.-X#X#XpX(.& @ t.lX` bXbXbXbX[ bX%.bXbXbXbXbXbXbXbXbXbXbXbXbXbXbXbXbXbXbXbXbXbXbX",
"bXbXbXbXbXbXbXbXbXbXbXbXbXbXbXbXbXbXbXbXbXbX` zX0Xu.r.a.6.g 3XeX1Xq.%   .X=X=X% Y.. y.fX} bXbX#.K D.H F.@.bXbXbXbXbXbXbXbXbXbXbXbXbXbXbXbXbXbXbXbXbXbX",
"bXbXbXbXbXbXbXbXbXbXbXbXbXbXbXbXbXbXbXbXbXN.@.! ; $ a.f d d eXyX3Xy.vXK.. ;XpXaXY.. i.dX&.bXJ D.0 [.< F.$.bXbXbXbXbXbXbXbXbXbXbXbXbXbXbXbXbXbXbXbXbXbX",
"bXbXbXbXbXbXbXbXbXbXbXbXbXbXbXbXbXbXbXbXbXbXbXbXg l d d z k eX9X3Xt.vXK.h.-X%XpX).& s.v bXbX5 R.+ U + O.) bXbXbXbXbXbXbXbXbXbXbXbXbXbXbXbXbXbXbXbXbXbX",
"bXbXbXbXbXbXbXbXbXbXbXbXbXbXbXbXbXbXbXbXbXbXbXV <.h j z k ; r.eXa.5.$X-X*XOXx.$X|.2 C.Q bXbXK y + u p O.%.bXbXbXbXbXbXbXbXbXbXbXbXbXbXbXbXbXbXbXbXbXbX",
"bXbXbXbXbXbXbXbXbXbXbXbXbXbXbXbXbXbXbXbXbXbX>.3.V h b v t.- u.eX6.0.c.+X;.;.*X.Xv bXQ bXbXbX8 t p a q 9 bXbXbXbXbXbXbXbXbXbXbXbXbXbXbXbXbXbXbXbXbXbXbX",
"bXbXbXbXbXbXbXbXbXbXbXbXbXbXbXbXbXbXbXbXbXbX>.>.b V m v ; t.@ iXu.$ > .Xc..X% 1 bXbX*.bXbXbXT r q G y 6 bXbXbXbXbXbXbXbXbXbXbXbXbXbXbXbXbXbXbXbXbXbXbX",
"bXbXbXbXbXbXbXbXbXbXbXbXbXbXbXbXbXbXbXbXbXbXbXbXbX| } bXm A.0 - ; k $ $ # * & 1 Q bXbXbXbXbX4 O a y X.H bXbXbXbXbXbXbXbXbXbXbXbXbXbXbXbXbXbXbXbXbXbXbX",
"bXbXbXbXbXbXbXbXbXbXbXbXbXbXbXbXbXbXbXbXbXbXbXbXbXN.bXbXbX` 9 & @ $ l f f c.$ u.|.B bXbXW 2 A L.O w O.) bXbXbXbXbXbXbXbXbXbXbXbXbXbXbXbXbXbXbXbXbXbXbX",
"bXbXbXbXbXbXbXbXbXbXbXbXbXbXbXbXbXbXbXbXbXbXbXbXbXbXbXbXbXbXv rX.X# f j f :.}.d q.|.b m w U.Y.g.y 0 K bXbXbXbXbXbXbXbXbXbXbXbXbXbXbXbXbXbXbXbXbXbXbXbX",
"bXbXbXbXbXbXbXbXbXbXbXbXbXbXbXbXbXbXbXbXbXbXbXbXbXbXbXbXbXbXv pX%X.X# d 2.2.,.d.= : S.- Z.T.I.U.p 1 / bXbXbXbXbXbXbXbXbXbXbXbXbXbXbXbXbXbXbXbXbXbXbXbX",
"bXbXbXbXbXbXbXbXbXbXbXbXbXbXbXbXbXbXbXbXbXbXbXbXbXbXbXbXbXbX2 rX-X&X% k ,.8.2.4.Z.o : - U T.K.i r 0 _ bXbXbXbXbXbXbXbXbXbXbXbXbXbXbXbXbXbXbXbXbXbXbXbX",
"bXbXbXbXbXbXbXbXbXbXbXbXbXbXbXbXbXbXbXbXbXbXbXbXbXbXbXbXbXbX! oXpX;X_.= h 1.1.<.=.!.: X A P U I q - _ bXbXbXbXbXbXbXbXbXbXbXbXbXbXbXbXbXbXbXbXbXbXbXbX",
"bXbXbXbXbXbXbXbXbXbXbXbXbXbXbXbXbXbXbXbXbXbXbXbXbXbXbXbXbXbXbXm 3XpX5X* g h h j > @ & : u X.I q % oX] bXbXbXbXbXbXbXbXbXbXbXbXbXbXbXbXbXbXbXbXbXbXbXbX",
"bXbXbXbXbXbXbXbXbXbXbXbXbXbXbXbXbXbXbXbXbXbXbXbXbXbXbXbXbXbXbX~ oX5X2XW.- > $ # # (.C q : X . & c.d.&.bXbXbXbXbXbXbXbXbXbXbXbXbXbXbXbXbXbXbXbXbXbXbXbX",
"bXbXbXbXbXbXbXbXbXbXbXbXbXbXbXbXbXbXbXbXbXbXbXbXbXbXbXbXbXbXbXV.v 1X7XqX- @ * m.pX%XaXA X '.^.W.s.h bXbXbXbXbXbXbXbXbXbXbXbXbXbXbXbXbXbXbXbXbXbXbXbXbX",
"bXbXbXbXbXbXbXbXbXbXbXbXbXbXbXbXbXbXbXbXbXbXbXbXbXbXbXbXbXbXbXbXQ ].8XwX7X5X#X#X-X(.).- 4 1 !.`.F.| bXbXbXbXbXbXbXbXbXbXbXbXbXbXbXbXbXbXbXbXbXbXbXbXbX",
"bXbXbXbXbXbXbXbXbXbXbXbXbXbXbXbXbXbXbXbXbXbXbXbXbXbXbXbXbXbXbXbXB.R xXwXqXW.{.c.# * @ N 8 bXT R ' bXbXbXbXbXbXbXbXbXbXbXbXbXbXbXbXbXbXbXbXbXbXbXbXbXbX",
"bXbXbXbXbXbXbXbXbXbXbXbXbXbXbXbXbXbXbXbXbXbXbXbXbXbXbXbXbXbXbXbXJ.} F.'.W.@ ; $ z z h.2 ( bXbXbXbXbXbXbXbXbXbXbXbXbXbXbXbXbXbXbXbXbXbXbXbXbXbXbXbXbXbX",
"bXbXbXbXbXbXbXbXbXbXbXbXbXbXbXbXbXbXbXbXbXbXbXbXbXbXbXbXbXbXbXbXbXH.n - - > > g j h g S.` bXbXbXbXbXbXbXbXbXbXbXbXbXbXbXbXbXbXbXbXbXbXbXbXbXbXbXbXbXbX",
"bXbXbXbXbXbXbXbXbXbXbXbXbXbXbXbXbXbXbXbXbXbXbXbXbXbXbXbXbXbXbXbXbXbXbX2 g d k d d j = S.Q bXbXbXbXbXbXbXbXbXbXbXbXbXbXbXbXbXbXbXbXbXbXbXbXbXbXbXbXbXbX",
"bXbXbXbXbXbXbXbXbXbXbXbXbXbXbXbXbXbXbXbXbXbXbXbXbXbXbXbXbXbXbXbXbXbX! v l l ; k f l g ; ' bXbXbXbXbXbXbXbXbXbXbXbXbXbXbXbXbXbXbXbXbXbXbXbXbXbXbXbXbXbX",
"bXbXbXbXbXbXbXbXbXbXbXbXbXbXbXbXbXbXbXbXbXbXbXbXbXbXbXbXbXbXbXbXbXB.n !.Q.~.~.~.~.S.Q.G.` bXbXbXbXbXbXbXbXbXbXbXbXbXbXbXbXbXbXbXbXbXbXbXbXbXbXbXbXbXbX",
"bXbXbXbXbXbXbXbXbXbXbXbXbXbXbXbXbXbXbXbXbXbXbXbXbXbXbXbXbXbXbXbXH.] 6 !.!.7X7X!.W.Q.|.G.T bXbXbXbXbXbXbXbXbXbXbXbXbXbXbXbXbXbXbXbXbXbXbXbXbXbXbXbXbXbX",
"bXbXbXbXbXbXbXbXbXbXbXbXbXbXbXbXbXbXbXbXbXbXbXbXbXbXbXbXbXbXbXbX) 1 1 !.7X8X8X8X!./.Q.~.!.` bXbXbXbXbXbXbXbXbXbXbXbXbXbXbXbXbXbXbXbXbXbXbXbXbXbXbXbXbX",
"bXbXbXbXbXbXbXbXbXbXbXbXbXbXbXbXbXbXbXbXbXbXbXbXbXbXbXbXbXbXbXbX7 < : !.tX8X8X8X8X<X/.W.'.T bXbXbXbXbXbXbXbXbXbXbXbXbXbXbXbXbXbXbXbXbXbXbXbXbXbXbXbXbX",
"bXbXbXbXbXbXbXbXbXbXbXbXbXbXbXbXbXbXbXbXbXbXbXbXbXbXbXbXbXbXbX/ '.O : !.6XgXgXsX6XkXC W.'.K bXbXbXbXbXbXbXbXbXbXbXbXbXbXbXbXbXbXbXbXbXbXbXbXbXbXbXbXbX",
"bXbXbXbXbXbXbXbXbXbXbXbXbXbXbXbXbXbXbXbXbXbXbXbXbXbXbXbXbXbX) `.X t . 6XgX,X8XwXqX6XZ gX!.n bXbXbXbXbXbXbXbXbXbXbXbXbXbXbXbXbXbXbXbXbXbXbXbXbXbXbXbXbX",
"bXbXbXbXbXbXbXbXbXbXbXbXbXbXbXbXbXbXbXbXbXbXbXbXbXbXbXbXbXbXT [.O r < wX8XkX2X<XqX7XZ <XW.].' bXbXbXbXbXbXbXbXbXbXbXbXbXbXbXbXbXbXbXbXbXbXbXbXbXbXbXbX",
"bXbXbXbXbXbXbXbXbXbXbXbXbXbXbXbXbXbXbXbXbXbXbXbXbXbXbXbXbX>.` 9 < I < sX6X,XqX2X<XiXZ kXqX~.W bXbXbXbXbXbXbXbXbXbXbXbXbXbXbXbXbXbXbXbXbXbXbXbXbXbXbXbX",
"bXbXbXbXbXbXbXbXbXbXbXbXbXbXbXbXbXbXbXbXbXbXbXbXbXbXbXbXbXbXbXbX4 I O >XgX>X>X>XwXE.A sXwX`.[ bXbXbXbXbXbXbXbXbXbXbXbXbXbXbXbXbXbXbXbXbXbXbXbXbXbXbXbX",
"bXbXbXbXbXbXbXbXbXbXbXbXbXbXbXbXbXbXbXbXbXbXbXbXbXbXbXbXbXbXbXbX7 y p i U U I O q a I P 0 K %.bXbXbXbXbXbXbXbXbXbXbXbXbXbXbXbXbXbXbXbXbXbXbXbXbXbXbXbX",
"bXbXbXbXbXbXbXbXbXbXbXbXbXbXbXbXbXbXbXbXbXbXbXbXbXbXbXbXbXbXbXbXK I.I.I.i i I O q s I X.J bXbXbXbXbXbXbXbXbXbXbXbXbXbXbXbXbXbXbXbXbXbXbXbXbXbXbXbXbXbX",
"bXbXbXbXbXbXbXbXbXbXbXbXbXbXbXbXbXbXbXbXbXbXbXbXbXbXbXbXbXbXbXbX2 g.g.Y.L.A q . x x x S ( bXbXbXbXbXbXbXbXbXbXbXbXbXbXbXbXbXbXbXbXbXbXbXbXbXbXbXbXbXbX",
"bXbXbXbXbXbXbXbXbXbXbXbXbXbXbXbXbXbXbXbXbXbXbXbXbXbXbXbXbXbXbX&.|.#X4XrXh.C = q.x.k.b. X~ bXbXbXbXbXbXbXbXbXbXbXbXbXbXbXbXbXbXbXbXbXbXbXbXbXbXbXbXbXbX",
"bXbXbXbXbXbXbXbXbXbXbXbXbXbXbXbXbXbXbXbXbXbXbXbXbXbXbXbXbXbXbXQ }.*X@X5X(.c % w.l.z.z.f.{ bXbXbXbXbXbXbXbXbXbXbXbXbXbXbXbXbXbXbXbXbXbXbXbXbXbXbXbXbXbX",
"bXbXbXbXbXbXbXbXbXbXbXbXbXbXbXbXbXbXbXbXbXbXbXbXbXbXbXbXbXbXbX~ }.@XpX$Xc.# # w.k.b.x.d bXbXbXbXbXbXbXbXbXbXbXbXbXbXbXbXbXbXbXbXbXbXbXbXbXbXbXbXbXbXbX",
"bXbXbXbXbXbXbXbXbXbXbXbXbXbXbXbXbXbXbXbXbXbXbXbXbXbXbXbXbXbXbX2 }.@X@X%X.X* * w.l.k.XXb bXbXbXbXbXbXbXbXbXbXbXbXbXbXbXbXbXbXbXbXbXbXbXbXbXbXbXbXbXbXbX",
"bXbXbXbXbXbXbXbXbXbXbXbXbXbXbXbXbXbXbXbXbXbXbXbXbXbXbXbXbXbXbX2 {.*X*X-X    * w.z.n.d.M bXbXbXbXbXbXbXbXbXbXbXbXbXbXbXbXbXbXbXbXbXbXbXbXbXbXbXbXbXbXbX",
"bXbXbXbXbXbXbXbXbXbXbXbXbXbXbXbXbXbXbXbXbXbXbXbXbXbXbXbXbXbX/ +.rX%X+X(.: : q.x.l.n.v bXbXbXbXbXbXbXbXbXbXbXbXbXbXbXbXbXbXbXbXbXbXbXbXbXbXbXbXbXbXbXbX",
"bXbXbXbXbXbXbXbXbXbXbXbXbXbXbXbXbXbXbXbXbXbXbXbXbXbXbXbXbXbXH X.g.g.x ; bXn d.c.x.a.M bXbXbXbXbXbXbXbXbXbXbXbXbXbXbXbXbXbXbXbXbXbXbXbXbXbXbXbXbXbXbXbX",
"bXbXbXbXbXbXbXbXbXbXbXbXbXbXbXbXbXbXbXbXbXbXbXbXbXbXbXbXbXbX6 P.T.T.r 9 bX' S c c D Q bXbXbXbXbXbXbXbXbXbXbXbXbXbXbXbXbXbXbXbXbXbXbXbXbXbXbXbXbXbXbXbX",
"bXbXbXbXbXbXbXbXbXbXbXbXbXbXbXbXbXbXbXbXbXbXbXbXbXbXbXbXbX} +.T.K.U o.4 bX` ..C q Z @.bXbXbXbXbXbXbXbXbXbXbXbXbXbXbXbXbXbXbXbXbXbXbXbXbXbXbXbXbXbXbXbX",
"bXbXbXbXbXbXbXbXbXbXbXbXbXbXbXbXbXbXbXbXbXbXbXbXbXbXbXbXbXT +.I.R.o.J bXbXT X.q a 4 bXbXbXbXbXbXbXbXbXbXbXbXbXbXbXbXbXbXbXbXbXbXbXbXbXbXbXbXbXbXbXbXbX",
"bXbXbXbXbXbXbXbXbXbXbXbXbXbXbXbXbXbXbXbXbXbXbXbXbXbXbXbXbXH w P.U O.[ bXbXH P p U J bXbXbXbXbXbXbXbXbXbXbXbXbXbXbXbXbXbXbXbXbXbXbXbXbXbXbXbXbXbXbXbXbX",
"bXbXbXbXbXbXbXbXbXbXbXbXbXbXbXbXbXbXbXbXbXbXbXbXbXbXbXbX/ o.P.P.P H bXbXW o.p y P ) bXbXbXbXbXbXbXbXbXbXbXbXbXbXbXbXbXbXbXbXbXbXbXbXbXbXbXbXbXbXbXbXbX",
"bXbXbXbXbXbXbXbXbXbXbXbXbXbXbXbXbXbXbXbXbXbXbXbXbXbXbXbXJ y I.Z.+.E bXbXH P t y +.( bXbXbXbXbXbXbXbXbXbXbXbXbXbXbXbXbXbXbXbXbXbXbXbXbXbXbXbXbXbXbXbXbX",
"bXbXbXbXbXbXbXbXbXbXbXbXbXbXbXbXbXbXbXbXbXbXbXbXbXbXbXbXL U I.X.6 bXbXbXH r p A 9 bXbXbXbXbXbXbXbXbXbXbXbXbXbXbXbXbXbXbXbXbXbXbXbXbXbXbXbXbXbXbXbXbXbX",
"bXbXbXbXbXbXbXbXbXbXbXbXbXbXbXbXbXbXbXbXbXbXbXbXbXbXbXbXL e T.X.( bXbXbX6 a A ../ bXbXbXbXbXbXbXbXbXbXbXbXbXbXbXbXbXbXbXbXbXbXbXbXbXbXbXbXbXbXbXbXbXbX",
"bXbXbXbXbXbXbXbXbXbXbXbXbXbXbXbXbXbXbXbXbXbXbXbXbXbXbX#.o.K.I.o.` bXbXbX6 F s +./ bXbXbXbXbXbXbXbXbXbXbXbXbXbXbXbXbXbXbXbXbXbXbXbXbXbXbXbXbXbXbXbXbXbX",
"bXbXbXbXbXbXbXbXbXbXbXbXbXbXbXbXbXbXbXbXbXbXbXbXbXbXbX@.Y T.U O.%.bXbXbXK i a 3 6 bXbXbXbXbXbXbXbXbXbXbXbXbXbXbXbXbXbXbXbXbXbXbXbXbXbXbXbXbXbXbXbXbXbX",
"bXbXbXbXbXbXbXbXbXbXbXbXbXbXbXbXbXbXbXbXbXbXbXbXbXbXbX/ X.I.p 6 bXbXbXbX5 e O p ..E ` bXbXbXbXbXbXbXbXbXbXbXbXbXbXbXbXbXbXbXbXbXbXbXbXbXbXbXbXbXbXbXbX",
"bXbXbXbXbXbXbXbXbXbXbXbXbXbXbXbXbXbXbXbXbXbXbXbXbXbXbX7 X.U.w n bXbXbXbXL e A r I X.O.8 ( bXbXbXbXbXbXbXbXbXbXbXbXbXbXbXbXbXbXbXbXbXbXbXbXbXbXbXbXbXbX",
"bXbXbXbXbXbXbXbXbXbXbXbXbXbXbXbXbXbXbXbXbXbXbXbXbXbX) ..u o o 6 bXbXbXbXK e G q y r q A ..W bXbXbXbXbXbXbXbXbXbXbXbXbXbXbXbXbXbXbXbXbXbXbXbXbXbXbXbXbX",
"bXbXbXbXbXbXbXbXbXbXbXbXbXbXbXbXbXbXbXbXbXbXbXbXbXbXH X.u g.L...E bXbXbXJ U s t q ).(.m.q.oX&.bXbXbXbXbXbXbXbXbXbXbXbXbXbXbXbXbXbXbXbXbXbXbXbXbXbXbXbX",
"bXbXbXbXbXbXbXbXbXbXbXbXbXbXbXbXbXbXbXbXbXbXbXbXbX@.O.y g.Y.Y.r +.T bXbX) L 1 1 1 - # $ d b | bXbXbXbXbXbXbXbXbXbXbXbXbXbXbXbXbXbXbXbXbXbXbXbXbXbXbXbX",
"bXbXbXbXbXbXbXbXbXbXbXbXbXbXbXbXbXbXbXbXbXbXbXbXbX] ..F g.Y.I.L.x S | bXbX*.#.) ( ` R ^ ^ %.bXbXbXbXbXbXbXbXbXbXbXbXbXbXbXbXbXbXbXbXbXbXbXbXbXbXbXbXbX",
"bXbXbXbXbXbXbXbXbXbXbXbXbXbXbXbXbXbXbXbXbXbXbXbXbXE < t ).wXvXwXh.|.R bXbXbXbXbXbXbXbXbXbXbXbXbXbXbXbXbXbXbXbXbXbXbXbXbXbXbXbXbXbXbXbXbXbXbXbXbXbXbXbX",
"bXbXbXbXbXbXbXbXbXbXbXbXbXbXbXbXbXbXbXbXbXbXbXbXH.E 0 + . . + , , : W bXbXbXbXbXbXbXbXbXbXbXbXbXbXbXbXbXbXbXbXbXbXbXbXbXbXbXbXbXbXbXbXbXbXbXbXbXbXbXbX"
};
