/* XPM */
static char *_9953a90d33a446d916132597a3bd65dksEc4yTicBZUNCNc[] = {
/* columns rows colors chars-per-pixel */
"64 64 244 2 ",
"   c #181A1C",
".  c #3C0E0C",
"X  c #300C0B",
"o  c #2A140D",
"O  c #3A0F1A",
"+  c #281314",
"@  c #391116",
"#  c #3E1006",
"$  c #292217",
"%  c #1E1F26",
"&  c #350A3D",
"*  c #2B1931",
"=  c #381839",
"-  c #2D093A",
";  c #1F2129",
":  c #27282A",
">  c #292D32",
",  c #3C2735",
"<  c #2F3137",
"1  c #3C3D36",
"2  c #39343C",
"3  c #37383A",
"4  c #3A302A",
"5  c #4D060D",
"6  c #4C0A0C",
"7  c #470A03",
"8  c #51090C",
"9  c #490A1B",
"0  c #4A0913",
"q  c #540517",
"w  c #670D1A",
"e  c #432719",
"r  c #550424",
"t  c #44182C",
"y  c #5A1E2C",
"u  c #460F36",
"i  c #570B36",
"p  c #471A38",
"a  c #551A34",
"s  c #4A0D28",
"d  c #761A28",
"f  c #601930",
"g  c #443829",
"h  c #452B38",
"j  c #582935",
"k  c #413B34",
"l  c #50292A",
"z  c #6D252C",
"x  c #6C3C2F",
"c  c #652538",
"v  c #732A37",
"b  c #653638",
"n  c #7C3336",
"m  c #72372E",
"M  c #49413C",
"N  c #6A4934",
"B  c #7B4E3C",
"V  c #785337",
"C  c #675033",
"Z  c #3B0644",
"A  c #3A1545",
"S  c #3D3344",
"D  c #383743",
"F  c #3E2545",
"G  c #480E43",
"H  c #481846",
"J  c #551B48",
"K  c #581757",
"L  c #510E50",
"P  c #631A55",
"I  c #462848",
"U  c #5B2649",
"Y  c #443345",
"T  c #4A334D",
"R  c #692847",
"E  c #732649",
"W  c #7B344D",
"Q  c #783946",
"!  c #6D2859",
"~  c #792753",
"^  c #7B355C",
"/  c #6E3853",
"(  c #6A1465",
")  c #5F2265",
"_  c #772A66",
"`  c #7A3C62",
"'  c #7E2A7B",
"]  c #494847",
"[  c #5A4754",
"{  c #545353",
"}  c #6B5945",
"|  c #78584E",
" . c #685354",
".. c #764A54",
"X. c #7E695F",
"o. c #6B496A",
"O. c #7E4969",
"+. c #735E61",
"@. c #6B6C6C",
"#. c #736A6D",
"$. c #6C6D73",
"%. c #766672",
"&. c #727875",
"*. c #8B2734",
"=. c #834B32",
"-. c #87483A",
";. c #90533E",
":. c #873C4A",
">. c #823C54",
",. c #853559",
"<. c #92304E",
"1. c #A6394E",
"2. c #B13255",
"3. c #863467",
"4. c #892B71",
"5. c #A3347F",
"6. c #8A4C44",
"7. c #8B454E",
"8. c #8B494B",
"9. c #854B48",
"0. c #914D4A",
"q. c #8A5749",
"w. c #955A45",
"e. c #95554A",
"r. c #9A5B4D",
"t. c #985748",
"y. c #864555",
"u. c #954657",
"i. c #995551",
"p. c #895859",
"a. c #B15953",
"s. c #9A6447",
"d. c #9A6A59",
"f. c #8A6D54",
"g. c #A56F42",
"h. c #A96F46",
"j. c #A66D4A",
"k. c #A4674A",
"l. c #B1644B",
"z. c #A57042",
"x. c #A87045",
"c. c #AC6657",
"v. c #B56655",
"b. c #AB785B",
"n. c #B4795E",
"m. c #8D5C68",
"M. c #985B69",
"N. c #884C72",
"B. c #B45967",
"V. c #B05372",
"C. c #87646D",
"Z. c #857A77",
"A. c #9A7979",
"S. c #9C716E",
"D. c #BC7D6F",
"F. c #A86871",
"G. c #A57876",
"H. c #B6706A",
"J. c #CF7C5C",
"K. c #CB7660",
"L. c #8B8272",
"P. c #B8836B",
"I. c #A78777",
"U. c #B49C78",
"Y. c #BA9273",
"T. c #D98160",
"R. c #C68870",
"E. c #D69A7C",
"W. c #9E2487",
"Q. c #A0318A",
"!. c #985589",
"~. c #B74F88",
"^. c #8C7485",
"/. c #B4768D",
"(. c #AE7598",
"). c #A9718D",
"_. c #B26FA3",
"`. c #AE4EAA",
"'. c #C47F9F",
"]. c #858B88",
"[. c #998A92",
"{. c #9A8D8D",
"}. c #B88A89",
"|. c #AD9C85",
" X c #BA899A",
".X c #AC9190",
"XX c #AAA298",
"oX c #BAAA9B",
"OX c #AE87AA",
"+X c #BB86A8",
"@X c #BA9DA4",
"#X c #C89987",
"$X c #C8959A",
"%X c #D19693",
"&X c #C78A8E",
"*X c #D0A08E",
"=X c #DAB392",
"-X c #EABB8D",
";X c #E4AD95",
":X c #E0A89D",
">X c #EFBA9B",
",X c #C589A6",
"<X c #CA91A6",
"1X c #D094B5",
"2X c #C4A2A5",
"3X c #D4ABB3",
"4X c #E3ACA4",
"5X c #E9BBBA",
"6X c #E1BDAE",
"7X c #EBC599",
"8X c #D4C2AC",
"9X c #EAC9A7",
"0X c #F3CFA2",
"qX c #F8D9A6",
"wX c #FCDCBB",
"eX c #F9DCB4",
"rX c #F0CAB5",
"tX c #FBE3AB",
"yX c #FAE0B5",
"uX c #F7E1B6",
"iX c #CF9EC7",
"pX c #CBA2C5",
"aX c #DAB4C8",
"sX c #E6BCC4",
"dX c #DDD3D6",
"fX c #DAC6CA",
"gX c #EBCECE",
"hX c #E8CCCB",
"jX c #F4C3C9",
"kX c #E7CFD7",
"lX c #EBCED5",
"zX c #EBCDDC",
"xX c #EAC8D6",
"cX c #F1CDD5",
"vX c #FAC9DD",
"bX c #E2D3D6",
"nX c #E4D2DA",
"mX c #ECD2D6",
"MX c #FED3D4",
"NX c #FED4D9",
"BX c #FEDCC2",
"VX c #F8E3C1",
"CX c #FED2E6",
"ZX c #F9D2E8",
/* pixels */
"z.z.z.z.g.g.g.g.g.g.g.g.g.g.g.g.g.g.g.g.g.g.z.z.z.z.z.z.z.z.z.z.z.z.z.z.z.g.g.g.z.z.z.z.z.z.z.z.z.z.z.z.z.z.z.z.z.z.z.z.z.z.z.z.",
"z.z.z.g.g.g.g.g.g.g.g.g.g.g.g.g.g.g.g.g.g.g.g.g.g.g.g.g.g.g.g.g.g.g.g.g.g.z.z.z.z.z.z.z.z.z.z.z.z.z.z.z.z.z.z.z.z.z.z.z.z.z.g.g.",
"z.z.z.g.g.g.g.g.g.g.g.g.g.g.g.g.g.g.g.g.g.g.g.g.g.g.g.g.g.g.g.g.g.g.g.g.g.z.z.z.z.z.z.z.z.z.z.z.z.z.z.z.z.z.z.z.z.z.z.z.z.z.g.g.",
"z.z.z.g.g.g.g.g.g.g.g.g.g.g.g.g.g.g.g.g.g.g.g.g.g.g.g.g.g.g.g.g.g.g.g.g.g.z.z.z.z.z.z.z.z.z.z.z.z.z.z.z.z.z.z.z.z.z.z.z.z.z.g.g.",
"z.z.z.g.g.g.g.g.g.g.g.g.g.g.g.g.g.g.g.g.g.g.g.g.g.g.g.g.g.g.g.g.g.g.g.g.g.z.z.z.z.z.z.z.z.z.z.z.z.z.z.z.z.z.z.z.z.z.z.z.z.z.g.g.",
"z.z.z.g.g.g.g.g.g.g.g.g.g.g.g.g.g.g.g.g.g.g.g.g.g.g.g.g.g.g.g.g.g.g.g.g.g.z.z.g.z.z.z.z.z.z.z.z.z.z.z.z.z.z.z.z.z.z.z.z.z.z.g.g.",
"z.z.z.g.g.g.g.g.g.g.g.g.g.g.g.z.z.z.z.z.z.z.g.g.g.g.g.g.g.0.Q Q >.8.s.g.g.z.z.g.z.z.z.z.z.z.z.z.z.z.z.z.z.z.z.z.z.g.g.g.g.g.g.g.",
"z.z.g.g.g.g.g.g.g.g.g.g.g.g.z.z.z.z.z.z.z.z.g.g.g.g.g.g.<X/.pXpXiX,X<XP.g.z.z.z.z.z.z.z.z.z.z.z.z.z.z.z.z.z.z.z.z.g.g.g.g.g.g.g.",
"z.z.g.g.g.g.g.g.g.g.g.g.g.g.z.z.z.z.z.z.z.z.g.g.g.g.k.,X<XjX2X@X2XrX$X<Xg.z.g.z.z.z.z.z.z.z.z.z.z.z.z.z.z.z.z.z.z.g.g.g.g.g.g.g.",
"z.z.g.g.g.g.g.g.g.g.g.g.g.g.z.z.z.z.z.z.z.z.g.g.g.b.V.~.jX%X%XjX%XP.rX$Xs.z.g.z.z.z.z.z.z.z.z.z.z.z.z.z.z.z.z.z.z.g.g.g.g.g.g.g.",
"z.z.g.g.g.g.g.g.g.g.g.g.g.g.z.z.z.z.z.z.z.z.g.g.w.y.<XjX4Xv.l.K.l.l.4XMXaX%Xz.g.z.z.z.z.z.z.z.z.z.z.z.z.z.z.z.z.z.g.g.g.g.g.g.g.",
"z.z.g.g.g.g.g.g.g.g.g.g.g.g.z.z.z.z.z.z.z.z.g.g.;.y.hXMXD.v.J.T.T.K.D.5XZXvXP.g.z.z.z.z.z.z.z.z.z.z.z.z.z.z.z.z.z.g.g.g.g.g.g.g.",
"z.z.g.g.g.g.g.g.g.g.g.g.g.g.g.g.g.g.g.g.g.g.z.z.3.:XMXNXv.E.wXeXyX-Xc.4XNXsX1XD.z.z.z.z.z.z.z.z.z.z.z.z.z.z.z.z.z.z.z.z.z.z.g.g.",
"z.z.g.g.g.g.g.g.g.g.g.g.g.g.g.g.g.g.g.g.g.g.z.z.!.vXMX5XR.>XwXVXeX0XR.%XNXNX/.r.z.z.z.z.z.z.z.z.z.z.z.z.z.z.z.z.z.z.z.z.z.z.g.g.",
"z.z.g.g.g.g.g.g.g.g.g.g.g.g.g.g.g.g.g.g.g.g.z.z.N.CXNX}.s.7XeXyXeX0Xs.q.MXNXm.;.z.z.z.z.z.z.z.z.z.z.z.z.z.z.z.z.z.z.z.z.z.z.z.g.",
"z.z.z.g.g.g.g.g.g.g.g.g.g.g.g.g.g.g.g.g.g.g.z.6.(.CXMX&Xq.N U.0XY.C q.N MXMX/.,.z.z.z.z.z.z.z.z.z.z.z.z.z.z.z.z.z.z.z.z.z.z.z.z.",
"z.z.z.g.g.g.g.g.g.g.g.g.g.g.g.g.g.g.g.g.g.g.w.W  XNXNX}.#XU.|.d.|.XXL.g A.MX&X` w.z.z.z.z.z.z.z.z.z.z.z.z.z.z.z.z.z.z.z.z.z.z.z.",
"z.z.z.g.g.g.g.g.g.g.g.g.g.g.g.g.g.g.g.g.g.g.,.3.}.NXMXG.| g : 4 k 1 1 $  .NX)...R z.z.z.z.z.z.z.z.z.z.z.z.z.z.z.z.z.z.z.z.z.z.z.",
"z.z.z.g.g.g.g.g.g.g.g.g.z.z.z.z.z.z.z.z.z.z.,.:.N.3XA.e $ k < @.].&.{ >  .ZXG.=.~ z.z.z.z.z.z.z.z.z.z.z.z.z.z.z.z.z.z.z.z.z.z.z.",
"z.z.z.g.g.g.g.g.g.g.g.z.z.z.z.z.z.z.z.z.z.z.r.k.i b f.I.|.{.3 ] { ] :   X.O.d.z.r.z.z.z.z.z.z.z.z.z.z.z.z.z.z.z.z.z.z.z.z.z.z.z.",
"z.z.z.z.g.g.g.g.g.g.g.z.z.z.z.z.z.z.z.z.z.z.t.^ | #X7XE.d.} : g o + o f.9X4XN._ w.z.z.z.z.z.z.z.z.z.z.z.z.z.z.z.z.z.z.z.z.z.z.z.",
"z.z.z.z.x.x.x.x.z.z.z.z.z.z.z.z.z.z.z.z.z.s.3.).}.Y.n.;.7 . o d.# @ X x b.#X X+X3.r.z.z.z.z.z.z.z.z.z.z.z.z.z.z.z.z.z.z.z.z.z.z.",
"z.z.z.z.x.x.x.x.z.z.z.z.z.z.z.z.z.z.z.z.z.6.!.+X XS.p.b 6 6 8 c.7 6 0 . q.9.'.,X`.4.z.z.z.z.z.z.z.z.z.z.z.z.z.z.z.z.z.z.z.z.z.z.",
"z.z.z.z.z.z.z.z.z.z.z.z.z.z.z.z.z.z.z.z.z.s.3.' ! ^ A.b 6 w *.v.n d 5 . S..._ _ 4.i.z.z.z.z.z.z.z.z.z.z.z.z.z.z.z.z.z.z.z.z.z.z.",
"z.z.z.z.z.z.z.z.z.z.z.z.z.z.z.z.z.z.z.z.z.z.z.z.h.w.c s 1.1.2.B.u.1.7.y z -.g.z.z.z.z.z.z.z.g.g.z.z.x.x.x.z.z.z.z.z.z.z.z.z.z.z.",
"z.z.z.z.z.z.z.z.z.z.z.z.z.z.z.z.z.z.z.z.z.z.z.z.z.z.j.E <.<.2.V.u.<.Q a h.z.g.g.z.z.z.z.z.z.g.g.z.z.x.x.x.x.z.z.z.z.z.z.z.z.z.z.",
"z.z.z.z.z.z.z.z.z.z.z.z.z.z.z.z.z.z.z.z.z.z.z.z.z.z.z.E q w d M.y f 0 r z.g.z.g.z.z.z.z.z.z.g.g.z.z.x.x.z.z.z.z.z.z.z.z.z.z.z.z.",
"z.z.z.z.z.z.z.z.z.z.z.z.z.z.z.z.z.z.z.z.z.z.z.z.z.z.z.E r 8 8 p.@ 9 9 i g.z.g.g.z.z.z.z.z.z.g.g.z.z.x.x.z.z.z.z.z.z.z.z.z.z.z.z.",
"z.z.z.z.z.z.z.z.z.z.z.z.z.z.z.z.z.z.z.z.z.z.z.z.z.z.z.E r 5 8 8 y.j O u z.z.z.z.z.z.z.z.z.z.g.g.z.z.z.z.z.z.z.z.z.z.z.z.z.z.z.z.",
"z.z.z.z.z.z.z.z.z.z.z.z.z.z.z.z.z.z.z.z.z.z.z.z.z.z.z.E q 8 5 8 y ..t t z.z.z.z.z.z.z.z.z.z.z.z.z.z.z.g.z.z.z.z.z.z.z.z.z.z.z.g.",
"x.x.z.z.z.z.z.z.z.z.z.z.z.z.z.z.z.z.z.z.z.z.z.z.z.z.z.R 9 0 0 0 O t  .R z.z.z.z.z.z.z.z.z.z.z.z.z.z.z.z.z.z.z.z.z.z.z.z.z.z.g.g.",
"x.x.z.z.z.z.z.z.z.z.z.z.z.z.z.z.z.z.z.z.z.z.z.z.z.z.j.R c M.M.m.C.C.[ a z.z.z.z.z.z.z.z.z.z.z.z.z.z.z.z.z.z.z.z.z.z.z.z.z.z.g.g.",
"x.x.z.z.z.z.z.z.z.z.z.z.z.z.z.z.z.z.z.z.z.z.z.z.z.z.E !. X3XlXkXmXsX2X,XW z.z.z.z.z.z.z.z.z.z.z.z.z.z.z.z.z.z.z.z.z.z.z.z.z.g.g.",
"x.x.z.z.x.x.z.z.z.z.z.z.z.z.z.z.z.z.z.z.z.z.z.z.z.k.3.(.3XcXmXnXlXgXcXaX` w.z.z.z.z.z.z.z.z.z.z.z.z.z.z.z.z.z.z.z.z.z.z.z.z.g.g.",
"z.z.z.z.x.x.x.z.z.z.z.z.z.z.z.z.z.z.z.z.z.z.z.z.z.0._.xXzXlXgX3XlXgXlXzXOXR z.z.z.z.z.z.z.z.z.z.z.z.z.z.z.z.z.z.z.z.z.z.z.z.g.g.",
"z.z.z.z.x.x.x.z.z.z.z.z.z.z.z.z.z.g.g.g.g.g.g.g.g.6.+XcXzXkXgXA.lXmXnXzXOXR g.h.g.g.g.g.g.g.g.g.g.g.g.g.g.g.g.g.g.g.g.g.g.g.g.g.",
"z.x.z.z.z.z.x.z.z.z.z.z.z.z.z.z.z.g.g.g.g.g.g.g.0.O.aXgXnXnXfX+.fXbXbXnXaX_.0.g.g.g.g.g.g.g.g.g.g.g.g.g.g.g.g.g.g.g.g.g.g.g.g.g.",
"x.x.x.x.z.z.x.z.z.z.z.z.z.z.z.z.z.g.g.g.g.g.g.g.6.N.bXbXnXnX.X[ [.dXbXbXzX,X8.g.g.g.g.g.g.g.g.g.g.g.g.g.g.g.g.g.g.g.g.g.g.g.g.g.",
"x.x.x.x.z.z.z.z.z.z.z.z.z.z.z.z.z.g.g.g.g.g.g.g.6.U #.@.dXnX%., %.dXbX[.%.o.6.g.g.g.g.g.g.g.g.g.g.g.g.g.g.g.g.g.g.g.g.g.g.g.g.g.",
"x.x.x.x.z.z.z.z.z.z.z.z.z.z.z.z.z.g.g.g.g.g.g.g.6.p < 3 @.@.[ = [ #.#.] 2 I 6.g.g.g.g.g.g.g.g.g.g.g.g.g.g.g.g.g.g.g.g.g.g.g.g.g.",
"z.z.z.z.z.z.z.z.z.z.z.z.z.z.z.z.z.z.g.g.g.g.g.g.w.R Y $.].$.* B u [ ].].2 U w.g.g.g.g.g.g.g.g.g.g.g.g.g.g.g.g.g.g.g.g.g.g.g.g.g.",
"z.z.z.z.z.z.z.z.z.z.z.z.z.z.z.z.z.z.z.z.z.z.z.g.h.6./ Z.].$.* B G [ ].]., b g.g.g.g.g.g.g.g.g.g.g.g.g.g.g.g.g.g.g.g.g.g.g.g.g.g.",
"z.z.z.z.z.z.z.z.z.z.z.z.z.z.z.z.z.z.z.z.z.z.z.z.h.6.F.=X8XoXj =.! }.8X8X| v g.g.g.g.g.g.g.g.g.g.g.g.g.g.g.g.g.g.g.g.g.g.g.g.g.g.",
"z.z.z.z.z.z.z.z.z.z.z.z.z.z.z.z.z.z.z.z.z.z.z.z.h.0.a.-XuX9Xx =.^ :XwXBXF.v g.g.g.g.g.g.g.g.g.g.g.g.g.g.g.g.g.g.g.g.g.g.g.g.g.g.",
"z.z.z.z.z.z.z.z.z.z.z.z.z.z.z.z.z.z.z.z.z.z.z.z.z.h.z d.tX7Xm =.,.;XeXrXc g.g.g.g.g.g.g.g.g.g.g.g.g.g.g.g.g.g.g.g.g.g.g.g.g.g.g.",
"z.z.z.z.z.z.z.z.z.z.z.z.z.z.z.z.z.z.z.z.z.z.z.z.z.h.z d.yX9Xm =.,.;XqX=Xv g.g.g.g.g.g.g.g.g.g.g.g.g.g.g.g.g.g.g.g.g.g.g.g.g.g.g.",
"z.z.z.z.z.z.z.z.z.z.z.z.g.z.z.z.z.z.z.z.z.z.z.z.z.h.z d.wX9Xn -.,.;XtX0X>.:.z.z.z.z.z.z.z.g.g.g.g.g.g.g.g.g.g.g.g.g.g.g.z.z.z.z.",
"z.z.z.z.z.z.z.z.z.z.z.g.g.g.z.z.z.z.z.z.z.z.z.z.z.e.:.P.uX6XE -.,.*XtXyX.XU w.z.z.z.z.z.z.z.g.g.g.g.g.g.g.g.g.g.g.g.g.g.z.z.z.z.",
"z.z.z.z.z.z.z.z.z.z.z.g.g.g.z.z.z.z.z.z.z.z.z.z.j.7.f q.rX,X8.h.t.u.<XoX1 h Q s.z.z.z.z.z.z.g.g.g.g.g.g.g.g.g.g.g.g.g.g.z.z.z.z.",
"z.z.z.z.z.z.z.z.z.z.z.g.g.g.z.z.z.z.z.z.z.z.z.z.j.8.H h I.).t.z.g.e.J h 1 1 p 6.g.g.z.z.z.z.g.g.g.g.g.g.g.g.g.g.g.g.g.g.z.z.z.z.",
"z.z.z.z.z.z.z.z.z.z.z.g.g.g.z.z.z.z.z.z.z.z.z.z.e.U I Y J E h.z.g.g.R H 2 D I ! h.g.g.g.z.z.g.g.g.g.g.g.g.g.g.g.g.g.g.g.z.z.z.z.",
"z.z.z.z.z.z.z.z.z.z.z.g.g.g.z.z.z.z.z.z.z.z.z.z.8.H 2 S U t.z.z.g.z.e.U S D T K j.g.g.z.z.z.g.g.g.g.g.g.g.g.g.g.g.g.g.g.z.z.z.z.",
"g.g.g.g.g.g.g.g.g.g.g.g.g.g.z.z.z.z.z.z.z.z.z.h.W p 3 S E h.z.z.z.z.z.>.A D Y G h.z.z.z.x.x.x.z.g.g.g.g.g.z.g.g.g.g.g.g.z.z.g.g.",
"g.g.g.g.g.g.g.g.g.g.g.g.g.g.z.z.z.z.z.z.z.z.z.j.K Y 3 F :.h.z.z.z.z.z.x.A 2 S A i.c.z.z.x.x.x.z.g.g.g.g.g.z.g.g.g.g.g.g.z.z.g.g.",
"g.g.g.g.g.g.g.g.g.g.g.g.g.g.z.z.z.z.z.z.z.z.z.j.G S 2 A h.z.z.z.z.z.z.z.& % : : P V.x.x.x.x.z.z.g.g.g.g.g.z.g.z.z.g.g.g.z.z.g.g.",
"g.g.g.g.g.g.g.g.g.g.g.g.g.g.z.z.z.z.z.z.z.z.B.3.I 3 S L x.z.z.z.z.z.z.z.& > : < K 4.c.x.x.x.z.z.g.g.g.g.g.z.g.z.z.g.g.g.z.z.g.g.",
"g.g.g.g.g.g.g.g.g.g.g.g.g.g.z.z.z.z.z.z.z.z.~.( < > A 9.z.z.z.z.z.z.z.z.u g g g H ( c.z.z.z.z.z.g.g.g.g.g.z.g.z.z.g.g.g.z.z.g.g.",
"g.g.g.g.g.g.g.g.g.g.g.g.g.g.g.z.z.z.z.z.z.k.Q.K : ; Z 9.z.z.z.z.z.z.z.z.a } C } p R j.z.z.z.z.z.g.g.g.g.z.z.z.z.z.g.g.g.z.z.z.g.",
"z.z.z.g.g.g.g.g.g.g.g.g.g.g.g.g.g.g.g.g.g.B.( I { 2 G 8.z.z.z.z.z.z.z.z.L T M ] G ~ z.z.z.z.z.z.z.z.z.z.z.z.z.z.z.z.z.z.z.z.z.z.",
"z.z.z.g.g.g.g.g.g.g.g.g.g.g.g.g.g.g.g.g.c.5.K o.Z. .G 8.z.z.z.z.z.z.z.z./ Z & - K e.z.z.z.z.z.z.z.z.z.z.z.z.z.z.z.z.z.z.z.z.z.z.",
"z.z.z.g.g.g.g.g.g.g.g.g.g.g.g.g.g.g.g.g.B.W.H ^.XX{.K 8.z.z.z.z.z.z.z.z.z.z.z.z.z.z.z.z.z.z.z.z.z.z.z.z.z.z.z.z.z.z.z.z.z.z.z.z.",
"z.z.z.g.g.g.g.g.g.g.g.g.g.g.z.z.z.z.z.z.h.i.J ^.XX[.) 8.z.z.z.z.z.z.z.z.z.z.z.z.z.z.z.z.z.z.z.z.z.z.z.z.z.z.z.z.z.z.z.z.z.z.z.z.",
"z.z.z.g.g.g.g.g.g.g.g.g.g.g.z.z.z.z.z.z.x.z.w.B V V 9.s.z.z.z.z.z.z.z.z.z.z.z.z.z.z.z.z.z.z.z.z.z.z.z.z.z.z.z.z.z.z.z.z.z.z.z.z.",
"z.z.z.g.g.g.g.g.g.g.g.g.g.g.g.g.g.g.z.z.z.z.z.z.z.z.z.z.z.z.z.z.z.z.z.z.z.z.z.z.z.z.z.z.z.z.z.z.z.z.z.z.z.z.z.z.z.z.z.z.z.z.z.z."
};
