/* XPM */
static char *e0decc27ae9e4d3fa90bb733439686cdxsLvmjMsOxIBIXXj[] = {
/* columns rows colors chars-per-pixel */
"64 64 242 2 ",
"   c #320D0D",
".  c #291211",
"X  c #3B1418",
"o  c #340E14",
"O  c #1A1D24",
"+  c #1D1831",
"@  c #3A163B",
"#  c #2D112A",
"$  c #1D2529",
"%  c #28272C",
"&  c #3A372C",
"*  c #2D2B36",
"=  c #3A253A",
"-  c #2A3535",
";  c #393738",
":  c #34292D",
">  c #181518",
",  c #550609",
"<  c #4A0A13",
"1  c #480915",
"2  c #520613",
"3  c #4F1211",
"4  c #671417",
"5  c #6C110B",
"6  c #6D2F1C",
"7  c #551A27",
"8  c #4B1637",
"9  c #531029",
"0  c #6E152F",
"q  c #562828",
"w  c #48273D",
"e  c #582538",
"r  c #433238",
"t  c #4F3326",
"y  c #65263A",
"u  c #763639",
"i  c #6A2D31",
"p  c #3E4239",
"a  c #4A4534",
"s  c #674D3E",
"d  c #7C493D",
"f  c #765334",
"g  c #785538",
"h  c #3C1F40",
"j  c #3A2743",
"k  c #3A3843",
"l  c #441C49",
"z  c #551C47",
"x  c #530E59",
"c  c #491A55",
"v  c #551C56",
"b  c #470D4D",
"n  c #641656",
"m  c #6E1E56",
"M  c #43224C",
"N  c #462845",
"B  c #5D2543",
"V  c #542448",
"C  c #433348",
"Z  c #4C2953",
"A  c #57314F",
"S  c #662648",
"D  c #752648",
"F  c #6B3C47",
"G  c #7D3E4B",
"H  c #783A48",
"J  c #692356",
"K  c #742959",
"L  c #6B3256",
"P  c #773757",
"I  c #5C1C68",
"U  c #781D62",
"Y  c #5C2B65",
"T  c #6E326D",
"R  c #4D474E",
"E  c #4F4556",
"W  c #574958",
"Q  c #495355",
"!  c #565155",
"~  c #5B4B4A",
"^  c #7F4845",
"/  c #63544E",
"(  c #7A4556",
")  c #6B5656",
"_  c #6F5452",
"`  c #706857",
"'  c #534C62",
"]  c #5C5D62",
"[  c #645561",
"{  c #744273",
"}  c #794374",
"|  c #714F75",
" . c #66636B",
".. c #736C6D",
"X. c #6B6A72",
"o. c #776D73",
"O. c #8B3233",
"+. c #89473A",
"@. c #92583F",
"#. c #975137",
"$. c #A8613F",
"%. c #821844",
"&. c #842E47",
"*. c #883649",
"=. c #873C53",
"-. c #9E3D52",
";. c #923654",
":. c #922950",
">. c #AB374A",
",. c #A83856",
"<. c #B0324C",
"1. c #8C396A",
"2. c #854B44",
"3. c #864B49",
"4. c #894B4A",
"5. c #864447",
"6. c #93484B",
"7. c #8E5743",
"8. c #8F5749",
"9. c #925644",
"0. c #955749",
"q. c #99564C",
"w. c #94584A",
"e. c #985944",
"r. c #8A4654",
"t. c #954559",
"y. c #885553",
"u. c #9B5A5D",
"i. c #A94A5F",
"p. c #BB4A5D",
"a. c #AA5556",
"s. c #B5515B",
"d. c #A8574C",
"f. c #9C6345",
"g. c #9E6548",
"h. c #837559",
"j. c #906B4F",
"k. c #A56F42",
"l. c #AB654E",
"z. c #A57042",
"x. c #A87044",
"c. c #B26E54",
"v. c #864767",
"b. c #9A4A69",
"n. c #9A5966",
"m. c #8D4773",
"M. c #8B5078",
"N. c #A84C62",
"B. c #A65969",
"V. c #886570",
"C. c #877476",
"Z. c #90736B",
"A. c #AF6D6E",
"S. c #C87556",
"D. c #C96F55",
"F. c #C6777B",
"G. c #788A75",
"H. c #B3855C",
"J. c #8D837B",
"K. c #848161",
"L. c #A68D6E",
"P. c #B28978",
"I. c #B18B79",
"U. c #CB9353",
"Y. c #D08C55",
"T. c #E1985C",
"R. c #CA8767",
"E. c #D89867",
"W. c #D48A78",
"Q. c #D5997A",
"!. c #C68E78",
"~. c #DEAD7E",
"^. c #E7AC7D",
"/. c #7F5384",
"(. c #7D6986",
"). c #767182",
"_. c #99498B",
"`. c #8E4D85",
"'. c #8A6B84",
"]. c #98678A",
"[. c #90768F",
"{. c #BA7887",
"}. c #A97191",
"|. c #AD73A8",
" X c #89858A",
".X c #978B8B",
"XX c #B48A8D",
"oX c #BB8B8B",
"OX c #AE8E93",
"+X c #B58A94",
"@X c #A79B97",
"#X c #BE969B",
"$X c #A4828B",
"%X c #B3AA96",
"&X c #A99DA7",
"*X c #BA9AA7",
"=X c #B69DBD",
"-X c #A684B1",
";X c #B9A4B7",
":X c #D49A84",
">X c #C79597",
",X c #C5968B",
"<X c #DAA39D",
"1X c #D6B89A",
"2X c #D2AB8B",
"3X c #E9B785",
"4X c #E5AD9E",
"5X c #C399A9",
"6X c #D89DA7",
"7X c #C492B7",
"8X c #D8A6A7",
"9X c #CEAAB3",
"0X c #E3ACA2",
"qX c #E6AAB7",
"wX c #ECB7BA",
"eX c #EDC58C",
"rX c #F3CC9C",
"tX c #EFCF99",
"yX c #DEC4A2",
"uX c #E2CBA3",
"iX c #FDD9AC",
"pX c #FCDBB3",
"aX c #F4CFA1",
"sX c #F6E9BD",
"dX c #D89DC9",
"fX c #DBB6C3",
"gX c #E7B7C3",
"hX c #E9BBD8",
"jX c #E8AECD",
"kX c #E9B8E6",
"lX c #E7C4C9",
"zX c #FFD4CD",
"xX c #EBC4D3",
"cX c #F5CDD8",
"vX c #E5D1D9",
"bX c #FDD5D5",
"nX c #FCD5DA",
"mX c #FAD8D7",
"MX c #F4C9C0",
"NX c #FFCBE8",
"BX c #FDD2E3",
"VX c #E8D0E2",
/* pixels */
"z.z.z.z.k.k.k.k.k.k.k.k.k.k.k.k.k.k.k.k.k.k.z.z.z.z.z.z.z.z.z.z.z.z.z.z.z.k.k.k.z.z.z.z.z.z.z.z.z.z.z.z.z.z.z.z.z.z.z.z.z.z.z.z.",
"z.z.z.k.k.k.k.k.k.k.k.k.k.k.k.k.k.k.k.k.k.k.k.k.k.k.k.k.k.k.k.k.k.k.k.k.k.z.z.z.z.z.z.z.z.z.z.z.z.z.z.z.z.z.z.z.z.z.z.z.z.z.k.k.",
"z.z.z.k.k.k.k.k.k.k.k.k.k.k.k.k.k.k.k.k.k.k.k.k.k.k.k.k.k.k.k.k.k.k.k.k.k.z.z.z.z.z.z.z.z.z.z.z.z.z.z.z.z.z.z.z.z.z.z.z.z.z.k.k.",
"z.z.z.k.k.k.k.k.k.k.k.k.k.k.k.k.k.k.k.k.k.k.k.k.k.k.k.k.k.k.k.k.k.k.k.k.k.z.z.z.z.z.z.z.z.z.z.z.z.z.z.z.z.z.z.z.z.z.z.z.z.z.k.k.",
"z.z.z.k.k.k.k.k.k.k.k.k.k.k.k.k.k.k.k.k.k.k.k.k.k.k.k.k.k.k.k.k.k.k.k.k.k.z.z.z.z.z.z.z.z.z.z.z.z.z.z.z.z.z.z.z.z.z.z.z.z.z.k.k.",
"z.z.z.k.k.k.k.k.k.k.k.k.k.k.k.k.k.k.k.k.k.k.k.k.k.k.k.k.k.k.k.k.k.k.k.k.k.z.z.z.z.z.z.z.z.z.z.z.z.z.z.z.z.z.z.z.z.z.z.z.z.z.k.k.",
"z.z.z.k.k.k.k.k.k.k.k.k.k.k.k.z.z.z.z.z.z.z.k.k.k.k.k.k.k.k.k.k.k.k.k.k.k.z.z.z.z.z.z.z.z.z.z.z.z.z.z.z.z.z.z.z.z.k.k.k.k.k.k.k.",
"z.z.k.k.k.k.k.k.k.k.k.k.k.k.z.z.z.z.z.z.z.z.k.k.k.k.k.k.k.k.k.k.k.k.k.k.k.z.z.z.z.z.z.z.z.z.z.z.z.z.z.z.z.z.z.z.z.k.k.k.k.k.k.k.",
"z.z.k.k.k.k.k.k.k.k.k.k.k.k.z.z.z.z.z.z.z.z.k.k.k.k.k.k.k.k.k.k.z.z.z.z.k.z.z.z.z.z.z.z.z.z.z.z.z.z.z.z.z.z.z.z.z.k.k.k.k.k.k.k.",
"z.z.k.k.k.k.k.k.k.k.k.k.k.k.z.z.z.z.z.z.z.z.k.k.k.k.k.k.k.k.k.k.k.k.z.z.k.z.z.z.z.z.z.z.z.z.z.z.z.z.z.z.z.z.z.z.z.k.k.k.k.k.k.k.",
"z.z.k.k.k.k.k.k.k.k.k.k.k.k.z.z.z.z.z.z.z.z.k.k.k.k.k.=.S B S B B S w.k.k.z.z.z.z.z.z.z.z.z.z.z.z.z.z.z.z.z.z.z.z.k.k.k.k.k.k.k.",
"z.z.k.k.k.k.k.k.k.k.k.k.k.k.z.z.z.z.z.z.z.z.k.k.k.q.D }.|.'.=X=X=X-XP w.k.z.z.z.z.z.z.z.z.z.z.z.z.z.z.z.z.z.z.z.z.k.k.k.k.k.k.k.",
"z.z.k.k.k.k.k.k.k.k.k.k.k.k.k.k.k.k.k.k.k.k.z.z.v.|.jXB.t.{.*X*XC.}.|._.0.z.z.z.z.z.z.z.z.z.z.z.z.z.z.z.z.z.z.z.z.z.z.z.z.z.k.k.",
"z.z.k.k.k.k.k.k.k.k.k.k.k.k.k.k.k.k.k.k.k.k.z.z._.NX{.-.N.>XnXmXI.#XBXNXm.9.z.z.z.z.z.z.z.z.z.z.z.z.z.z.z.z.z.z.z.z.z.z.z.z.k.k.",
"z.z.k.k.k.k.k.k.k.k.k.k.k.k.k.k.k.k.k.k.k.k.z.*.dXqXN.,.gXnXbXzX<XzX8XgXhX}.D w.z.z.z.z.z.z.z.z.z.z.z.z.z.z.z.z.z.z.z.z.z.z.z.k.",
"z.z.z.k.k.k.k.k.k.k.k.k.k.k.k.k.k.k.k.k.k.k.z.S NX6X,.,.nXnXbX<Xc.W.A.A.BXhX7Xv.K 1.z.z.z.z.z.z.z.z.z.z.z.z.z.z.z.z.z.z.z.z.z.z.",
"z.z.z.k.k.k.k.k.k.k.k.k.k.k.k.k.k.k.k.k.k.k.9.v.nX8X&.6XnXmX!.l.D.D.D.c.wXbXlX7XG z.z.z.z.z.z.z.z.z.z.z.z.z.z.z.z.z.z.z.z.z.z.z.",
"z.z.z.k.k.k.k.k.k.k.k.k.k.k.k.k.k.k.k.k.k.f.m.dXbX>X^ 8XmXMXR.c.^.^.^.R.F.wX8XK z.z.z.z.z.z.z.z.z.z.z.z.z.z.z.z.z.z.z.z.z.z.z.z.",
"z.z.z.k.k.k.k.k.k.k.k.k.z.z.z.z.z.z.z.z.9.v.hXBXwXn.>XbXbX4XY.3XiXiXpX2Xu oXBX`.z.z.z.z.z.z.z.z.z.z.z.z.z.z.z.z.z.z.z.z.z.z.z.z.",
"z.z.z.k.k.k.k.k.k.k.k.z.z.z.z.z.z.z.z.t.m.dXBXnX{.r.>XnXwX!.E.rXpXpXyX` q XXBX`.z.z.z.z.z.z.z.z.z.z.z.z.z.z.z.z.z.z.z.z.z.z.z.z.",
"z.z.z.z.k.k.k.k.k.k.k.z.z.z.z.z.z.z.z.z.0.D =.=.a.6.8XmX8Xy.s a L.2XK.G.t B.qX`.z.z.z.z.z.z.z.z.z.z.z.z.z.z.z.z.z.z.z.z.z.z.z.z.",
"z.z.z.z.x.x.x.z.z.z.z.z.z.z.z.z.z.z.z.z.z.z.i 2 u , >XbX>XA.uX%Xh.iXsX%Xt u.{.m.z.z.z.z.z.z.z.z.z.z.z.z.z.z.z.z.z.z.z.z.z.z.z.z.",
"z.z.z.z.x.x.x.x.z.z.z.z.z.z.z.z.z.z.z.z.z.e.:.0 < 2 >X6Xy.+.3XuXuXtXrX1XX F D 2.z.z.z.z.z.z.z.z.z.z.z.z.z.z.z.z.z.z.z.z.z.z.z.z.",
"z.z.z.z.z.z.z.z.z.z.z.z.z.z.z.z.z.z.z.z.e.*.%.9 < q 5.u.7 q Q.aXeXU.:Xn.u U U 2.z.z.z.z.z.z.z.z.z.z.z.z.z.z.z.z.z.z.z.z.z.z.z.z.",
"z.z.z.z.z.z.z.z.z.z.z.z.z.z.z.z.z.z.z.z.;.*.&.0 9 7 r.y.o 3 6 @.z.g.i u z.6.6.z.z.z.z.z.z.z.k.k.z.z.x.x.x.z.z.z.z.z.z.z.z.z.z.z.",
"z.z.z.z.z.z.z.z.z.z.z.z.z.z.z.z.z.z.z.z.z.z.z.J H 2.L 7 < 6 S.6     1 9 e.q.q.k.z.z.z.z.z.z.k.k.z.z.x.x.x.x.z.z.z.z.z.z.z.z.z.z.",
"z.z.z.z.z.z.z.z.z.z.z.z.z.z.z.z.z.z.z.z.z.z.z.q.@.r.#Xu , +.l.4 1 < < 2 N.O.z.z.z.z.z.z.z.z.k.k.z.z.x.x.z.z.z.z.z.z.z.z.z.z.z.z.",
"z.z.z.z.z.z.z.z.z.z.z.z.z.z.z.z.z.z.z.z.z.z.z.z.+.G 0XO.O.d.d.O.0 , , +.:XA.e.z.z.z.z.z.z.z.k.k.z.z.x.x.z.z.z.z.z.z.z.z.z.z.z.z.",
"z.z.z.z.z.z.z.z.z.z.z.z.z.z.z.z.z.z.0.4.3.0.z.z.e.=.F.O.>.p.s.>.>.O.5 $.~.{.2.z.z.z.z.z.z.z.k.k.z.z.z.z.z.z.z.z.z.z.z.z.z.z.z.z.",
"z.z.z.z.z.z.z.z.z.z.z.z.z.z.z.z.z.g.1.T I n g.z.z.@.;.-.>.p.s.>.<.>.5 #.E.B.i d 9.z.z.z.z.z.z.z.z.z.z.k.z.z.z.z.z.z.z.z.z.z.z.k.",
"x.x.z.z.z.z.z.z.z.z.z.z.z.z.z.z.z.4.v C j M T w.z.z.y D ,.i.b.-.<.O.5 #.c.q % ' { G z.z.z.z.z.z.z.z.z.z.z.z.z.z.z.z.z.z.z.z.k.k.",
"x.x.z.z.z.z.z.z.z.z.z.z.z.z.z.z.z.3.T  .R C Y 3.z.z.y 9 -.i.n.t.0 4 2 q i X O * Z V 8.z.z.z.z.z.z.z.z.z.z.z.z.z.z.z.z.z.z.z.k.k.",
"x.x.z.z.z.z.z.z.z.z.z.z.z.z.z.z.z.2.M k - ; j b +.+.&.7 , u y 1 2 < X . % : % Q ! = 2.z.z.z.z.z.z.z.z.z.z.z.z.z.z.z.z.z.z.z.k.k.",
"x.x.z.z.z.x.z.z.z.z.z.z.z.z.z.z.z.3.{ X.Q $ O = u e.Q.O., q F 7 < < X . ; % O - k N 2.z.z.z.z.z.z.z.z.z.z.z.z.z.z.z.z.z.z.z.k.k.",
"z.z.z.z.x.x.x.z.z.z.z.z.z.z.z.z.z.g.J l - - $ : ,X!.Q.O., < q ( < < X . ..> O - k c 2.z.z.z.z.z.z.z.z.z.z.z.z.z.z.z.z.z.z.z.k.k.",
"z.z.z.z.x.x.x.z.z.z.z.z.z.z.z.z.z.k.9.J @ @ # @ H u u 3 2 < 1 q F < X . N # @ = h v f.k.k.k.k.k.k.k.k.k.k.k.k.k.k.k.k.k.k.k.k.k.",
"z.z.z.z.z.z.x.z.z.z.z.z.z.z.z.z.z.k.k.k.k.k.k.k.k.z.y ].oXoXXX5X+XXXXXOX8 8.=.K =.k.k.k.k.k.k.k.k.k.k.k.k.k.k.k.k.k.k.k.k.k.k.k.",
"x.x.x.x.z.z.x.z.z.z.z.z.z.z.z.z.z.k.k.k.k.k.k.k.k.f.P *XXXoXXXwX5X+XXX+XZ z f.k.k.k.k.k.k.k.k.k.k.k.k.k.k.k.k.k.k.k.k.k.k.k.k.k.",
"x.x.x.x.z.z.z.z.z.z.z.z.z.z.z.z.z.k.k.k.k.k.k.k.9.P 5XxXXXXX9XlXxX9X+X+XV.V P 9.k.k.k.k.k.k.k.k.k.k.k.k.k.k.k.k.k.k.k.k.k.k.k.k.",
"x.x.x.x.z.z.z.z.z.z.z.z.z.z.z.z.z.k.k.k.k.k.k.k.P |.xXcXXXC.;XvXcXlX#XOXV.A ].P r.k.k.k.k.k.k.k.k.k.k.k.k.k.k.k.k.k.k.k.k.k.k.k.",
"z.z.z.z.z.z.z.z.z.z.z.z.z.z.z.z.z.z.k.k.k.k.t.n kXVXcX5X$X .&XVXvXvX9X[.[ N `.P k.k.k.k.k.k.k.k.k.k.k.k.k.k.k.k.k.k.k.k.k.k.k.k.",
"z.z.z.z.z.z.z.z.z.z.z.z.z.z.z.z.z.z.z.z.z.z.k.5.}.5XfX*XC.r &XvX&X&X) r ; = z 0.k.k.k.k.k.k.k.k.k.k.k.k.k.k.k.k.k.k.k.k.k.k.k.k.",
"z.z.z.z.z.z.z.z.z.z.z.z.z.z.z.z.z.z.z.z.z.z.z.k.@ F C.OX~ ; [ ..& ; ; ; k M 2.k.k.k.k.k.k.k.k.k.k.k.k.k.k.k.k.k.k.k.k.k.k.k.k.k.",
"z.z.z.z.z.z.z.z.z.z.z.z.z.z.z.z.z.z.z.z.z.z.z.^ N w ~ / r r @ = & & ; ; k l 2.k.k.k.k.k.k.k.k.k.k.k.k.k.k.k.k.k.k.k.k.k.k.k.k.k.",
"z.z.z.z.z.z.z.z.z.z.z.z.z.z.z.z.z.z.z.z.k.z.z.y _ s & ; = z 0.H V ! p ; ; l 2.k.k.k.k.k.k.k.k.k.k.k.k.k.k.k.k.k.k.k.k.k.k.k.k.k.",
"z.z.z.z.z.z.z.z.z.z.z.z.z.z.z.z.z.z.z.z.z.z.z.i ,XH.f a w S k.k.Y  X] p ; M 2.k.k.k.k.k.k.k.k.k.k.k.k.k.k.k.k.k.k.k.k.k.k.k.k.k.",
"z.z.z.z.z.z.z.z.z.z.z.z.k.z.z.z.z.z.z.z.z.z.5.A.3XT.T.H.e 9.k.k.T .XJ.h.& w 2.k.z.z.z.z.z.k.k.k.k.k.k.k.k.k.k.k.k.k.k.k.z.z.z.z.",
"z.z.z.z.z.z.z.z.z.z.z.k.k.k.z.z.z.z.z.z.z.e.8 #XiX3XE.R.D k.k.k.r.( I.I.j.y.H e.z.z.z.z.z.z.k.k.k.k.k.k.k.k.k.k.k.k.k.k.z.z.z.z.",
"z.z.z.z.z.z.z.z.z.z.z.k.k.k.z.z.z.z.z.z.4.T @X1XeX^.W.O.k.k.k.k.e.&.6XpXrX~.d u z.z.z.z.z.z.k.k.k.k.k.k.k.k.k.k.k.k.k.k.z.z.z.z.",
"z.z.z.z.z.z.z.z.z.z.z.k.k.k.z.z.z.z.z.z.( | / j.U.Y.a.&.k.k.k.z.z.q.}.0X3XE.c.y 7.z.z.z.z.z.k.k.k.k.k.k.k.k.k.k.k.k.k.k.z.z.z.z.",
"z.z.z.z.z.z.z.z.z.z.z.k.k.k.z.z.z.z.z.z.Y ).R t d D *.f.k.k.k.z.z.z.e.;.r.P._ r V G z.z.z.z.k.k.k.k.k.k.k.k.k.k.k.k.k.k.z.z.z.z.",
"z.z.z.z.z.z.z.z.z.z.z.k.k.k.z.z.z.z.z.5.(.X.; r e +.g.k.k.k.k.k.z.z.z.e.H } '.R M v 0.z.z.z.k.k.k.k.k.k.k.k.k.k.k.k.k.k.z.z.z.z.",
"k.k.k.k.k.k.k.k.k.k.k.k.k.k.z.z.z.z.S /.X.; N S z.z.x.x.z.z.z.z.z.z.z.z.z.w.} [.E C c P z.z.k.z.k.k.k.k.k.z.k.k.k.k.k.k.z.z.k.k.",
"k.k.k.k.k.k.k.k.k.k.k.k.k.k.z.z.z.g.L o.] j B 7.z.z.x.x.z.z.z.z.z.z.z.z.z.z.G } (.R Z c 9.k.k.z.k.k.k.k.k.z.k.k.k.k.k.k.z.z.k.k.",
"k.k.k.k.k.k.k.k.k.k.k.k.k.k.z.z.z.3./. XC v 3.z.z.z.z.z.z.z.z.z.z.z.z.z.z.z.z.0.{ [.E C z H x.z.k.k.k.k.k.z.k.z.z.k.k.k.z.z.k.k.",
"k.k.k.k.k.k.k.k.k.k.k.k.k.k.z.z.z.2.|  .j V g.z.z.z.z.z.z.z.z.z.z.z.z.z.z.z.z.z.G } W ; N z 0.z.k.k.k.k.k.z.k.z.z.k.k.k.z.z.k.k.",
"k.k.k.k.k.k.k.k.k.k.k.k.k.k.z.z.P v o.E V G z.z.z.z.z.z.z.z.z.z.z.z.z.z.z.z.z.z.z.9.w * * j H g.k.k.k.k.k.z.k.z.z.k.k.k.z.z.k.k.",
"k.k.k.k.k.k.k.k.k.k.k.k.k.k.k.z.x Z ; = B z.z.z.z.z.z.z.z.z.z.z.z.z.z.z.z.z.z.z.z.z.e + $ * b 4.k.k.k.k.z.z.z.z.z.k.k.k.z.z.z.k.",
"z.z.z.k.k.k.k.k.k.k.k.k.k.k.k.G (.o.& : e k.k.k.k.k.z.z.z.z.z.z.z.z.z.z.z.z.z.z.z.z.V ' ] ; N J k.z.z.z.z.z.z.z.z.z.z.z.z.z.z.z.",
"z.z.z.k.k.k.k.k.k.k.k.k.k.k.k.B  X..& r V 5.k.k.k.k.z.z.z.z.z.z.z.z.z.z.z.z.z.z.z.w.{ '.C./ w x k.z.z.z.z.z.z.z.z.z.z.z.z.z.z.z.",
"z.z.z.k.k.k.k.k.k.k.k.k.k.k.k.y %X.X` _ F y k.k.k.z.z.z.z.z.z.z.z.z.z.z.z.z.z.z.z.4.].%XL.L.u.n k.z.z.z.z.z.z.z.z.z.z.z.z.z.z.z.",
"z.z.z.k.k.k.k.k.k.k.k.k.k.k.z.y @X@XJ.o.[ y k.z.z.z.z.z.z.z.z.z.z.z.z.z.z.z.z.z.z.3.].@Xh.h.V.J k.z.z.z.z.z.z.z.z.z.z.z.z.z.z.z.",
"z.z.z.k.k.k.k.k.k.k.k.k.k.k.z.7.f g f f g 7.z.z.z.z.z.z.z.z.z.z.z.z.z.z.z.z.z.z.z.f.^ f f f g 2.z.z.z.z.z.z.z.z.z.z.z.z.z.z.z.z.",
"z.z.z.k.k.k.k.k.k.k.k.k.k.k.k.k.k.k.z.z.z.z.z.z.z.z.z.z.z.z.z.z.z.z.z.z.z.z.z.z.z.z.z.z.z.z.z.z.z.z.z.z.z.z.z.z.z.z.z.z.z.z.z.z."
};
