/* XPM */
static char *_2c8bffa0b404c57ff94cada09b933dd4dJizysj8Lhz2bWy[] = {
/* columns rows colors chars-per-pixel */
"64 64 237 2 ",
"   c None",
".  c #1A1D18",
"X  c #3C0A0A",
"o  c #271207",
"O  c #370A16",
"+  c #251C17",
"@  c #391A17",
"#  c #2A0B04",
"$  c #26261C",
"%  c #1C1B28",
"&  c #1B0D21",
"*  c #250B2C",
"=  c #26082A",
"-  c #261829",
";  c #2B0A37",
":  c #390539",
">  c #2E173D",
",  c #351237",
"<  c #370D29",
"1  c #27272A",
"2  c #382C25",
"3  c #2B362F",
"4  c #36332E",
"5  c #2E2A30",
"6  c #352938",
"7  c #3C353C",
"8  c #333A3A",
"9  c #373836",
"0  c #2D3235",
"q  c #45090E",
"w  c #431B0E",
"e  c #490716",
"r  c #540A16",
"t  c #481717",
"y  c #50171E",
"u  c #69131F",
"i  c #532619",
"p  c #4A311C",
"a  c #53321C",
"s  c #4A2C1C",
"d  c #61241C",
"f  c #4A0A29",
"g  c #571B27",
"h  c #46053A",
"j  c #471A3F",
"k  c #54132B",
"l  c #621728",
"z  c #680C37",
"x  c #78183E",
"c  c #462725",
"v  c #5A262A",
"b  c #49362B",
"n  c #593929",
"m  c #43243B",
"M  c #493636",
"N  c #543833",
"B  c #572B35",
"V  c #66232C",
"C  c #682734",
"Z  c #742E2F",
"A  c #3E403B",
"S  c #48453A",
"D  c #594A3C",
"F  c #6C4338",
"G  c #764A3E",
"H  c #3B0444",
"J  c #3F0E46",
"K  c #3B1645",
"L  c #3B1251",
"P  c #3C2848",
"I  c #393641",
"U  c #450848",
"Y  c #58034B",
"T  c #471849",
"R  c #5A134B",
"E  c #4C0253",
"W  c #470A53",
"Q  c #550757",
"!  c #4E1B52",
"~  c #56145A",
"^  c #680159",
"/  c #641A50",
"(  c #6F0C49",
")  c #462749",
"_  c #453547",
"`  c #4B2752",
"'  c #542057",
"]  c #4C3656",
"[  c #65285B",
"{  c #772758",
"}  c #703551",
"|  c #590866",
" . c #5C1162",
".. c #640064",
"X. c #750669",
"o. c #671B6B",
"O. c #710C7B",
"+. c #711776",
"@. c #771261",
"#. c #5E2C6A",
"$. c #652769",
"%. c #773867",
"&. c #743473",
"*. c #78286B",
"=. c #3C454A",
"-. c #594756",
";. c #514E4F",
":. c #754544",
">. c #755647",
",. c #644C5E",
"<. c #675858",
"1. c #7E585C",
"2. c #734D4F",
"3. c #546249",
"4. c #7E6054",
"5. c #64476E",
"6. c #665B67",
"7. c #745C73",
"8. c #74506D",
"9. c #666B69",
"0. c #77686A",
"q. c #736C72",
"w. c #7A7978",
"e. c #767373",
"r. c #861451",
"t. c #923547",
"y. c #A7374E",
"u. c #872E72",
"i. c #894658",
"p. c #895555",
"a. c #8F4E4C",
"s. c #A84458",
"d. c #AD514F",
"f. c #97635A",
"g. c #907255",
"h. c #B76656",
"j. c #A27853",
"k. c #AF6D55",
"l. c #8A4E78",
"z. c #A84F67",
"x. c #856B64",
"c. c #926F70",
"v. c #A86568",
"b. c #AA7F73",
"n. c #B76E70",
"m. c #C56C5A",
"M. c #C37867",
"N. c #7B8377",
"B. c #B5885C",
"V. c #938F7D",
"C. c #B28E70",
"Z. c #BCA47E",
"A. c #D38E53",
"S. c #E89A51",
"D. c #DC8E67",
"F. c #D49666",
"G. c #C5946C",
"H. c #C3A47E",
"J. c #790F83",
"K. c #7E3F82",
"L. c #7E4182",
"P. c #7C7182",
"I. c #91168A",
"U. c #87378A",
"Y. c #AA21B5",
"T. c #90518A",
"R. c #A25D8A",
"E. c #A44C83",
"W. c #867C86",
"Q. c #947781",
"!. c #9C628E",
"~. c #AF748E",
"^. c #AA70AB",
"/. c #C57C84",
"(. c #7F8189",
"). c #8E8C88",
"_. c #A8898A",
"`. c #B88689",
"'. c #B38992",
"]. c #AA9794",
"[. c #BAAF98",
"{. c #B8B28C",
"}. c #A894A4",
"|. c #BC97B0",
" X c #BDABA7",
".X c #C98885",
"XX c #D49A8F",
"oX c #C9979A",
"OX c #CE9192",
"+X c #D9B896",
"@X c #CBA98D",
"#X c #E8AA83",
"$X c #E7B997",
"%X c #C898A7",
"&X c #C991BA",
"*X c #C8A6A9",
"=X c #D7A9A6",
"-X c #DDB6AC",
";X c #D6AEB6",
":X c #CBB6B5",
">X c #E5B7BB",
",X c #E8B3B0",
"<X c #B8C3A8",
"1X c #EEC299",
"2X c #D4C4BB",
"3X c #F9D8A9",
"4X c #EAD5BD",
"5X c #F9DAB9",
"6X c #EBCCAC",
"7X c #EAE3BC",
"8X c #FAE3B5",
"9X c #FFE0AF",
"0X c #D697C9",
"qX c #E19CC1",
"wX c #CCB6C3",
"eX c #D8B6C6",
"rX c #D5A2CC",
"tX c #E9B2C9",
"yX c #F0BCC3",
"uX c #D6C6D2",
"iX c #DDCACD",
"pX c #E7C7C9",
"aX c #F8CDC4",
"sX c #F8D7CD",
"dX c #E5C9D7",
"fX c #FBCDD5",
"gX c #E5D2D4",
"hX c #EAD4DB",
"jX c #FCDAD5",
"kX c #FDDADB",
"lX c #FCD3DA",
"zX c #EBD9C4",
"xX c #F7E4D1",
"cX c #FAC9E7",
"vX c #E7D3E3",
"bX c #FBDAEA",
"nX c #FFE1E1",
/* pixels */
"                                                                                                                                ",
"                                                                                                                                ",
"                                                                                                                                ",
"                                                                                                                                ",
"                                                                                                                                ",
"                                                    *.[ ' #.#.$.#.o.                                                            ",
"                                                U.T.&X%X}.uXuXuXwX!.                                                            ",
"                                              U.rXqXs.i.~. X*Xc.c.%X~.u.                                                        ",
"                                              !.bXn.y.z.;XjXkX*X*XjXlXqX*.                                                      ",
"                                            &.tXOXs.y.,XlXjXsXoXfX>X=XkXrXo.                                                    ",
"                                            %.nX/.y.z.fXlXaX.Xh.n.n.v.,XbXrXo.                                                  ",
"                                            } jX/.t.tXlXkXXXd.m.h.m.h.XXsXbX0X..                                                ",
"                                            ~.kXb.g >XkXaX.Xh.#X#X#XD.k.,XcX^...                                                ",
"                                          +.cXyXa.q >XkX=XM.$X3X3X9X1Xa.=XeX:                                                   ",
"                                         .&XtXn.Z t >XkX=XM.1X8X8X3Xg.w c.wXU                                                   ",
"                                      E ^.eXn.v.a.v >XnX-XG n C.5X{.3.b 1.wXJ     U L.' K.                                      ",
"                                      E T k d Z r r >XjX=XoX].D 6X7X<XS 1.|.U   T._ 6.7 5.                                      ",
"                                          z e r r e %XaXOX=X:X[.3X3X6XF i.R     &.6 0 1 P                                       ",
"                                        r.x r q V y f.-Xf.oXaX+XH.1X`.C u.X.    ! 5 8 I K                                       ",
"                                      ( r.k r e k } F -Xp.n G.G.B.>.C   X.      T I 8 P U                                       ",
"                                            h h Y u.c b @ X i a p # X           , 4 8 ) E                                       ",
"                                            ..    R f c @ q q t f.n c.l.    Q ! 7.9 6 !                                         ",
"                                                    / >Xb.y e u d.d.F f.} , 8.W.).;.% H                                         ",
"                                                    / 5X5Xp.q t.y.d.a.t N 1 9.).w.=.% :                                         ",
"                                                    / +X8X@Xi l y.y.s.p.@ . A 3.S 3 . <                                         ",
"                                                      p.5X4XG X l l g B @ . 8 0 4 2 >.f                                         ",
"                                                      { ;XsX].t O O @ g.>.4 % 5 2 x.v.z                                         ",
"                                                      I.l.dXgX<.M 4.$X3X1XM 6 Q.'.~.(                                           ",
"                                                        u.|.hXgX2X4X@Xj.g.+ = { E.E.@.                                          ",
"                                                        I.T.eX*X>.>.n # N - :                                                   ",
"                                                          I.[ B X X q t N ,.H                                                   ",
"                                                            h O q e e q t 7.W                                                   ",
"                                                          J.R B g l V l v m H                                                   ",
"                                                        Y. .l.`.oXoX`..X`.Q.h                                                   ",
"                                                        O.= x.=XpXpX%X'.'._.%.                                                  ",
"                                                        H * 0.pXhXhXdXwX].'.R.^                                                 ",
"                                                      $.5.& 0.iXgXvXvXvX0._.R.Y                                                 ",
"                                                    +.T.6 - }.hXgXgXvXvX6.;X!.~                                                 ",
"                                                    | 8.5 1 }.vXgXgXhXhX0.;X&XT.                                                ",
"                                                    | H > 1 }.bXhXhXhXeX<.iXdXl.                                                ",
"                                                        K 6 6.W.c.e.0.0._ q.7.$.                                                ",
"                                                        [ c.q.7 4 $ + 4 9 6 =                                                   ",
"                                                        } _.).N.9 2 s n n b <                                                   ",
"                                                      { =XzX7XV.9 c B.F.G.b.f                                                   ",
"                                                      C +XzX8XZ.2 a A.S.F.a.                                                    ",
"                                                      V +X8X3XH.+ a A.S.D.l                                                     ",
"                                                      C +X5X5X>.o a A.S.m.(                                                     ",
"                                                    ^ 2.4XzX=Xg w j.S.F.Z                                                       ",
"                                                    U ,.).0.j   t j.B.j.g                                                       ",
"                                                    ) (.N.-.W   - b b b h                                                       ",
"                                                  E ] ).9.6 ~   > 8 M m U                                                       ",
"                                                  H _ w.-.T     ; 8 M U                                                         ",
"                                                  ! q.w.T W   | ) 9 _ W                                                         ",
"                                                Q ` W.q.!     Q ) 8 _ ~                                                         ",
"                                                E ) e.7 :     Q ) 8 6                                                           ",
"                                                W -.w.I U     E ) I 6                                                           ",
"                                                T P.6.) Q     E ) 3 -                                                           ",
"                                                6 q.] U       Y m 1 6 , E                                                       ",
"                                              U 5 9.` U       Y ) 4 7 7 ) h ^                                                   ",
"                                              T 7 0 P L       Q _ 8 9 D :.:.{ {                                                 ",
"                                            Q j ;.w.W.P W     | K 3 1 <.x.x.1.%.                                                ",
"                                            J 7 0.).V.<.) Q   O.H * = * * * ; U                                                 ",
"                                            ; 1 0.:X2X[.x.}                                                                     ",
"                                          Y.; . 2 M N b p g                                                                     "
};
