/* XPM */
static char *_a551c9333e14234ca4b183baf4c3648PBwfRZbaYhJgZTnr[] = {
/* columns rows colors chars-per-pixel */
"64 64 245 2 ",
"   c #390D09",
".  c #21140F",
"X  c #331506",
"o  c #370C18",
"O  c #271312",
"+  c #280F11",
"@  c #39281D",
"#  c #2A0D2C",
"$  c #2A1729",
"%  c #330D38",
"&  c #2C1937",
"*  c #33193A",
"=  c #1F2129",
"-  c #232325",
";  c #2A2A29",
":  c #342C26",
">  c #29322C",
",  c #39352B",
"<  c #2C2A37",
"1  c #3C2C3A",
"2  c #342834",
"3  c #2D3236",
"4  c #343A34",
"5  c #34393B",
"6  c #3A3539",
"7  c #1A1426",
"8  c #490A0B",
"9  c #420D12",
"0  c #4C0A13",
"q  c #4B0717",
"w  c #471812",
"e  c #540713",
"r  c #55341E",
"t  c #4D2C1A",
"y  c #5D0E29",
"u  c #591C37",
"i  c #4E132E",
"p  c #68162E",
"a  c #542E2A",
"s  c #46322A",
"d  c #593122",
"f  c #49273B",
"g  c #453636",
"h  c #583935",
"j  c #532732",
"k  c #6B232B",
"l  c #702328",
"z  c #642638",
"x  c #742839",
"c  c #693838",
"v  c #74323C",
"b  c #6D3328",
"n  c #55423C",
"m  c #7B502D",
"M  c #7F483D",
"N  c #765335",
"B  c #6A4434",
"V  c #3A0846",
"C  c #3A3242",
"Z  c #3A2A42",
"A  c #4A0E4A",
"S  c #491948",
"D  c #571754",
"F  c #531C45",
"G  c #661D44",
"H  c #691E57",
"J  c #452746",
"K  c #592447",
"L  c #453449",
"P  c #5C3548",
"I  c #543058",
"U  c #672649",
"Y  c #742748",
"T  c #6A3145",
"R  c #6D3549",
"E  c #7A384A",
"W  c #682553",
"Q  c #6B315B",
"!  c #793255",
"~  c #5D1C66",
"^  c #65116C",
"/  c #742865",
"(  c #74346D",
")  c #464843",
"_  c #5C464A",
"`  c #554957",
"'  c #545653",
"]  c #4C5653",
"[  c #6B4D4A",
"{  c #7E4A44",
"}  c #784344",
"|  c #7B544D",
" . c #774956",
".. c #665759",
"X. c #675645",
"o. c #796455",
"O. c #62635E",
"+. c #5C4C64",
"@. c #624963",
"#. c #765877",
"$. c #66496B",
"%. c #69686B",
"&. c #7A686A",
"*. c #6B6976",
"=. c #726B72",
"-. c #797774",
";. c #812D38",
":. c #864B3A",
">. c #815032",
",. c #97673F",
"<. c #892848",
"1. c #863C47",
"2. c #822D5A",
"3. c #853B55",
"4. c #963E56",
"5. c #9E3D4C",
"6. c #A63952",
"7. c #842B67",
"8. c #8D356F",
"9. c #871C4F",
"0. c #824B44",
"q. c #85494C",
"w. c #8B4A4C",
"e. c #894549",
"r. c #8D5348",
"t. c #9A564B",
"y. c #9C5D4B",
"u. c #955947",
"i. c #8C4752",
"p. c #934B58",
"a. c #9A5857",
"s. c #8F5C57",
"d. c #AA5758",
"f. c #B4434B",
"g. c #9D6344",
"h. c #9C664A",
"j. c #986A5A",
"k. c #8D7056",
"l. c #A56F42",
"z. c #A76C4C",
"x. c #A86C4C",
"c. c #A36649",
"v. c #A57042",
"b. c #A87043",
"n. c #AB6555",
"m. c #AA6852",
"M. c #AB625B",
"N. c #B17057",
"B. c #8D456D",
"V. c #985B66",
"C. c #894678",
"Z. c #8E5678",
"A. c #A54778",
"S. c #AC596F",
"D. c #876863",
"F. c #84797E",
"G. c #956C6E",
"H. c #B3726D",
"J. c #C36E59",
"K. c #C7705E",
"L. c #C1777A",
"P. c #798677",
"I. c #BB895D",
"U. c #938173",
"Y. c #B5807A",
"T. c #AD8E75",
"R. c #D78D4C",
"E. c #D6935A",
"W. c #E99A4F",
"Q. c #D5946A",
"!. c #CEAC7A",
"~. c #A01C89",
"^. c #8F2489",
"/. c #994C98",
"(. c #A85885",
"). c #987A88",
"_. c #907386",
"`. c #A56A92",
"'. c #AA7187",
"]. c #BC7CAA",
"[. c #CA788E",
"{. c #9F8785",
"}. c #8B8788",
"|. c #B5868D",
" X c #B58A96",
".X c #A69195",
"XX c #B8969B",
"oX c #AC968C",
"OX c #B3A69C",
"+X c #BBBA9A",
"@X c #A7A391",
"#X c #A291A3",
"$X c #B895AA",
"%X c #B48CAC",
"&X c #BDA2BD",
"*X c #BBA9A4",
"=X c #C4868A",
"-X c #C28C96",
";X c #C19295",
":X c #C6969C",
">X c #D5968B",
",X c #D6B48A",
"<X c #CDA993",
"1X c #D9A897",
"2X c #CEB18E",
"3X c #E5AB82",
"4X c #EBB591",
"5X c #D79CA6",
"6X c #C889BA",
"7X c #DF9DB1",
"8X c #C393A6",
"9X c #D6AAA4",
"0X c #D8B1A5",
"qX c #C6A5B4",
"wX c #D4B0B1",
"eX c #E4B5A7",
"rX c #E8BCB9",
"tX c #E5ACAD",
"yX c #E6C495",
"uX c #D5C3B9",
"iX c #CFC8AC",
"pX c #EAD1AA",
"aX c #FAD9A8",
"sX c #FADFB4",
"dX c #ECCBB2",
"fX c #F8E3B8",
"gX c #D7B6C5",
"hX c #DABCD2",
"jX c #E9BAD9",
"kX c #F4B8E3",
"lX c #DCCAD1",
"zX c #E4C9CA",
"xX c #F7DBCB",
"cX c #E7CCD6",
"vX c #E5D3D3",
"bX c #E4D2DC",
"nX c #EBD3D8",
"mX c #FCD5D4",
"MX c #FCD5D9",
"NX c #FBD8D6",
"BX c #F9CDCF",
"VX c #F0E2C6",
"CX c #EACEE3",
"ZX c #FFCCE2",
"AX c #F4D2EC",
/* pixels */
"v.v.v.v.l.l.l.l.l.l.l.l.l.l.l.l.l.l.l.l.l.l.v.v.v.v.v.v.v.v.v.v.v.v.v.v.v.l.l.l.v.v.v.v.v.v.v.v.v.v.v.v.v.v.v.v.v.v.v.v.v.v.v.v.",
"v.v.v.l.l.l.l.l.l.l.l.l.l.l.l.l.l.l.l.l.l.l.l.l.l.l.l.l.l.l.l.l.l.l.l.l.l.v.v.v.v.v.v.v.v.v.v.v.v.v.v.v.v.v.v.v.v.v.v.v.v.v.l.l.",
"v.v.v.l.l.l.l.l.l.l.l.l.l.l.l.l.l.l.l.l.l.l.l.l.l.l.l.l.l.l.l.l.l.l.l.l.l.v.v.v.v.v.v.v.v.v.v.v.v.v.v.v.v.v.v.v.v.v.v.v.v.v.l.l.",
"v.v.v.l.l.l.l.l.l.l.l.l.l.l.l.l.l.l.l.l.l.l.l.l.l.l.l.l.l.l.l.l.l.l.l.l.l.v.v.v.v.v.v.v.v.v.v.v.v.v.v.v.v.v.v.v.v.v.v.v.v.v.l.l.",
"v.v.v.l.l.l.l.l.l.l.l.l.l.l.l.l.l.l.l.l.l.l.l.l.l.l.l.l.l.l.l.l.l.l.l.l.l.v.v.v.v.v.v.v.v.v.v.v.v.v.v.v.v.v.v.v.v.v.v.v.v.v.l.l.",
"v.v.v.l.l.l.l.l.l.l.l.l.l.l.l.l.l.l.l.l.l.l.l.l.l.l.l.l.l.l.l.l.l.l.l.l.l.v.v.v.v.v.v.v.v.v.v.v.v.v.v.v.v.v.v.v.v.v.v.v.v.v.l.l.",
"v.v.v.l.l.l.l.l.l.l.l.l.l.l.l.v.v.v.v.v.v.v.l.l.l.l.e.Y T T T T T w.l.l.l.v.v.v.v.v.v.v.v.v.v.v.v.v.v.v.v.v.v.v.v.l.l.l.l.l.l.l.",
"v.v.l.l.l.l.l.l.l.l.l.l.l.l.v.v.v.v.v.v.v.v.l.l.y.1.`.6X_.&X&X&X%XZ.g.l.l.v.v.v.v.v.v.v.v.v.v.v.v.v.v.v.v.v.v.v.v.l.l.l.l.l.l.l.",
"v.v.l.l.l.l.l.l.l.l.l.l.l.l.v.v.v.v.v.v.v.v.l.y.].kXS.4.'.OX$XG.). X(.a.l.v.v.v.v.v.v.v.v.v.v.v.v.v.v.v.v.v.v.v.v.l.l.l.l.l.l.l.",
"v.v.l.l.l.l.l.l.l.l.l.l.l.l.v.v.v.v.v.v.v.v.l.E AX7X6.5.:XmXNX:X:XNXZX].u.v.v.v.v.v.v.v.v.v.v.v.v.v.v.v.v.v.v.v.v.l.l.l.l.l.l.l.",
"v.v.l.l.l.l.l.l.l.l.l.l.l.l.v.v.v.v.v.v.v.v.E `.tXS.6.[.mXNXmX9XMXrXrXMX`.1.v.v.v.v.v.v.v.v.v.v.v.v.v.v.v.v.v.v.v.l.l.l.l.l.l.l.",
"v.v.l.l.l.l.l.l.l.l.l.l.l.l.v.v.v.v.v.v.l.v.z $X5X5.6.7XmXmX1XH.=XL.H.rXjX`.u.v.v.v.v.v.v.v.v.v.v.v.v.v.v.v.v.v.v.l.l.l.l.l.l.l.",
"v.v.l.l.l.l.l.l.l.l.l.l.l.l.l.l.l.l.l.l.l.l.z XX5X1.5XMXNXeXn.J.J.K.N.>XNXAX/.3.c.v.v.v.v.v.v.v.v.v.v.v.v.v.v.v.v.v.v.v.v.v.l.l.",
"v.v.l.l.l.l.l.l.l.l.l.l.l.l.l.l.l.l.l.l.l.c.B.7X5Xk -XmXBX>XN.Q.3X3XE.x.mXjXC.2.d.v.v.v.v.v.v.v.v.v.v.v.v.v.v.v.v.v.v.v.v.v.l.l.",
"v.v.l.l.l.l.l.l.l.l.l.l.l.l.l.l.l.l.l.l.l.w.6XZXa.8 ;XMXtXH.4XaXaXaX3X:.MX$X0.v.v.v.v.v.v.v.v.v.v.v.v.v.v.v.v.v.v.v.v.v.v.v.v.l.",
"v.v.v.l.l.l.l.l.l.l.l.l.l.l.l.l.l.l.l.l.u.C.jX5X:.8 ;XMXtXH.pXfXsXpXk.w qX$X0.v.v.y.y.w.v.v.v.v.v.v.v.v.v.v.v.v.v.v.v.v.v.v.v.v.",
"v.v.v.l.l.l.l.l.l.l.l.l.l.l.l.l.l.l.l.y.( %Xs.a.e.v ;XNXwXs.n o.sX+XP.g XX$X{ u.~ I P #.R v.v.v.v.v.v.v.v.v.v.v.v.v.v.v.v.v.v.v.",
"v.v.v.l.l.l.l.l.l.l.l.l.l.l.l.l.l.l.l.i.U u 8 b e e -XmX0X;X*XX.sXfX+Xh '._.r.! #.6 6 ` T v.v.v.v.v.v.v.v.v.v.v.v.v.v.v.v.v.v.v.",
"v.v.v.l.l.l.l.l.l.l.l.l.v.v.v.v.v.v.v.v.t.<.y 8 e q V.rXY.=XzXiXpXyX1Xc 8.Y v.W L - 3 C R v.v.v.v.v.v.v.v.v.v.v.v.v.v.v.v.v.v.v.",
"v.v.v.l.l.l.l.l.l.l.l.v.v.v.v.v.v.v.v.l.<.9.y 0 y c { 0Xj.Y.dX,X!.eXV.M 2.t.v.W J 3 5 J u.v.v.v.v.v.v.v.v.v.v.v.v.v.v.v.v.v.v.v.",
"v.v.v.v.l.l.l.l.l.l.l.v.v.v.v.v.v.v.v.c.1.;.y i p U a D.c   >.h.N X b g.4.l.v.U 1 5 C S v.v.v.v.v.v.v.v.v.v.v.v.v.v.v.v.v.v.v.v.",
"v.v.v.v.b.b.b.v.v.v.v.v.v.v.v.v.v.v.v.v.v.v.Y G t.2.u + + 9     t X c e.l.h.q.K 6 > L D v.v.v.v.v.v.v.v.v.v.v.v.v.v.v.v.v.v.v.v.",
"v.v.v.v.b.b.b.b.v.v.v.v.v.v.v.v.v.v.v.v.v.v.y.c.l.g.u Z.| 9 0 0 d.r.j.'.z K $.#.*.; S E v.v.v.v.v.v.v.v.v.v.v.v.v.v.v.v.v.v.v.v.",
"v.v.v.v.v.v.v.v.v.v.v.v.v.v.v.v.v.v.v.v.v.v.v.v.v.l.z -X<X} 0 l f.d.c c P 1 _.}.*.< % 0.v.v.v.v.v.v.v.v.v.v.v.v.v.v.v.v.v.v.v.v.",
"v.v.v.v.v.v.v.v.v.v.v.v.v.v.v.v.v.v.v.v.v.v.v.v.v.v.Y |.fX<Xw k 6.6.d.} . - ' %.4 > # :.v.v.l.l.v.v.b.b.b.v.v.v.v.v.v.v.v.v.v.v.",
"v.v.v.v.v.v.v.v.v.v.v.v.v.v.v.v.v.v.v.v.v.v.v.v.v.v.1.p.fXpXB 8 <.<.v | . - 5 4 , , i :.v.v.l.l.v.v.v.b.b.b.v.v.v.v.v.v.v.v.v.v.",
"v.v.v.v.v.v.v.v.v.v.v.v.v.v.v.v.v.v.v.v.v.v.v.v.v.v.m.Y rXxXT.a q o   [ : ; = - g G.Y :.v.v.l.l.v.v.b.b.v.v.v.v.v.v.v.v.v.v.v.v.",
"v.v.v.v.v.v.v.v.v.v.v.v.v.v.v.v.v.v.v.v.v.v.v.v.v.v.z.8.`.nXuX[ o a T.,XU.> ` &.G.V.1.g.v.v.l.l.v.v.b.b.v.v.v.v.v.v.v.v.v.v.v.v.",
"v.v.v.v.v.v.v.v.v.v.v.v.v.v.v.v.v.v.v.v.v.v.v.v.v.v.v.M.8.%XbXbXuXdX<XN.X.. j B.(.A.u.v.v.v.l.l.v.v.v.v.v.v.v.v.v.v.v.v.v.v.v.v.",
"v.v.v.v.v.v.v.v.v.v.v.v.v.v.v.v.v.v.v.v.v.v.v.v.v.v.v.v.~.( gXgXD.D.a X s $ M 1.Y 1.v.v.v.v.v.v.v.v.v.l.v.v.v.v.v.v.v.v.v.v.v.l.",
"b.b.v.v.v.v.v.v.v.v.v.v.v.v.v.v.v.v.v.v.v.v.v.v.v.v.v.v.A.^.Q P   9 9 9 _ ` 0.l.v.v.v.v.v.v.v.v.v.v.v.v.v.v.v.v.v.v.v.v.v.v.l.l.",
"b.b.v.v.v.v.v.v.v.v.v.v.v.v.v.v.v.v.v.v.v.v.v.v.v.v.v.v.m.S.u o 9 0 q 0 h #.q.l.v.v.v.v.v.v.v.v.v.v.v.v.v.v.v.v.v.v.v.v.v.v.l.l.",
"b.b.v.v.v.v.v.v.v.v.v.v.v.v.v.v.v.v.v.v.v.v.v.v.v.v.v.v.M.^.W R v v v v c J q.l.v.v.v.v.v.v.v.v.v.v.v.v.v.v.v.v.v.v.v.v.v.v.l.l.",
"b.b.v.v.v.b.v.v.v.v.v.v.v.v.v.v.v.v.v.v.v.v.v.v.v.v.v.v.A.^ Z.|.5X:X-X=X|.Z.q.l.v.v.v.v.v.v.v.v.v.v.v.v.v.v.v.v.v.v.v.v.v.v.l.l.",
"v.v.v.v.b.b.b.v.v.v.v.v.v.v.v.v.v.v.v.v.v.v.v.v.v.v.v.m.^ % D.9XzXzX8X XoX).7.a.v.v.v.v.v.v.v.v.v.v.v.v.v.v.v.v.v.v.v.v.v.v.l.l.",
"v.v.v.v.b.b.b.v.v.v.v.v.v.v.v.v.v.l.l.l.l.l.l.l.l.v.v.n.V # &.wXnXbXhXgXoX|.7.p.l.l.l.l.l.l.l.l.l.l.l.l.l.l.l.l.l.l.l.l.l.l.l.l.",
"v.v.v.v.v.v.b.v.v.v.v.v.v.v.v.v.v.l.l.l.l.l.l.l.l.l.a.( @.$ F.zXvXbXCXbX..8X/ e.l.l.l.l.l.l.l.l.l.l.l.l.l.l.l.l.l.l.l.l.l.l.l.l.",
"b.b.b.b.v.v.b.v.v.v.v.v.v.v.v.v.v.l.l.l.l.l.l.l.l.l./ /.$ 2 .XbXvXbXbXbX&.gXC.3.l.l.l.l.l.l.l.l.l.l.l.l.l.l.l.l.l.l.l.l.l.l.l.l.",
"b.b.b.b.v.v.v.v.v.v.v.v.v.v.v.v.v.l.l.l.l.l.l.l.b.a.^ ~ & < #XCXvXvXcXcX&.zX&X( l.l.l.l.l.l.l.l.l.l.l.l.l.l.l.l.l.l.l.l.l.l.l.l.",
"b.b.b.b.v.v.v.v.v.v.v.v.v.v.v.v.v.l.l.l.l.l.l.l.l.c.p.q.* < #XCXvXvXcXwX&.vXqX( l.l.l.l.l.l.l.l.l.l.l.l.l.l.l.l.l.l.l.l.l.l.l.l.",
"v.v.v.v.v.v.v.v.v.v.v.v.v.v.v.v.v.v.l.l.l.l.l.l.l.l.v.z.D @.` L 4 : : g 6 2 F ! l.l.l.l.l.l.l.l.l.l.l.l.l.l.l.l.l.l.l.l.l.l.l.l.",
"v.v.v.v.v.v.v.v.v.v.v.v.v.v.v.v.v.v.v.v.v.v.v.l.l.l.l.z.W {.}.O.4 : @ s s 1 M l.l.l.l.l.l.l.l.l.l.l.l.l.l.l.l.l.l.l.l.l.l.l.l.l.",
"v.v.v.v.v.v.v.v.v.v.v.v.v.v.v.v.v.v.v.v.v.v.v.v.v.v.l.1.|.iXiX@X, s j.N.j.| :.l.l.l.l.l.l.l.l.l.l.l.l.l.l.l.l.l.l.l.l.l.l.l.l.l.",
"v.v.v.v.v.v.v.v.v.v.v.v.v.v.v.v.v.v.v.v.v.v.v.v.v.v.z.x 0XVXfX2X: d E.E.Q.V.:.l.l.l.l.l.l.l.l.l.l.l.l.l.l.l.l.l.l.l.l.l.l.l.l.l.",
"v.v.v.v.v.v.v.v.v.v.v.v.v.v.v.v.v.v.v.v.v.v.v.v.v.v.x.l ,XfXaX,X. r R.W.n.k l.l.l.l.l.l.l.l.l.l.l.l.l.l.l.l.l.l.l.l.l.l.l.l.l.l.",
"v.v.v.v.v.v.v.v.v.v.v.v.v.v.v.v.v.v.v.v.v.v.v.v.v.v.z.l ,XsXsXT.. r R.W.d.x l.l.l.l.l.l.l.l.l.l.l.l.l.l.l.l.l.l.l.l.l.l.l.l.l.l.",
"v.v.v.v.v.v.v.v.v.v.v.v.l.v.v.v.v.v.v.v.v.v.v.v.v.l.4.G dXxXrXc t ,.E.E.;.t.v.v.v.v.v.v.v.l.l.l.l.l.l.l.l.l.l.l.l.l.l.l.v.v.v.v.",
"v.v.v.v.v.v.v.v.v.v.v.l.l.l.v.v.v.v.v.v.v.v.v.v.v.l.Y F OX{. .} d I.Q.I.k l.v.v.v.v.v.v.v.v.l.l.l.l.l.l.l.l.l.l.l.l.l.l.v.v.v.v.",
"v.v.v.v.v.v.v.v.v.v.v.l.l.l.v.v.v.v.v.v.v.v.v.v.v.h.K *.P...A i.$ , s s z v.v.v.v.v.v.v.v.v.l.l.l.l.l.l.l.l.l.l.l.l.l.l.v.v.v.v.",
"v.v.v.v.v.v.v.v.v.v.v.l.l.l.v.v.v.v.v.v.v.v.v.v.l.q.J *.%.1 H p.& 5 g f E v.v.v.v.v.v.v.v.v.l.l.l.l.l.l.l.l.l.l.l.l.l.l.v.v.v.v.",
"v.v.v.v.v.v.v.v.v.v.v.l.l.l.v.v.v.v.v.v.v.v.v.v.v.q.Z =.` J e.M.& 5 f A v.v.v.v.v.v.v.v.v.v.l.l.l.l.l.l.l.l.l.l.l.l.l.l.v.v.v.v.",
"v.v.v.v.v.v.v.v.v.v.v.l.l.l.v.v.v.v.v.v.v.v.v.v.t.W +._.J K y.3.Z 4 J A v.v.v.v.v.v.v.v.v.v.l.l.l.l.l.l.l.l.l.l.l.l.l.l.v.v.v.v.",
"l.l.l.l.l.l.l.l.l.l.l.l.l.l.v.v.v.v.v.v.v.v.v.v.w.D =.-.K 3.z.W L 5 J W v.v.v.v.v.v.v.v.b.b.b.v.l.l.l.l.l.v.l.l.l.l.l.l.v.v.l.l.",
"l.l.l.l.l.l.l.l.l.l.l.l.l.l.v.v.v.v.v.v.v.v.v.v.w.S =.' u x.x.W L 5 * { v.v.v.v.v.v.v.v.b.b.b.v.l.l.l.l.l.v.l.l.l.l.l.l.v.v.l.l.",
"l.l.l.l.l.l.l.l.l.l.l.l.l.l.v.v.v.v.v.v.v.v.v.l.W I _.' U x.x.W L 5 & { v.v.v.v.v.v.v.b.b.b.v.v.l.l.l.l.l.v.l.v.v.l.l.l.v.v.l.l.",
"l.l.l.l.l.l.l.l.l.l.l.l.l.l.v.v.v.v.v.v.v.v.v.x.S +.%.L U x.x.W L > $ { v.v.v.v.v.v.v.b.b.b.v.v.l.l.l.l.l.v.l.v.v.l.l.l.v.v.l.l.",
"l.l.l.l.l.l.l.l.l.l.l.l.l.l.v.v.v.v.v.v.v.v.v.z.* ] +.A x.v.n.W 1 ; 6 * K w.h.v.v.v.v.b.v.v.v.v.l.l.l.l.l.v.l.v.v.l.l.l.v.v.l.l.",
"l.l.l.l.l.l.l.l.l.l.l.l.l.l.l.v.v.v.v.v.v.v.l.t.2 ) L V z.v.M.H L 4 6 g f i 1.g.v.v.l.v.v.v.v.v.l.l.l.l.v.v.v.v.v.l.l.l.v.v.v.l.",
"v.v.v.l.l.l.l.l.l.l.l.l.l.l.l.l.l.l.l.l.l.l.z.U g ) %.I ! z.M.H L 5 6 o.G.G.S.3.v.v.v.v.v.v.v.v.v.v.v.v.v.v.v.v.v.v.v.v.v.v.v.v.",
"v.v.v.l.l.l.l.l.l.l.l.l.l.l.l.l.l.l.l.l.l.l.E K _ -.}.` D 3.M./ & - $ g n n P D v.v.v.v.v.v.v.v.v.v.v.v.v.v.v.v.v.v.v.v.v.v.v.v.",
"v.v.v.l.l.l.l.l.l.l.l.l.l.l.l.l.l.l.l.l.l.m.H & ' .XOXOX[ Q i.n.H K U K K K U u.v.v.v.v.v.v.v.v.v.v.v.v.v.v.v.v.v.v.v.v.v.v.v.v.",
"v.v.v.l.l.l.l.l.l.l.l.l.l.l.v.v.v.v.v.v.b.M.H 7 ) U.oXoXo. .4.x.M.m.x.x.l.v.v.v.v.v.v.v.v.v.v.v.v.v.v.v.v.v.v.v.v.v.v.v.v.v.v.v.",
"v.v.v.l.l.l.l.l.l.l.l.l.l.l.v.v.v.v.v.v.b.m.r.N N N m m m >.y.l.v.v.v.v.v.v.v.v.v.v.v.v.v.v.v.v.v.v.v.v.v.v.v.v.v.v.v.v.v.v.v.v.",
"v.v.v.l.l.l.l.l.l.l.l.l.l.l.l.l.l.l.v.v.v.v.v.v.v.v.v.v.v.v.v.v.v.v.v.v.v.v.v.v.v.v.v.v.v.v.v.v.v.v.v.v.v.v.v.v.v.v.v.v.v.v.v.v."
};
