/* XPM */
static char *b83b77134e724debb18eff12376d7d5cRPs4qr843U2VGqR7[] = {
/* columns rows colors chars-per-pixel */
"64 64 204 2 ",
"   c #326D33",
".  c #3A6B34",
"X  c #3C6D3B",
"o  c #337335",
"O  c #3A7535",
"+  c #367937",
"@  c #3B7B37",
"#  c #347B38",
"$  c #3A7D38",
"%  c #377639",
"&  c #446A35",
"*  c #4C6C35",
"=  c #446B39",
"-  c #4B6A3A",
";  c #556C36",
":  c #5C6C36",
">  c #516C3E",
",  c #5D6C39",
"<  c #5F653E",
"1  c #437937",
"2  c #44763B",
"3  c #4C7639",
"4  c #457C3A",
"5  c #4A7939",
"6  c #5B753A",
"7  c #59793A",
"8  c #646C39",
"9  c #6A6C3A",
"0  c #736D3F",
"q  c #7B6D3B",
"w  c #78653F",
"e  c #61773C",
"r  c #677A3D",
"t  c #74753D",
"y  c #737A3F",
"u  c #7C753E",
"i  c #5C6941",
"p  c #597341",
"a  c #636C44",
"s  c #696E43",
"d  c #7C6E41",
"f  c #7D6B4D",
"g  c #756B46",
"h  c #677541",
"j  c #777941",
"k  c #846E3E",
"l  c #8D6F3F",
"z  c #926E3F",
"x  c #83723F",
"c  c #8F7F3F",
"v  c #8E6B44",
"b  c #936E41",
"n  c #9B6E41",
"m  c #9B694E",
"M  c #867342",
"N  c #8D7440",
"B  c #8B7C41",
"V  c #947341",
"C  c #9D7342",
"Z  c #947B42",
"A  c #997943",
"S  c #826A50",
"D  c #9D6C5A",
"F  c #946D57",
"G  c #9A7455",
"H  c #A56F42",
"J  c #A56C4E",
"K  c #A86D4F",
"L  c #A57042",
"P  c #A87246",
"I  c #A67149",
"U  c #A9744A",
"Y  c #AB794F",
"T  c #A46C5C",
"R  c #AA6D5B",
"E  c #A76F53",
"W  c #AC7453",
"Q  c #AD7954",
"!  c #AC715C",
"~  c #AE7B5C",
"^  c #A1715A",
"/  c #B37B54",
"(  c #B2745B",
")  c #B57C5B",
"_  c #BB7D5C",
"`  c #BA7F60",
"'  c #3D8137",
"]  c #3D8239",
"[  c #3E8A3A",
"{  c #41853A",
"}  c #4F843B",
"|  c #438B3B",
" . c #4E8B3E",
".. c #548A3C",
"X. c #45933C",
"o. c #4A943D",
"O. c #469C3B",
"+. c #499C3E",
"@. c #439D37",
"#. c #5A933E",
"$. c #539D3D",
"%. c #59993D",
"&. c #67823D",
"*. c #6B833F",
"=. c #75833F",
"-. c #7A8E3E",
";. c #6A9E3E",
":. c #76933F",
">. c #45A536",
",. c #45AA35",
"<. c #49AC37",
"1. c #46A33A",
"2. c #4AA43C",
"3. c #47A839",
"4. c #4BAA3C",
"5. c #4AA537",
"6. c #52A63C",
"7. c #5BA43B",
"8. c #51AD3F",
"9. c #58A937",
"0. c #4EB03D",
"q. c #52B23E",
"w. c #65AA39",
"e. c #5E8A40",
"r. c #4A9C40",
"t. c #549B40",
"y. c #5E9F43",
"u. c #6A8240",
"i. c #7C8342",
"p. c #738E43",
"a. c #7B8D42",
"s. c #6B9644",
"d. c #6D9A43",
"f. c #649743",
"g. c #739445",
"h. c #799646",
"j. c #4EA441",
"k. c #4FAA41",
"l. c #52A542",
"z. c #5BA544",
"x. c #53AD41",
"c. c #5DAD46",
"v. c #55B242",
"b. c #5AB444",
"n. c #5EB846",
"m. c #5EB648",
"M. c #5FB948",
"N. c #64A345",
"B. c #65AB46",
"V. c #6BAE4D",
"C. c #68A74A",
"Z. c #70A84B",
"A. c #60B947",
"S. c #63B54A",
"D. c #64BB4B",
"F. c #6ABE4E",
"G. c #6ABD4E",
"H. c #62B247",
"J. c #70BB4E",
"K. c #6DBE50",
"L. c #6FB553",
"P. c #73BD53",
"I. c #7ABD58",
"U. c #6DC050",
"Y. c #77C355",
"T. c #73C253",
"R. c #79C256",
"E. c #7DC459",
"W. c #93823F",
"Q. c #858443",
"!. c #8C8243",
"~. c #858945",
"^. c #918140",
"/. c #B3835C",
"(. c #BC845C",
"). c #B9865B",
"_. c #B78162",
"`. c #BB8562",
"'. c #BA8D65",
"]. c #BE8E69",
"[. c #C2855E",
"{. c #C48B5F",
"}. c #C48B63",
"|. c #C38D6C",
" X c #C88B62",
".X c #CB9266",
"XX c #C4926B",
"oX c #CC966C",
"OX c #CF996E",
"+X c #C59569",
"@X c #D19A6E",
"#X c #CC9671",
"$X c #CC9A72",
"%X c #D29D73",
"&X c #D09E78",
"*X c #CEA178",
"=X c #D4A276",
"-X c #D4A47A",
";X c #D9AB7E",
":X c #D5AC7F",
">X c #82C65D",
",X c #86C85E",
"<X c #8BCA62",
"1X c #DBB283",
/* pixels */
"L L L L H H H H H H H H H H H H H H H H H H L L L L L L L L L L L L L L L H H H L L L L L L L L L L L L L L L L L L L L L L L L ",
"L L L H H H H H H H H H H H H H H H H H H H H H H H H L Z B c W.W.^.B B Z C L L L L L L L L L L L L L L L L L L L L L L L L H H ",
"L L L H H H H H H H H H H H H H H H H H H H L L A Z !.-.%.$.9.7.w.7.$.$.f.a.!.A L L L L L L L L L L L L L L L L L L L L L L H H ",
"L L L H H H H H H H H H H H H H H H H H H L Z Q.a.:.;.7.5.>.5.5.6.2.+.2.z.N.d.a.B A L L L L L L L L L L L L L L L L L L L L H H ",
"L L L H H H H H H H H H H H H H H H L L A !.d.z.c.b.b.v.<.,.,.,.>.1.2.4.b.n.x.2.#.*.B C L L L L L L L L L L L L L L L L L L H H ",
"L L L H H H H H H H H H H H H H H H C Z ~.h.B.H.K.P.D.n.0.<.<.<.>.1.3.4.v.b.8.2.o...*.B L L L L L L L L L L L L L L L L L L H H ",
"L L L H H H H H H H H H H H H L L L Q.g.N.B.J.E.<X,XY.D.q.q.q.0.<.>.3.4.0.0.q.4.+.X. .&.V L L L L L L L L L L L L H H H H H H H ",
"L L H H H H H H H H H H H H L L C !.g.N.c.S.R.,X<X,XY.F.A.A.n.q.<.>.1.4.0.0.b.b.j.+.+.#.=.B C L L L L L L L L L L H H H H H H H ",
"L L H H H H H H H H H H H H L L Q.s.B.H.K.R.E.>X>XY.F.D.D.D.n.b.4.4.4.4.v.b.D.F.b.x.l.6.$.#.=.B C L L L L L L L L H H H H H H H ",
"L L H H H H H H H H H H H H L A p.y.c.G.R.E.Y.Y.T.D.b.q.b.n.b.v.q.v.x.v.b.D.F.F.M.n.b.8.2.+...*.V C L L L L L L L H H H H H H H ",
"L L H H H H H H H H H H H H C B %.6.b.F.T.K.D.A.b.q.<.<.q.b.D.D.M.D.M.D.G.G.D.D.D.M.b.q.3.2.o.} y V L L L L L L L H H H H H H H ",
"L L H H H H H H H H H H H H C Q.$.2.v.D.F.D.b.q.0.<.<.<.b.D.F.F.D.D.D.D.K.D.b.v.M.D.n.q.3.2.X.| r M L L L L L L L H H H H H H H ",
"L L H H H H H H H H H H H H C B #.2.4.v.D.G.D.v.4.q.b.b.n.D.D.M.m.D.D.D.D.b.4.4.b.D.D.b.x.j.+.| } &.N C L L L L L L L L L L H H ",
"L L H H H H H H H H H H H H L Z s.l.8.b.F.T.F.n.v.b.D.D.b.c.x.x.x.b.n.m.b.x.3.3.v.b.b.n.n.v.2.X.{ } y V L L L L L L L L L L H H ",
"L L H H H H H H H H H H H H C !.d.z.c.D.T.K.D.n.b.b.m.b.j.j.j.2.4.x.b.v.2.2.3.3.4.8.b.n.b.v.2.O.| { r N L L L L L L L L L L L H ",
"L L L H H H H H H H H H H L Z a.N.c.S.K.K.D.b.b.b.b.x.l.r.r.+.+.4.v.n.b.2.2.2.3.3.4.v.b.v.4.>.O.| { r V L L L L L L L L L L L L ",
"L L L H H H H H H H H H L Z ~.s.t.l.m.D.m.v.v.n.m.x.r.+.+.+.j.l.b.D.F.D.8.2.1.1.1.2.4.k.4.1.O.X.[ 4 r V L L L L L L L L L L L L ",
"L L L H H H H H H H H H A Q.g.s.o.+.l.x.v.4.v.b.b.l.+.+.+.2.x.n.D.F.U.D.x.4.1.1.1.1.+.2.2.+.[ [ ' $ 6 x L L L L L L L L L L L L ",
"L L L H H H H H H H L C ~.h.N.y.o.X.+.4.4.3.4.x.4.2.+.+.2.4.v.n.D.D.D.M.4.3.1.1.1.1.+.+.+.+.X.[ $ @ 4 e V L L L L L L L L L L L ",
"L L L H H H H H H H C Z h.Z.V.c.+.X.O.2.2.2.3.4.3.3.1.O.2.4.v.b.n.n.b.v.4.2.O.O.O.O.+.+.1.O.X.[ ' $ @ 5 t V L L L L L L L L L L ",
"L L L L H H H H H L !.g.V.I.E.P.x.1.O.O.+.+.1.4.4.3.>.1.2.3.q.v.b.v.4.<.3.1.X.X.X.+.2.4.4.3.1.O.| ] $ @ 3 t C L L L L L L L L L ",
"L L L L L L L L L L i.f.L.>X,XY.v.3.>.O.+.+.4.0.x.4.1.1.2.3.q.b.b.q.3.>.1.O.X.| X.+.2.4.0.<.>.O.| | ] + 2 r C L L L L L L L L L ",
"L L L L L L L L L L Q.f.V.I.R.G.v.3.1.1.2.4.v.n.b.k.1.+.1.3.4.x.v.4.2.1.O.X.X.X.X.+.2.3.<.<.>.O.X.| ] + 2 h V L L L L L L L L L ",
"L L L L L L L L L L B p.z.S.G.A.4.4.1.2.x.b.D.D.b.j.+.+.1.1.2.2.3.3.1.O.X.X.X.X.+.2.2.3.<.>.>.@.X.| ] $ 2 p M C L L L L L L L L ",
"L L L L L L L L L L C i.t.l.v.b.4.2.1.2.v.m.D.D.x.2.+.+.+.+.+.+.1.1.1.O.X.+.O.1.1.1.1.1.O.O.X.X.| { ] ] $ 2 j C L L L L L L L L ",
"L L L L L L L L L L Z i.o.2.x.b.x.2.O.2.l.v.b.b.l.2.+.X.X.X.X.+.2.3.1.1.+.+.O.1.1.1.O.O.O.X.| | { $ $ ] $ % h V L L L L L L L L ",
"L L L L L L L L L A j e.o.2.4.4.2.O.+.+.1.2.3.4.2.+.X.X.| | X.+.4.4.4.2.+.O.O.O.O.O.X.X.X.X.| ] @ O O @ # % p M L L L L L L L L ",
"L L L L L L L L L V u. .X.O.1.1.1.O.X.X.O.O.O.2.+.X.X.| | X.X.O.2.2.2.2.+.O.X.X.X.O.X.@.O.X.| $ o o o o o o > d L L L L L L L L ",
"L L L L L L L L L V r } | | X.X.X.| | ] ] [ | | X.X.| | | | X.X.+.+.X.X.| ] ] ] X.X.@.@.O.X.| ] @ o o o o   - 0 L L L L L L L L ",
"L L L L L L L L L C u 7 { { | | | { ] ' $ ' ] | | X.| | | | | | X.X.| | ] ' $ ' | X.O.O.X.| | { ] @ + o o   > d L L L L L L L H ",
"L L L L L L L L L L V t 5 $ ] { ] ] ' $ # # ' ] | | | { { { { { ] | ] ' $ # # $ ] | X.| { { { { { ] $ o   X a v L L L L L L H H ",
"L L L L L L L L L L C x 3 1 $ ' ] $ $ $ # # $ ] | | | { { ] ] ] ' ' $ $ # # # $ ] | | | | { { { ] ] + o   X g V L L L L L L H H ",
"L L L L L L L L L L L N 7 1 $ ' ' ] $ $ # # ' ] | | | { ] $ # # # # # # # # # $ ] { | | X.X.| ] + o o   . : l C L L L L L L H H ",
"L L L L L L L L L L L V 6 1 $ ] ] { ] ' $ $ ' | | | { { ] $ # # # # # # $ $ $ $ ] { | X.X.| { $ o o . . : q C L L L L L L L H H ",
"L L L L L L L L L L L L u e 5 @ ' { ] ] $ $ ] { | | { { { ] ' $ $ ' ] ] ] ] ] ] ] { | X.| | ] + o   & , l C L L L L L L L L H H ",
"L L L L L L L L L L L L V u 6 3 @ $ $ $ @ @ $ ] { { { { { ] ] ] ] { { | | | { ] ] ] | | | ] @ o   X , k H H L H H H H H H H H H ",
"L L L L L L L L L L L L L L N t O o o o o o o + @ $ $ @ @ @ ] { | | X.X.| | ] $ + @ $ $ @ o o   = s b H H H H H H H H H H H H H ",
"L L L L L L L L L L L L L L C x * . o     o o o o + + o O @ ] ] | | | | | { $ + o o + + o o   . : k H H H H H H H H H H H H H H ",
"L L L L L L L L L L L L L L L C k 9 * .   o o o o o o o o + $ $ ] ] ] ] ' $ o o o o o o     & ; k n H H H H H H H H H H H H H H ",
"L L L L L L L L L L L L L L L L n l 8 * .               o o + # $ $ $ $ # + o           . = 8 q n H H H H H H H H H H H H H H H ",
"L L L L L L L L L L L L L L L L L L z q ; & .       . . .   o o o o o o o o         . & 9 k n H H H H H H H H H H H H H H H H H ",
"L L L L L L L L L L L L L L L L L L L n q 8 * . . . = - & . o o o o o o       . . & * 9 b n H H H H H H H H H H H H H H H H H H ",
"L L L L L L L L L L L L L L L L L L L L C V k 9 : 8 0 g i =                 & ; 9 q k b H H H H H H H H H H H H H H H H H H H H ",
"L L L L L L L L L L L L L L L L L L L L L L C l k l b v f a = .   . . . . = 9 q z b n H H H H H H H H H H H H H H H H H H H H H ",
"L L L L L L L L L L L L L L L L L L L L L L L L L L H H T F a - > i i i < w n H H H H H H H H H H H H H H H H H H H H H H H H H ",
"L L L L L L L L L L L L L L L L L L L L L L L L L L H H R ^ f s g f S f g v H H H H H H H H H H H H H H H H H H H H H H H H H H ",
"L L L L L L L L L L L L H L L L L L L L L L L L L L H H W ~ G G D D T D m n L L L L L L L H H H H H H H H H H H H H H H L L L L ",
"L L L L L L L L L L L H H H L L L L L L L L L L L L H H Q /.) ( ! T T T m H L L L L L L L L H H H H H H H H H H H H H H L L L L ",
"L L L L L L L L L L L H H H L L L L L L L L L L L H H H / (.[.[.( ! R R J H H H L L L L L L H H H H H H H H H H H H H H L L L L ",
"L L L L L L L L L L L H H H L L L L L L L L L L L H H H / ).{.[.) ( ( ! J H H L L L L L L L H H H H H H H H H H H H H H L L L L ",
"L L L L L L L L L L L H H H L L L L L L L L L L L H H L / (. X X(.) ) ( K H H L L L L L L L H H H H H H H H H H H H H H L L L L ",
"L L L L L L L L L L L H H H L L L L L L L L L L L H H P ) }..X.X}._ _ ) K H L L L L L L L L H H H H H H H H H H H H H H L L L L ",
"H H H H H H H H H H H H H H L L L L L L L L L L P U Y Q `.oXoX.X.X X[._ W J P L L L L L L L L L H H H H H L H H H H H H L L H H ",
"H H H H H H H H H H H H H H L L L L L L L L L L U W ) ) |.#XOXoXOX.X X[.! E I P L L L L L L L L H H H H H L H H H H H H L L H H ",
"H H H H H H H H H H H H H H L L L L L L L L L L U W ) ` |.$X%X@X=X%XOXoX_.~ W U P L L L L L L L H H H H H L H L L H H H L L H H ",
"H H H H H H H H H H H H H H L L L L L L L L L L P U ( _.#X%X%X=X;X=X%X%X|._.~ Q P L L L L L L L H H H H H L H L L H H H L L H H ",
"H H H H H H H H H H H H H H L L L L L L L L L L L U ) '.$X%X=X;X;X=X%X=X&XXX~ Q P L L L L L L L H H H H H L H L L H H H L L H H ",
"H H H H H H H H H H H H H H H L L L L L L L L L P Y '.XX$XOX-X1X;X%XOX%X=X$X/.Y L L L L L L L L H H H H L L L L L H H H L L L H ",
"L L L H H H H H H H H H H H H H H H H H H H H H P Q '.XX`.}.-X1X=XXX`.`.oX$X]./.P L L L L L L L L L L L L L L L L L L L L L L L ",
"L L L H H H H H H H H H H H H H H H H H H H H H P U /./.) _.*X:XXX`.Q Q `.].|.`.U L L L L L L L L L L L L L L L L L L L L L L L ",
"L L L H H H H H H H H H H H H H H H H H H H H H H L L L U /.XXXX/ Y I P U W / / P L L L L L L L L L L L L L L L L L L L L L L L ",
"L L L H H H H H H H H H H H L L L L L L L L L L L L L L U ) `.(.U P L L L P P P P L L L L L L L L L L L L L L L L L L L L L L L ",
"L L L H H H H H H H H H H H L L L L L L L L L L L L L L P U U U L L L L L L L L L L L L L L L L L L L L L L L L L L L L L L L L ",
"L L L H H H H H H H H H H H H H H H L L L L L L L L L L L L L L L L L L L L L L L L L L L L L L L L L L L L L L L L L L L L L L "
};
