/* XPM */
static char *ac94d8b07ee348a8d4bf16e56fcc7c60rRPq5Q3yxwNENNC4[] = {
/* columns rows colors chars-per-pixel */
"64 64 255 2 ",
"   c #170806",
".  c #1C0A06",
"X  c #1C0B09",
"o  c #141511",
"O  c #141614",
"+  c #260507",
"@  c #230B05",
"#  c #2B0D06",
"$  c #240C0A",
"%  c #2C0E0A",
"&  c #330C03",
"*  c #3A0E02",
"=  c #310F0A",
"-  c #281507",
";  c #2D110A",
":  c #361305",
">  c #3A1402",
",  c #33120C",
"<  c #39140E",
"1  c #210D15",
"2  c #2C1212",
"3  c #2B1916",
"4  c #341512",
"5  c #391914",
"6  c #0E221C",
"7  c #0B351C",
"8  c #18371D",
"9  c #143B1C",
"0  c #3C211C",
"q  c #2A3118",
"w  c #151920",
"e  c #122A25",
"r  c #0E322A",
"t  c #083929",
"y  c #163726",
"u  c #083C32",
"i  c #352925",
"p  c #273923",
"a  c #393726",
"s  c #471A08",
"d  c #5B1F06",
"f  c #401E18",
"g  c #552C0D",
"h  c #43221D",
"j  c #49241B",
"k  c #6F380F",
"l  c #673616",
"z  c #442522",
"x  c #472925",
"c  c #4B2A25",
"v  c #562C2A",
"b  c #48372A",
"n  c #58372A",
"m  c #5B342D",
"M  c #493831",
"N  c #5C3531",
"B  c #553A31",
"V  c #5C3932",
"C  c #663827",
"Z  c #623A2D",
"A  c #633631",
"S  c #613933",
"D  c #084416",
"F  c #0B431C",
"G  c #15411F",
"H  c #2E5619",
"J  c #084628",
"K  c #144523",
"L  c #034334",
"P  c #05463A",
"I  c #055538",
"U  c #185633",
"Y  c #285C26",
"T  c #33542C",
"R  c #1C672B",
"E  c #296526",
"W  c #32712F",
"Q  c #454E15",
"!  c #65400E",
"~  c #7B431A",
"^  c #55492B",
"/  c #52572E",
"(  c #494434",
")  c #564735",
"_  c #784524",
"`  c #684633",
"'  c #744A34",
"]  c #546B39",
"[  c #467736",
"{  c #65693B",
"}  c #0B4E45",
"|  c #075B45",
" . c #035E4D",
".. c #165543",
"X. c #045E53",
"o. c #075E54",
"O. c #056348",
"+. c #02614C",
"@. c #176C46",
"#. c #016253",
"$. c #036756",
"%. c #047659",
"&. c #02735C",
"*. c #2D7E42",
"=. c #057962",
"-. c #127B62",
";. c #7D5342",
":. c #5B7147",
">. c #786B49",
",. c #767A45",
"<. c #697451",
"1. c #777B56",
"2. c #814A1E",
"3. c #884A18",
"4. c #994F16",
"5. c #A65A1B",
"6. c #A9621E",
"7. c #834B22",
"8. c #8A4E23",
"9. c #8A562A",
"0. c #955929",
"q. c #875737",
"w. c #995D33",
"e. c #A55C27",
"r. c #996239",
"t. c #96753D",
"y. c #AB632A",
"u. c #B6682C",
"i. c #BA6B2D",
"p. c #B8702F",
"a. c #A46E3D",
"s. c #A86938",
"d. c #B66A36",
"f. c #BB6C32",
"g. c #A4713E",
"h. c #A8703F",
"j. c #B97136",
"k. c #C16E34",
"l. c #8C5B45",
"z. c #9A6A48",
"x. c #8F714F",
"c. c #87794C",
"v. c #987347",
"b. c #A56E42",
"n. c #A96D43",
"m. c #A76B49",
"M. c #A37142",
"N. c #AA7243",
"B. c #A97349",
"V. c #B77947",
"C. c #B47C4C",
"Z. c #B47A51",
"A. c #C07440",
"S. c #38873A",
"D. c #3C8C3D",
"F. c #36903A",
"G. c #45893B",
"H. c #40903B",
"J. c #1E9354",
"K. c #388A43",
"L. c #3C9446",
"P. c #2F9150",
"I. c #249856",
"U. c #1DA65D",
"Y. c #23A35C",
"T. c #3AA558",
"R. c #028365",
"E. c #018A67",
"W. c #03856A",
"Q. c #0A856A",
"!. c #018A6C",
"~. c #02926C",
"^. c #04996A",
"/. c #12906D",
"(. c #199768",
"). c #089675",
"_. c #029C75",
"`. c #0B9C74",
"'. c #009E79",
"]. c #299168",
"[. c #18AA69",
"{. c #01A474",
"}. c #02A479",
"|. c #07A679",
" X c #04AB7B",
".X c #11AB71",
"XX c #06B67A",
"oX c #06BB7D",
"OX c #0BBA7E",
"+X c #15B67A",
"@X c #2CAC6F",
"#X c #37BB7A",
"$X c #448A42",
"%X c #488B47",
"&X c #55834B",
"*X c #449247",
"=X c #4C8857",
"-X c #6C8754",
";X c #7A8657",
":X c #54936A",
">X c #699265",
",X c #57A66C",
"<X c #46A27B",
"1X c #48AE7B",
"2X c #53AB74",
"3X c #45B476",
"4X c #60A063",
"5X c #0FC27F",
"6X c #33C37C",
"7X c #BA824F",
"8X c #0CAB84",
"9X c #0DB585",
"0X c #06BA82",
"qX c #09BC81",
"wX c #0DBA8C",
"eX c #14BA85",
"rX c #52AC82",
"tX c #0DC385",
"yX c #0BC48A",
"uX c #08C88B",
"iX c #12C486",
"pX c #1ACC86",
"aX c #12C489",
"sX c #14CD8D",
"dX c #1ACC8D",
"fX c #08D08E",
"gX c #19D28D",
"hX c #08C891",
"jX c #0CCC92",
"kX c #1CC593",
"lX c #14CC91",
"zX c #1ACD91",
"xX c #06D494",
"cX c #09D295",
"vX c #16D294",
"bX c #1DD394",
"nX c #18D896",
"mX c #1EDA9B",
"MX c #28C887",
"NX c #24C68A",
"BX c #35C589",
"VX c #23D18E",
"CX c #23CA95",
"ZX c #22D294",
"AX c #23D498",
"SX c #28DA98",
"DX c #3CD298",
"FX c #1ADEA1",
"GX c #31DCA1",
"HX c #1BE2A6",
"JX c #18E2A8",
"KX c #1EE2B1",
"LX c #25E3A7",
"PX c #4ACB95",
"IX c #42CEA3",
/* pixels */
"b.b.b.b.b.b.b.b.b.b.b.b.b.b.b.b.M.x.1.,XPXPXIXIXDXDXDXDXBXMXMXMXMXMXMXNXNXNXNX#X@X(.(.].=X>X1.z.b.b.n.n.n.b.b.n.b.b.b.b.b.b.b.b.",
"b.b.b.b.b.b.b.M.M.a.a.n.n.b.M.x.c.>XrXDXSXLXKXKXKXHXHXHXnXcXcXcXcXcXxXxXxXxXxXyXXX X|.`.(.].:X1.x.v.b.n.n.n.n.n.b.b.b.b.b.b.b.b.",
"b.M.M.M.b.M.v.v.v.g.h.n.n.m.x.;X,XPXGXLXHXJXJXHXJXJXJXJXJXcXcXcXcXcXxXxXxXxXfX0X X{.{.{.`.`.].=X<.x.z.m.m.m.m.m.b.b.b.M.M.M.M.b.",
"b.M.b.b.b.b.M.v.v.M.N.N.v.1.>XrXPXGXHXJXJXJXHXHXHXJXJXFXFXcXhXjXjXjXhXfXxXfXyX X{.{.{.{.{.{.`.(.].=X1.x.v.b.n.n.b.b.b.M.M.M.M.b.",
"b.a.a.h.h.h.a.g.v.v.z.x.;X,XBXSXLXLXLXHXHXHXHXFXFXFXFXFXnXjXuXjXyXyXhXuXhXuXXX X{.{.{.{.{.{.{.|.`.(.=X-Xc.t.g.h.a.a.a.M.M.M.M.b.",
"b.a.h.h.h.a.a.b.v.1.-X:X1XBXVXnXFXmXmXmXmXmXmXmXmXmXmXmXnXuXyXyXtXyXuXuXuXyX X{.{.{.{.{.{.{.{.{.{.|.(.P.&X-Xv.M.N.n.n.M.M.M.b.b.",
"b.a.h.h.a.g.v.x.;X>XrXBXCXZXZXbXbXbXbXbXbXbXbXZXbXbXbXbXvXaXtXaXqXtXyXuXyXtX X{.{.{.{.{.{.{.}.}.}.{.`.[.I.%X,.x.v.b.b.M.M.M.b.b.",
"b.b.a.a.M.v.;X>X2X6XMXbXbXnXbXbXVXZXVXZXVXVXZXVXZXZXZXVXdXiXtXiXeXeXtXyXyXaX X{.{.{.{.{.{.{.}.}.{.{.{.{.`.(.P.=X1.c.v.M.g.h.b.a.",
"b.b.v.v.c.;X4X3XMXgXgXgXbXbXbXbXZXZXVXVXZXZXZXZXVXZXVXVXdXiX5XiXeXeXtXtXyXtX X{.{.{.{.{.{.{.}.}. X{.{.{.|.`./.].=X<.c.v.g.g.M.a.",
"B.B.x.>X,X3XBXVXgXnXbXZXZXZXZXZXZXZXZXZXZXZXZXZXZXZXZXZXdXiXtXtXtXtXtXyXyXtX X{.{.{.{.{.{.{.{.}.{.}.}._.!.R.).).(.].=X,.v.v.g.g.",
"v.c.>XrXBXZXnXnXnXnXZXZXZXZXZXZXZXZXZXbXbXZXZXZXZXZXZXbXsXiXtXtXtXtXyXyXyXyX X{.{.{.{.{.{.}.|.|.|.|.).E.!.!._._._.^.J.=X<.c.t.g.",
"c.4X3XBXZXmXnXbXbXbXbXZXZXZXZXZXZXZXZXbXbXZXZXZXZXZXZXzXiXtXtXtXtXtXyXyXyXyX X{.{.{.{.{.{.}.|.|.`.).W.R.Q.`._._._._.^.(.].&X,.t.",
";X3XMXbXvXvXnXbXbXbXbXZXZXZXZXZXZXZXZXbXbXZXZXAXAXZXbXsXtXtXtXtXtXtXyXyXyXyXXX{.{.{.{.{. X}.}.`.!.=.R.Q.).)._._._.{.{._./.P.:.t.",
"4X6XpXnXnXvXvXnXnXnXbXZXZXZXZXZXZXZXZXbXbXbXbXAXZXbXsXaXtXtXtXtXyXyXyXyXyXyX0X X X X X{. X X_.!.R.R.Q./.)._.'.'.'.'.'.).).(.W ,.",
",XMXsXvXvXvXvXvXvXbXZXZXZXZXZXZXZXZXZXbXbXbXbXbXbXsXaXtXtXtXtXtXyXyXyXyXyXyXyX0X0X0X9X X|.).E.R.R.!.).).)._.'.'.'.}.}.).Q.%.R >.",
",XMXlXjXlXlXlXvXbXCXZXZXZXZXZXZXZXZXZXbXvXzXzXdXsXaXtXtXtXtXtXtXyXyXyXyXyXyXyXuXhXhXaX9X`.E.R.R.!.~._._._._.'.'._._.~.R.%.+.U >.",
",XMXlXjXlXlXlXvXZXCXAXAXAXZXAXZXAXAXbXbXsXsXsXaXaXtXtXtXtXtXtXtXiXiXtXtXtXyXuXjXhXwX8X`.!.=.=.R.E._._.{.}._.|.'._.!.R.&.+.+.U >.",
",XNXlXjXlXlXlXzXzXzXAXAXAXZXAXZXZXbXsXaXiXsXaXaXiXtXtXtXtXtXtXiXiXiXiXiXaXaXsXwX9X}.~.W.W.Q.R.Q.~._._._.).).).E.%.&.$.$.#.#...>.",
"2XNXlXlXlXzXzXzXzXzXzXdXpXiXiXiXiXtXtXtXtXaXtXtXtXtXtXtXtXtXtXtXiXaXaXaXaXaX9X|._.~.!.W.W.Q.R.R.!.`.`.!.%.%.&.$.$.#.#.X.X.#...>.",
"rXCXjXlXlXzXzXzXzXzXdXaXeXOXOXOXoXoXoXtXtXqXqXqXqXtXtXtXtXtXtXyXaXaXaXkXkX X_.~.E.E.!.W.W.Q.Q.W.W.%.%.$.+.+.$.$.#.#.X.X.X.#...>.",
"rXCXjXlXlXzXzXzXzXzXdXdXiXOXOXOXoXoXoXqXqXqXqX0X0XqXqXqXtXtXtXaXCXkXeX|.~.~.E.E.!.!.!.W.W.W.W.R.%.+.+.+. . .+.+. .X.X.X.X.#...>.",
"rXkXjXlXlXzXzXzXzXzXdXdXiXOXOXOXqXqXqXqXqXqXqXqX0X0X0XqXoX0XaXkXCXeX|.).E.E.!.!.!.!.!.W.W.W.W.R.%.+.+. . . . . . .X.X.X.X.#...>.",
"<XdXfXlXlXzXzXzXzXzXdXdXiXOXOXOXqXqXqXqXqXqX0XqX0X0X0X0XXXXXqXaX|.).E.!.!.!.!.!.!.!.!.!.!.!.W.R.%.+.+.+.+.+.+. . . .#.#.#.#...>.",
"<XdXfXlXlXzXzXzXzXzXsXsXaXOXOXOXoXoXqXqXqXqX0XqX0X0X0X0X0X0X0X9XR.W.W.!.!.!.!.!.!.!.!.!.!.!.W.R.&.+.+.+.+.+.+.+. .+.+.#.#.#...>.",
"<XNXsXsXlXlXzXzXzXzXvXlXdXqXOXOXOXoXqXqXqXqXqXqXqXqXqXqX0X0X0X9XE.W.!.!.!.!.!.!.!.!.!.!.!.!.!.Q.&.#.+.#.#.#.#.+.+. .+.+.+.o...>.",
"<XNXsXsXsXsXzXzXzXzXvXlXdXqXOXOXOXOXqXqXqXqXqXqXqXqXqXqX0X0X0X9XE.E.!.!.!.!.!.!.!.!.!.!.!.!.!.W.&.#.+.#.#.#.#.+.+.+.+.O.O.o...>.",
"<XNXsXsXsXsXdXzXzXzXvXlXzXqXOXOXOXOXqXqXqXqXqXqXqXqXqXqX0X0X0X9XE.E.!.!.!.!.!.!.!.!.!.!.!.!.!.W.&.#.+.#.#.#.#.+.+.+.O.O.O.o...>.",
"<XNXsXsXsXsXdXzXzXzXvXlXzXeXqXqX0X0XqXqXqXqXqX0X0X0X0X0X0X0X0X9XE.E.!.!.!.!.!.!.!.!.!.!.!.!.!.W.&.#.#.#.#.#.#.+.+.+.O.O.O.O...) ",
"<XNXsXsXsXsXdXzXzXzXvXvXbXiXqXqX0X0XqXqXqX0X0X0X0X0X0X0X0X0X0X9XE.E.!.!.!.!.!.!.!.!.!.!.!.!.!.W.&.#.#.#.#.#.#.X. . .O.O.O.O...( ",
"<XNXsXsXsXsXdXzXzXzXvXvXbXiXqXqX0X0XqX0X0X0X0X0X0X0X0X0X0X0X0X9XE.E.!.!.!.!.!.!.!.!.!.!.!.!.!.W.&.#.#.#.#.#.#.X. .+.O.O.O.O...( ",
"<XMXsXsXsXsXdXdXdXdXgXdXVXeX+X+XOXqX0X0X0X0X0X0X0X0X0X0X0X0X0X9XE.E.!.!.!.!.!.!.!.!.!.!.!.!.!.W.=.#.#.#.#.#.#.X.X. . .O.O.O.U ( ",
"<XdXfXsXsXgXpXpXMXMXpXSXBX[.[.[.+XeX9X9XOXoXoX0X0X0X0X0X0X0X0X9XE.E.!.!.!.!.!.!.!.!.!.!.!.!.!.W.=.#.#.#.#.#.$.$.X.X. . .O.@.U M ",
"<XNXsXpXpXpXpXpXMXMXMX6X@XI.J.I.U.+XeX+XOXoXoXqX0X0X0X0X0X0X0X9XE.E.!.!.!.!.!.!.!.!.!.!.!.!.!.W.=.#.#.#.#.#.$.$.$.X. .| | U U M ",
"<XMXpXNXMXpXMXMXMXBX#XT.L.K.K.K.P.I.@X+XoXOXoXoXoXoX0X0X0X0X0X9XE.E.!.!.!.!.!.!.!.!.!.!.!.!.!.!.=.#.#.#.#.#.#.#.#.+.O.| I I K b ",
":X#X#X#X#X6X6X#X#X3XT.L.G.G.G.D.F.K.I.[.+XOXoXoXoXoX0X0X0X0X0X9XE.E.!.!.!.!.!.!.!.!.!.!.!.!.!.!.=.#.#.#.#.#.#.+.+.O.| I I J y a ",
"<.=XT.T.T.T.T.T.L.*X*X*X$XG.$X*XL.D.K.P.I.[.XXXXoXoX0X0X0X0X0X9XE.E.!.!.!.!.!.!.!.!.!.!.!.!.!.!.=.#.#.#.#.#.+.O.I I J J J J y a ",
":.:.%XL.L.L.L.L.$X$X$X$X$X$X*X*XL.H.G.$XK.I.[..XXXoX0X0X0X0X0X9XE.E.!.!.!.!.!.!.!.!.!.!.!.!.!.!.=.#.#.#.#.O.| I J J K F F F 9 a ",
"^ ] &X%XL.L.*X*X$X[ [ [ W S.*XL.L.H.G.G.G.S.P.(..XOXXXoX0X0X0X9XE.E.E.!.!.!.!.!.!.!.!.!.W.!.!.!.=.#. . . .| J 7 K U K D D F 9 a ",
"n ^ ] &X%X%X%X$X[ / / / T W $XD.F.F.D.H.G.S.K.P.J.[..XXX9X9XqXeXE.E.E.W.W.W.W.!.!.W.Q.Q.-.=.&.$.| P L L L u 7 7 K U F D D F 8 a ",
"V V ) :.&X=X=X&X[ / / / ] [ G.H.F.F.D.D.D.D.D.S.F.J.U..X+XeXeXeX~.R.R.Q.Q.Q.Q.Q.Q.=.=.$.X.} P L J t r y 7 7 7 7 K K F F F K p b ",
"Z Z n ) ] :.<.:.] / ^ / { ] G.G.D.D.D.H.H.H.K.K.D.F.P.Y.[.+X+X+X~.Q.Q.Q.-.%.%.$.#.| } P P P u t y y y y y 8 9 y K G F 9 p a b B ",
"Z Z Z ` ^ ) ) ^ ^ ^ ^ ^ / ] ] [ [ G.G.$X$X$XK.K.D.S.F.P.Y.[.+X+X/.Q.Q.-.$.O.| P P P P P P P u y p p p p y 8 9 K K 9 8 p b B B A ",
"S A Z V V n n n n m v V ` n ^ ^ / ] W E E E W S.S.S.D.L.P.I.Y.@X/.%.| I P P P P L u u u u u y a M ( T p y 9 G G 9 8 a b B S A A ",
"A A S V V V B m N N N N A m Z C ` / T T Y Y R R W R W S.S.*.@.O.I I P P L L L P P u r r e e i B ) ) ( a p 8 G 9 8 a n V S A A A ",
"A A V B B B B B n n n n C _ ' q.l.{ / T T E E R R R E E E R J t L L P L L L L u r r e O O 1 3 x b B ) ) b p 9 8 a n N A S A N N ",
"C C ` ` ` V B B B n n _ q.z.B.M.v.' a q T H H Y E E E E E Y J L L L u u u r r e 6 O O   X $ $ - 5 h b B B b q a b V A A V V V V ",
"_ q.z.x.l.` m m n Z _ 9.b.B.M.M.B.q.s - - q ^ Q Q H H E E Y J u u t t e 6 O o o X X X $ $ % $ @ # # 4 h v B x b B V V V V V N N ",
"z.z.z.' ` n n Z ` q.t.a.h.a.h.h.B.l.g : # s q.9.~ ! Q Q Q T y r e 6 6 O o X X $ $ $ $ $ $ % $ # # # # , 5 h v B V V V V V N N N ",
"z.q._ n n Z C ' z.M.N.h.a.a.h.h.M.z.l & & d n.d.d.e.3.! g g 3 w o       X X X $ $ $ $ $ $ @ @ # % ; % % % , f c N V V V V N N N ",
"_ C m n Z ` q.z.M.M.a.a.a.h.N.N.B.z.l & > d s.d.f.i.y.0.~ l ; 1 $ $ $ $ $ $ @ $ $ @ 2 ; ; # % ; ; ; ; = = = , < h v m S V v c c ",
"l Z A A ' l.z.b.M.M.a.a.a.a.h.M.N.m.C : : d s.d.p.i.p.d.s.w.j + % % = % ; % @ @ @ . 3 0 5 3 4 ; ; ; , , , , , = , < j v c f < 5 ",
"v n Z l.z.m.M.M.M.M.a.a.a.a.a.a.a.b.C > & d s.d.u.i.i.f.f.d.l & ; ; ; , ; % @ @ @ . 3 x x z 0 4 ; ; , , , , , , = = , < < , , < ",
"C ' z.m.m.B.M.g.M.M.a.a.a.M.B.a.w.9.l > & k d.f.u.i.i.i.k.d.k : : - , , % # @ @ @   3 x x z 0 0 4 ; , < , , , , , , , < , , , , ",
"b.b.b.b.b.b.N.N.M.b.a.a.a.r.9.7.2.7.l > * 8.d.k.k.i.i.f.f.A.~ & > : : : ; @ @ . $   3 x x x x x h 5 , = , , , , , = = = = < = = ",
"a.a.a.a.a.a.a.a.a.N.N.r.9.2.2.2.2.7.l > * 0.u.f.k.f.p.d.f.V.~ & > > : : # @ . . .   3 x x x x x z h 5 , = = , % = , , , # = f v ",
"b.b.b.b.b.b.b.a.a.r.w.9.~ ~ 2.7.7.7.l > * 0.i.i.i.f.p.d.f.V._ & > : : , ; @ . . X   3 x x x x x x z f 4 , = ; ; , , , , < j m S ",
"b.b.b.b.b.b.N.n.r.9.7.7.7.7.7.7.7.7.l > * w.u.u.u.f.p.j.f.j._ & > > : , ; @ . . .   2 0 z x x x x c h 5 < , # # , # = 5 h v m m ",
"b.b.b.b.b.b.b.b.r.7.2.7.2.2.2.7.7.7.l > s s.u.i.f.f.p.f.f.j._ & > > : , ; . . . . . . % 4 f z z z z z h 5 , # # , < f c m m N m ",
"b.b.b.n.b.b.b.B.b.8.2.~ ~ ~ ~ 7.7.7.l * s s.y.f.f.f.p.p.f.j._ & > > : , ; . . . . . . $ % 4 5 5 h z h 5 , % # # < h v m m m m m ",
"b.b.b.b.b.b.b.B.C.a.w.2.k k ~ 2.7._ l > s s.y.f.f.p.p.f.f.j._ & > > : , ; @ . . . . . 2 2 % = , 4 5 5 4 % % < f c m m N N N m m ",
"b.b.b.b.b.b.N.C.Z.C.V.a.0.k k k _ _ l > l s.y.u.i.p.p.u.i.j.~ * > > : , ; @ . X . . . 2 2 % % % % , 4 4 4 4 c v v N m N N m m m ",
"b.b.b.b.b.b.B.Z.Z.C.C.7XC.s.8.~ 7._ l s l s.e.e.y.6.5.5.5.d.k & > > : , ; @ . X X X X 2 2 % % ; % % ; 5 0 z v v v N N v m S ' ;.",
"b.b.b.b.b.b.N.C.C.C.C.C.7X7XN.0.~ _ l s k 0.e.e.e.5.4.4.4.y.k & > : : , ; @ . X X X X 2 2 , , , , < 5 z c c v v v m A ` q.l.z.v.",
"b.b.b.b.b.b.b.b.n.N.7XV.V.7XC.Z.b.9.l d d ~ 0.s.y.0.4.4.3.s._ & > : : , ; @ . X X X X 2 2 , % # < j c c v v v v v C q.z.b.g.g.M."
};
