/* XPM */
static char *_313ac6b830941d2c52df3c81749cedc8NkkWR8EuvJuMwwA[] = {
/* columns rows colors chars-per-pixel */
"70 70 256 2 ",
"   c #1C0A05",
".  c #1D0C09",
"X  c #190806",
"o  c #151715",
"O  c #151211",
"+  c #240C06",
"@  c #2B0C05",
"#  c #240D0A",
"$  c #2C0E0A",
"%  c #290501",
"&  c #320B02",
"*  c #310F09",
"=  c #380C01",
"-  c #2E110A",
";  c #2B1608",
":  c #3A1403",
">  c #33130C",
",  c #38130E",
"<  c #351404",
"1  c #2C1413",
"2  c #331412",
"3  c #391B16",
"4  c #290E12",
"5  c #153A1C",
"6  c #0C2D19",
"7  c #29371D",
"8  c #352811",
"9  c #152A25",
"0  c #063928",
"q  c #173824",
"w  c #083D34",
"e  c #12352F",
"r  c #273723",
"t  c #3B3927",
"y  c #3F2A20",
"u  c #441E1A",
"i  c #491806",
"p  c #59290A",
"a  c #44231C",
"s  c #5A2C16",
"d  c #532D0F",
"f  c #68330A",
"g  c #693718",
"h  c #6F350D",
"j  c #4A2622",
"k  c #4B2A25",
"l  c #452B28",
"z  c #472825",
"x  c #562D29",
"c  c #463729",
"v  c #5B342D",
"b  c #5B3B2D",
"n  c #583629",
"m  c #5C3631",
"M  c #5C3A32",
"N  c #563A31",
"B  c #533331",
"V  c #63392E",
"C  c #653926",
"Z  c #643632",
"A  c #623932",
"S  c #6A3831",
"D  c #0A431B",
"F  c #15411E",
"G  c #064528",
"H  c #164424",
"J  c #1A562A",
"K  c #034335",
"L  c #054639",
"P  c #04563A",
"I  c #18553C",
"U  c #0C4833",
"Y  c #2D552B",
"T  c #1D692C",
"R  c #276526",
"E  c #38682A",
"W  c #307333",
"Q  c #2C5A18",
"!  c #4A4A15",
"~  c #7D441B",
"^  c #794218",
"/  c #734A15",
"(  c #56472C",
")  c #574537",
"_  c #595834",
"`  c #4C4E2D",
"'  c #774625",
"]  c #714B34",
"[  c #516F38",
"{  c #726A3E",
"}  c #035E4D",
"|  c #035B46",
" . c #055E54",
".. c #0B5D54",
"X. c #0E5042",
"o. c #224E43",
"O. c #02624C",
"+. c #056548",
"@. c #016253",
"#. c #006A54",
"$. c #056559",
"%. c #037659",
"&. c #166A4B",
"*. c #357F43",
"=. c #027D61",
"-. c #117964",
";. c #5B744B",
":. c #7D6E4A",
">. c #72774F",
",. c #796954",
"<. c #814A1D",
"1. c #954E16",
"2. c #A35718",
"3. c #844B22",
"4. c #8D4E21",
"5. c #8B5428",
"6. c #965828",
"7. c #885938",
"8. c #955A34",
"9. c #A85E27",
"0. c #AF5E3C",
"q. c #9A6539",
"w. c #96763D",
"e. c #BA6C2C",
"r. c #B6662B",
"t. c #A46E3D",
"y. c #AB6E3C",
"u. c #A66534",
"i. c #BC6C32",
"p. c #B76B36",
"a. c #A5713E",
"s. c #A8733F",
"d. c #B87132",
"f. c #B77133",
"g. c #AD652B",
"h. c #A7601D",
"j. c #C46D38",
"k. c #866948",
"l. c #996948",
"z. c #887948",
"x. c #9B7347",
"c. c #877952",
"v. c #937052",
"b. c #A66E42",
"n. c #AA6D45",
"m. c #A76C49",
"M. c #A47142",
"N. c #AA7343",
"B. c #A7744A",
"V. c #B47C4C",
"C. c #B97645",
"Z. c #AC7553",
"A. c #8B5746",
"S. c #C17847",
"D. c #3A8B3A",
"F. c #349139",
"G. c #448B3D",
"H. c #47873B",
"J. c #458E3C",
"K. c #199654",
"L. c #388B42",
"P. c #27954B",
"I. c #3B9546",
"U. c #2E9054",
"Y. c #1AA15B",
"T. c #37A75C",
"R. c #028364",
"E. c #018B67",
"W. c #03856A",
"Q. c #0A836A",
"!. c #018A6C",
"~. c #0C886A",
"^. c #02926C",
"/. c #06976A",
"(. c #189A67",
"). c #0B8D70",
"_. c #029D75",
"`. c #019E79",
"'. c #089675",
"]. c #149B74",
"[. c #18886A",
"{. c #2E9066",
"}. c #02A46D",
"|. c #1BA867",
" X c #01A474",
".X c #00A974",
"XX c #01A379",
"oX c #07A67A",
"OX c #06BC7E",
"+X c #0CBA7E",
"@X c #06B77A",
"#X c #16B578",
"$X c #14AC74",
"%X c #2EAE6D",
"&X c #438B42",
"*X c #488B46",
"=X c #439347",
"-X c #5B8756",
";X c #508B50",
":X c #6B8656",
">X c #56916E",
",X c #689968",
"<X c #748262",
"1X c #46A37A",
"2X c #53AC73",
"3X c #22C47C",
"4X c #BC8252",
"5X c #B8814C",
"6X c #828756",
"7X c #C28758",
"8X c #0EB586",
"9X c #06BA83",
"0X c #09BC82",
"qX c #06B583",
"wX c #11BD85",
"eX c #16B587",
"rX c #0AAD85",
"tX c #4AB185",
"yX c #0DC386",
"uX c #0BC58A",
"iX c #0CCA8A",
"pX c #05C78B",
"aX c #12C385",
"sX c #13C58A",
"dX c #15CD8D",
"fX c #1ACD8C",
"gX c #1AC986",
"hX c #17D18B",
"jX c #0BCC92",
"kX c #06CA91",
"lX c #14CD91",
"zX c #1ACD91",
"xX c #15C393",
"cX c #0AD395",
"vX c #06D595",
"bX c #15D294",
"nX c #1CD394",
"mX c #1AD998",
"MX c #0BD38C",
"NX c #2BC58A",
"BX c #28C888",
"VX c #36C687",
"CX c #22D28F",
"ZX c #24CA95",
"AX c #22D294",
"SX c #22D599",
"DX c #25D899",
"FX c #3AD395",
"GX c #19DEA3",
"HX c #19E2A7",
"JX c #1FE1B2",
"KX c #23E2A6",
"LX c #2AE6AC",
"PX c #29DDA3",
"IX c #4BD099",
"UX c #4CCB9A",
/* pixels */
"b.b.b.b.b.b.b.b.b.b.b.b.b.b.b.b.M.M.x.c.:X2XUXIXIXIXIXFXFXFXFXNXNXNXNXNXNXBXBXBXBXBXNX%X%X(.(.{.{.>X>.x.b.b.n.b.b.b.b.b.b.b.n.b.b.b.b.b.b.b.",
"b.b.b.b.b.b.b.M.M.b.b.a.t.n.b.b.x.x.<X,XtXFXDXKXJXJXJXHXHXHXHXcXcXcXcXcXcXvXvXvXvXvXcX0X@X.XoX'.].{.>X>.v.x.m.b.n.b.b.n.n.b.n.b.b.b.b.b.b.b.",
"b.M.M.M.M.M.M.x.x.M.M.a.y.n.n.B.c.:X2XIXPXKXHXHXHXHXHXHXHXHXHXHXcXcXcXcXcXvXvXvXvXcXiXqXoXoX X X_.].(.>X-Xc.v.m.m.m.m.m.m.m.b.b.M.M.a.a.M.b.",
"b.M.M.M.M.b.M.x.x.x.M.N.N.b.k.>.,XtXIXKXHXHXHXHXHXHXHXHXHXHXHXGXcXkXcXjXjXvXvXvXvXjXuX.XXX X X X X XoX].{.-X>.v.x.m.b.n.n.b.b.b.M.a.a.a.M.b.",
"b.M.M.t.y.y.y.a.x.x.M.n.B.c.-X2XFXPXKXKXHXHXHXHXHXHXHXGXGXGXGXmXjXpXjXuXuXpXpXkXjXpX@X.X X X X X X X XoX].(.{.-Xc.x.a.a.a.t.t.t.M.M.M.M.M.b.",
"b.M.t.y.y.y.y.b.M.x.z.k.>.,X1XFXmXHXLXKXKXKXKXKXKXGXmXmXmXmXDXbXuXuXiXuXuXpXpXpXuX9X X X X X X X X X X X XXX].{.-X:Xw.w.a.a.s.y.b.M.M.M.M.M.",
"b.M.y.y.y.a.M.b.x.c.:X2XtXVXZXAXnXnXnXnXnXnXnXnXnXDXnXnXnXnXmXnXyXyXyXyXuXuXpXpXiX0X X X X X X X X X XXXXXoXoX(.Y.I.;Xz.M.N.n.n.b.M.x.M.b.b.",
"b.M.t.y.y.M.x.z.6X,X2XVXZXnXnXnXAXAXCXCXCXAXAXAXAXAXAXAXAXnXnXhXyXyXsXwXaXuXuXuXsX8X X X X X X X X X XXXXXXXXX}.}.Y.U.-X>.v.x.b.b.M.M.M.b.b.",
"M.M.M.N.M.x.c.:X2X%XBXCXnXnXnXnXnXAXAXCXCXAXCXCXCXAXAXAXAXCXCXfXaXyXaXwXwXyXuXuXsX8X}. X X X X X X XXXXXXX.X.X}.oXoX(.{.U.-X>.v.M.a.a.t.b.M.",
"M.b.B.x.c.<X-X2XVXhXMXhXhXnXnXnXnXAXAXCXCXAXCXCXCXCXCXAXAXAXCXfXaX+XaXwXwXyXyXuXsX8X}. X X X X X X X XXXXX.X.X XoXoX'.'.[.{.;X>.z.x.a.t.M.a.",
"B.B.v.<X>X2XVXCXCXmXmXnXAXAXAXAXAXAXAXAXAXAXAXAXAXAXAXAXAXAXAXgXaXyXyXyXyXuXuXuXsX0X X X X X X X XXXXXXX XXXXXoX'.E.=.'.'./.(.U.;Xz.x.M.a.a.",
"x.c.<X2XtXZXDXmXmXmXnXAXAXAXAXAXAXAXAXAXAXnXnXAXAXAXAXAXAXAXnXsXaXyXyXyXyXuXuXuXiX9X.X X X X X X XXXXXoXoXoXoX^.E.~.)._.`._./.(.U.;.>.z.w.a.",
"z.,X1XVXZXSXmXmXnXnXAXAXAXAXAXAXAXAXAXAXAXnXnXAXAXAXAXSXSXAXdXyXyXyXyXyXyXyXuXuXiXuX X X X X X X XXXXXoXoX'.).R.R.).'.`.`.`._.}./.[.U.-Xz.w.",
"6X2XVXCXnXbXmXmXnXnXnXAXAXAXAXAXAXAXAXAXAXnXnXAXAXSXSXSXAXnXsXyXyXyXyXyXyXyXuXuXiXuX.X X X X X XXXXXXX'.'.W.=.Q.~.).'.`.`.`.`. X`.'.[.U.-Xw.",
",X3XgXnXmXmXnXmXmXmXmXnXAXAXAXAXAXAXAXAXAXSXAXAXAXSXSXAXnXdXyXyXyXyXyXyXyXuXuXuXiXuX@X.X.X.X X XoXrXXX^.R.=.=.).).'.'.`. X`.`.`.`.'.).{.W z.",
"2XVXhXbXbXnXnXbXbXmXnXSXAXAXAXAXAXAXAXAXAXnXnXnXnXnXnXnXdXyXyXyXyXyXyXyXyXuXuXuXuXyX9X@XqXqXqXXXrXoX^.R.R.R.~.).'.'.`.`. X`.XXrX`.'.).%.T :.",
"2XNXdXlXlXzXzXbXbXZXZXSXSXAXAXAXAXAXAXAXAXnXnXnXzXzXzXdXyXyXyXyXyXyXyXyXyXyXuXyXuXuXpXpXkXuXxX8XoX^.E.R.R.E.^._.`.`.`.XXXX`.`.XX^.R.%.+.J k.",
"2XNXdXiXlXlXlXbXbXZXZXSXSXAXAXAXAXAXAXAXAXnXnXzXfXdXdXsXyXyXyXyXyXyXyXyXyXyXyXiXuXuXiXkXjXxXxXeX'.R.%.R.~.^._. XXX`.`.`.`.`._.^.R.#.| O.J k.",
"2XNXdXiXlXlXlXlXzXZXZXDXDXDXDXDXDXDXSXSXnXnXdXdXsXsXyXyXyXyXyXyXyXyXyXsXsXsXsXyXyXuXiXxXwXrX^.E.W.Q.Q.=.R.^.`._. XoX`.rX`.'.!.%.#.@.@.#.I k.",
"2XNXlXlXlXzXzXzXzXzXzXDXDXDXAXSXAXAXAXgXsXyXyXdXsXsXsXsXyXyXyXyXyXyXsXaXaXsXsXsXdXlXlX8XoX_.!.W.W.Q.Q.Q.).'._._._.'.^.^.R.#.O.@.@.$.@.@.I :.",
"2XNXlXlXlXzXzXzXzXzXzXfXgXsXwX+X+X+X+X+XyXyXyXyXyXyXyXyXyXyXyXyXyXyXyXsXsXsXsXxXsXwXqX^.^.E.!.E.W.Q.Q.=.R.'.].'.R.%.#.+.+.#.#.$.$. . .@.I :.",
"tXZXjXlXlXzXzXzXzXzXzXfXgXaX+X+X@XOXOXOX+XyXyX0X0X0X0X0XyXyXyXyXyXyXyXsXsXsXxXZXeX`.E.E.E.E.E.W.W.W.W.~.R.%.%.#.#.O.O.#.#.#.@.@. . . .@.I :.",
"tXZXjXlXlXzXzXzXzXzXzXfXfXsX+X+X@X0X0X0X+X0X0X0X9X9X9X0X0X0X0XyXyXyXsXZXZXeXeXE.E.E.E.E.!.!.!.!.W.W.W.W.R.#.O.O.O.} } O.O.} }  . . . .@.I :.",
"tXZXkXjXlXlXzXzXzXzXzXfXfXsX+X+X@X0X0X+X+X0X0X0X9X9X9X9X9X9X0X@X0XsXzXZXeXoX_.E.E.E.E.E.!.!.!.!.W.W.W.W.R.#.O.O.} } } } } } }  . . . .@.I :.",
"1XZXkXbXlXzXzXzXzXfXfXfXfXsX+X+X@X0X0X0X0X0X0X0X9X9X9X9X9X9X9X@XOXyXxXoX].^.E.E.!.!.!.!.!.!.!.!.!.E.E.W.R.O.O.O.O.O.O.O.} } } O.@.@.@.@.I :.",
"1XZXkXlXlXzXzXzXfXfXzXdXdXsX+X+X+X0X0X0X0X0X0X0X9X9X9X9X9X9X9X9X9X9X8XR.R.R.E.E.!.!.!.!.!.!.!.!.!.E.E.W.R.O.} O.O.O.O.O.O.} } O.O.@.@.$.o.:.",
"1XNXiXlXbXlXzXnXzXzXzXnXlXzX0X+X+X@X+X0X0X0X0X0X0X0X0X0X0X0X0X9X9X9X8XE.W.E.E.E.E.E.E.!.!.!.!.!.!.!.!.W.Q.#.O.@.@.@.@.@.@.O.O.O.O.O.O...o.k.",
"1XNXiXdXbXlXlXzXzXzXzXbXlXzX0X+X+X+X@X0X0X0X0X0X0X0X0X0X0X0X0X9X9X9X8XE.E.E.E.E.E.E.E.!.!.!.!.!.!.!.!.W.Q.#.} @.@.@.@.@.@.O.O.O.O.+.O...o.k.",
"1XNXiXdXdXdXdXzXzXzXnXbXlXzXwX+X+X+X@X0X0X0X0X0X0X0X0X0X0X0X0X9X9X9X8XE.E.E.E.!.!.!.E.!.!.!.!.!.!.!.!.W.R.#.O.@.@.@.@.@.@.O.O.O.O.O.O...o.,.",
"1XNXiXdXdXdXdXzXzXzXnXbXdXzXwX+X+X+X@X0X+X+X0X0X0X0X0X9X9X9X9X9X9X9X8XE.E.E.W.!.!.!.E.!.!.!.!.!.!.!.!.W.R.#.} @.@.@.@.@.@.O.O.O.O.O.O. .o.,.",
"1XNXiXdXdXdXdXzXzXzXnXbXbXAXsX8X8X8X0X0X0X0X0X0X0X9X9X9X9X9X9X9X9X9X8XE.R.W.E.!.!.!.!.!.!.!.!.!.!.!.!.W.Q.#.@.@.@.@.@.@. .} O.O.O.O.O.| o.( ",
"1XNXiXdXdXdXdXzXzXzXnXbXbXAXsX8X8X8X0X0X0X0X0X0X0X9X9X9X9X9X9X9X9X9X8XE.R.E.E.!.!.!.!.!.!.!.!.!.!.!.!.W.Q.#.@.@.@.@.@.@. . .} O.O.O.+.O.o.` ",
"1XNXiXdXdXdXdXzXzXzXnXbXbXAXsX8X8X8X0X0X0X0X0X0X9X9X9X9X9X9X9X9X9X9X8XE.E.E.E.!.E.!.!.!.!.!.!.!.!.!.!.W.W.@.@.@.@.@.@.@.@. .} O.O.+.+.+.I ` ",
"1XNXiXdXdXhXhXfXCXCXfXhXhXAXgX#X#X+X+X8X0X8X0X0X0X0X9X9X9X9X9X9X9X9X8XE.E.E.E.!.E.E.!.!.!.!.!.!.!.!.!.!.W.@.@.@.@.@.@.@.@.@. .} | +.+.+.I ` ",
"1XZXiXdXfXhXhXhXgXBXBXgXDXVX%X(.|.#XgXeXeX8X+XOXOX9X9X9X9X9X9X9X9X9X8XE.E.E.E.!.E.E.E.!.!.!.!.!.!.!.!.!.W.@.@.@.@.@.$.$.$. . .} | O.+.&.I c ",
"1XNXiXfXfXhXhXfXBXBXBXBX3X%XP.P.P.Y.|.#XeX+X@XOXOX0X0X9X9X9X9X9X9X9X8XE.E.E.E.!.E.E.E.!.!.!.!.!.!.!.!.!.W.@.@.@.@.@.$.$.$.$. .} } | | I Y c ",
"1XNXaXBXBXfXgXCXBXNXVX%XT.I.L.L.L.P.P.Y.#X+XOXOXOXOXOX9X9X9X9X9X9X9X8XE.E.E.E.E.!.!.!.!.!.!.!.!.!.!.!.!.W.#.@.@.@.$.$.@.@.@.@.O.| | P U H c ",
">XtX%XVXVXVXVXVXVXtX2XT.I.&X&X&XG.D.F.P.Y.#X+X+XOXOXOXOX9X9X9X9X9X9X8XE.E.E.E.!.!.!.!.!.!.!.!.!.!.!.!.!.W.#.@.@.@.$.$.#.#.O.O.+.+.P P G q c ",
";.;XT.T.T.T.T.T.T.T.=X=X=XG.G.&X=X=XI.L.L.U.(.#XOXOXOXOX9X9X9X9X9X9X8XE.E.E.E.!.!.!.!.!.!.!.!.!.!.!.!.!.W.#.@.@.@.$.@.O.#.+.P P G 0 H G q c ",
">.-X*X=XI.I.I.L.L.&X*X*X*X*X*X&X=XI.J.G.G.L.P.Y.$X#X@XOX9X9X9X9X9X9X8XE.E.E.E.!.!.!.!.!.!.!.!.!.!.!.!.!.W.#.@.@.@.@.O.+.P P G J D 5 H D q c ",
"_ ;.*X&XL.L.I.=X=X*X*XH.H.&X&X=X=X=X=XG.G.H.D.L.U.|.$X@X9X9X9X9X9X9X8XE.E.E.E.E.E.E.E.!.!.!.!.!.!.!.!.!.W.#.@.$.$.$...I G D J J D D D D q c ",
"( ` -X;X*X=X=X;X*X[ E E E E W *X=XI.I.J.G.H.H.D.L.U.|.#X+X@X@X9X9X9X8X^.R.R.~.E.E.E.!.!.!.W.W.W.W.~.~.~.~.$.O.P L L L 0 6 5 Y J D D D D 5 t ",
"b ( ` ;.-X;X;X*X*.E ` _ ` ` Q J.J.F.F.F.D.D.G.G.L.L.P.K.|.$X@X8X8XeXeX!.R.R.W.R.R.W.W.!.!.W.Q.[.-.$. .| P 0 0 0 0 0 0 5 6 H J D D D D D q t ",
"A A b _ ;.-X-X-X;X[ ` _ _ [ [ H.J.F.F.F.D.D.D.D.D.&XD.F.P.|.$X#XwXeXeX^.R.~.Q.~.~.Q.Q.).Q.=.$.} | L L K G 0 0 q 6 6 6 5 5 H J D D D F H Y c ",
"V V b ( _ ;.;.;.;._ ( ( _ { :X[ H.G.D.D.G.&X&X&XD.D.D.D.F.P.Y.|.#X+X#X/.R.~.Q.-.-.%.$.} | L L K w w w 0 0 q q q q q 5 5 q H 5 D 5 7 t Y c N ",
"V V b ] ( ( _ ` ( ( b ( ( _ _ [ [ [ [ H.&X*X*X&XL.L.L.D.D.F.P.|.|.#X#X/.~.~.[.-.$.| X.L L L L L L L w q q r r r r q 5 5 H H 5 5 r t N N N Z ",
"A Z V V b b b b n b v x A ) N c ( ( _ [ E R R R W W L.D.D.I.I.P.U.%X%X[.%.| P L K K L L K w 0 0 w e e r t ) ) t r 5 5 H H 5 5 7 c N M A Z S ",
"Z Z Z Z M M N M b M v m Z v x V b C _ ` E E R J T T W T W D.D.L.*.&.&.P P K K K K K U U U w 0 0 9 9 9 N ) ) ) ` t r 5 F 5 5 7 c b A A Z S S ",
"Z Z A N N N N N N N M v n C C C 7.l.:._ [ E Y R T T T T R R E R J G 0 K K K K K K K U U e e 9 o o o 1 l c ) ) ) ) t 7 5 5 7 c b A A A m m m ",
"V V C b b M N M N N n n g ' 7.Z.B.b.x._ 7 7 Y Y Y R R R R R R R J U K K K K w w w e e 9 6 o o X . 4 1   ; a n M ) ) t 7 7 c b A Z A M M M M ",
"C ' l.Z.v.,.v m n b n g 3.q.V.M.M.M.B.C @ ; ; 8 ! ! ! E R R R R J 0 w K K w 0 9 9 o o O O O . # # # # + + @ @ a k M ) y c N M M A A M M m m ",
"7.B.Z.l.] V n v V n ] q.t.N.N.a.a.a.N.7.i > - i ] / ! 8 8 Q E E Y e e 0 0 6 6 o o . . # # # # # # # # # @ @ @ @ 2 a k N M M M M M A M M m m ",
"x.l.7.' C v C n C k.x.B.M.t.t.t.a.a.M.l.i @ & i n.C.u.4.^ f ! ! ! 9 9 o O O O O .     # # # # # # # + @ @ - $ # $ $ , k N M M M M A M m m m ",
"7.' C n v b C ] l.B.B.M.t.t.t.a.N.a.M.l.i & = f 0.p.j.r.r.4.f p d . O X X X X     + + # # # # # # + @ @ @ - $ $ $ $ $ > a n M M M M M m m m ",
"C x v v S S 7.x.B.M.M.t.a.t.a.N.N.N.B.l.i & i i u.p.i.e.e.g.u.<.g % 4 $ $ $ 4 1 $ + + + #   3 2 - # # $ - - - > > > > * * , a k M ) m a u u ",
"s V A v S l.m.M.M.M.M.t.t.a.a.a.s.N.B.m.d & = p u.f.d.e.e.f.p.p.m.u % $ $ 2 2 > $ + + + #   3 z y 3 3 > - - > > > > > > > * * , a j u , , , ",
"s n n A.m.m.m.M.M.M.M.t.t.t.a.a.t.t.t.l.p & & f y.f.r.e.e.i.i.i.C.g & > - > > > $ + + + #   3 c l z y 3 > - > , , , > > > > * > , > * * > , ",
"C ] l.Z.m.B.N.a.a.M.M.t.a.t.t.V.N.q.5.5.p : = h p.i.r.e.e.e.e.j.p.p & < ; > > > $ + + + +   2 l z z y a 3 > - , , > > > > > > * , , * , , > ",
"b.b.b.b.b.b.N.N.N.M.b.t.t.t.q.8.5.<.<.3.p : = 4.p.i.j.e.e.i.i.i.S.g @ : < < > - # +     #   2 z l z z z j 3 3 * * > > > > > * & * * & , & , ",
"t.t.t.t.t.b.b.t.t.b.N.N.q.5.<.<.<.<.3.3.p = = 6.r.i.j.i.d.f.d.i.C.g & : : : < - + +     . X 1 z l z k k z j 3 , * * > > * * > > > * @ * u v ",
"b.b.b.n.b.b.b.b.t.t.q.q.5.~ ^ <.3.3.3.3.p = = 6.p.i.i.i.d.d.d.i.C.g & : : : < > #       . X 1 l l z k k k j j 3 , * * - - - > > , > , j m A ",
"b.b.b.n.b.b.b.Z.b.8.5.<.<.3.3.3.3.3.3.3.p = = 8.r.i.r.i.d.f.d.i.C.g & : : : < > #       . X 1 l l k k k k k j a 3 2 > - - - - @ > 3 a v m m ",
"b.b.b.b.n.b.b.b.b.8.~ <.3.3.3.3.3.3.3.5.p & i u.r.i.i.i.d.f.d.i.C.g @ : : : < > +     . . X   1 3 z k j j j k j a 3 > @ @ > , , 3 j N v m m ",
"b.b.b.b.b.b.b.b.n.8.~ 3.<.~ ^ ~ 3.3.3.3.s & i u.g.i.i.i.d.d.i.i.C.g & : : < < > +   . .       # 4 2 3 u j j j a 3 2 $ * @ @ @ j k N N v m m ",
"b.b.b.b.b.b.b.n.Z.n.8.~ ^ h ^ ~ <.3.3.' p & d u.g.i.i.i.d.d.d.i.C.g & : : : < > +   . .       + $ $ * 2 3 u a 3 2 $ @ @ * 3 k N N m v v m m ",
"b.b.b.b.b.b.b.b.V.4XV.t.5.h f h ~ 3.3.' s = d u.g.i.i.i.d.d.i.i.C.g & : : : < > #   . .       2 2 2 * $ $ > 2 3 2 $ # u j x m n m M M m v v ",
"b.b.b.b.b.b.b.V.V.V.4XV.5Xy.<.f h ~ ~ 7.s & ^ u.9.9.i.e.e.r.g.e.C.g : : : : < > +   . . .     1 1 2 $ $ # $ - > 2 2 3 x x x x m m B m v x x ",
"b.b.b.b.b.b.b.V.V.4XV.V.5X4XV.q.h 3.' ' s i ~ u.9.9.9.h.2.2.2.2.y.f & : : : < > +   . . .     1 1 2 2 2 - $ # 2 3 z k x v x x A x k V ] k.A.",
"b.b.b.b.b.b.b.B.V.V.V.V.V.4X7X4XN.~ ~ ' d i g 6.9.9.9.2.1.1.1.1.y.f & : : : < > #     . .     1 1 2 > > > 2 3 j k k x x x x x Z C A.7.x.B.x.",
"b.b.b.b.b.b.b.t.b.N.N.4XC.C.4XV.7XV.q.' f p f ~ 6.u.u.6.6.1.1.1.N.g & : : : < > #     . .     1 1 2 > % * a j k k k x x x x x ] m.m.N.a.s.M."
};
