/* XPM */
static char *_2a72bb1b292496dfa71e888c30e6c710XlRUKBf48DwvoV4[] = {
/* columns rows colors chars-per-pixel */
"70 70 219 2 ",
"   c #563E17",
".  c #573F18",
"X  c #5B4319",
"o  c #5F481C",
"O  c #634B1D",
"+  c #644A1D",
"@  c #6B531F",
"#  c #67501F",
"$  c #674F20",
"%  c #684F24",
"&  c #6B4F2B",
"*  c #6C5321",
"=  c #6D512E",
"-  c #6F5820",
";  c #715622",
":  c #745B22",
">  c #7B5D25",
",  c #74552D",
"<  c #7D5D2A",
"1  c #75592C",
"2  c #6F4F38",
"3  c #704F3A",
"4  c #6F5034",
"5  c #745433",
"6  c #705039",
"7  c #7A5930",
"8  c #776022",
"9  c #7D6224",
"0  c #7F6028",
"q  c #7F6824",
"w  c #7A6530",
"e  c #845F2D",
"r  c #836426",
"t  c #856B26",
"y  c #896D27",
"u  c #846428",
"i  c #88662A",
"p  c #866928",
"a  c #8B6B29",
"s  c #926E2C",
"d  c #8C7327",
"f  c #8E7328",
"g  c #8F7A29",
"h  c #8E7827",
"j  c #93742B",
"k  c #9B752E",
"l  c #947A2A",
"z  c #9B7B2D",
"x  c #907627",
"c  c #8B6C32",
"v  c #886832",
"b  c #966836",
"n  c #8D7333",
"m  c #897637",
"M  c #947434",
"N  c #9C7631",
"B  c #957B33",
"V  c #9D7C33",
"C  c #957638",
"Z  c #967A3A",
"A  c #9B7C3A",
"S  c #9C753B",
"D  c #A17E2F",
"F  c #A27B32",
"G  c #A17D3A",
"H  c #A67B36",
"J  c #9D7F41",
"K  c #A77942",
"L  c #7F9F3A",
"P  c #7DA53A",
"I  c #7EC63F",
"U  c #7DCF42",
"Y  c #8D872B",
"T  c #9D812E",
"R  c #9E8232",
"E  c #9E823B",
"W  c #9C8738",
"Q  c #889936",
"!  c #8B8E32",
"~  c #A3832E",
"^  c #A8882F",
"/  c #A58332",
"(  c #A98534",
")  c #A68934",
"_  c #AB8B35",
"`  c #A3823B",
"'  c #AA863B",
"]  c #A58A3C",
"[  c #AC8C3A",
"{  c #B08E3C",
"}  c #AE923E",
"|  c #B09037",
" . c #B2923C",
".. c #93A927",
"X. c #89A537",
"o. c #88B93C",
"O. c #94AF27",
"+. c #9FDF1C",
"@. c #9AC51E",
"#. c #9EE01F",
"$. c #A1E116",
"%. c #99DA2B",
"&. c #9AD726",
"*. c #94D537",
"=. c #93CA33",
"-. c #9B8343",
";. c #968443",
":. c #A58542",
">. c #AA8743",
",. c #A58942",
"<. c #AB8B43",
"1. c #AC8D4B",
"2. c #B18E44",
"3. c #A79045",
"4. c #AE9344",
"5. c #AE934B",
"6. c #AB974B",
"7. c #B49543",
"8. c #B69A44",
"9. c #B99945",
"0. c #B5954B",
"q. c #B59C4D",
"w. c #BA9B4C",
"e. c #B8974A",
"r. c #AC9C53",
"t. c #B39451",
"y. c #B59B53",
"u. c #BD9D53",
"i. c #BD9E58",
"p. c #B89754",
"a. c #AA8755",
"s. c #B6A34E",
"d. c #BCA34D",
"f. c #BAA74C",
"g. c #BDA452",
"h. c #BEAA54",
"j. c #BDA35A",
"k. c #BBA857",
"l. c #B79A67",
"z. c #B4956B",
"x. c #BDA963",
"c. c #BBA965",
"v. c #BCA373",
"b. c #C1A24E",
"n. c #C0A84F",
"m. c #C8AC4F",
"M. c #C3A354",
"N. c #C3AB55",
"B. c #C9AB56",
"V. c #C2A45B",
"C. c #C4AC5B",
"Z. c #CAAD5B",
"A. c #C6B257",
"S. c #C8B157",
"D. c #C5B35B",
"F. c #CAB35C",
"G. c #CAB95E",
"H. c #C3B854",
"J. c #D3B45D",
"K. c #D6B95D",
"L. c #C4AC63",
"P. c #CBAE63",
"I. c #C6AD6A",
"U. c #C9AE69",
"Y. c #C2A760",
"T. c #C3B162",
"R. c #CCB463",
"E. c #CDBA63",
"W. c #C4B16A",
"Q. c #CEB46A",
"!. c #CDBA6B",
"~. c #C7BA60",
"^. c #D0B466",
"/. c #D4BA63",
"(. c #DBBC64",
"). c #D1B66C",
"_. c #D1BA6D",
"`. c #C4AB7B",
"'. c #CBB373",
"]. c #CDBA73",
"[. c #CDB67C",
"{. c #CFBB7A",
"}. c #D4BC73",
"|. c #D2BD7C",
" X c #D6BB75",
".X c #8DD041",
"XX c #CDC65D",
"oX c #D3C25F",
"OX c #D5C562",
"+X c #DDC366",
"@X c #DDC56A",
"#X c #DECB6D",
"$X c #D6C765",
"%X c #D4C274",
"&X c #DAC277",
"*X c #D4C27D",
"=X c #DAC179",
"-X c #DBC97C",
";X c #E0C068",
":X c #E1C36A",
">X c #E0CD6E",
",X c #E0C97D",
"<X c #CDB782",
"1X c #D2BD84",
"2X c #D5C484",
"3X c #D9C384",
"4X c #D6C389",
"5X c #D9C58C",
"6X c #DACB8B",
"7X c #D9C984",
"8X c #D9C691",
"9X c #DBCB92",
"0X c #DECE9C",
"qX c #DBD092",
"wX c #DED39A",
"eX c #E1CB82",
"rX c #E0CD94",
"tX c #E0D09F",
"yX c #E0D0A0",
/* pixels */
";X;X;X;X;X;X;X(.(.(.(.(././.OXOXOXXXXXXXXXH.f.6.,.A C C C C Z C Z Z C Z Z Z Z C C M c c c i i i v n ! X.o.=.*.%.%.#.+.&.%.*.*.*.*.%.&.+.$.$.",
"(.(.(.(.+X@X:X:X:X;X+X(./.F.A.h.g.s.s.g.g.s.q.4.,.` ` ` ` ` ` :.:.<.1.1.1.1.1.1.<.,.` E A B M M n n m ! Q Q X.X.....O.O.@.=.%.%.%.%.%.%.%.%.",
"K.(.(.(.@X#X#X#X#X@X+X/.Z.M.0.,.E E -.:.1.1.5.5.0.0.0.0.0.0.0.y.u.V.V.V.V.Z.V.V.V.g.w.8.7.} [ ] ` E A C C M c c c c f Y ..O.@.&.&.*.*.*..X.X",
"K.K.(.(.@X>X>X#X/.Z.d.7.<.<.:.:.:.,.1.5.t.y.j.j.x.L.W.W.W.W.L.L.V.g.g.d.d.d.d.d.d.d.d.8.8.w.w.u.u.u.i.u.u.p.0.1.:.A B B l g Y Y Q X.o.I U U ",
"(.(.(.(./.J.F.N.d.7.[ ` ` ' ,.1.5.y.u.j.k.C.L.T.T.T.T.T.T.L.C.C.N.h.d.d.d.d.d.d.d.d.d.d.d.n.g.g.M.M.V.V.V.V.V.g.q.5.3.,.A C C n m ! Q L P P ",
";X;X(.J.M.e.<.` ` ` ` ' [ 4.0.y.j.V.T.R.E.E.F.D.h.d.d.d.d.d.d.g.N.N.Z.F.F.F.F.F.F.F.F.F.N.N.d.w.7.7.7.e.w.d.M.M.N.h.h.g.q.<.:.A C M n c v v ",
":X;X(.J.M.7.' G G ` ' <.0.u.V.U.!.}.}.}._.!.R.F.Z.N.N.Z.F.R.Q.!._._._._._.).^.E.^.^.E.E.R.F.Z.N.M.d.w.e.8.8.e.d.N.N.C.h.y.5.,.E C M c v i i ",
"Z.Z.B.M.w.7.<.,.<.<.7.0.u.C.Q.}. X X}.Q.R.R.R.R.R.R.E._.}.&X=X X X}._.Q.E.R.R.F.R.R.E.E.^.E.E.F.F.N.M.d.e.8.7.e.w.d.g.g.s.q.5.3.,.E C M n c ",
"` ` ' ,.<.5.5.q.0.q.d.g.N.R.).}. X_.R.N.g.g.N.R.!. X=X=X=X X}._.R.Z.g.d.d.d.d.d.h.N.F.E.E.E.E.F.F.Z.N.M.M.d.w.e.7.7.7.8.d.g.h.g.s.6.3.,.E E ",
"V V E ` <.5.y.y.s.d.d.d.N.T.!.|.=X}.!.F.N.Z.R.}.7X6X6X*X].R.Z.N.N.N.n.n.n.n.n.N.N.N.A.D.F.E.!._._._.!.R.F.N.M.g.u.q.q.u.g.N.C.D.N.h.g.s.s.s.",
"V ` ` ,.5.y.j.j.k.g.g.g.N.R.{.2X6X7X%X!.R.R._.7XqXwX9X2X!.C.g.g.N.F.E.!.!.!.E.R.R.F.F.F.R.E.).}.&X&X}.).R.F.Z.N.g.j.j.j.g.M.N.N.N.N.N.h.h.h.",
"V V ' 1.y.x.W.!.!.R.D.F.R.}.7X9XqX6X*X!.R.R.!.*X6XwXqX7X}.R.F.R.}.7X6XqXqX6X7X*X=X}.}._.!.Q.).^.^.^.R.F.F.F.Z.N.k.j.j.u.u.w.w.e.w.w.w.y.y.y.",
"V A ` <.q.k.T.E.~.G.D.D.G.E.%X%X%X%X!.F.Z.F.!.*X8XwXwX0X8X3X2X|.{.].'.'.].!.!.!.!.E.E.R.R.P.F.F.F.F.F.E.^.).Q.R.L.C.V.M.g.g.g.d.g.u.y.t.t.t.",
"G ` ` [ 4.s.h.D.D.~.E.E.E.G.F.D.D.D.Z.Z.R.Q.].|.4X8X9X0XtXyX0X8X1X'.L.V.V.C.F.E.E.F.F.Z.Z.Z.F.F.G.G.E.!._._.).Q.R.Z.Z.F.F.F.F.D.C.j.y.t.1.1.",
"/ / ) [ [ 7.0.j.I.{.2X5X4X{.W.j.j.Y.W.|.4X5X2X|.!.!.!.{.4X9X0X0X0X0X8X8X6X6XeXeX,X-X&X X}.}.}.}.}._.Q.P.V.V.g.M.N.A.D.G./._._._.U.j.t.1.1.:.",
"^ ^ _ [  .7.y.V.U.{.2X5X3X|.U.V.V.V.P.'.|.|.2X*X*X*X|.|.|.|.|.|.|.[.[.[.|. X X X X&X=X=X=X&X&X%X_.!.R.C.V.M.u.g.g.g.N.D.!.}. X XU.j.0.<.:.` ",
"^ ^ _ [ 7.e.u.V.L.Q.).}.}._.Q.R.P.Z.Z.Z.Z.P.).|.4X5X5X2X XQ.P.C.V.V.j.j.V.V.C.Z.P.^.).}.}._.).E.F.D.S.S.Z.B.M.M.g.u.u.V.L.Q.).Q.C.y.<.' G V ",
"^ ^ _ [ 7.e.u.V.V.V.C.L.W.].|.4X5X5X3X|.}.).Q.U.L.L.I.'.|.2X5X8X8X8X5X4X2X|.|.}._.).R.P.Z.Z.Z.B.Z.Z.B.S.S.S.A.A.A.A.N.N.N.d.w.8.7.[ / F F N ",
"_ _ [  .7.w.u.u.u.w.q.s.j.W.{.4X9XrXrXrX6X3X|.Q.F.Z.Z.R.].*X2X2X2X1X1X|.|.}.}._._.).^.^.R.R.Z.Z.Z.F.F.R.E.E.E.E.D.C.h.d.8.{ ) ( / / / / / / ",
"[ | |  .9.w.u.u.w.7.7. .8.d.C.Q. X3X5X8X9X8X6X-X@X$XOXoXoXE.E.D.C.V.j.j.k.N.Z.F.R.E.)._._._.E.F.D.D.F.E._._.Q.L.j.p.0.<.' ` H F / / ) _ _ [ ",
"[ | | 7.9.w.M.M.M.w.9. . .8.9.9.w.g.j.c.c.c.W.!.}.%X&X-X7X7X6X6X5X4X4X1X<X`.v.v.l.l.i.u.d.d.w.u.u.y.y.0.0.2.<.>.' ` ` ` ( ( ( ( / V z j j j ",
"_ [ [  .9.w.M.M.M.b.9.9.9. . .7.7.7.7.5.6.y.j.j.L.R.).}.|.|.1X1X1X1X<X[.`.v.z.z.a.a.>.' ' ' ' <.>.>.>.' ` / F F F F F F / ( ( ( F j a p p p ",
"^ _ _ { 7.w.u.u.u.w.9.9.9.9.w.u.u.u.i.i.i.u.u.w.w.9.9.9.9.9.9.7.7.<.<.' ` G G F G G G ` ` ` G G F H ( [ {  .{ [ ( F F F F F F N k j a p p p ",
"_ [ [  .7.w.u.u.w.e.7. .7.9.w.u.M.V.i.u.u.y.y.w.w.e.9.9.9.9. .| [ ) / / z l l l z R ( ' [ ' ( H F F F F ( ( / F N j j j k z D ~ z z x f f f ",
"[ | | 7.9.w.M.M.w.e.7. . .7.w.u.u.u.u.y.w.e.e.e.e.e.7.7.7. . .{ _ ) / ~ z z l l z R _  . . .[ ( F F k k k k k j a p a s j z ~ ~ ~ z l l l h ",
"[ | | 7.9.b.M.M.M.b.9.9.9.e.w.u.u.u.w.e.9. . .| [ [ ( ( / F F F F F F z z l l l z R _  . . .[ ( F z k k l x x f a p p a j k k z z z l l l h ",
"[ | | 7.9.b.M.M.M.w.9. .7.9.w.u.u.u.w.9. .| | | [ [ _ / z z z z V / / / / z l l l T ) [ | { _ ( F k k j j a a y p p p p p a a a a a a a a f ",
"| | |  .9.b.M.M.b.9. .|  .7.w.u.u.u.e.7.| [ [ [ [ [ ) / z l l l T / ) _ ) T l l l T / _ [ [ ( / N k j j a a p p u u u u u u u u u u u i p p ",
"| | | 7.9.b.M.M.b.9. .|  .7.w.u.u.w.e. .[ ) / ( ( ` V B j a a j z ~ / / ~ T l l l T / _ [ ) / T l l x x x f f a p u u u u u u u u u p p p p ",
"_ [ [  .9.b.M.M.M.M.w.e.e.w.u.M.u.w.7.[ ) / / / / / V z j a p a j z D D z z l l l z / / / F z j f a f x l l l j p u u u u u u p p r 9 9 9 9 ",
"^ _ _ [ 7.w.M.M.V.M.M.u.u.u.V.V.u.w.7. .[ _ _ _ _ ^ ~ z j a p a s k N N z l x x x l z z k k s p u u i s j k j s a u u u u i p p r 9 : : : : ",
"^ ^ _ [ 7.w.u.M.u.w.9.7.7.e.w.u.u.u.w.9.7.| | [ _ _ ~ l a p u p a M V V N j f a a j k k k k j a p u u u u i u u u u i p s j j j s p u 9 > > ",
"_ _ [  .7.w.u.u.w.7. .|  .7.e.w.u.u.w.e.9.7. . .[ ' ` N a p u p s M N N N j a p p s j k k k j s p i p r u u u u p p a j j k k k j a u > > : ",
"| [ | 7.9.w.u.u.w.9.7. . .7.7.0.w.w.e.9.7.7.7.7.<.<.:.A M a a a j k N N N j a a a s k k N k k s a p u u u u u p y d x l z z z k s u 9 : : : ",
"| | | 7.e.w.M.M.M.w.9.7.7.9.w.u.u.y.e.7. .| | [ ' ) ` R l x f j B Z ;.;.J Z C N k F / / ( ( / F k j s p u u u u u p a f j x x x f a p r r 9 ",
"[ | | 7.w.M.B.B.M.b.9.9.9.e.u.u.u.u.e.7.| [ _ _ ( / / R z z z B E ;.-.-.-.E G F / / ( ( ) ( ( F F k j a i u u u u p a d f f f f f f a p p i ",
"[ | | 9.w.M.B.Z.B.b.9.9.9.e.w.u.u.w.7. .) _ / / ` ` ` E V V E E E E E ` ` ( / ( / / F F F F F F F k j a u u u p a f f l l l l f f f a p p p ",
"[ | | 7.w.M.M.M.u.9. .| | 7.e.u.u.w.7. ._ ^ ~ T z z B V V V ` E ` G ` ` ( ) ) ) _ / T z l k z z N k j s i u u p a f l l l l l f f f f f f f ",
"[ | | 7.9.w.u.u.e.7.[ ) [  .e.u.u.u.e.7.[ ) / T z l l V V V ` ` ` ` ` ( ' [ [  .[ ) R z l x l k k k s a i u u u p a f f f x x l x x x f f f ",
"[ | | 7.e.w.u.u.w.7.[ ) [  .9.M.M.M.u.y.0.1.<.' ` E E E E ` ` ` ` / / ) [ 7.7.e.7.<.` z l f f a a p p p p i u u u u u p a j k k k j a p p p ",
"[ | |  .9.w.u.u.w.7.[ ) [  .w.M.M.M.M.w.e.7.<.' ` G V N N V V T T ~ ^ _ [ 7.e.0.0.<.' V z l x j f y p r 9 9 > : : : > 9 p a x l j a p u u u ",
"[ [ |  .7.w.u.y.e.7.[ ) [  .w.M.M.M.M.w.9.7.{ ' / F k j x x x x l z ~ ( [ { 7.7.7.<.` F z k k l x f y q 8 : - @ @ - : 8 t d f x f a u u u e ",
"_ _ ) [ 7.e.e.0.7. .[ ) [  .e.u.M.M.u.u.w.e.2.' / F k s a u u p a j z F / ( ) ) ( V k j a a f x f f y 9 8 : - @ @ - : 9 y l z T z j p u u < ",
"D D / ' <.0.y.w.e.7.[ [ [ 7.e.u.u.u.y.e.7.<.' ( H F k j a a a a j j N F / ( _ _ / z j a p p a f f f y q 8 : - @ @ - : 9 f z ~ ~ z j p u < < ",
"z F F ( <.0.u.u.w.9. . . .7.w.u.u.w.7. .) ( / / F F N z l l l l z V ` ` ` ' _ [ ( F j a p p a f f d y 9 : : - @ @ - : 9 y l T ~ z j p u u < ",
"~ / ( [ 7.w.u.u.w.9.7. . .7.w.u.u.w.7. .) _ ( ` ' :.` A B l l l T / ) ) ) ( / F N k j a p p p p a p r > : - * @ @ - : 8 t d l l x f a p u u ",
"~ / / ) { 7.e.w.e.9.7. . .7.e.e.w.7.7.[ ( / ` ' >.<.:.` V N z z R ( ) ) ( / F F k s a p u u u i u p 9 > : - * @ - - : : 9 t p a a a p p i u ",
"F F F / ' { 7.9.9.9.9. . .9.9.9.7. .[ ( F F G ` :.:.:.` G F N N N G G G G G F F k s a u u u u u u p r > : : - @ @ - : : : > 9 u u u u u u u ",
"k F F H ' 2.7.e.e.7. . . . . . . . .[ / F F F G ` ` ` V V z l z z N N F F F F N k j s p i u u i u p 9 > : - * @ @ * * ; : > > u u u u u u u ",
"F F F / ' 2.e.e.7.7. .| | |  . . .{ _ / F F F F G A A A B l l l l z N F F F F F z k j a p p p p p p 9 : - * $ $ $ $ * * ; : > > > > 0 u u u ",
"k F F H ' {  .7. . .| | | | | | { _ ( / F F V G K J J A B l l l l V V ` / / ( / ~ z l a p p p p p p 9 : ; * * $ $ $ * * - - ; : : > > > u u ",
"k F F H ' 2.7.7.7. .[ [ [ | | | | [ ) R z l N A A A A A B l l l z T / / / _ _ / ~ z l a p i i p p p 9 : ; * * O O O # # @ @ @ @ - ; : : : : ",
"k F F ` >.2.e.e.7. .[ _ [ |  . . .| ) R z l z N G G G V M x x l z ~ / _ _ _ ( / ~ z l a a p p p u r > : - * * % % * * * * % * * * ; : : : : ",
"k F F ( 2.0.y.u.e.7.[ ) [ [ |  . . .[ / F F F H K K K S M s a j z / ) [ _ ( / F z z l x f f a p u > > ; * * * & = 4 4 4 2 2 4 5 5 < u u u p ",
"k F F ` <.0.e.w.e.7. .[ [ [ [ [ [ _ ( F F F H H H ( H F N N k k V / _ _ ( / F F k k j j a a p u u > > ; * * % & = 4 6 6 3 3 6 6 5 7 < u u p ",
"k z N / ' 2.0.e.e.7. .[ _ _ _ _ / / / F F F F ~ / / / ~ D D z D ~ / / / / D z k j s s p p u u u u > > ; - * * & & 4 6 6 3 2 2 6 5 1 < u u r ",
"x l l E ] 0.y.y.0.2.' H F / ^ / ^ ^ F F F F D ~ / / ^ ~ z l l z T ~ ^ ~ z j a i u u u i u u u u u > > ; - * * & & 4 6 6 2 2 6 6 5 < u u u y ",
"f h l R ] 4.e.e.7.' ` z z z ~ ^ ^ ^ / F F F D ~ / / ^ T z l l l T ~ ^ ~ z j p u u r r u u p p p p p 9 : ; * * * , , 5 5 5 = = , , < < u u u ",
"x l l T ( [  . .[ ` T l l z T ^ ^ ^ ~ F F F F ~ / / ~ T z l l l z ~ ^ ~ z j p u u u u p p a f x f d t 9 : * * ; : > > > : - * * - ; > > > > ",
"k z z / ( {  . .[ / T l l z T ~ ^ ^ ~ F F F F / / / ~ z l f a j l T ^ ~ z j p u u i a j k j j j a p u < 7 5 5 7 < < < > : ; * * * * * - - - ",
"F F F / [ {  . .[ ` l x x l z ~ / / / F F D F F / ~ z k s p i a j z D D z j p u u a j z D z k j p u u < 7 , , 1 < < < > : ; * * O O + + o o ",
"k z F / ( {  . .' V j a a x l ~ / / / F F F F F F F k s p u u i a j N N j a u u u a z ~ ~ ~ z j a p r > : : : : > > > > : - * O + X o X X X ",
"x x l z ~ / _ _ / z l x x l z z F F D D D D F F ~ ~ z j p 9 > < i b b b b i < > 9 y l ~ ^ ~ z j a u r r 9 > > > > < > : ; # + o o o + + + O ",
"W W W ) ) ) / ^ T z l x x l k z F F F D D D / / ( ^ T l p 9 > < e v b b v e > : 8 t f z T z l x f a p u u u u u u u > > * + X X X o o + O O ",
"h.h.h.d.8. ._ ^ z l j a a s j k z F F / / ( _ _ _ / ~ z a u u u u u p u r > : : : 9 y d l l l l x f d p u u u u u u r > ; O o X X X X X X X ",
"(./.J.Z.n.8.[ ^ z l x f f f x l l z / ) ) [ [ _ _ / ~ z a u u u p y y y t q : : : : 9 p a f f x l f f a u u u u u u r > : ; @ O O o X X     ",
":X+X(.J.m.9.| ) ~ z l l l x x l l z R / ( _ _ _ _ ^ ~ z j p u u y d f f y q 8 : : : 9 r u p y y y y p r 9 9 > > > > > : : ; @ @ O o X .     ",
"$X$XoXK.m.d. .[ / T l l l l j z z N F F F F / / ^ ^ ~ z j a p p d f f f y q 8 : : : 9 p p p r 8 : : : : : : : - - * * O + + o X X X X X X X ",
"+X+X+X(.K.J.Z.b.9.[ R l x f j j j j k k k F F F F F z j a r 9 r p d f f y 9 8 : : 8 r y y p 9 : - @ O O O + O O O o o X X X X X $ 1 w v m m ",
";X;X;X;X;X;X;X/.B.8.] z f y y y p a s k k F F F F k j a r : : : q y f f y 9 : : : q y d f y 9 : - O + o X X X . . X .       X + 1 m ;.3.r.r."
};
